%TF.GenerationSoftware,KiCad,Pcbnew,(5.1.9-0-10_14)*%
%TF.CreationDate,2021-08-10T16:32:06-04:00*%
%TF.ProjectId,led-tester,6c65642d-7465-4737-9465-722e6b696361,v1*%
%TF.SameCoordinates,Original*%
%TF.FileFunction,Copper,L1,Top*%
%TF.FilePolarity,Positive*%
%FSLAX46Y46*%
G04 Gerber Fmt 4.6, Leading zero omitted, Abs format (unit mm)*
G04 Created by KiCad (PCBNEW (5.1.9-0-10_14)) date 2021-08-10 16:32:06*
%MOMM*%
%LPD*%
G01*
G04 APERTURE LIST*
%TA.AperFunction,ComponentPad*%
%ADD10C,3.000000*%
%TD*%
%TA.AperFunction,ComponentPad*%
%ADD11R,3.000000X3.000000*%
%TD*%
%TA.AperFunction,ComponentPad*%
%ADD12C,1.600000*%
%TD*%
%TA.AperFunction,ComponentPad*%
%ADD13O,1.600000X1.600000*%
%TD*%
%TA.AperFunction,ComponentPad*%
%ADD14C,0.800000*%
%TD*%
%TA.AperFunction,ComponentPad*%
%ADD15C,6.400000*%
%TD*%
%TA.AperFunction,ComponentPad*%
%ADD16R,1.800000X1.800000*%
%TD*%
%TA.AperFunction,ComponentPad*%
%ADD17C,1.800000*%
%TD*%
%TA.AperFunction,ComponentPad*%
%ADD18R,2.200000X2.200000*%
%TD*%
%TA.AperFunction,ComponentPad*%
%ADD19O,2.200000X2.200000*%
%TD*%
%TA.AperFunction,ComponentPad*%
%ADD20R,3.500000X3.500000*%
%TD*%
%TA.AperFunction,ComponentPad*%
%ADD21O,2.923750X1.653750*%
%TD*%
%TA.AperFunction,Conductor*%
%ADD22C,0.762000*%
%TD*%
%TA.AperFunction,Conductor*%
%ADD23C,0.381000*%
%TD*%
%TA.AperFunction,Conductor*%
%ADD24C,0.254000*%
%TD*%
%TA.AperFunction,Conductor*%
%ADD25C,0.100000*%
%TD*%
G04 APERTURE END LIST*
D10*
%TO.P,BT1,2*%
%TO.N,GND*%
X116078000Y-95631000D03*
D11*
%TO.P,BT1,1*%
%TO.N,Net-(BT1-Pad1)*%
X116078000Y-82931000D03*
%TD*%
D12*
%TO.P,R7,1*%
%TO.N,Net-(D7-Pad2)*%
X131318000Y-111125000D03*
D13*
%TO.P,R7,2*%
%TO.N,VCC*%
X138938000Y-111125000D03*
%TD*%
D14*
%TO.P,H4,1*%
%TO.N,GND*%
X167432056Y-139653944D03*
X165735000Y-138951000D03*
X164037944Y-139653944D03*
X163335000Y-141351000D03*
X164037944Y-143048056D03*
X165735000Y-143751000D03*
X167432056Y-143048056D03*
X168135000Y-141351000D03*
D15*
X165735000Y-141351000D03*
%TD*%
D14*
%TO.P,H3,1*%
%TO.N,GND*%
X167432056Y-61548944D03*
X165735000Y-60846000D03*
X164037944Y-61548944D03*
X163335000Y-63246000D03*
X164037944Y-64943056D03*
X165735000Y-65646000D03*
X167432056Y-64943056D03*
X168135000Y-63246000D03*
D15*
X165735000Y-63246000D03*
%TD*%
D14*
%TO.P,H2,1*%
%TO.N,GND*%
X116378056Y-139653944D03*
X114681000Y-138951000D03*
X112983944Y-139653944D03*
X112281000Y-141351000D03*
X112983944Y-143048056D03*
X114681000Y-143751000D03*
X116378056Y-143048056D03*
X117081000Y-141351000D03*
D15*
X114681000Y-141351000D03*
%TD*%
D14*
%TO.P,H1,1*%
%TO.N,GND*%
X116378056Y-61548944D03*
X114681000Y-60846000D03*
X112983944Y-61548944D03*
X112281000Y-63246000D03*
X112983944Y-64943056D03*
X114681000Y-65646000D03*
X116378056Y-64943056D03*
X117081000Y-63246000D03*
D15*
X114681000Y-63246000D03*
%TD*%
D16*
%TO.P,D1,1*%
%TO.N,GND*%
X129286000Y-142367000D03*
D17*
%TO.P,D1,2*%
%TO.N,Net-(D1-Pad2)*%
X131826000Y-142367000D03*
%TD*%
D16*
%TO.P,D2,1*%
%TO.N,GND*%
X129286000Y-136271000D03*
D17*
%TO.P,D2,2*%
%TO.N,Net-(D2-Pad2)*%
X131826000Y-136271000D03*
%TD*%
%TO.P,D3,2*%
%TO.N,Net-(D3-Pad2)*%
X131826000Y-130175000D03*
D16*
%TO.P,D3,1*%
%TO.N,GND*%
X129286000Y-130175000D03*
%TD*%
%TO.P,D4,1*%
%TO.N,GND*%
X129286000Y-124079000D03*
D17*
%TO.P,D4,2*%
%TO.N,Net-(D4-Pad2)*%
X131826000Y-124079000D03*
%TD*%
D16*
%TO.P,D5,1*%
%TO.N,GND*%
X135763000Y-142367000D03*
D17*
%TO.P,D5,2*%
%TO.N,Net-(D5-Pad2)*%
X138303000Y-142367000D03*
%TD*%
D16*
%TO.P,D6,1*%
%TO.N,GND*%
X135763000Y-136271000D03*
D17*
%TO.P,D6,2*%
%TO.N,Net-(D6-Pad2)*%
X138303000Y-136271000D03*
%TD*%
%TO.P,D7,2*%
%TO.N,Net-(D7-Pad2)*%
X138303000Y-130175000D03*
D16*
%TO.P,D7,1*%
%TO.N,GND*%
X135763000Y-130175000D03*
%TD*%
%TO.P,D8,1*%
%TO.N,GND*%
X135763000Y-124079000D03*
D17*
%TO.P,D8,2*%
%TO.N,Net-(D8-Pad2)*%
X138303000Y-124079000D03*
%TD*%
%TO.P,D9,2*%
%TO.N,Net-(D9-Pad2)*%
X144780000Y-142367000D03*
D16*
%TO.P,D9,1*%
%TO.N,GND*%
X142240000Y-142367000D03*
%TD*%
D17*
%TO.P,D10,2*%
%TO.N,Net-(D10-Pad2)*%
X144780000Y-136271000D03*
D16*
%TO.P,D10,1*%
%TO.N,GND*%
X142240000Y-136271000D03*
%TD*%
D17*
%TO.P,D11,2*%
%TO.N,Net-(D11-Pad2)*%
X144780000Y-130175000D03*
D16*
%TO.P,D11,1*%
%TO.N,GND*%
X142240000Y-130175000D03*
%TD*%
D17*
%TO.P,D12,2*%
%TO.N,Net-(D12-Pad2)*%
X144780000Y-124079000D03*
D16*
%TO.P,D12,1*%
%TO.N,GND*%
X142240000Y-124079000D03*
%TD*%
%TO.P,D13,1*%
%TO.N,GND*%
X148717000Y-142367000D03*
D17*
%TO.P,D13,2*%
%TO.N,Net-(D13-Pad2)*%
X151257000Y-142367000D03*
%TD*%
D16*
%TO.P,D14,1*%
%TO.N,GND*%
X148717000Y-136271000D03*
D17*
%TO.P,D14,2*%
%TO.N,Net-(D14-Pad2)*%
X151257000Y-136271000D03*
%TD*%
%TO.P,D15,2*%
%TO.N,Net-(D15-Pad2)*%
X151257000Y-130175000D03*
D16*
%TO.P,D15,1*%
%TO.N,GND*%
X148717000Y-130175000D03*
%TD*%
%TO.P,D16,1*%
%TO.N,GND*%
X148717000Y-124079000D03*
D17*
%TO.P,D16,2*%
%TO.N,Net-(D16-Pad2)*%
X151257000Y-124079000D03*
%TD*%
D18*
%TO.P,D17,1*%
%TO.N,Net-(D17-Pad1)*%
X118110000Y-116713000D03*
D19*
%TO.P,D17,2*%
%TO.N,Net-(D17-Pad2)*%
X118110000Y-109093000D03*
%TD*%
%TO.P,J1,3*%
%TO.N,Net-(BT1-Pad1)*%
%TA.AperFunction,ComponentPad*%
G36*
G01*
X130226000Y-61481000D02*
X130226000Y-63231000D01*
G75*
G02*
X129351000Y-64106000I-875000J0D01*
G01*
X127601000Y-64106000D01*
G75*
G02*
X126726000Y-63231000I0J875000D01*
G01*
X126726000Y-61481000D01*
G75*
G02*
X127601000Y-60606000I875000J0D01*
G01*
X129351000Y-60606000D01*
G75*
G02*
X130226000Y-61481000I0J-875000D01*
G01*
G37*
%TD.AperFunction*%
%TO.P,J1,2*%
%TO.N,Net-(D17-Pad2)*%
%TA.AperFunction,ComponentPad*%
G36*
G01*
X132976000Y-66056000D02*
X132976000Y-68056000D01*
G75*
G02*
X132226000Y-68806000I-750000J0D01*
G01*
X130726000Y-68806000D01*
G75*
G02*
X129976000Y-68056000I0J750000D01*
G01*
X129976000Y-66056000D01*
G75*
G02*
X130726000Y-65306000I750000J0D01*
G01*
X132226000Y-65306000D01*
G75*
G02*
X132976000Y-66056000I0J-750000D01*
G01*
G37*
%TD.AperFunction*%
D20*
%TO.P,J1,1*%
%TO.N,GND*%
X125476000Y-67056000D03*
%TD*%
D12*
%TO.P,R1,1*%
%TO.N,Net-(D1-Pad2)*%
X121158000Y-117983000D03*
D13*
%TO.P,R1,2*%
%TO.N,VCC*%
X128778000Y-117983000D03*
%TD*%
D12*
%TO.P,R2,1*%
%TO.N,Net-(D2-Pad2)*%
X121158000Y-114554000D03*
D13*
%TO.P,R2,2*%
%TO.N,VCC*%
X128778000Y-114554000D03*
%TD*%
%TO.P,R3,2*%
%TO.N,VCC*%
X128778000Y-111125000D03*
D12*
%TO.P,R3,1*%
%TO.N,Net-(D3-Pad2)*%
X121158000Y-111125000D03*
%TD*%
%TO.P,R4,1*%
%TO.N,Net-(D4-Pad2)*%
X121158000Y-107696000D03*
D13*
%TO.P,R4,2*%
%TO.N,VCC*%
X128778000Y-107696000D03*
%TD*%
D12*
%TO.P,R5,1*%
%TO.N,Net-(D5-Pad2)*%
X131318000Y-117983000D03*
D13*
%TO.P,R5,2*%
%TO.N,VCC*%
X138938000Y-117983000D03*
%TD*%
%TO.P,R6,2*%
%TO.N,VCC*%
X138938000Y-114554000D03*
D12*
%TO.P,R6,1*%
%TO.N,Net-(D6-Pad2)*%
X131318000Y-114554000D03*
%TD*%
D13*
%TO.P,R8,2*%
%TO.N,VCC*%
X138938000Y-107696000D03*
D12*
%TO.P,R8,1*%
%TO.N,Net-(D8-Pad2)*%
X131318000Y-107696000D03*
%TD*%
D13*
%TO.P,R9,2*%
%TO.N,VCC*%
X149098000Y-117983000D03*
D12*
%TO.P,R9,1*%
%TO.N,Net-(D9-Pad2)*%
X141478000Y-117983000D03*
%TD*%
D13*
%TO.P,R10,2*%
%TO.N,VCC*%
X149098000Y-114554000D03*
D12*
%TO.P,R10,1*%
%TO.N,Net-(D10-Pad2)*%
X141478000Y-114554000D03*
%TD*%
D13*
%TO.P,R11,2*%
%TO.N,VCC*%
X149098000Y-111125000D03*
D12*
%TO.P,R11,1*%
%TO.N,Net-(D11-Pad2)*%
X141478000Y-111125000D03*
%TD*%
D13*
%TO.P,R12,2*%
%TO.N,VCC*%
X149098000Y-107696000D03*
D12*
%TO.P,R12,1*%
%TO.N,Net-(D12-Pad2)*%
X141478000Y-107696000D03*
%TD*%
%TO.P,R13,1*%
%TO.N,Net-(D13-Pad2)*%
X151638000Y-117983000D03*
D13*
%TO.P,R13,2*%
%TO.N,VCC*%
X159258000Y-117983000D03*
%TD*%
%TO.P,R14,2*%
%TO.N,VCC*%
X159258000Y-114554000D03*
D12*
%TO.P,R14,1*%
%TO.N,Net-(D14-Pad2)*%
X151638000Y-114554000D03*
%TD*%
%TO.P,R15,1*%
%TO.N,Net-(D15-Pad2)*%
X151638000Y-111125000D03*
D13*
%TO.P,R15,2*%
%TO.N,VCC*%
X159258000Y-111125000D03*
%TD*%
D12*
%TO.P,R16,1*%
%TO.N,Net-(D16-Pad2)*%
X151638000Y-107696000D03*
D13*
%TO.P,R16,2*%
%TO.N,VCC*%
X159258000Y-107696000D03*
%TD*%
D21*
%TO.P,SW1,1*%
%TO.N,VCC*%
X164211000Y-117475000D03*
%TO.P,SW1,2*%
%TO.N,Net-(D17-Pad1)*%
X164211000Y-112775000D03*
%TO.P,SW1,3*%
%TO.N,GND*%
X164211000Y-108075000D03*
%TD*%
D22*
%TO.N,Net-(BT1-Pad1)*%
X128476000Y-70533000D02*
X116078000Y-82931000D01*
X128476000Y-62356000D02*
X128476000Y-70533000D01*
D23*
%TO.N,Net-(D1-Pad2)*%
X121158000Y-131699000D02*
X131826000Y-142367000D01*
X121158000Y-117983000D02*
X121158000Y-131699000D01*
%TO.N,Net-(D2-Pad2)*%
X122300901Y-126745901D02*
X131826000Y-136271000D01*
X122300901Y-115696901D02*
X122300901Y-126745901D01*
X121158000Y-114554000D02*
X122300901Y-115696901D01*
%TO.N,Net-(D3-Pad2)*%
X122834311Y-121183311D02*
X131826000Y-130175000D01*
X122834311Y-112801311D02*
X122834311Y-121183311D01*
X121158000Y-111125000D02*
X122834311Y-112801311D01*
%TO.N,Net-(D4-Pad2)*%
X123367721Y-115620721D02*
X131826000Y-124079000D01*
X123367721Y-109905721D02*
X123367721Y-115620721D01*
X121158000Y-107696000D02*
X123367721Y-109905721D01*
%TO.N,Net-(D5-Pad2)*%
X133068901Y-137132901D02*
X138303000Y-142367000D01*
X133068901Y-119733901D02*
X133068901Y-137132901D01*
X131318000Y-117983000D02*
X133068901Y-119733901D01*
%TO.N,Net-(D6-Pad2)*%
X133602311Y-131570311D02*
X138303000Y-136271000D01*
X133602311Y-116838311D02*
X133602311Y-131570311D01*
X131318000Y-114554000D02*
X133602311Y-116838311D01*
%TO.N,Net-(D7-Pad2)*%
X137060099Y-116867099D02*
X137060099Y-128932099D01*
X137060099Y-128932099D02*
X138303000Y-130175000D01*
X131318000Y-111125000D02*
X137060099Y-116867099D01*
%TO.N,Net-(D8-Pad2)*%
X137795099Y-123571099D02*
X138303000Y-124079000D01*
X137795099Y-114173099D02*
X137795099Y-123571099D01*
X131318000Y-107696000D02*
X137795099Y-114173099D01*
%TO.N,Net-(D9-Pad2)*%
X140678001Y-138265001D02*
X144780000Y-142367000D01*
X140678001Y-118782999D02*
X140678001Y-138265001D01*
X141478000Y-117983000D02*
X140678001Y-118782999D01*
%TO.N,Net-(D10-Pad2)*%
X143537099Y-135028099D02*
X144780000Y-136271000D01*
X143537099Y-116613099D02*
X143537099Y-135028099D01*
X141478000Y-114554000D02*
X143537099Y-116613099D01*
%TO.N,Net-(D11-Pad2)*%
X146022901Y-115669901D02*
X146022901Y-128932099D01*
X146022901Y-128932099D02*
X144780000Y-130175000D01*
X141478000Y-111125000D02*
X146022901Y-115669901D01*
%TO.N,Net-(D12-Pad2)*%
X144780000Y-116164506D02*
X144780000Y-124079000D01*
X140335099Y-108838901D02*
X140335099Y-111719605D01*
X140335099Y-111719605D02*
X144780000Y-116164506D01*
X141478000Y-107696000D02*
X140335099Y-108838901D01*
%TO.N,Net-(D15-Pad2)*%
X152780901Y-128651099D02*
X151257000Y-130175000D01*
X152780901Y-112267901D02*
X152780901Y-128651099D01*
X151638000Y-111125000D02*
X152780901Y-112267901D01*
%TO.N,Net-(D16-Pad2)*%
X150495099Y-123317099D02*
X151257000Y-124079000D01*
X150495099Y-108838901D02*
X150495099Y-123317099D01*
X151638000Y-107696000D02*
X150495099Y-108838901D01*
D22*
%TO.N,Net-(D17-Pad2)*%
X118110000Y-106535566D02*
X118110000Y-109093000D01*
X131476000Y-93169566D02*
X118110000Y-106535566D01*
X131476000Y-67056000D02*
X131476000Y-93169566D01*
D23*
%TO.N,VCC*%
X159258000Y-117983000D02*
X159258000Y-114554000D01*
X159258000Y-114554000D02*
X159258000Y-111125000D01*
X159258000Y-111125000D02*
X159258000Y-107696000D01*
X150240901Y-106553099D02*
X149098000Y-107696000D01*
X158115099Y-106553099D02*
X150240901Y-106553099D01*
X159258000Y-107696000D02*
X158115099Y-106553099D01*
X149098000Y-107696000D02*
X149098000Y-111125000D01*
X149098000Y-111125000D02*
X149098000Y-114554000D01*
X149098000Y-114554000D02*
X149098000Y-117983000D01*
X138938000Y-117983000D02*
X138938000Y-114554000D01*
X138938000Y-114554000D02*
X138938000Y-111125000D01*
X138938000Y-111125000D02*
X138938000Y-107696000D01*
X137795099Y-106553099D02*
X129920901Y-106553099D01*
X129920901Y-106553099D02*
X128778000Y-107696000D01*
X138938000Y-107696000D02*
X137795099Y-106553099D01*
X128778000Y-107696000D02*
X128778000Y-111125000D01*
X128778000Y-111125000D02*
X128778000Y-114554000D01*
X128778000Y-114554000D02*
X128778000Y-117983000D01*
X163703000Y-117983000D02*
X164211000Y-117475000D01*
X159258000Y-117983000D02*
X163703000Y-117983000D01*
%TD*%
D24*
%TO.N,GND*%
X169647001Y-145263000D02*
X110769000Y-145263000D01*
X110769000Y-144051881D01*
X112159724Y-144051881D01*
X112519912Y-144541548D01*
X113183882Y-144901849D01*
X113905385Y-145125694D01*
X114656695Y-145204480D01*
X115408938Y-145135178D01*
X116133208Y-144920452D01*
X116801670Y-144568555D01*
X116842088Y-144541548D01*
X117202276Y-144051881D01*
X163213724Y-144051881D01*
X163573912Y-144541548D01*
X164237882Y-144901849D01*
X164959385Y-145125694D01*
X165710695Y-145204480D01*
X166462938Y-145135178D01*
X167187208Y-144920452D01*
X167855670Y-144568555D01*
X167896088Y-144541548D01*
X168256276Y-144051881D01*
X165735000Y-141530605D01*
X163213724Y-144051881D01*
X117202276Y-144051881D01*
X114681000Y-141530605D01*
X112159724Y-144051881D01*
X110769000Y-144051881D01*
X110769000Y-141326695D01*
X110827520Y-141326695D01*
X110896822Y-142078938D01*
X111111548Y-142803208D01*
X111463445Y-143471670D01*
X111490452Y-143512088D01*
X111980119Y-143872276D01*
X114501395Y-141351000D01*
X114860605Y-141351000D01*
X117381881Y-143872276D01*
X117871548Y-143512088D01*
X118004544Y-143267000D01*
X127747928Y-143267000D01*
X127760188Y-143391482D01*
X127796498Y-143511180D01*
X127855463Y-143621494D01*
X127934815Y-143718185D01*
X128031506Y-143797537D01*
X128141820Y-143856502D01*
X128261518Y-143892812D01*
X128386000Y-143905072D01*
X129000250Y-143902000D01*
X129159000Y-143743250D01*
X129159000Y-142494000D01*
X127909750Y-142494000D01*
X127751000Y-142652750D01*
X127747928Y-143267000D01*
X118004544Y-143267000D01*
X118231849Y-142848118D01*
X118455694Y-142126615D01*
X118534480Y-141375305D01*
X118465178Y-140623062D01*
X118250452Y-139898792D01*
X117898555Y-139230330D01*
X117871548Y-139189912D01*
X117381881Y-138829724D01*
X114860605Y-141351000D01*
X114501395Y-141351000D01*
X111980119Y-138829724D01*
X111490452Y-139189912D01*
X111130151Y-139853882D01*
X110906306Y-140575385D01*
X110827520Y-141326695D01*
X110769000Y-141326695D01*
X110769000Y-138650119D01*
X112159724Y-138650119D01*
X114681000Y-141171395D01*
X117202276Y-138650119D01*
X116842088Y-138160452D01*
X116178118Y-137800151D01*
X115456615Y-137576306D01*
X114705305Y-137497520D01*
X113953062Y-137566822D01*
X113228792Y-137781548D01*
X112560330Y-138133445D01*
X112519912Y-138160452D01*
X112159724Y-138650119D01*
X110769000Y-138650119D01*
X110769000Y-115613000D01*
X116371928Y-115613000D01*
X116371928Y-117813000D01*
X116384188Y-117937482D01*
X116420498Y-118057180D01*
X116479463Y-118167494D01*
X116558815Y-118264185D01*
X116655506Y-118343537D01*
X116765820Y-118402502D01*
X116885518Y-118438812D01*
X117010000Y-118451072D01*
X119210000Y-118451072D01*
X119334482Y-118438812D01*
X119454180Y-118402502D01*
X119564494Y-118343537D01*
X119661185Y-118264185D01*
X119733331Y-118176274D01*
X119778147Y-118401574D01*
X119886320Y-118662727D01*
X120043363Y-118897759D01*
X120243241Y-119097637D01*
X120332500Y-119157278D01*
X120332501Y-131658439D01*
X120328506Y-131699000D01*
X120344445Y-131860826D01*
X120391647Y-132016433D01*
X120468301Y-132159842D01*
X120529863Y-132234854D01*
X120571460Y-132285541D01*
X120602961Y-132311393D01*
X129158998Y-140867431D01*
X129158998Y-140990748D01*
X129000250Y-140832000D01*
X128386000Y-140828928D01*
X128261518Y-140841188D01*
X128141820Y-140877498D01*
X128031506Y-140936463D01*
X127934815Y-141015815D01*
X127855463Y-141112506D01*
X127796498Y-141222820D01*
X127760188Y-141342518D01*
X127747928Y-141467000D01*
X127751000Y-142081250D01*
X127909750Y-142240000D01*
X129159000Y-142240000D01*
X129159000Y-142220000D01*
X129413000Y-142220000D01*
X129413000Y-142240000D01*
X129433000Y-142240000D01*
X129433000Y-142494000D01*
X129413000Y-142494000D01*
X129413000Y-143743250D01*
X129571750Y-143902000D01*
X130186000Y-143905072D01*
X130310482Y-143892812D01*
X130430180Y-143856502D01*
X130540494Y-143797537D01*
X130637185Y-143718185D01*
X130716537Y-143621494D01*
X130775502Y-143511180D01*
X130781056Y-143492873D01*
X130847495Y-143559312D01*
X131098905Y-143727299D01*
X131378257Y-143843011D01*
X131674816Y-143902000D01*
X131977184Y-143902000D01*
X132273743Y-143843011D01*
X132553095Y-143727299D01*
X132804505Y-143559312D01*
X133018312Y-143345505D01*
X133070767Y-143267000D01*
X134224928Y-143267000D01*
X134237188Y-143391482D01*
X134273498Y-143511180D01*
X134332463Y-143621494D01*
X134411815Y-143718185D01*
X134508506Y-143797537D01*
X134618820Y-143856502D01*
X134738518Y-143892812D01*
X134863000Y-143905072D01*
X135477250Y-143902000D01*
X135636000Y-143743250D01*
X135636000Y-142494000D01*
X134386750Y-142494000D01*
X134228000Y-142652750D01*
X134224928Y-143267000D01*
X133070767Y-143267000D01*
X133186299Y-143094095D01*
X133302011Y-142814743D01*
X133361000Y-142518184D01*
X133361000Y-142215816D01*
X133302011Y-141919257D01*
X133186299Y-141639905D01*
X133018312Y-141388495D01*
X132804505Y-141174688D01*
X132553095Y-141006701D01*
X132273743Y-140890989D01*
X131977184Y-140832000D01*
X131674816Y-140832000D01*
X131494333Y-140867900D01*
X128435258Y-137808826D01*
X129000250Y-137806000D01*
X129159000Y-137647250D01*
X129159000Y-136398000D01*
X127909750Y-136398000D01*
X127751000Y-136556750D01*
X127748174Y-137121742D01*
X121983500Y-131357068D01*
X121983500Y-127595932D01*
X129158998Y-134771431D01*
X129158998Y-134894748D01*
X129000250Y-134736000D01*
X128386000Y-134732928D01*
X128261518Y-134745188D01*
X128141820Y-134781498D01*
X128031506Y-134840463D01*
X127934815Y-134919815D01*
X127855463Y-135016506D01*
X127796498Y-135126820D01*
X127760188Y-135246518D01*
X127747928Y-135371000D01*
X127751000Y-135985250D01*
X127909750Y-136144000D01*
X129159000Y-136144000D01*
X129159000Y-136124000D01*
X129413000Y-136124000D01*
X129413000Y-136144000D01*
X129433000Y-136144000D01*
X129433000Y-136398000D01*
X129413000Y-136398000D01*
X129413000Y-137647250D01*
X129571750Y-137806000D01*
X130186000Y-137809072D01*
X130310482Y-137796812D01*
X130430180Y-137760502D01*
X130540494Y-137701537D01*
X130637185Y-137622185D01*
X130716537Y-137525494D01*
X130775502Y-137415180D01*
X130781056Y-137396873D01*
X130847495Y-137463312D01*
X131098905Y-137631299D01*
X131378257Y-137747011D01*
X131674816Y-137806000D01*
X131977184Y-137806000D01*
X132273743Y-137747011D01*
X132446321Y-137675527D01*
X132482361Y-137719442D01*
X132513862Y-137745294D01*
X135635998Y-140867431D01*
X135635998Y-140990748D01*
X135477250Y-140832000D01*
X134863000Y-140828928D01*
X134738518Y-140841188D01*
X134618820Y-140877498D01*
X134508506Y-140936463D01*
X134411815Y-141015815D01*
X134332463Y-141112506D01*
X134273498Y-141222820D01*
X134237188Y-141342518D01*
X134224928Y-141467000D01*
X134228000Y-142081250D01*
X134386750Y-142240000D01*
X135636000Y-142240000D01*
X135636000Y-142220000D01*
X135890000Y-142220000D01*
X135890000Y-142240000D01*
X135910000Y-142240000D01*
X135910000Y-142494000D01*
X135890000Y-142494000D01*
X135890000Y-143743250D01*
X136048750Y-143902000D01*
X136663000Y-143905072D01*
X136787482Y-143892812D01*
X136907180Y-143856502D01*
X137017494Y-143797537D01*
X137114185Y-143718185D01*
X137193537Y-143621494D01*
X137252502Y-143511180D01*
X137258056Y-143492873D01*
X137324495Y-143559312D01*
X137575905Y-143727299D01*
X137855257Y-143843011D01*
X138151816Y-143902000D01*
X138454184Y-143902000D01*
X138750743Y-143843011D01*
X139030095Y-143727299D01*
X139281505Y-143559312D01*
X139495312Y-143345505D01*
X139547767Y-143267000D01*
X140701928Y-143267000D01*
X140714188Y-143391482D01*
X140750498Y-143511180D01*
X140809463Y-143621494D01*
X140888815Y-143718185D01*
X140985506Y-143797537D01*
X141095820Y-143856502D01*
X141215518Y-143892812D01*
X141340000Y-143905072D01*
X141954250Y-143902000D01*
X142113000Y-143743250D01*
X142113000Y-142494000D01*
X140863750Y-142494000D01*
X140705000Y-142652750D01*
X140701928Y-143267000D01*
X139547767Y-143267000D01*
X139663299Y-143094095D01*
X139779011Y-142814743D01*
X139838000Y-142518184D01*
X139838000Y-142215816D01*
X139779011Y-141919257D01*
X139663299Y-141639905D01*
X139495312Y-141388495D01*
X139281505Y-141174688D01*
X139030095Y-141006701D01*
X138750743Y-140890989D01*
X138454184Y-140832000D01*
X138151816Y-140832000D01*
X137971334Y-140867900D01*
X134912258Y-137808826D01*
X135477250Y-137806000D01*
X135636000Y-137647250D01*
X135636000Y-136398000D01*
X134386750Y-136398000D01*
X134228000Y-136556750D01*
X134225174Y-137121742D01*
X133894401Y-136790969D01*
X133894401Y-133029833D01*
X135635998Y-134771431D01*
X135635998Y-134894748D01*
X135477250Y-134736000D01*
X134863000Y-134732928D01*
X134738518Y-134745188D01*
X134618820Y-134781498D01*
X134508506Y-134840463D01*
X134411815Y-134919815D01*
X134332463Y-135016506D01*
X134273498Y-135126820D01*
X134237188Y-135246518D01*
X134224928Y-135371000D01*
X134228000Y-135985250D01*
X134386750Y-136144000D01*
X135636000Y-136144000D01*
X135636000Y-136124000D01*
X135890000Y-136124000D01*
X135890000Y-136144000D01*
X135910000Y-136144000D01*
X135910000Y-136398000D01*
X135890000Y-136398000D01*
X135890000Y-137647250D01*
X136048750Y-137806000D01*
X136663000Y-137809072D01*
X136787482Y-137796812D01*
X136907180Y-137760502D01*
X137017494Y-137701537D01*
X137114185Y-137622185D01*
X137193537Y-137525494D01*
X137252502Y-137415180D01*
X137258056Y-137396873D01*
X137324495Y-137463312D01*
X137575905Y-137631299D01*
X137855257Y-137747011D01*
X138151816Y-137806000D01*
X138454184Y-137806000D01*
X138750743Y-137747011D01*
X139030095Y-137631299D01*
X139281505Y-137463312D01*
X139495312Y-137249505D01*
X139663299Y-136998095D01*
X139779011Y-136718743D01*
X139838000Y-136422184D01*
X139838000Y-136119816D01*
X139779011Y-135823257D01*
X139663299Y-135543905D01*
X139495312Y-135292495D01*
X139281505Y-135078688D01*
X139030095Y-134910701D01*
X138750743Y-134794989D01*
X138454184Y-134736000D01*
X138151816Y-134736000D01*
X137971333Y-134771900D01*
X134912258Y-131712826D01*
X135477250Y-131710000D01*
X135636000Y-131551250D01*
X135636000Y-130302000D01*
X135616000Y-130302000D01*
X135616000Y-130048000D01*
X135636000Y-130048000D01*
X135636000Y-128798750D01*
X135477250Y-128640000D01*
X134863000Y-128636928D01*
X134738518Y-128649188D01*
X134618820Y-128685498D01*
X134508506Y-128744463D01*
X134427811Y-128810687D01*
X134427811Y-125443313D01*
X134508506Y-125509537D01*
X134618820Y-125568502D01*
X134738518Y-125604812D01*
X134863000Y-125617072D01*
X135477250Y-125614000D01*
X135636000Y-125455250D01*
X135636000Y-124206000D01*
X135616000Y-124206000D01*
X135616000Y-123952000D01*
X135636000Y-123952000D01*
X135636000Y-122702750D01*
X135477250Y-122544000D01*
X134863000Y-122540928D01*
X134738518Y-122553188D01*
X134618820Y-122589498D01*
X134508506Y-122648463D01*
X134427811Y-122714687D01*
X134427811Y-116878861D01*
X134431805Y-116838311D01*
X134423210Y-116751046D01*
X134415867Y-116676485D01*
X134368664Y-116520877D01*
X134331460Y-116451274D01*
X134292010Y-116377468D01*
X134214703Y-116283269D01*
X134214700Y-116283266D01*
X134188852Y-116251770D01*
X134157357Y-116225923D01*
X132732056Y-114800624D01*
X132753000Y-114695335D01*
X132753000Y-114412665D01*
X132697853Y-114135426D01*
X132589680Y-113874273D01*
X132432637Y-113639241D01*
X132232759Y-113439363D01*
X131997727Y-113282320D01*
X131736574Y-113174147D01*
X131459335Y-113119000D01*
X131176665Y-113119000D01*
X130899426Y-113174147D01*
X130638273Y-113282320D01*
X130403241Y-113439363D01*
X130203363Y-113639241D01*
X130048000Y-113871759D01*
X129892637Y-113639241D01*
X129692759Y-113439363D01*
X129603500Y-113379722D01*
X129603500Y-112299278D01*
X129692759Y-112239637D01*
X129892637Y-112039759D01*
X130048000Y-111807241D01*
X130203363Y-112039759D01*
X130403241Y-112239637D01*
X130638273Y-112396680D01*
X130899426Y-112504853D01*
X131176665Y-112560000D01*
X131459335Y-112560000D01*
X131564624Y-112539056D01*
X136234599Y-117209032D01*
X136234599Y-122543071D01*
X136048750Y-122544000D01*
X135890000Y-122702750D01*
X135890000Y-123952000D01*
X135910000Y-123952000D01*
X135910000Y-124206000D01*
X135890000Y-124206000D01*
X135890000Y-125455250D01*
X136048750Y-125614000D01*
X136234600Y-125614929D01*
X136234600Y-128639071D01*
X136048750Y-128640000D01*
X135890000Y-128798750D01*
X135890000Y-130048000D01*
X135910000Y-130048000D01*
X135910000Y-130302000D01*
X135890000Y-130302000D01*
X135890000Y-131551250D01*
X136048750Y-131710000D01*
X136663000Y-131713072D01*
X136787482Y-131700812D01*
X136907180Y-131664502D01*
X137017494Y-131605537D01*
X137114185Y-131526185D01*
X137193537Y-131429494D01*
X137252502Y-131319180D01*
X137258056Y-131300873D01*
X137324495Y-131367312D01*
X137575905Y-131535299D01*
X137855257Y-131651011D01*
X138151816Y-131710000D01*
X138454184Y-131710000D01*
X138750743Y-131651011D01*
X139030095Y-131535299D01*
X139281505Y-131367312D01*
X139495312Y-131153505D01*
X139663299Y-130902095D01*
X139779011Y-130622743D01*
X139838000Y-130326184D01*
X139838000Y-130023816D01*
X139779011Y-129727257D01*
X139663299Y-129447905D01*
X139495312Y-129196495D01*
X139281505Y-128982688D01*
X139030095Y-128814701D01*
X138750743Y-128698989D01*
X138454184Y-128640000D01*
X138151816Y-128640000D01*
X137971333Y-128675900D01*
X137885599Y-128590167D01*
X137885599Y-125561046D01*
X138151816Y-125614000D01*
X138454184Y-125614000D01*
X138750743Y-125555011D01*
X139030095Y-125439299D01*
X139281505Y-125271312D01*
X139495312Y-125057505D01*
X139663299Y-124806095D01*
X139779011Y-124526743D01*
X139838000Y-124230184D01*
X139838000Y-123927816D01*
X139779011Y-123631257D01*
X139663299Y-123351905D01*
X139495312Y-123100495D01*
X139281505Y-122886688D01*
X139030095Y-122718701D01*
X138750743Y-122602989D01*
X138620599Y-122577102D01*
X138620599Y-119382978D01*
X138796665Y-119418000D01*
X139079335Y-119418000D01*
X139356574Y-119362853D01*
X139617727Y-119254680D01*
X139852501Y-119097809D01*
X139852502Y-138224440D01*
X139848507Y-138265001D01*
X139864446Y-138426827D01*
X139911648Y-138582434D01*
X139988302Y-138725843D01*
X140025686Y-138771395D01*
X140091461Y-138851542D01*
X140122962Y-138877394D01*
X142112998Y-140867431D01*
X142112998Y-140990748D01*
X141954250Y-140832000D01*
X141340000Y-140828928D01*
X141215518Y-140841188D01*
X141095820Y-140877498D01*
X140985506Y-140936463D01*
X140888815Y-141015815D01*
X140809463Y-141112506D01*
X140750498Y-141222820D01*
X140714188Y-141342518D01*
X140701928Y-141467000D01*
X140705000Y-142081250D01*
X140863750Y-142240000D01*
X142113000Y-142240000D01*
X142113000Y-142220000D01*
X142367000Y-142220000D01*
X142367000Y-142240000D01*
X142387000Y-142240000D01*
X142387000Y-142494000D01*
X142367000Y-142494000D01*
X142367000Y-143743250D01*
X142525750Y-143902000D01*
X143140000Y-143905072D01*
X143264482Y-143892812D01*
X143384180Y-143856502D01*
X143494494Y-143797537D01*
X143591185Y-143718185D01*
X143670537Y-143621494D01*
X143729502Y-143511180D01*
X143735056Y-143492873D01*
X143801495Y-143559312D01*
X144052905Y-143727299D01*
X144332257Y-143843011D01*
X144628816Y-143902000D01*
X144931184Y-143902000D01*
X145227743Y-143843011D01*
X145507095Y-143727299D01*
X145758505Y-143559312D01*
X145972312Y-143345505D01*
X146024767Y-143267000D01*
X147178928Y-143267000D01*
X147191188Y-143391482D01*
X147227498Y-143511180D01*
X147286463Y-143621494D01*
X147365815Y-143718185D01*
X147462506Y-143797537D01*
X147572820Y-143856502D01*
X147692518Y-143892812D01*
X147817000Y-143905072D01*
X148431250Y-143902000D01*
X148590000Y-143743250D01*
X148590000Y-142494000D01*
X147340750Y-142494000D01*
X147182000Y-142652750D01*
X147178928Y-143267000D01*
X146024767Y-143267000D01*
X146140299Y-143094095D01*
X146256011Y-142814743D01*
X146315000Y-142518184D01*
X146315000Y-142215816D01*
X146256011Y-141919257D01*
X146140299Y-141639905D01*
X146024768Y-141467000D01*
X147178928Y-141467000D01*
X147182000Y-142081250D01*
X147340750Y-142240000D01*
X148590000Y-142240000D01*
X148590000Y-140990750D01*
X148844000Y-140990750D01*
X148844000Y-142240000D01*
X148864000Y-142240000D01*
X148864000Y-142494000D01*
X148844000Y-142494000D01*
X148844000Y-143743250D01*
X149002750Y-143902000D01*
X149617000Y-143905072D01*
X149741482Y-143892812D01*
X149861180Y-143856502D01*
X149971494Y-143797537D01*
X150068185Y-143718185D01*
X150147537Y-143621494D01*
X150206502Y-143511180D01*
X150212056Y-143492873D01*
X150278495Y-143559312D01*
X150529905Y-143727299D01*
X150809257Y-143843011D01*
X151105816Y-143902000D01*
X151408184Y-143902000D01*
X151704743Y-143843011D01*
X151984095Y-143727299D01*
X152235505Y-143559312D01*
X152449312Y-143345505D01*
X152617299Y-143094095D01*
X152733011Y-142814743D01*
X152792000Y-142518184D01*
X152792000Y-142215816D01*
X152733011Y-141919257D01*
X152617299Y-141639905D01*
X152449312Y-141388495D01*
X152387512Y-141326695D01*
X161881520Y-141326695D01*
X161950822Y-142078938D01*
X162165548Y-142803208D01*
X162517445Y-143471670D01*
X162544452Y-143512088D01*
X163034119Y-143872276D01*
X165555395Y-141351000D01*
X165914605Y-141351000D01*
X168435881Y-143872276D01*
X168925548Y-143512088D01*
X169285849Y-142848118D01*
X169509694Y-142126615D01*
X169588480Y-141375305D01*
X169519178Y-140623062D01*
X169304452Y-139898792D01*
X168952555Y-139230330D01*
X168925548Y-139189912D01*
X168435881Y-138829724D01*
X165914605Y-141351000D01*
X165555395Y-141351000D01*
X163034119Y-138829724D01*
X162544452Y-139189912D01*
X162184151Y-139853882D01*
X161960306Y-140575385D01*
X161881520Y-141326695D01*
X152387512Y-141326695D01*
X152235505Y-141174688D01*
X151984095Y-141006701D01*
X151704743Y-140890989D01*
X151408184Y-140832000D01*
X151105816Y-140832000D01*
X150809257Y-140890989D01*
X150529905Y-141006701D01*
X150278495Y-141174688D01*
X150212056Y-141241127D01*
X150206502Y-141222820D01*
X150147537Y-141112506D01*
X150068185Y-141015815D01*
X149971494Y-140936463D01*
X149861180Y-140877498D01*
X149741482Y-140841188D01*
X149617000Y-140828928D01*
X149002750Y-140832000D01*
X148844000Y-140990750D01*
X148590000Y-140990750D01*
X148431250Y-140832000D01*
X147817000Y-140828928D01*
X147692518Y-140841188D01*
X147572820Y-140877498D01*
X147462506Y-140936463D01*
X147365815Y-141015815D01*
X147286463Y-141112506D01*
X147227498Y-141222820D01*
X147191188Y-141342518D01*
X147178928Y-141467000D01*
X146024768Y-141467000D01*
X145972312Y-141388495D01*
X145758505Y-141174688D01*
X145507095Y-141006701D01*
X145227743Y-140890989D01*
X144931184Y-140832000D01*
X144628816Y-140832000D01*
X144448334Y-140867900D01*
X142230552Y-138650119D01*
X163213724Y-138650119D01*
X165735000Y-141171395D01*
X168256276Y-138650119D01*
X167896088Y-138160452D01*
X167232118Y-137800151D01*
X166510615Y-137576306D01*
X165759305Y-137497520D01*
X165007062Y-137566822D01*
X164282792Y-137781548D01*
X163614330Y-138133445D01*
X163573912Y-138160452D01*
X163213724Y-138650119D01*
X142230552Y-138650119D01*
X141503501Y-137923069D01*
X141503501Y-137808254D01*
X141954250Y-137806000D01*
X142113000Y-137647250D01*
X142113000Y-136398000D01*
X142093000Y-136398000D01*
X142093000Y-136144000D01*
X142113000Y-136144000D01*
X142113000Y-134894750D01*
X141954250Y-134736000D01*
X141503501Y-134733746D01*
X141503501Y-131712254D01*
X141954250Y-131710000D01*
X142113000Y-131551250D01*
X142113000Y-130302000D01*
X142093000Y-130302000D01*
X142093000Y-130048000D01*
X142113000Y-130048000D01*
X142113000Y-128798750D01*
X141954250Y-128640000D01*
X141503501Y-128637746D01*
X141503501Y-125616254D01*
X141954250Y-125614000D01*
X142113000Y-125455250D01*
X142113000Y-124206000D01*
X142093000Y-124206000D01*
X142093000Y-123952000D01*
X142113000Y-123952000D01*
X142113000Y-122702750D01*
X141954250Y-122544000D01*
X141503501Y-122541746D01*
X141503501Y-119418000D01*
X141619335Y-119418000D01*
X141896574Y-119362853D01*
X142157727Y-119254680D01*
X142392759Y-119097637D01*
X142592637Y-118897759D01*
X142711599Y-118719719D01*
X142711599Y-122543071D01*
X142525750Y-122544000D01*
X142367000Y-122702750D01*
X142367000Y-123952000D01*
X142387000Y-123952000D01*
X142387000Y-124206000D01*
X142367000Y-124206000D01*
X142367000Y-125455250D01*
X142525750Y-125614000D01*
X142711599Y-125614929D01*
X142711600Y-128639071D01*
X142525750Y-128640000D01*
X142367000Y-128798750D01*
X142367000Y-130048000D01*
X142387000Y-130048000D01*
X142387000Y-130302000D01*
X142367000Y-130302000D01*
X142367000Y-131551250D01*
X142525750Y-131710000D01*
X142711600Y-131710929D01*
X142711600Y-134735071D01*
X142525750Y-134736000D01*
X142367000Y-134894750D01*
X142367000Y-136144000D01*
X142387000Y-136144000D01*
X142387000Y-136398000D01*
X142367000Y-136398000D01*
X142367000Y-137647250D01*
X142525750Y-137806000D01*
X143140000Y-137809072D01*
X143264482Y-137796812D01*
X143384180Y-137760502D01*
X143494494Y-137701537D01*
X143591185Y-137622185D01*
X143670537Y-137525494D01*
X143729502Y-137415180D01*
X143735056Y-137396873D01*
X143801495Y-137463312D01*
X144052905Y-137631299D01*
X144332257Y-137747011D01*
X144628816Y-137806000D01*
X144931184Y-137806000D01*
X145227743Y-137747011D01*
X145507095Y-137631299D01*
X145758505Y-137463312D01*
X145972312Y-137249505D01*
X146024767Y-137171000D01*
X147178928Y-137171000D01*
X147191188Y-137295482D01*
X147227498Y-137415180D01*
X147286463Y-137525494D01*
X147365815Y-137622185D01*
X147462506Y-137701537D01*
X147572820Y-137760502D01*
X147692518Y-137796812D01*
X147817000Y-137809072D01*
X148431250Y-137806000D01*
X148590000Y-137647250D01*
X148590000Y-136398000D01*
X147340750Y-136398000D01*
X147182000Y-136556750D01*
X147178928Y-137171000D01*
X146024767Y-137171000D01*
X146140299Y-136998095D01*
X146256011Y-136718743D01*
X146315000Y-136422184D01*
X146315000Y-136119816D01*
X146256011Y-135823257D01*
X146140299Y-135543905D01*
X146024768Y-135371000D01*
X147178928Y-135371000D01*
X147182000Y-135985250D01*
X147340750Y-136144000D01*
X148590000Y-136144000D01*
X148590000Y-134894750D01*
X148844000Y-134894750D01*
X148844000Y-136144000D01*
X148864000Y-136144000D01*
X148864000Y-136398000D01*
X148844000Y-136398000D01*
X148844000Y-137647250D01*
X149002750Y-137806000D01*
X149617000Y-137809072D01*
X149741482Y-137796812D01*
X149861180Y-137760502D01*
X149971494Y-137701537D01*
X150068185Y-137622185D01*
X150147537Y-137525494D01*
X150206502Y-137415180D01*
X150212056Y-137396873D01*
X150278495Y-137463312D01*
X150529905Y-137631299D01*
X150809257Y-137747011D01*
X151105816Y-137806000D01*
X151408184Y-137806000D01*
X151704743Y-137747011D01*
X151984095Y-137631299D01*
X152235505Y-137463312D01*
X152449312Y-137249505D01*
X152617299Y-136998095D01*
X152733011Y-136718743D01*
X152792000Y-136422184D01*
X152792000Y-136119816D01*
X152733011Y-135823257D01*
X152617299Y-135543905D01*
X152449312Y-135292495D01*
X152235505Y-135078688D01*
X151984095Y-134910701D01*
X151704743Y-134794989D01*
X151408184Y-134736000D01*
X151105816Y-134736000D01*
X150809257Y-134794989D01*
X150529905Y-134910701D01*
X150278495Y-135078688D01*
X150212056Y-135145127D01*
X150206502Y-135126820D01*
X150147537Y-135016506D01*
X150068185Y-134919815D01*
X149971494Y-134840463D01*
X149861180Y-134781498D01*
X149741482Y-134745188D01*
X149617000Y-134732928D01*
X149002750Y-134736000D01*
X148844000Y-134894750D01*
X148590000Y-134894750D01*
X148431250Y-134736000D01*
X147817000Y-134732928D01*
X147692518Y-134745188D01*
X147572820Y-134781498D01*
X147462506Y-134840463D01*
X147365815Y-134919815D01*
X147286463Y-135016506D01*
X147227498Y-135126820D01*
X147191188Y-135246518D01*
X147178928Y-135371000D01*
X146024768Y-135371000D01*
X145972312Y-135292495D01*
X145758505Y-135078688D01*
X145507095Y-134910701D01*
X145227743Y-134794989D01*
X144931184Y-134736000D01*
X144628816Y-134736000D01*
X144448333Y-134771900D01*
X144362599Y-134686167D01*
X144362599Y-131657046D01*
X144628816Y-131710000D01*
X144931184Y-131710000D01*
X145227743Y-131651011D01*
X145507095Y-131535299D01*
X145758505Y-131367312D01*
X145972312Y-131153505D01*
X146024767Y-131075000D01*
X147178928Y-131075000D01*
X147191188Y-131199482D01*
X147227498Y-131319180D01*
X147286463Y-131429494D01*
X147365815Y-131526185D01*
X147462506Y-131605537D01*
X147572820Y-131664502D01*
X147692518Y-131700812D01*
X147817000Y-131713072D01*
X148431250Y-131710000D01*
X148590000Y-131551250D01*
X148590000Y-130302000D01*
X147340750Y-130302000D01*
X147182000Y-130460750D01*
X147178928Y-131075000D01*
X146024767Y-131075000D01*
X146140299Y-130902095D01*
X146256011Y-130622743D01*
X146315000Y-130326184D01*
X146315000Y-130023816D01*
X146279100Y-129843333D01*
X146577940Y-129544493D01*
X146609442Y-129518640D01*
X146667492Y-129447905D01*
X146712599Y-129392943D01*
X146775641Y-129275000D01*
X147178928Y-129275000D01*
X147182000Y-129889250D01*
X147340750Y-130048000D01*
X148590000Y-130048000D01*
X148590000Y-128798750D01*
X148431250Y-128640000D01*
X147817000Y-128636928D01*
X147692518Y-128649188D01*
X147572820Y-128685498D01*
X147462506Y-128744463D01*
X147365815Y-128823815D01*
X147286463Y-128920506D01*
X147227498Y-129030820D01*
X147191188Y-129150518D01*
X147178928Y-129275000D01*
X146775641Y-129275000D01*
X146789254Y-129249533D01*
X146836457Y-129093925D01*
X146848401Y-128972652D01*
X146848401Y-128972643D01*
X146852394Y-128932100D01*
X146848401Y-128891557D01*
X146848401Y-124979000D01*
X147178928Y-124979000D01*
X147191188Y-125103482D01*
X147227498Y-125223180D01*
X147286463Y-125333494D01*
X147365815Y-125430185D01*
X147462506Y-125509537D01*
X147572820Y-125568502D01*
X147692518Y-125604812D01*
X147817000Y-125617072D01*
X148431250Y-125614000D01*
X148590000Y-125455250D01*
X148590000Y-124206000D01*
X147340750Y-124206000D01*
X147182000Y-124364750D01*
X147178928Y-124979000D01*
X146848401Y-124979000D01*
X146848401Y-123179000D01*
X147178928Y-123179000D01*
X147182000Y-123793250D01*
X147340750Y-123952000D01*
X148590000Y-123952000D01*
X148590000Y-122702750D01*
X148431250Y-122544000D01*
X147817000Y-122540928D01*
X147692518Y-122553188D01*
X147572820Y-122589498D01*
X147462506Y-122648463D01*
X147365815Y-122727815D01*
X147286463Y-122824506D01*
X147227498Y-122934820D01*
X147191188Y-123054518D01*
X147178928Y-123179000D01*
X146848401Y-123179000D01*
X146848401Y-115710451D01*
X146852395Y-115669901D01*
X146846791Y-115613000D01*
X146836457Y-115508075D01*
X146789254Y-115352467D01*
X146762967Y-115303288D01*
X146712600Y-115209058D01*
X146635293Y-115114859D01*
X146635290Y-115114856D01*
X146609442Y-115083360D01*
X146577947Y-115057513D01*
X142892056Y-111371624D01*
X142913000Y-111266335D01*
X142913000Y-110983665D01*
X142857853Y-110706426D01*
X142749680Y-110445273D01*
X142592637Y-110210241D01*
X142392759Y-110010363D01*
X142157727Y-109853320D01*
X141896574Y-109745147D01*
X141619335Y-109690000D01*
X141336665Y-109690000D01*
X141160599Y-109725022D01*
X141160599Y-109180833D01*
X141231376Y-109110056D01*
X141336665Y-109131000D01*
X141619335Y-109131000D01*
X141896574Y-109075853D01*
X142157727Y-108967680D01*
X142392759Y-108810637D01*
X142592637Y-108610759D01*
X142749680Y-108375727D01*
X142857853Y-108114574D01*
X142913000Y-107837335D01*
X142913000Y-107554665D01*
X147663000Y-107554665D01*
X147663000Y-107837335D01*
X147718147Y-108114574D01*
X147826320Y-108375727D01*
X147983363Y-108610759D01*
X148183241Y-108810637D01*
X148272500Y-108870278D01*
X148272501Y-109950722D01*
X148183241Y-110010363D01*
X147983363Y-110210241D01*
X147826320Y-110445273D01*
X147718147Y-110706426D01*
X147663000Y-110983665D01*
X147663000Y-111266335D01*
X147718147Y-111543574D01*
X147826320Y-111804727D01*
X147983363Y-112039759D01*
X148183241Y-112239637D01*
X148272500Y-112299278D01*
X148272501Y-113379722D01*
X148183241Y-113439363D01*
X147983363Y-113639241D01*
X147826320Y-113874273D01*
X147718147Y-114135426D01*
X147663000Y-114412665D01*
X147663000Y-114695335D01*
X147718147Y-114972574D01*
X147826320Y-115233727D01*
X147983363Y-115468759D01*
X148183241Y-115668637D01*
X148272500Y-115728278D01*
X148272501Y-116808722D01*
X148183241Y-116868363D01*
X147983363Y-117068241D01*
X147826320Y-117303273D01*
X147718147Y-117564426D01*
X147663000Y-117841665D01*
X147663000Y-118124335D01*
X147718147Y-118401574D01*
X147826320Y-118662727D01*
X147983363Y-118897759D01*
X148183241Y-119097637D01*
X148418273Y-119254680D01*
X148679426Y-119362853D01*
X148956665Y-119418000D01*
X149239335Y-119418000D01*
X149516574Y-119362853D01*
X149669600Y-119299468D01*
X149669600Y-122546108D01*
X149617000Y-122540928D01*
X149002750Y-122544000D01*
X148844000Y-122702750D01*
X148844000Y-123952000D01*
X148864000Y-123952000D01*
X148864000Y-124206000D01*
X148844000Y-124206000D01*
X148844000Y-125455250D01*
X149002750Y-125614000D01*
X149617000Y-125617072D01*
X149741482Y-125604812D01*
X149861180Y-125568502D01*
X149971494Y-125509537D01*
X150068185Y-125430185D01*
X150147537Y-125333494D01*
X150206502Y-125223180D01*
X150212056Y-125204873D01*
X150278495Y-125271312D01*
X150529905Y-125439299D01*
X150809257Y-125555011D01*
X151105816Y-125614000D01*
X151408184Y-125614000D01*
X151704743Y-125555011D01*
X151955402Y-125451184D01*
X151955402Y-128309165D01*
X151588667Y-128675900D01*
X151408184Y-128640000D01*
X151105816Y-128640000D01*
X150809257Y-128698989D01*
X150529905Y-128814701D01*
X150278495Y-128982688D01*
X150212056Y-129049127D01*
X150206502Y-129030820D01*
X150147537Y-128920506D01*
X150068185Y-128823815D01*
X149971494Y-128744463D01*
X149861180Y-128685498D01*
X149741482Y-128649188D01*
X149617000Y-128636928D01*
X149002750Y-128640000D01*
X148844000Y-128798750D01*
X148844000Y-130048000D01*
X148864000Y-130048000D01*
X148864000Y-130302000D01*
X148844000Y-130302000D01*
X148844000Y-131551250D01*
X149002750Y-131710000D01*
X149617000Y-131713072D01*
X149741482Y-131700812D01*
X149861180Y-131664502D01*
X149971494Y-131605537D01*
X150068185Y-131526185D01*
X150147537Y-131429494D01*
X150206502Y-131319180D01*
X150212056Y-131300873D01*
X150278495Y-131367312D01*
X150529905Y-131535299D01*
X150809257Y-131651011D01*
X151105816Y-131710000D01*
X151408184Y-131710000D01*
X151704743Y-131651011D01*
X151984095Y-131535299D01*
X152235505Y-131367312D01*
X152449312Y-131153505D01*
X152617299Y-130902095D01*
X152733011Y-130622743D01*
X152792000Y-130326184D01*
X152792000Y-130023816D01*
X152756100Y-129843333D01*
X153335940Y-129263493D01*
X153367442Y-129237640D01*
X153438941Y-129150518D01*
X153470599Y-129111943D01*
X153480230Y-129093925D01*
X153547254Y-128968533D01*
X153594457Y-128812925D01*
X153606401Y-128691652D01*
X153606401Y-128691643D01*
X153610394Y-128651100D01*
X153606401Y-128610557D01*
X153606401Y-112308451D01*
X153610395Y-112267900D01*
X153604974Y-112212858D01*
X153594457Y-112106075D01*
X153547254Y-111950467D01*
X153470601Y-111807060D01*
X153470600Y-111807058D01*
X153412527Y-111736297D01*
X153367442Y-111681360D01*
X153335941Y-111655509D01*
X153052056Y-111371624D01*
X153073000Y-111266335D01*
X153073000Y-110983665D01*
X153017853Y-110706426D01*
X152909680Y-110445273D01*
X152752637Y-110210241D01*
X152552759Y-110010363D01*
X152317727Y-109853320D01*
X152056574Y-109745147D01*
X151779335Y-109690000D01*
X151496665Y-109690000D01*
X151320599Y-109725022D01*
X151320599Y-109180833D01*
X151391376Y-109110056D01*
X151496665Y-109131000D01*
X151779335Y-109131000D01*
X152056574Y-109075853D01*
X152317727Y-108967680D01*
X152552759Y-108810637D01*
X152752637Y-108610759D01*
X152909680Y-108375727D01*
X153017853Y-108114574D01*
X153073000Y-107837335D01*
X153073000Y-107554665D01*
X153037978Y-107378599D01*
X157773167Y-107378599D01*
X157843944Y-107449376D01*
X157823000Y-107554665D01*
X157823000Y-107837335D01*
X157878147Y-108114574D01*
X157986320Y-108375727D01*
X158143363Y-108610759D01*
X158343241Y-108810637D01*
X158432501Y-108870278D01*
X158432500Y-109950722D01*
X158343241Y-110010363D01*
X158143363Y-110210241D01*
X157986320Y-110445273D01*
X157878147Y-110706426D01*
X157823000Y-110983665D01*
X157823000Y-111266335D01*
X157878147Y-111543574D01*
X157986320Y-111804727D01*
X158143363Y-112039759D01*
X158343241Y-112239637D01*
X158432501Y-112299278D01*
X158432500Y-113379722D01*
X158343241Y-113439363D01*
X158143363Y-113639241D01*
X157986320Y-113874273D01*
X157878147Y-114135426D01*
X157823000Y-114412665D01*
X157823000Y-114695335D01*
X157878147Y-114972574D01*
X157986320Y-115233727D01*
X158143363Y-115468759D01*
X158343241Y-115668637D01*
X158432501Y-115728278D01*
X158432500Y-116808722D01*
X158343241Y-116868363D01*
X158143363Y-117068241D01*
X157986320Y-117303273D01*
X157878147Y-117564426D01*
X157823000Y-117841665D01*
X157823000Y-118124335D01*
X157878147Y-118401574D01*
X157986320Y-118662727D01*
X158143363Y-118897759D01*
X158343241Y-119097637D01*
X158578273Y-119254680D01*
X158839426Y-119362853D01*
X159116665Y-119418000D01*
X159399335Y-119418000D01*
X159676574Y-119362853D01*
X159937727Y-119254680D01*
X160172759Y-119097637D01*
X160372637Y-118897759D01*
X160432278Y-118808500D01*
X162969647Y-118808500D01*
X163013858Y-118832131D01*
X163289422Y-118915723D01*
X163504185Y-118936875D01*
X164917815Y-118936875D01*
X165132578Y-118915723D01*
X165408142Y-118832131D01*
X165662104Y-118696386D01*
X165884703Y-118513703D01*
X166067386Y-118291104D01*
X166203131Y-118037142D01*
X166286723Y-117761578D01*
X166314948Y-117475000D01*
X166286723Y-117188422D01*
X166203131Y-116912858D01*
X166067386Y-116658896D01*
X165884703Y-116436297D01*
X165662104Y-116253614D01*
X165408142Y-116117869D01*
X165132578Y-116034277D01*
X164917815Y-116013125D01*
X163504185Y-116013125D01*
X163289422Y-116034277D01*
X163013858Y-116117869D01*
X162759896Y-116253614D01*
X162537297Y-116436297D01*
X162354614Y-116658896D01*
X162218869Y-116912858D01*
X162144657Y-117157500D01*
X160432278Y-117157500D01*
X160372637Y-117068241D01*
X160172759Y-116868363D01*
X160083500Y-116808722D01*
X160083500Y-115728278D01*
X160172759Y-115668637D01*
X160372637Y-115468759D01*
X160529680Y-115233727D01*
X160637853Y-114972574D01*
X160693000Y-114695335D01*
X160693000Y-114412665D01*
X160637853Y-114135426D01*
X160529680Y-113874273D01*
X160372637Y-113639241D01*
X160172759Y-113439363D01*
X160083500Y-113379722D01*
X160083500Y-112775000D01*
X162107052Y-112775000D01*
X162135277Y-113061578D01*
X162218869Y-113337142D01*
X162354614Y-113591104D01*
X162537297Y-113813703D01*
X162759896Y-113996386D01*
X163013858Y-114132131D01*
X163289422Y-114215723D01*
X163504185Y-114236875D01*
X164917815Y-114236875D01*
X165132578Y-114215723D01*
X165408142Y-114132131D01*
X165662104Y-113996386D01*
X165884703Y-113813703D01*
X166067386Y-113591104D01*
X166203131Y-113337142D01*
X166286723Y-113061578D01*
X166314948Y-112775000D01*
X166286723Y-112488422D01*
X166203131Y-112212858D01*
X166067386Y-111958896D01*
X165884703Y-111736297D01*
X165662104Y-111553614D01*
X165408142Y-111417869D01*
X165132578Y-111334277D01*
X164917815Y-111313125D01*
X163504185Y-111313125D01*
X163289422Y-111334277D01*
X163013858Y-111417869D01*
X162759896Y-111553614D01*
X162537297Y-111736297D01*
X162354614Y-111958896D01*
X162218869Y-112212858D01*
X162135277Y-112488422D01*
X162107052Y-112775000D01*
X160083500Y-112775000D01*
X160083500Y-112299278D01*
X160172759Y-112239637D01*
X160372637Y-112039759D01*
X160529680Y-111804727D01*
X160637853Y-111543574D01*
X160693000Y-111266335D01*
X160693000Y-110983665D01*
X160637853Y-110706426D01*
X160529680Y-110445273D01*
X160372637Y-110210241D01*
X160172759Y-110010363D01*
X160083500Y-109950722D01*
X160083500Y-108870278D01*
X160172759Y-108810637D01*
X160372637Y-108610759D01*
X160494579Y-108428259D01*
X162157449Y-108428259D01*
X162176802Y-108517103D01*
X162289937Y-108781578D01*
X162452495Y-109018900D01*
X162658229Y-109219948D01*
X162899232Y-109376996D01*
X163166243Y-109484009D01*
X163449000Y-109536875D01*
X164084000Y-109536875D01*
X164084000Y-108202000D01*
X164338000Y-108202000D01*
X164338000Y-109536875D01*
X164973000Y-109536875D01*
X165255757Y-109484009D01*
X165522768Y-109376996D01*
X165763771Y-109219948D01*
X165969505Y-109018900D01*
X166132063Y-108781578D01*
X166245198Y-108517103D01*
X166264551Y-108428259D01*
X166142922Y-108202000D01*
X164338000Y-108202000D01*
X164084000Y-108202000D01*
X162279078Y-108202000D01*
X162157449Y-108428259D01*
X160494579Y-108428259D01*
X160529680Y-108375727D01*
X160637853Y-108114574D01*
X160693000Y-107837335D01*
X160693000Y-107721741D01*
X162157449Y-107721741D01*
X162279078Y-107948000D01*
X164084000Y-107948000D01*
X164084000Y-106613125D01*
X164338000Y-106613125D01*
X164338000Y-107948000D01*
X166142922Y-107948000D01*
X166264551Y-107721741D01*
X166245198Y-107632897D01*
X166132063Y-107368422D01*
X165969505Y-107131100D01*
X165763771Y-106930052D01*
X165522768Y-106773004D01*
X165255757Y-106665991D01*
X164973000Y-106613125D01*
X164338000Y-106613125D01*
X164084000Y-106613125D01*
X163449000Y-106613125D01*
X163166243Y-106665991D01*
X162899232Y-106773004D01*
X162658229Y-106930052D01*
X162452495Y-107131100D01*
X162289937Y-107368422D01*
X162176802Y-107632897D01*
X162157449Y-107721741D01*
X160693000Y-107721741D01*
X160693000Y-107554665D01*
X160637853Y-107277426D01*
X160529680Y-107016273D01*
X160372637Y-106781241D01*
X160172759Y-106581363D01*
X159937727Y-106424320D01*
X159676574Y-106316147D01*
X159399335Y-106261000D01*
X159116665Y-106261000D01*
X159011376Y-106281944D01*
X158727497Y-105998065D01*
X158701640Y-105966558D01*
X158575941Y-105863400D01*
X158432533Y-105786746D01*
X158276925Y-105739543D01*
X158155652Y-105727599D01*
X158155649Y-105727599D01*
X158115099Y-105723605D01*
X158074549Y-105727599D01*
X150281451Y-105727599D01*
X150240900Y-105723605D01*
X150200350Y-105727599D01*
X150200348Y-105727599D01*
X150079075Y-105739543D01*
X149923467Y-105786746D01*
X149780058Y-105863400D01*
X149718497Y-105913922D01*
X149654360Y-105966558D01*
X149628507Y-105998060D01*
X149344624Y-106281944D01*
X149239335Y-106261000D01*
X148956665Y-106261000D01*
X148679426Y-106316147D01*
X148418273Y-106424320D01*
X148183241Y-106581363D01*
X147983363Y-106781241D01*
X147826320Y-107016273D01*
X147718147Y-107277426D01*
X147663000Y-107554665D01*
X142913000Y-107554665D01*
X142857853Y-107277426D01*
X142749680Y-107016273D01*
X142592637Y-106781241D01*
X142392759Y-106581363D01*
X142157727Y-106424320D01*
X141896574Y-106316147D01*
X141619335Y-106261000D01*
X141336665Y-106261000D01*
X141059426Y-106316147D01*
X140798273Y-106424320D01*
X140563241Y-106581363D01*
X140363363Y-106781241D01*
X140208000Y-107013759D01*
X140052637Y-106781241D01*
X139852759Y-106581363D01*
X139617727Y-106424320D01*
X139356574Y-106316147D01*
X139079335Y-106261000D01*
X138796665Y-106261000D01*
X138691376Y-106281944D01*
X138407497Y-105998065D01*
X138381640Y-105966558D01*
X138255941Y-105863400D01*
X138112533Y-105786746D01*
X137956925Y-105739543D01*
X137835652Y-105727599D01*
X137835649Y-105727599D01*
X137795099Y-105723605D01*
X137754549Y-105727599D01*
X129961451Y-105727599D01*
X129920900Y-105723605D01*
X129880350Y-105727599D01*
X129880348Y-105727599D01*
X129759075Y-105739543D01*
X129603467Y-105786746D01*
X129460058Y-105863400D01*
X129398497Y-105913922D01*
X129334360Y-105966558D01*
X129308507Y-105998060D01*
X129024624Y-106281944D01*
X128919335Y-106261000D01*
X128636665Y-106261000D01*
X128359426Y-106316147D01*
X128098273Y-106424320D01*
X127863241Y-106581363D01*
X127663363Y-106781241D01*
X127506320Y-107016273D01*
X127398147Y-107277426D01*
X127343000Y-107554665D01*
X127343000Y-107837335D01*
X127398147Y-108114574D01*
X127506320Y-108375727D01*
X127663363Y-108610759D01*
X127863241Y-108810637D01*
X127952500Y-108870278D01*
X127952501Y-109950722D01*
X127863241Y-110010363D01*
X127663363Y-110210241D01*
X127506320Y-110445273D01*
X127398147Y-110706426D01*
X127343000Y-110983665D01*
X127343000Y-111266335D01*
X127398147Y-111543574D01*
X127506320Y-111804727D01*
X127663363Y-112039759D01*
X127863241Y-112239637D01*
X127952500Y-112299278D01*
X127952501Y-113379722D01*
X127863241Y-113439363D01*
X127663363Y-113639241D01*
X127506320Y-113874273D01*
X127398147Y-114135426D01*
X127343000Y-114412665D01*
X127343000Y-114695335D01*
X127398147Y-114972574D01*
X127506320Y-115233727D01*
X127663363Y-115468759D01*
X127863241Y-115668637D01*
X127952500Y-115728278D01*
X127952501Y-116808722D01*
X127863241Y-116868363D01*
X127663363Y-117068241D01*
X127506320Y-117303273D01*
X127398147Y-117564426D01*
X127343000Y-117841665D01*
X127343000Y-118124335D01*
X127398147Y-118401574D01*
X127456229Y-118541796D01*
X124193221Y-115278789D01*
X124193221Y-109946263D01*
X124197214Y-109905720D01*
X124193221Y-109865177D01*
X124193221Y-109865168D01*
X124181277Y-109743895D01*
X124134074Y-109588287D01*
X124057420Y-109444879D01*
X123954262Y-109319180D01*
X123922762Y-109293329D01*
X122572056Y-107942624D01*
X122593000Y-107837335D01*
X122593000Y-107554665D01*
X122537853Y-107277426D01*
X122429680Y-107016273D01*
X122272637Y-106781241D01*
X122072759Y-106581363D01*
X121837727Y-106424320D01*
X121576574Y-106316147D01*
X121299335Y-106261000D01*
X121016665Y-106261000D01*
X120739426Y-106316147D01*
X120478273Y-106424320D01*
X120243241Y-106581363D01*
X120043363Y-106781241D01*
X119886320Y-107016273D01*
X119778147Y-107277426D01*
X119723000Y-107554665D01*
X119723000Y-107837335D01*
X119778147Y-108114574D01*
X119886320Y-108375727D01*
X120043363Y-108610759D01*
X120243241Y-108810637D01*
X120478273Y-108967680D01*
X120739426Y-109075853D01*
X121016665Y-109131000D01*
X121299335Y-109131000D01*
X121404624Y-109110056D01*
X122542221Y-110247654D01*
X122542221Y-110728386D01*
X122537853Y-110706426D01*
X122429680Y-110445273D01*
X122272637Y-110210241D01*
X122072759Y-110010363D01*
X121837727Y-109853320D01*
X121576574Y-109745147D01*
X121299335Y-109690000D01*
X121016665Y-109690000D01*
X120739426Y-109745147D01*
X120478273Y-109853320D01*
X120243241Y-110010363D01*
X120043363Y-110210241D01*
X119886320Y-110445273D01*
X119778147Y-110706426D01*
X119723000Y-110983665D01*
X119723000Y-111266335D01*
X119778147Y-111543574D01*
X119886320Y-111804727D01*
X120043363Y-112039759D01*
X120243241Y-112239637D01*
X120478273Y-112396680D01*
X120739426Y-112504853D01*
X121016665Y-112560000D01*
X121299335Y-112560000D01*
X121404624Y-112539057D01*
X122008811Y-113143245D01*
X122008811Y-113396634D01*
X121837727Y-113282320D01*
X121576574Y-113174147D01*
X121299335Y-113119000D01*
X121016665Y-113119000D01*
X120739426Y-113174147D01*
X120478273Y-113282320D01*
X120243241Y-113439363D01*
X120043363Y-113639241D01*
X119886320Y-113874273D01*
X119778147Y-114135426D01*
X119723000Y-114412665D01*
X119723000Y-114695335D01*
X119778147Y-114972574D01*
X119886320Y-115233727D01*
X120043363Y-115468759D01*
X120243241Y-115668637D01*
X120478273Y-115825680D01*
X120739426Y-115933853D01*
X121016665Y-115989000D01*
X121299335Y-115989000D01*
X121404624Y-115968056D01*
X121475401Y-116038834D01*
X121475401Y-116583022D01*
X121299335Y-116548000D01*
X121016665Y-116548000D01*
X120739426Y-116603147D01*
X120478273Y-116711320D01*
X120243241Y-116868363D01*
X120043363Y-117068241D01*
X119886320Y-117303273D01*
X119848072Y-117395612D01*
X119848072Y-115613000D01*
X119835812Y-115488518D01*
X119799502Y-115368820D01*
X119740537Y-115258506D01*
X119661185Y-115161815D01*
X119564494Y-115082463D01*
X119454180Y-115023498D01*
X119334482Y-114987188D01*
X119210000Y-114974928D01*
X117010000Y-114974928D01*
X116885518Y-114987188D01*
X116765820Y-115023498D01*
X116655506Y-115082463D01*
X116558815Y-115161815D01*
X116479463Y-115258506D01*
X116420498Y-115368820D01*
X116384188Y-115488518D01*
X116371928Y-115613000D01*
X110769000Y-115613000D01*
X110769000Y-97122653D01*
X114765952Y-97122653D01*
X114921962Y-97438214D01*
X115296745Y-97629020D01*
X115701551Y-97743044D01*
X116120824Y-97775902D01*
X116538451Y-97726334D01*
X116938383Y-97596243D01*
X117234038Y-97438214D01*
X117390048Y-97122653D01*
X116078000Y-95810605D01*
X114765952Y-97122653D01*
X110769000Y-97122653D01*
X110769000Y-95673824D01*
X113933098Y-95673824D01*
X113982666Y-96091451D01*
X114112757Y-96491383D01*
X114270786Y-96787038D01*
X114586347Y-96943048D01*
X115898395Y-95631000D01*
X116257605Y-95631000D01*
X117569653Y-96943048D01*
X117885214Y-96787038D01*
X118076020Y-96412255D01*
X118190044Y-96007449D01*
X118222902Y-95588176D01*
X118173334Y-95170549D01*
X118043243Y-94770617D01*
X117885214Y-94474962D01*
X117569653Y-94318952D01*
X116257605Y-95631000D01*
X115898395Y-95631000D01*
X114586347Y-94318952D01*
X114270786Y-94474962D01*
X114079980Y-94849745D01*
X113965956Y-95254551D01*
X113933098Y-95673824D01*
X110769000Y-95673824D01*
X110769000Y-94139347D01*
X114765952Y-94139347D01*
X116078000Y-95451395D01*
X117390048Y-94139347D01*
X117234038Y-93823786D01*
X116859255Y-93632980D01*
X116454449Y-93518956D01*
X116035176Y-93486098D01*
X115617549Y-93535666D01*
X115217617Y-93665757D01*
X114921962Y-93823786D01*
X114765952Y-94139347D01*
X110769000Y-94139347D01*
X110769000Y-81431000D01*
X113939928Y-81431000D01*
X113939928Y-84431000D01*
X113952188Y-84555482D01*
X113988498Y-84675180D01*
X114047463Y-84785494D01*
X114126815Y-84882185D01*
X114223506Y-84961537D01*
X114333820Y-85020502D01*
X114453518Y-85056812D01*
X114578000Y-85069072D01*
X117578000Y-85069072D01*
X117702482Y-85056812D01*
X117822180Y-85020502D01*
X117932494Y-84961537D01*
X118029185Y-84882185D01*
X118108537Y-84785494D01*
X118167502Y-84675180D01*
X118203812Y-84555482D01*
X118216072Y-84431000D01*
X118216072Y-82229768D01*
X129159133Y-71286708D01*
X129197896Y-71254896D01*
X129324860Y-71100190D01*
X129419202Y-70923687D01*
X129477298Y-70732171D01*
X129492000Y-70582902D01*
X129496915Y-70533000D01*
X129492000Y-70483098D01*
X129492000Y-68677763D01*
X129571860Y-68827171D01*
X129744485Y-69037515D01*
X129954829Y-69210140D01*
X130194808Y-69338411D01*
X130455201Y-69417401D01*
X130460000Y-69417874D01*
X130460001Y-92748724D01*
X117426872Y-105781854D01*
X117388104Y-105813670D01*
X117261140Y-105968376D01*
X117166798Y-106144880D01*
X117108702Y-106336395D01*
X117108702Y-106336396D01*
X117089085Y-106535566D01*
X117094000Y-106585468D01*
X117094000Y-107685202D01*
X117004002Y-107745337D01*
X116762337Y-107987002D01*
X116572463Y-108271169D01*
X116441675Y-108586919D01*
X116375000Y-108922117D01*
X116375000Y-109263883D01*
X116441675Y-109599081D01*
X116572463Y-109914831D01*
X116762337Y-110198998D01*
X117004002Y-110440663D01*
X117288169Y-110630537D01*
X117603919Y-110761325D01*
X117939117Y-110828000D01*
X118280883Y-110828000D01*
X118616081Y-110761325D01*
X118931831Y-110630537D01*
X119215998Y-110440663D01*
X119457663Y-110198998D01*
X119647537Y-109914831D01*
X119778325Y-109599081D01*
X119845000Y-109263883D01*
X119845000Y-108922117D01*
X119778325Y-108586919D01*
X119647537Y-108271169D01*
X119457663Y-107987002D01*
X119215998Y-107745337D01*
X119126000Y-107685202D01*
X119126000Y-106956406D01*
X125123109Y-100959297D01*
X125263225Y-101297566D01*
X125474987Y-101614491D01*
X125744509Y-101884013D01*
X126061434Y-102095775D01*
X126413581Y-102241639D01*
X126787419Y-102316000D01*
X127168581Y-102316000D01*
X127542419Y-102241639D01*
X127894566Y-102095775D01*
X128211491Y-101884013D01*
X128481013Y-101614491D01*
X128692775Y-101297566D01*
X128838639Y-100945419D01*
X128913000Y-100571581D01*
X128913000Y-100190419D01*
X153043000Y-100190419D01*
X153043000Y-100571581D01*
X153117361Y-100945419D01*
X153263225Y-101297566D01*
X153474987Y-101614491D01*
X153744509Y-101884013D01*
X154061434Y-102095775D01*
X154413581Y-102241639D01*
X154787419Y-102316000D01*
X155168581Y-102316000D01*
X155542419Y-102241639D01*
X155894566Y-102095775D01*
X156211491Y-101884013D01*
X156481013Y-101614491D01*
X156692775Y-101297566D01*
X156838639Y-100945419D01*
X156913000Y-100571581D01*
X156913000Y-100190419D01*
X156838639Y-99816581D01*
X156692775Y-99464434D01*
X156481013Y-99147509D01*
X156211491Y-98877987D01*
X155894566Y-98666225D01*
X155542419Y-98520361D01*
X155168581Y-98446000D01*
X154787419Y-98446000D01*
X154413581Y-98520361D01*
X154061434Y-98666225D01*
X153744509Y-98877987D01*
X153474987Y-99147509D01*
X153263225Y-99464434D01*
X153117361Y-99816581D01*
X153043000Y-100190419D01*
X128913000Y-100190419D01*
X128838639Y-99816581D01*
X128692775Y-99464434D01*
X128481013Y-99147509D01*
X128211491Y-98877987D01*
X127894566Y-98666225D01*
X127556297Y-98526110D01*
X132159133Y-93923274D01*
X132197896Y-93891462D01*
X132324860Y-93736756D01*
X132419202Y-93560253D01*
X132477298Y-93368737D01*
X132492000Y-93219468D01*
X132492000Y-93219461D01*
X132496914Y-93169567D01*
X132492000Y-93119673D01*
X132492000Y-77990419D01*
X139043000Y-77990419D01*
X139043000Y-78371581D01*
X139117361Y-78745419D01*
X139263225Y-79097566D01*
X139474987Y-79414491D01*
X139744509Y-79684013D01*
X140061434Y-79895775D01*
X140413581Y-80041639D01*
X140787419Y-80116000D01*
X141168581Y-80116000D01*
X141542419Y-80041639D01*
X141894566Y-79895775D01*
X142211491Y-79684013D01*
X142481013Y-79414491D01*
X142692775Y-79097566D01*
X142838639Y-78745419D01*
X142913000Y-78371581D01*
X142913000Y-77990419D01*
X142838639Y-77616581D01*
X142692775Y-77264434D01*
X142481013Y-76947509D01*
X142211491Y-76677987D01*
X141894566Y-76466225D01*
X141542419Y-76320361D01*
X141168581Y-76246000D01*
X140787419Y-76246000D01*
X140413581Y-76320361D01*
X140061434Y-76466225D01*
X139744509Y-76677987D01*
X139474987Y-76947509D01*
X139263225Y-77264434D01*
X139117361Y-77616581D01*
X139043000Y-77990419D01*
X132492000Y-77990419D01*
X132492000Y-69417874D01*
X132496799Y-69417401D01*
X132757192Y-69338411D01*
X132997171Y-69210140D01*
X133207515Y-69037515D01*
X133380140Y-68827171D01*
X133508411Y-68587192D01*
X133587401Y-68326799D01*
X133614072Y-68056000D01*
X133614072Y-66056000D01*
X133603325Y-65946881D01*
X163213724Y-65946881D01*
X163573912Y-66436548D01*
X164237882Y-66796849D01*
X164959385Y-67020694D01*
X165710695Y-67099480D01*
X166462938Y-67030178D01*
X167187208Y-66815452D01*
X167855670Y-66463555D01*
X167896088Y-66436548D01*
X168256276Y-65946881D01*
X165735000Y-63425605D01*
X163213724Y-65946881D01*
X133603325Y-65946881D01*
X133587401Y-65785201D01*
X133508411Y-65524808D01*
X133380140Y-65284829D01*
X133207515Y-65074485D01*
X132997171Y-64901860D01*
X132757192Y-64773589D01*
X132496799Y-64694599D01*
X132226000Y-64667928D01*
X130726000Y-64667928D01*
X130455201Y-64694599D01*
X130194808Y-64773589D01*
X129954829Y-64901860D01*
X129744485Y-65074485D01*
X129571860Y-65284829D01*
X129492000Y-65434237D01*
X129492000Y-64730185D01*
X129646186Y-64714999D01*
X129930028Y-64628896D01*
X130191618Y-64489073D01*
X130420903Y-64300903D01*
X130609073Y-64071618D01*
X130748896Y-63810028D01*
X130834999Y-63526186D01*
X130864072Y-63231000D01*
X130864072Y-63221695D01*
X161881520Y-63221695D01*
X161950822Y-63973938D01*
X162165548Y-64698208D01*
X162517445Y-65366670D01*
X162544452Y-65407088D01*
X163034119Y-65767276D01*
X165555395Y-63246000D01*
X165914605Y-63246000D01*
X168435881Y-65767276D01*
X168925548Y-65407088D01*
X169285849Y-64743118D01*
X169509694Y-64021615D01*
X169588480Y-63270305D01*
X169519178Y-62518062D01*
X169304452Y-61793792D01*
X168952555Y-61125330D01*
X168925548Y-61084912D01*
X168435881Y-60724724D01*
X165914605Y-63246000D01*
X165555395Y-63246000D01*
X163034119Y-60724724D01*
X162544452Y-61084912D01*
X162184151Y-61748882D01*
X161960306Y-62470385D01*
X161881520Y-63221695D01*
X130864072Y-63221695D01*
X130864072Y-61481000D01*
X130834999Y-61185814D01*
X130748896Y-60901972D01*
X130609073Y-60640382D01*
X130530893Y-60545119D01*
X163213724Y-60545119D01*
X165735000Y-63066395D01*
X168256276Y-60545119D01*
X167896088Y-60055452D01*
X167232118Y-59695151D01*
X166510615Y-59471306D01*
X165759305Y-59392520D01*
X165007062Y-59461822D01*
X164282792Y-59676548D01*
X163614330Y-60028445D01*
X163573912Y-60055452D01*
X163213724Y-60545119D01*
X130530893Y-60545119D01*
X130420903Y-60411097D01*
X130191618Y-60222927D01*
X129930028Y-60083104D01*
X129646186Y-59997001D01*
X129351000Y-59967928D01*
X127601000Y-59967928D01*
X127305814Y-59997001D01*
X127021972Y-60083104D01*
X126760382Y-60222927D01*
X126531097Y-60411097D01*
X126342927Y-60640382D01*
X126203104Y-60901972D01*
X126117001Y-61185814D01*
X126087928Y-61481000D01*
X126087928Y-63231000D01*
X126117001Y-63526186D01*
X126203104Y-63810028D01*
X126342927Y-64071618D01*
X126531097Y-64300903D01*
X126760382Y-64489073D01*
X127021972Y-64628896D01*
X127151160Y-64668085D01*
X125761750Y-64671000D01*
X125603000Y-64829750D01*
X125603000Y-66929000D01*
X125623000Y-66929000D01*
X125623000Y-67183000D01*
X125603000Y-67183000D01*
X125603000Y-69282250D01*
X125761750Y-69441000D01*
X127226000Y-69444072D01*
X127350482Y-69431812D01*
X127460001Y-69398590D01*
X127460001Y-70112158D01*
X116779232Y-80792928D01*
X114578000Y-80792928D01*
X114453518Y-80805188D01*
X114333820Y-80841498D01*
X114223506Y-80900463D01*
X114126815Y-80979815D01*
X114047463Y-81076506D01*
X113988498Y-81186820D01*
X113952188Y-81306518D01*
X113939928Y-81431000D01*
X110769000Y-81431000D01*
X110769000Y-68806000D01*
X123087928Y-68806000D01*
X123100188Y-68930482D01*
X123136498Y-69050180D01*
X123195463Y-69160494D01*
X123274815Y-69257185D01*
X123371506Y-69336537D01*
X123481820Y-69395502D01*
X123601518Y-69431812D01*
X123726000Y-69444072D01*
X125190250Y-69441000D01*
X125349000Y-69282250D01*
X125349000Y-67183000D01*
X123249750Y-67183000D01*
X123091000Y-67341750D01*
X123087928Y-68806000D01*
X110769000Y-68806000D01*
X110769000Y-65946881D01*
X112159724Y-65946881D01*
X112519912Y-66436548D01*
X113183882Y-66796849D01*
X113905385Y-67020694D01*
X114656695Y-67099480D01*
X115408938Y-67030178D01*
X116133208Y-66815452D01*
X116801670Y-66463555D01*
X116842088Y-66436548D01*
X117202276Y-65946881D01*
X114681000Y-63425605D01*
X112159724Y-65946881D01*
X110769000Y-65946881D01*
X110769000Y-63221695D01*
X110827520Y-63221695D01*
X110896822Y-63973938D01*
X111111548Y-64698208D01*
X111463445Y-65366670D01*
X111490452Y-65407088D01*
X111980119Y-65767276D01*
X114501395Y-63246000D01*
X114860605Y-63246000D01*
X117381881Y-65767276D01*
X117871548Y-65407088D01*
X117926403Y-65306000D01*
X123087928Y-65306000D01*
X123091000Y-66770250D01*
X123249750Y-66929000D01*
X125349000Y-66929000D01*
X125349000Y-64829750D01*
X125190250Y-64671000D01*
X123726000Y-64667928D01*
X123601518Y-64680188D01*
X123481820Y-64716498D01*
X123371506Y-64775463D01*
X123274815Y-64854815D01*
X123195463Y-64951506D01*
X123136498Y-65061820D01*
X123100188Y-65181518D01*
X123087928Y-65306000D01*
X117926403Y-65306000D01*
X118231849Y-64743118D01*
X118455694Y-64021615D01*
X118534480Y-63270305D01*
X118465178Y-62518062D01*
X118250452Y-61793792D01*
X117898555Y-61125330D01*
X117871548Y-61084912D01*
X117381881Y-60724724D01*
X114860605Y-63246000D01*
X114501395Y-63246000D01*
X111980119Y-60724724D01*
X111490452Y-61084912D01*
X111130151Y-61748882D01*
X110906306Y-62470385D01*
X110827520Y-63221695D01*
X110769000Y-63221695D01*
X110769000Y-60545119D01*
X112159724Y-60545119D01*
X114681000Y-63066395D01*
X117202276Y-60545119D01*
X116842088Y-60055452D01*
X116178118Y-59695151D01*
X115456615Y-59471306D01*
X114705305Y-59392520D01*
X113953062Y-59461822D01*
X113228792Y-59676548D01*
X112560330Y-60028445D01*
X112519912Y-60055452D01*
X112159724Y-60545119D01*
X110769000Y-60545119D01*
X110769000Y-59334000D01*
X169647000Y-59334000D01*
X169647001Y-145263000D01*
%TA.AperFunction,Conductor*%
D25*
G36*
X169647001Y-145263000D02*
G01*
X110769000Y-145263000D01*
X110769000Y-144051881D01*
X112159724Y-144051881D01*
X112519912Y-144541548D01*
X113183882Y-144901849D01*
X113905385Y-145125694D01*
X114656695Y-145204480D01*
X115408938Y-145135178D01*
X116133208Y-144920452D01*
X116801670Y-144568555D01*
X116842088Y-144541548D01*
X117202276Y-144051881D01*
X163213724Y-144051881D01*
X163573912Y-144541548D01*
X164237882Y-144901849D01*
X164959385Y-145125694D01*
X165710695Y-145204480D01*
X166462938Y-145135178D01*
X167187208Y-144920452D01*
X167855670Y-144568555D01*
X167896088Y-144541548D01*
X168256276Y-144051881D01*
X165735000Y-141530605D01*
X163213724Y-144051881D01*
X117202276Y-144051881D01*
X114681000Y-141530605D01*
X112159724Y-144051881D01*
X110769000Y-144051881D01*
X110769000Y-141326695D01*
X110827520Y-141326695D01*
X110896822Y-142078938D01*
X111111548Y-142803208D01*
X111463445Y-143471670D01*
X111490452Y-143512088D01*
X111980119Y-143872276D01*
X114501395Y-141351000D01*
X114860605Y-141351000D01*
X117381881Y-143872276D01*
X117871548Y-143512088D01*
X118004544Y-143267000D01*
X127747928Y-143267000D01*
X127760188Y-143391482D01*
X127796498Y-143511180D01*
X127855463Y-143621494D01*
X127934815Y-143718185D01*
X128031506Y-143797537D01*
X128141820Y-143856502D01*
X128261518Y-143892812D01*
X128386000Y-143905072D01*
X129000250Y-143902000D01*
X129159000Y-143743250D01*
X129159000Y-142494000D01*
X127909750Y-142494000D01*
X127751000Y-142652750D01*
X127747928Y-143267000D01*
X118004544Y-143267000D01*
X118231849Y-142848118D01*
X118455694Y-142126615D01*
X118534480Y-141375305D01*
X118465178Y-140623062D01*
X118250452Y-139898792D01*
X117898555Y-139230330D01*
X117871548Y-139189912D01*
X117381881Y-138829724D01*
X114860605Y-141351000D01*
X114501395Y-141351000D01*
X111980119Y-138829724D01*
X111490452Y-139189912D01*
X111130151Y-139853882D01*
X110906306Y-140575385D01*
X110827520Y-141326695D01*
X110769000Y-141326695D01*
X110769000Y-138650119D01*
X112159724Y-138650119D01*
X114681000Y-141171395D01*
X117202276Y-138650119D01*
X116842088Y-138160452D01*
X116178118Y-137800151D01*
X115456615Y-137576306D01*
X114705305Y-137497520D01*
X113953062Y-137566822D01*
X113228792Y-137781548D01*
X112560330Y-138133445D01*
X112519912Y-138160452D01*
X112159724Y-138650119D01*
X110769000Y-138650119D01*
X110769000Y-115613000D01*
X116371928Y-115613000D01*
X116371928Y-117813000D01*
X116384188Y-117937482D01*
X116420498Y-118057180D01*
X116479463Y-118167494D01*
X116558815Y-118264185D01*
X116655506Y-118343537D01*
X116765820Y-118402502D01*
X116885518Y-118438812D01*
X117010000Y-118451072D01*
X119210000Y-118451072D01*
X119334482Y-118438812D01*
X119454180Y-118402502D01*
X119564494Y-118343537D01*
X119661185Y-118264185D01*
X119733331Y-118176274D01*
X119778147Y-118401574D01*
X119886320Y-118662727D01*
X120043363Y-118897759D01*
X120243241Y-119097637D01*
X120332500Y-119157278D01*
X120332501Y-131658439D01*
X120328506Y-131699000D01*
X120344445Y-131860826D01*
X120391647Y-132016433D01*
X120468301Y-132159842D01*
X120529863Y-132234854D01*
X120571460Y-132285541D01*
X120602961Y-132311393D01*
X129158998Y-140867431D01*
X129158998Y-140990748D01*
X129000250Y-140832000D01*
X128386000Y-140828928D01*
X128261518Y-140841188D01*
X128141820Y-140877498D01*
X128031506Y-140936463D01*
X127934815Y-141015815D01*
X127855463Y-141112506D01*
X127796498Y-141222820D01*
X127760188Y-141342518D01*
X127747928Y-141467000D01*
X127751000Y-142081250D01*
X127909750Y-142240000D01*
X129159000Y-142240000D01*
X129159000Y-142220000D01*
X129413000Y-142220000D01*
X129413000Y-142240000D01*
X129433000Y-142240000D01*
X129433000Y-142494000D01*
X129413000Y-142494000D01*
X129413000Y-143743250D01*
X129571750Y-143902000D01*
X130186000Y-143905072D01*
X130310482Y-143892812D01*
X130430180Y-143856502D01*
X130540494Y-143797537D01*
X130637185Y-143718185D01*
X130716537Y-143621494D01*
X130775502Y-143511180D01*
X130781056Y-143492873D01*
X130847495Y-143559312D01*
X131098905Y-143727299D01*
X131378257Y-143843011D01*
X131674816Y-143902000D01*
X131977184Y-143902000D01*
X132273743Y-143843011D01*
X132553095Y-143727299D01*
X132804505Y-143559312D01*
X133018312Y-143345505D01*
X133070767Y-143267000D01*
X134224928Y-143267000D01*
X134237188Y-143391482D01*
X134273498Y-143511180D01*
X134332463Y-143621494D01*
X134411815Y-143718185D01*
X134508506Y-143797537D01*
X134618820Y-143856502D01*
X134738518Y-143892812D01*
X134863000Y-143905072D01*
X135477250Y-143902000D01*
X135636000Y-143743250D01*
X135636000Y-142494000D01*
X134386750Y-142494000D01*
X134228000Y-142652750D01*
X134224928Y-143267000D01*
X133070767Y-143267000D01*
X133186299Y-143094095D01*
X133302011Y-142814743D01*
X133361000Y-142518184D01*
X133361000Y-142215816D01*
X133302011Y-141919257D01*
X133186299Y-141639905D01*
X133018312Y-141388495D01*
X132804505Y-141174688D01*
X132553095Y-141006701D01*
X132273743Y-140890989D01*
X131977184Y-140832000D01*
X131674816Y-140832000D01*
X131494333Y-140867900D01*
X128435258Y-137808826D01*
X129000250Y-137806000D01*
X129159000Y-137647250D01*
X129159000Y-136398000D01*
X127909750Y-136398000D01*
X127751000Y-136556750D01*
X127748174Y-137121742D01*
X121983500Y-131357068D01*
X121983500Y-127595932D01*
X129158998Y-134771431D01*
X129158998Y-134894748D01*
X129000250Y-134736000D01*
X128386000Y-134732928D01*
X128261518Y-134745188D01*
X128141820Y-134781498D01*
X128031506Y-134840463D01*
X127934815Y-134919815D01*
X127855463Y-135016506D01*
X127796498Y-135126820D01*
X127760188Y-135246518D01*
X127747928Y-135371000D01*
X127751000Y-135985250D01*
X127909750Y-136144000D01*
X129159000Y-136144000D01*
X129159000Y-136124000D01*
X129413000Y-136124000D01*
X129413000Y-136144000D01*
X129433000Y-136144000D01*
X129433000Y-136398000D01*
X129413000Y-136398000D01*
X129413000Y-137647250D01*
X129571750Y-137806000D01*
X130186000Y-137809072D01*
X130310482Y-137796812D01*
X130430180Y-137760502D01*
X130540494Y-137701537D01*
X130637185Y-137622185D01*
X130716537Y-137525494D01*
X130775502Y-137415180D01*
X130781056Y-137396873D01*
X130847495Y-137463312D01*
X131098905Y-137631299D01*
X131378257Y-137747011D01*
X131674816Y-137806000D01*
X131977184Y-137806000D01*
X132273743Y-137747011D01*
X132446321Y-137675527D01*
X132482361Y-137719442D01*
X132513862Y-137745294D01*
X135635998Y-140867431D01*
X135635998Y-140990748D01*
X135477250Y-140832000D01*
X134863000Y-140828928D01*
X134738518Y-140841188D01*
X134618820Y-140877498D01*
X134508506Y-140936463D01*
X134411815Y-141015815D01*
X134332463Y-141112506D01*
X134273498Y-141222820D01*
X134237188Y-141342518D01*
X134224928Y-141467000D01*
X134228000Y-142081250D01*
X134386750Y-142240000D01*
X135636000Y-142240000D01*
X135636000Y-142220000D01*
X135890000Y-142220000D01*
X135890000Y-142240000D01*
X135910000Y-142240000D01*
X135910000Y-142494000D01*
X135890000Y-142494000D01*
X135890000Y-143743250D01*
X136048750Y-143902000D01*
X136663000Y-143905072D01*
X136787482Y-143892812D01*
X136907180Y-143856502D01*
X137017494Y-143797537D01*
X137114185Y-143718185D01*
X137193537Y-143621494D01*
X137252502Y-143511180D01*
X137258056Y-143492873D01*
X137324495Y-143559312D01*
X137575905Y-143727299D01*
X137855257Y-143843011D01*
X138151816Y-143902000D01*
X138454184Y-143902000D01*
X138750743Y-143843011D01*
X139030095Y-143727299D01*
X139281505Y-143559312D01*
X139495312Y-143345505D01*
X139547767Y-143267000D01*
X140701928Y-143267000D01*
X140714188Y-143391482D01*
X140750498Y-143511180D01*
X140809463Y-143621494D01*
X140888815Y-143718185D01*
X140985506Y-143797537D01*
X141095820Y-143856502D01*
X141215518Y-143892812D01*
X141340000Y-143905072D01*
X141954250Y-143902000D01*
X142113000Y-143743250D01*
X142113000Y-142494000D01*
X140863750Y-142494000D01*
X140705000Y-142652750D01*
X140701928Y-143267000D01*
X139547767Y-143267000D01*
X139663299Y-143094095D01*
X139779011Y-142814743D01*
X139838000Y-142518184D01*
X139838000Y-142215816D01*
X139779011Y-141919257D01*
X139663299Y-141639905D01*
X139495312Y-141388495D01*
X139281505Y-141174688D01*
X139030095Y-141006701D01*
X138750743Y-140890989D01*
X138454184Y-140832000D01*
X138151816Y-140832000D01*
X137971334Y-140867900D01*
X134912258Y-137808826D01*
X135477250Y-137806000D01*
X135636000Y-137647250D01*
X135636000Y-136398000D01*
X134386750Y-136398000D01*
X134228000Y-136556750D01*
X134225174Y-137121742D01*
X133894401Y-136790969D01*
X133894401Y-133029833D01*
X135635998Y-134771431D01*
X135635998Y-134894748D01*
X135477250Y-134736000D01*
X134863000Y-134732928D01*
X134738518Y-134745188D01*
X134618820Y-134781498D01*
X134508506Y-134840463D01*
X134411815Y-134919815D01*
X134332463Y-135016506D01*
X134273498Y-135126820D01*
X134237188Y-135246518D01*
X134224928Y-135371000D01*
X134228000Y-135985250D01*
X134386750Y-136144000D01*
X135636000Y-136144000D01*
X135636000Y-136124000D01*
X135890000Y-136124000D01*
X135890000Y-136144000D01*
X135910000Y-136144000D01*
X135910000Y-136398000D01*
X135890000Y-136398000D01*
X135890000Y-137647250D01*
X136048750Y-137806000D01*
X136663000Y-137809072D01*
X136787482Y-137796812D01*
X136907180Y-137760502D01*
X137017494Y-137701537D01*
X137114185Y-137622185D01*
X137193537Y-137525494D01*
X137252502Y-137415180D01*
X137258056Y-137396873D01*
X137324495Y-137463312D01*
X137575905Y-137631299D01*
X137855257Y-137747011D01*
X138151816Y-137806000D01*
X138454184Y-137806000D01*
X138750743Y-137747011D01*
X139030095Y-137631299D01*
X139281505Y-137463312D01*
X139495312Y-137249505D01*
X139663299Y-136998095D01*
X139779011Y-136718743D01*
X139838000Y-136422184D01*
X139838000Y-136119816D01*
X139779011Y-135823257D01*
X139663299Y-135543905D01*
X139495312Y-135292495D01*
X139281505Y-135078688D01*
X139030095Y-134910701D01*
X138750743Y-134794989D01*
X138454184Y-134736000D01*
X138151816Y-134736000D01*
X137971333Y-134771900D01*
X134912258Y-131712826D01*
X135477250Y-131710000D01*
X135636000Y-131551250D01*
X135636000Y-130302000D01*
X135616000Y-130302000D01*
X135616000Y-130048000D01*
X135636000Y-130048000D01*
X135636000Y-128798750D01*
X135477250Y-128640000D01*
X134863000Y-128636928D01*
X134738518Y-128649188D01*
X134618820Y-128685498D01*
X134508506Y-128744463D01*
X134427811Y-128810687D01*
X134427811Y-125443313D01*
X134508506Y-125509537D01*
X134618820Y-125568502D01*
X134738518Y-125604812D01*
X134863000Y-125617072D01*
X135477250Y-125614000D01*
X135636000Y-125455250D01*
X135636000Y-124206000D01*
X135616000Y-124206000D01*
X135616000Y-123952000D01*
X135636000Y-123952000D01*
X135636000Y-122702750D01*
X135477250Y-122544000D01*
X134863000Y-122540928D01*
X134738518Y-122553188D01*
X134618820Y-122589498D01*
X134508506Y-122648463D01*
X134427811Y-122714687D01*
X134427811Y-116878861D01*
X134431805Y-116838311D01*
X134423210Y-116751046D01*
X134415867Y-116676485D01*
X134368664Y-116520877D01*
X134331460Y-116451274D01*
X134292010Y-116377468D01*
X134214703Y-116283269D01*
X134214700Y-116283266D01*
X134188852Y-116251770D01*
X134157357Y-116225923D01*
X132732056Y-114800624D01*
X132753000Y-114695335D01*
X132753000Y-114412665D01*
X132697853Y-114135426D01*
X132589680Y-113874273D01*
X132432637Y-113639241D01*
X132232759Y-113439363D01*
X131997727Y-113282320D01*
X131736574Y-113174147D01*
X131459335Y-113119000D01*
X131176665Y-113119000D01*
X130899426Y-113174147D01*
X130638273Y-113282320D01*
X130403241Y-113439363D01*
X130203363Y-113639241D01*
X130048000Y-113871759D01*
X129892637Y-113639241D01*
X129692759Y-113439363D01*
X129603500Y-113379722D01*
X129603500Y-112299278D01*
X129692759Y-112239637D01*
X129892637Y-112039759D01*
X130048000Y-111807241D01*
X130203363Y-112039759D01*
X130403241Y-112239637D01*
X130638273Y-112396680D01*
X130899426Y-112504853D01*
X131176665Y-112560000D01*
X131459335Y-112560000D01*
X131564624Y-112539056D01*
X136234599Y-117209032D01*
X136234599Y-122543071D01*
X136048750Y-122544000D01*
X135890000Y-122702750D01*
X135890000Y-123952000D01*
X135910000Y-123952000D01*
X135910000Y-124206000D01*
X135890000Y-124206000D01*
X135890000Y-125455250D01*
X136048750Y-125614000D01*
X136234600Y-125614929D01*
X136234600Y-128639071D01*
X136048750Y-128640000D01*
X135890000Y-128798750D01*
X135890000Y-130048000D01*
X135910000Y-130048000D01*
X135910000Y-130302000D01*
X135890000Y-130302000D01*
X135890000Y-131551250D01*
X136048750Y-131710000D01*
X136663000Y-131713072D01*
X136787482Y-131700812D01*
X136907180Y-131664502D01*
X137017494Y-131605537D01*
X137114185Y-131526185D01*
X137193537Y-131429494D01*
X137252502Y-131319180D01*
X137258056Y-131300873D01*
X137324495Y-131367312D01*
X137575905Y-131535299D01*
X137855257Y-131651011D01*
X138151816Y-131710000D01*
X138454184Y-131710000D01*
X138750743Y-131651011D01*
X139030095Y-131535299D01*
X139281505Y-131367312D01*
X139495312Y-131153505D01*
X139663299Y-130902095D01*
X139779011Y-130622743D01*
X139838000Y-130326184D01*
X139838000Y-130023816D01*
X139779011Y-129727257D01*
X139663299Y-129447905D01*
X139495312Y-129196495D01*
X139281505Y-128982688D01*
X139030095Y-128814701D01*
X138750743Y-128698989D01*
X138454184Y-128640000D01*
X138151816Y-128640000D01*
X137971333Y-128675900D01*
X137885599Y-128590167D01*
X137885599Y-125561046D01*
X138151816Y-125614000D01*
X138454184Y-125614000D01*
X138750743Y-125555011D01*
X139030095Y-125439299D01*
X139281505Y-125271312D01*
X139495312Y-125057505D01*
X139663299Y-124806095D01*
X139779011Y-124526743D01*
X139838000Y-124230184D01*
X139838000Y-123927816D01*
X139779011Y-123631257D01*
X139663299Y-123351905D01*
X139495312Y-123100495D01*
X139281505Y-122886688D01*
X139030095Y-122718701D01*
X138750743Y-122602989D01*
X138620599Y-122577102D01*
X138620599Y-119382978D01*
X138796665Y-119418000D01*
X139079335Y-119418000D01*
X139356574Y-119362853D01*
X139617727Y-119254680D01*
X139852501Y-119097809D01*
X139852502Y-138224440D01*
X139848507Y-138265001D01*
X139864446Y-138426827D01*
X139911648Y-138582434D01*
X139988302Y-138725843D01*
X140025686Y-138771395D01*
X140091461Y-138851542D01*
X140122962Y-138877394D01*
X142112998Y-140867431D01*
X142112998Y-140990748D01*
X141954250Y-140832000D01*
X141340000Y-140828928D01*
X141215518Y-140841188D01*
X141095820Y-140877498D01*
X140985506Y-140936463D01*
X140888815Y-141015815D01*
X140809463Y-141112506D01*
X140750498Y-141222820D01*
X140714188Y-141342518D01*
X140701928Y-141467000D01*
X140705000Y-142081250D01*
X140863750Y-142240000D01*
X142113000Y-142240000D01*
X142113000Y-142220000D01*
X142367000Y-142220000D01*
X142367000Y-142240000D01*
X142387000Y-142240000D01*
X142387000Y-142494000D01*
X142367000Y-142494000D01*
X142367000Y-143743250D01*
X142525750Y-143902000D01*
X143140000Y-143905072D01*
X143264482Y-143892812D01*
X143384180Y-143856502D01*
X143494494Y-143797537D01*
X143591185Y-143718185D01*
X143670537Y-143621494D01*
X143729502Y-143511180D01*
X143735056Y-143492873D01*
X143801495Y-143559312D01*
X144052905Y-143727299D01*
X144332257Y-143843011D01*
X144628816Y-143902000D01*
X144931184Y-143902000D01*
X145227743Y-143843011D01*
X145507095Y-143727299D01*
X145758505Y-143559312D01*
X145972312Y-143345505D01*
X146024767Y-143267000D01*
X147178928Y-143267000D01*
X147191188Y-143391482D01*
X147227498Y-143511180D01*
X147286463Y-143621494D01*
X147365815Y-143718185D01*
X147462506Y-143797537D01*
X147572820Y-143856502D01*
X147692518Y-143892812D01*
X147817000Y-143905072D01*
X148431250Y-143902000D01*
X148590000Y-143743250D01*
X148590000Y-142494000D01*
X147340750Y-142494000D01*
X147182000Y-142652750D01*
X147178928Y-143267000D01*
X146024767Y-143267000D01*
X146140299Y-143094095D01*
X146256011Y-142814743D01*
X146315000Y-142518184D01*
X146315000Y-142215816D01*
X146256011Y-141919257D01*
X146140299Y-141639905D01*
X146024768Y-141467000D01*
X147178928Y-141467000D01*
X147182000Y-142081250D01*
X147340750Y-142240000D01*
X148590000Y-142240000D01*
X148590000Y-140990750D01*
X148844000Y-140990750D01*
X148844000Y-142240000D01*
X148864000Y-142240000D01*
X148864000Y-142494000D01*
X148844000Y-142494000D01*
X148844000Y-143743250D01*
X149002750Y-143902000D01*
X149617000Y-143905072D01*
X149741482Y-143892812D01*
X149861180Y-143856502D01*
X149971494Y-143797537D01*
X150068185Y-143718185D01*
X150147537Y-143621494D01*
X150206502Y-143511180D01*
X150212056Y-143492873D01*
X150278495Y-143559312D01*
X150529905Y-143727299D01*
X150809257Y-143843011D01*
X151105816Y-143902000D01*
X151408184Y-143902000D01*
X151704743Y-143843011D01*
X151984095Y-143727299D01*
X152235505Y-143559312D01*
X152449312Y-143345505D01*
X152617299Y-143094095D01*
X152733011Y-142814743D01*
X152792000Y-142518184D01*
X152792000Y-142215816D01*
X152733011Y-141919257D01*
X152617299Y-141639905D01*
X152449312Y-141388495D01*
X152387512Y-141326695D01*
X161881520Y-141326695D01*
X161950822Y-142078938D01*
X162165548Y-142803208D01*
X162517445Y-143471670D01*
X162544452Y-143512088D01*
X163034119Y-143872276D01*
X165555395Y-141351000D01*
X165914605Y-141351000D01*
X168435881Y-143872276D01*
X168925548Y-143512088D01*
X169285849Y-142848118D01*
X169509694Y-142126615D01*
X169588480Y-141375305D01*
X169519178Y-140623062D01*
X169304452Y-139898792D01*
X168952555Y-139230330D01*
X168925548Y-139189912D01*
X168435881Y-138829724D01*
X165914605Y-141351000D01*
X165555395Y-141351000D01*
X163034119Y-138829724D01*
X162544452Y-139189912D01*
X162184151Y-139853882D01*
X161960306Y-140575385D01*
X161881520Y-141326695D01*
X152387512Y-141326695D01*
X152235505Y-141174688D01*
X151984095Y-141006701D01*
X151704743Y-140890989D01*
X151408184Y-140832000D01*
X151105816Y-140832000D01*
X150809257Y-140890989D01*
X150529905Y-141006701D01*
X150278495Y-141174688D01*
X150212056Y-141241127D01*
X150206502Y-141222820D01*
X150147537Y-141112506D01*
X150068185Y-141015815D01*
X149971494Y-140936463D01*
X149861180Y-140877498D01*
X149741482Y-140841188D01*
X149617000Y-140828928D01*
X149002750Y-140832000D01*
X148844000Y-140990750D01*
X148590000Y-140990750D01*
X148431250Y-140832000D01*
X147817000Y-140828928D01*
X147692518Y-140841188D01*
X147572820Y-140877498D01*
X147462506Y-140936463D01*
X147365815Y-141015815D01*
X147286463Y-141112506D01*
X147227498Y-141222820D01*
X147191188Y-141342518D01*
X147178928Y-141467000D01*
X146024768Y-141467000D01*
X145972312Y-141388495D01*
X145758505Y-141174688D01*
X145507095Y-141006701D01*
X145227743Y-140890989D01*
X144931184Y-140832000D01*
X144628816Y-140832000D01*
X144448334Y-140867900D01*
X142230552Y-138650119D01*
X163213724Y-138650119D01*
X165735000Y-141171395D01*
X168256276Y-138650119D01*
X167896088Y-138160452D01*
X167232118Y-137800151D01*
X166510615Y-137576306D01*
X165759305Y-137497520D01*
X165007062Y-137566822D01*
X164282792Y-137781548D01*
X163614330Y-138133445D01*
X163573912Y-138160452D01*
X163213724Y-138650119D01*
X142230552Y-138650119D01*
X141503501Y-137923069D01*
X141503501Y-137808254D01*
X141954250Y-137806000D01*
X142113000Y-137647250D01*
X142113000Y-136398000D01*
X142093000Y-136398000D01*
X142093000Y-136144000D01*
X142113000Y-136144000D01*
X142113000Y-134894750D01*
X141954250Y-134736000D01*
X141503501Y-134733746D01*
X141503501Y-131712254D01*
X141954250Y-131710000D01*
X142113000Y-131551250D01*
X142113000Y-130302000D01*
X142093000Y-130302000D01*
X142093000Y-130048000D01*
X142113000Y-130048000D01*
X142113000Y-128798750D01*
X141954250Y-128640000D01*
X141503501Y-128637746D01*
X141503501Y-125616254D01*
X141954250Y-125614000D01*
X142113000Y-125455250D01*
X142113000Y-124206000D01*
X142093000Y-124206000D01*
X142093000Y-123952000D01*
X142113000Y-123952000D01*
X142113000Y-122702750D01*
X141954250Y-122544000D01*
X141503501Y-122541746D01*
X141503501Y-119418000D01*
X141619335Y-119418000D01*
X141896574Y-119362853D01*
X142157727Y-119254680D01*
X142392759Y-119097637D01*
X142592637Y-118897759D01*
X142711599Y-118719719D01*
X142711599Y-122543071D01*
X142525750Y-122544000D01*
X142367000Y-122702750D01*
X142367000Y-123952000D01*
X142387000Y-123952000D01*
X142387000Y-124206000D01*
X142367000Y-124206000D01*
X142367000Y-125455250D01*
X142525750Y-125614000D01*
X142711599Y-125614929D01*
X142711600Y-128639071D01*
X142525750Y-128640000D01*
X142367000Y-128798750D01*
X142367000Y-130048000D01*
X142387000Y-130048000D01*
X142387000Y-130302000D01*
X142367000Y-130302000D01*
X142367000Y-131551250D01*
X142525750Y-131710000D01*
X142711600Y-131710929D01*
X142711600Y-134735071D01*
X142525750Y-134736000D01*
X142367000Y-134894750D01*
X142367000Y-136144000D01*
X142387000Y-136144000D01*
X142387000Y-136398000D01*
X142367000Y-136398000D01*
X142367000Y-137647250D01*
X142525750Y-137806000D01*
X143140000Y-137809072D01*
X143264482Y-137796812D01*
X143384180Y-137760502D01*
X143494494Y-137701537D01*
X143591185Y-137622185D01*
X143670537Y-137525494D01*
X143729502Y-137415180D01*
X143735056Y-137396873D01*
X143801495Y-137463312D01*
X144052905Y-137631299D01*
X144332257Y-137747011D01*
X144628816Y-137806000D01*
X144931184Y-137806000D01*
X145227743Y-137747011D01*
X145507095Y-137631299D01*
X145758505Y-137463312D01*
X145972312Y-137249505D01*
X146024767Y-137171000D01*
X147178928Y-137171000D01*
X147191188Y-137295482D01*
X147227498Y-137415180D01*
X147286463Y-137525494D01*
X147365815Y-137622185D01*
X147462506Y-137701537D01*
X147572820Y-137760502D01*
X147692518Y-137796812D01*
X147817000Y-137809072D01*
X148431250Y-137806000D01*
X148590000Y-137647250D01*
X148590000Y-136398000D01*
X147340750Y-136398000D01*
X147182000Y-136556750D01*
X147178928Y-137171000D01*
X146024767Y-137171000D01*
X146140299Y-136998095D01*
X146256011Y-136718743D01*
X146315000Y-136422184D01*
X146315000Y-136119816D01*
X146256011Y-135823257D01*
X146140299Y-135543905D01*
X146024768Y-135371000D01*
X147178928Y-135371000D01*
X147182000Y-135985250D01*
X147340750Y-136144000D01*
X148590000Y-136144000D01*
X148590000Y-134894750D01*
X148844000Y-134894750D01*
X148844000Y-136144000D01*
X148864000Y-136144000D01*
X148864000Y-136398000D01*
X148844000Y-136398000D01*
X148844000Y-137647250D01*
X149002750Y-137806000D01*
X149617000Y-137809072D01*
X149741482Y-137796812D01*
X149861180Y-137760502D01*
X149971494Y-137701537D01*
X150068185Y-137622185D01*
X150147537Y-137525494D01*
X150206502Y-137415180D01*
X150212056Y-137396873D01*
X150278495Y-137463312D01*
X150529905Y-137631299D01*
X150809257Y-137747011D01*
X151105816Y-137806000D01*
X151408184Y-137806000D01*
X151704743Y-137747011D01*
X151984095Y-137631299D01*
X152235505Y-137463312D01*
X152449312Y-137249505D01*
X152617299Y-136998095D01*
X152733011Y-136718743D01*
X152792000Y-136422184D01*
X152792000Y-136119816D01*
X152733011Y-135823257D01*
X152617299Y-135543905D01*
X152449312Y-135292495D01*
X152235505Y-135078688D01*
X151984095Y-134910701D01*
X151704743Y-134794989D01*
X151408184Y-134736000D01*
X151105816Y-134736000D01*
X150809257Y-134794989D01*
X150529905Y-134910701D01*
X150278495Y-135078688D01*
X150212056Y-135145127D01*
X150206502Y-135126820D01*
X150147537Y-135016506D01*
X150068185Y-134919815D01*
X149971494Y-134840463D01*
X149861180Y-134781498D01*
X149741482Y-134745188D01*
X149617000Y-134732928D01*
X149002750Y-134736000D01*
X148844000Y-134894750D01*
X148590000Y-134894750D01*
X148431250Y-134736000D01*
X147817000Y-134732928D01*
X147692518Y-134745188D01*
X147572820Y-134781498D01*
X147462506Y-134840463D01*
X147365815Y-134919815D01*
X147286463Y-135016506D01*
X147227498Y-135126820D01*
X147191188Y-135246518D01*
X147178928Y-135371000D01*
X146024768Y-135371000D01*
X145972312Y-135292495D01*
X145758505Y-135078688D01*
X145507095Y-134910701D01*
X145227743Y-134794989D01*
X144931184Y-134736000D01*
X144628816Y-134736000D01*
X144448333Y-134771900D01*
X144362599Y-134686167D01*
X144362599Y-131657046D01*
X144628816Y-131710000D01*
X144931184Y-131710000D01*
X145227743Y-131651011D01*
X145507095Y-131535299D01*
X145758505Y-131367312D01*
X145972312Y-131153505D01*
X146024767Y-131075000D01*
X147178928Y-131075000D01*
X147191188Y-131199482D01*
X147227498Y-131319180D01*
X147286463Y-131429494D01*
X147365815Y-131526185D01*
X147462506Y-131605537D01*
X147572820Y-131664502D01*
X147692518Y-131700812D01*
X147817000Y-131713072D01*
X148431250Y-131710000D01*
X148590000Y-131551250D01*
X148590000Y-130302000D01*
X147340750Y-130302000D01*
X147182000Y-130460750D01*
X147178928Y-131075000D01*
X146024767Y-131075000D01*
X146140299Y-130902095D01*
X146256011Y-130622743D01*
X146315000Y-130326184D01*
X146315000Y-130023816D01*
X146279100Y-129843333D01*
X146577940Y-129544493D01*
X146609442Y-129518640D01*
X146667492Y-129447905D01*
X146712599Y-129392943D01*
X146775641Y-129275000D01*
X147178928Y-129275000D01*
X147182000Y-129889250D01*
X147340750Y-130048000D01*
X148590000Y-130048000D01*
X148590000Y-128798750D01*
X148431250Y-128640000D01*
X147817000Y-128636928D01*
X147692518Y-128649188D01*
X147572820Y-128685498D01*
X147462506Y-128744463D01*
X147365815Y-128823815D01*
X147286463Y-128920506D01*
X147227498Y-129030820D01*
X147191188Y-129150518D01*
X147178928Y-129275000D01*
X146775641Y-129275000D01*
X146789254Y-129249533D01*
X146836457Y-129093925D01*
X146848401Y-128972652D01*
X146848401Y-128972643D01*
X146852394Y-128932100D01*
X146848401Y-128891557D01*
X146848401Y-124979000D01*
X147178928Y-124979000D01*
X147191188Y-125103482D01*
X147227498Y-125223180D01*
X147286463Y-125333494D01*
X147365815Y-125430185D01*
X147462506Y-125509537D01*
X147572820Y-125568502D01*
X147692518Y-125604812D01*
X147817000Y-125617072D01*
X148431250Y-125614000D01*
X148590000Y-125455250D01*
X148590000Y-124206000D01*
X147340750Y-124206000D01*
X147182000Y-124364750D01*
X147178928Y-124979000D01*
X146848401Y-124979000D01*
X146848401Y-123179000D01*
X147178928Y-123179000D01*
X147182000Y-123793250D01*
X147340750Y-123952000D01*
X148590000Y-123952000D01*
X148590000Y-122702750D01*
X148431250Y-122544000D01*
X147817000Y-122540928D01*
X147692518Y-122553188D01*
X147572820Y-122589498D01*
X147462506Y-122648463D01*
X147365815Y-122727815D01*
X147286463Y-122824506D01*
X147227498Y-122934820D01*
X147191188Y-123054518D01*
X147178928Y-123179000D01*
X146848401Y-123179000D01*
X146848401Y-115710451D01*
X146852395Y-115669901D01*
X146846791Y-115613000D01*
X146836457Y-115508075D01*
X146789254Y-115352467D01*
X146762967Y-115303288D01*
X146712600Y-115209058D01*
X146635293Y-115114859D01*
X146635290Y-115114856D01*
X146609442Y-115083360D01*
X146577947Y-115057513D01*
X142892056Y-111371624D01*
X142913000Y-111266335D01*
X142913000Y-110983665D01*
X142857853Y-110706426D01*
X142749680Y-110445273D01*
X142592637Y-110210241D01*
X142392759Y-110010363D01*
X142157727Y-109853320D01*
X141896574Y-109745147D01*
X141619335Y-109690000D01*
X141336665Y-109690000D01*
X141160599Y-109725022D01*
X141160599Y-109180833D01*
X141231376Y-109110056D01*
X141336665Y-109131000D01*
X141619335Y-109131000D01*
X141896574Y-109075853D01*
X142157727Y-108967680D01*
X142392759Y-108810637D01*
X142592637Y-108610759D01*
X142749680Y-108375727D01*
X142857853Y-108114574D01*
X142913000Y-107837335D01*
X142913000Y-107554665D01*
X147663000Y-107554665D01*
X147663000Y-107837335D01*
X147718147Y-108114574D01*
X147826320Y-108375727D01*
X147983363Y-108610759D01*
X148183241Y-108810637D01*
X148272500Y-108870278D01*
X148272501Y-109950722D01*
X148183241Y-110010363D01*
X147983363Y-110210241D01*
X147826320Y-110445273D01*
X147718147Y-110706426D01*
X147663000Y-110983665D01*
X147663000Y-111266335D01*
X147718147Y-111543574D01*
X147826320Y-111804727D01*
X147983363Y-112039759D01*
X148183241Y-112239637D01*
X148272500Y-112299278D01*
X148272501Y-113379722D01*
X148183241Y-113439363D01*
X147983363Y-113639241D01*
X147826320Y-113874273D01*
X147718147Y-114135426D01*
X147663000Y-114412665D01*
X147663000Y-114695335D01*
X147718147Y-114972574D01*
X147826320Y-115233727D01*
X147983363Y-115468759D01*
X148183241Y-115668637D01*
X148272500Y-115728278D01*
X148272501Y-116808722D01*
X148183241Y-116868363D01*
X147983363Y-117068241D01*
X147826320Y-117303273D01*
X147718147Y-117564426D01*
X147663000Y-117841665D01*
X147663000Y-118124335D01*
X147718147Y-118401574D01*
X147826320Y-118662727D01*
X147983363Y-118897759D01*
X148183241Y-119097637D01*
X148418273Y-119254680D01*
X148679426Y-119362853D01*
X148956665Y-119418000D01*
X149239335Y-119418000D01*
X149516574Y-119362853D01*
X149669600Y-119299468D01*
X149669600Y-122546108D01*
X149617000Y-122540928D01*
X149002750Y-122544000D01*
X148844000Y-122702750D01*
X148844000Y-123952000D01*
X148864000Y-123952000D01*
X148864000Y-124206000D01*
X148844000Y-124206000D01*
X148844000Y-125455250D01*
X149002750Y-125614000D01*
X149617000Y-125617072D01*
X149741482Y-125604812D01*
X149861180Y-125568502D01*
X149971494Y-125509537D01*
X150068185Y-125430185D01*
X150147537Y-125333494D01*
X150206502Y-125223180D01*
X150212056Y-125204873D01*
X150278495Y-125271312D01*
X150529905Y-125439299D01*
X150809257Y-125555011D01*
X151105816Y-125614000D01*
X151408184Y-125614000D01*
X151704743Y-125555011D01*
X151955402Y-125451184D01*
X151955402Y-128309165D01*
X151588667Y-128675900D01*
X151408184Y-128640000D01*
X151105816Y-128640000D01*
X150809257Y-128698989D01*
X150529905Y-128814701D01*
X150278495Y-128982688D01*
X150212056Y-129049127D01*
X150206502Y-129030820D01*
X150147537Y-128920506D01*
X150068185Y-128823815D01*
X149971494Y-128744463D01*
X149861180Y-128685498D01*
X149741482Y-128649188D01*
X149617000Y-128636928D01*
X149002750Y-128640000D01*
X148844000Y-128798750D01*
X148844000Y-130048000D01*
X148864000Y-130048000D01*
X148864000Y-130302000D01*
X148844000Y-130302000D01*
X148844000Y-131551250D01*
X149002750Y-131710000D01*
X149617000Y-131713072D01*
X149741482Y-131700812D01*
X149861180Y-131664502D01*
X149971494Y-131605537D01*
X150068185Y-131526185D01*
X150147537Y-131429494D01*
X150206502Y-131319180D01*
X150212056Y-131300873D01*
X150278495Y-131367312D01*
X150529905Y-131535299D01*
X150809257Y-131651011D01*
X151105816Y-131710000D01*
X151408184Y-131710000D01*
X151704743Y-131651011D01*
X151984095Y-131535299D01*
X152235505Y-131367312D01*
X152449312Y-131153505D01*
X152617299Y-130902095D01*
X152733011Y-130622743D01*
X152792000Y-130326184D01*
X152792000Y-130023816D01*
X152756100Y-129843333D01*
X153335940Y-129263493D01*
X153367442Y-129237640D01*
X153438941Y-129150518D01*
X153470599Y-129111943D01*
X153480230Y-129093925D01*
X153547254Y-128968533D01*
X153594457Y-128812925D01*
X153606401Y-128691652D01*
X153606401Y-128691643D01*
X153610394Y-128651100D01*
X153606401Y-128610557D01*
X153606401Y-112308451D01*
X153610395Y-112267900D01*
X153604974Y-112212858D01*
X153594457Y-112106075D01*
X153547254Y-111950467D01*
X153470601Y-111807060D01*
X153470600Y-111807058D01*
X153412527Y-111736297D01*
X153367442Y-111681360D01*
X153335941Y-111655509D01*
X153052056Y-111371624D01*
X153073000Y-111266335D01*
X153073000Y-110983665D01*
X153017853Y-110706426D01*
X152909680Y-110445273D01*
X152752637Y-110210241D01*
X152552759Y-110010363D01*
X152317727Y-109853320D01*
X152056574Y-109745147D01*
X151779335Y-109690000D01*
X151496665Y-109690000D01*
X151320599Y-109725022D01*
X151320599Y-109180833D01*
X151391376Y-109110056D01*
X151496665Y-109131000D01*
X151779335Y-109131000D01*
X152056574Y-109075853D01*
X152317727Y-108967680D01*
X152552759Y-108810637D01*
X152752637Y-108610759D01*
X152909680Y-108375727D01*
X153017853Y-108114574D01*
X153073000Y-107837335D01*
X153073000Y-107554665D01*
X153037978Y-107378599D01*
X157773167Y-107378599D01*
X157843944Y-107449376D01*
X157823000Y-107554665D01*
X157823000Y-107837335D01*
X157878147Y-108114574D01*
X157986320Y-108375727D01*
X158143363Y-108610759D01*
X158343241Y-108810637D01*
X158432501Y-108870278D01*
X158432500Y-109950722D01*
X158343241Y-110010363D01*
X158143363Y-110210241D01*
X157986320Y-110445273D01*
X157878147Y-110706426D01*
X157823000Y-110983665D01*
X157823000Y-111266335D01*
X157878147Y-111543574D01*
X157986320Y-111804727D01*
X158143363Y-112039759D01*
X158343241Y-112239637D01*
X158432501Y-112299278D01*
X158432500Y-113379722D01*
X158343241Y-113439363D01*
X158143363Y-113639241D01*
X157986320Y-113874273D01*
X157878147Y-114135426D01*
X157823000Y-114412665D01*
X157823000Y-114695335D01*
X157878147Y-114972574D01*
X157986320Y-115233727D01*
X158143363Y-115468759D01*
X158343241Y-115668637D01*
X158432501Y-115728278D01*
X158432500Y-116808722D01*
X158343241Y-116868363D01*
X158143363Y-117068241D01*
X157986320Y-117303273D01*
X157878147Y-117564426D01*
X157823000Y-117841665D01*
X157823000Y-118124335D01*
X157878147Y-118401574D01*
X157986320Y-118662727D01*
X158143363Y-118897759D01*
X158343241Y-119097637D01*
X158578273Y-119254680D01*
X158839426Y-119362853D01*
X159116665Y-119418000D01*
X159399335Y-119418000D01*
X159676574Y-119362853D01*
X159937727Y-119254680D01*
X160172759Y-119097637D01*
X160372637Y-118897759D01*
X160432278Y-118808500D01*
X162969647Y-118808500D01*
X163013858Y-118832131D01*
X163289422Y-118915723D01*
X163504185Y-118936875D01*
X164917815Y-118936875D01*
X165132578Y-118915723D01*
X165408142Y-118832131D01*
X165662104Y-118696386D01*
X165884703Y-118513703D01*
X166067386Y-118291104D01*
X166203131Y-118037142D01*
X166286723Y-117761578D01*
X166314948Y-117475000D01*
X166286723Y-117188422D01*
X166203131Y-116912858D01*
X166067386Y-116658896D01*
X165884703Y-116436297D01*
X165662104Y-116253614D01*
X165408142Y-116117869D01*
X165132578Y-116034277D01*
X164917815Y-116013125D01*
X163504185Y-116013125D01*
X163289422Y-116034277D01*
X163013858Y-116117869D01*
X162759896Y-116253614D01*
X162537297Y-116436297D01*
X162354614Y-116658896D01*
X162218869Y-116912858D01*
X162144657Y-117157500D01*
X160432278Y-117157500D01*
X160372637Y-117068241D01*
X160172759Y-116868363D01*
X160083500Y-116808722D01*
X160083500Y-115728278D01*
X160172759Y-115668637D01*
X160372637Y-115468759D01*
X160529680Y-115233727D01*
X160637853Y-114972574D01*
X160693000Y-114695335D01*
X160693000Y-114412665D01*
X160637853Y-114135426D01*
X160529680Y-113874273D01*
X160372637Y-113639241D01*
X160172759Y-113439363D01*
X160083500Y-113379722D01*
X160083500Y-112775000D01*
X162107052Y-112775000D01*
X162135277Y-113061578D01*
X162218869Y-113337142D01*
X162354614Y-113591104D01*
X162537297Y-113813703D01*
X162759896Y-113996386D01*
X163013858Y-114132131D01*
X163289422Y-114215723D01*
X163504185Y-114236875D01*
X164917815Y-114236875D01*
X165132578Y-114215723D01*
X165408142Y-114132131D01*
X165662104Y-113996386D01*
X165884703Y-113813703D01*
X166067386Y-113591104D01*
X166203131Y-113337142D01*
X166286723Y-113061578D01*
X166314948Y-112775000D01*
X166286723Y-112488422D01*
X166203131Y-112212858D01*
X166067386Y-111958896D01*
X165884703Y-111736297D01*
X165662104Y-111553614D01*
X165408142Y-111417869D01*
X165132578Y-111334277D01*
X164917815Y-111313125D01*
X163504185Y-111313125D01*
X163289422Y-111334277D01*
X163013858Y-111417869D01*
X162759896Y-111553614D01*
X162537297Y-111736297D01*
X162354614Y-111958896D01*
X162218869Y-112212858D01*
X162135277Y-112488422D01*
X162107052Y-112775000D01*
X160083500Y-112775000D01*
X160083500Y-112299278D01*
X160172759Y-112239637D01*
X160372637Y-112039759D01*
X160529680Y-111804727D01*
X160637853Y-111543574D01*
X160693000Y-111266335D01*
X160693000Y-110983665D01*
X160637853Y-110706426D01*
X160529680Y-110445273D01*
X160372637Y-110210241D01*
X160172759Y-110010363D01*
X160083500Y-109950722D01*
X160083500Y-108870278D01*
X160172759Y-108810637D01*
X160372637Y-108610759D01*
X160494579Y-108428259D01*
X162157449Y-108428259D01*
X162176802Y-108517103D01*
X162289937Y-108781578D01*
X162452495Y-109018900D01*
X162658229Y-109219948D01*
X162899232Y-109376996D01*
X163166243Y-109484009D01*
X163449000Y-109536875D01*
X164084000Y-109536875D01*
X164084000Y-108202000D01*
X164338000Y-108202000D01*
X164338000Y-109536875D01*
X164973000Y-109536875D01*
X165255757Y-109484009D01*
X165522768Y-109376996D01*
X165763771Y-109219948D01*
X165969505Y-109018900D01*
X166132063Y-108781578D01*
X166245198Y-108517103D01*
X166264551Y-108428259D01*
X166142922Y-108202000D01*
X164338000Y-108202000D01*
X164084000Y-108202000D01*
X162279078Y-108202000D01*
X162157449Y-108428259D01*
X160494579Y-108428259D01*
X160529680Y-108375727D01*
X160637853Y-108114574D01*
X160693000Y-107837335D01*
X160693000Y-107721741D01*
X162157449Y-107721741D01*
X162279078Y-107948000D01*
X164084000Y-107948000D01*
X164084000Y-106613125D01*
X164338000Y-106613125D01*
X164338000Y-107948000D01*
X166142922Y-107948000D01*
X166264551Y-107721741D01*
X166245198Y-107632897D01*
X166132063Y-107368422D01*
X165969505Y-107131100D01*
X165763771Y-106930052D01*
X165522768Y-106773004D01*
X165255757Y-106665991D01*
X164973000Y-106613125D01*
X164338000Y-106613125D01*
X164084000Y-106613125D01*
X163449000Y-106613125D01*
X163166243Y-106665991D01*
X162899232Y-106773004D01*
X162658229Y-106930052D01*
X162452495Y-107131100D01*
X162289937Y-107368422D01*
X162176802Y-107632897D01*
X162157449Y-107721741D01*
X160693000Y-107721741D01*
X160693000Y-107554665D01*
X160637853Y-107277426D01*
X160529680Y-107016273D01*
X160372637Y-106781241D01*
X160172759Y-106581363D01*
X159937727Y-106424320D01*
X159676574Y-106316147D01*
X159399335Y-106261000D01*
X159116665Y-106261000D01*
X159011376Y-106281944D01*
X158727497Y-105998065D01*
X158701640Y-105966558D01*
X158575941Y-105863400D01*
X158432533Y-105786746D01*
X158276925Y-105739543D01*
X158155652Y-105727599D01*
X158155649Y-105727599D01*
X158115099Y-105723605D01*
X158074549Y-105727599D01*
X150281451Y-105727599D01*
X150240900Y-105723605D01*
X150200350Y-105727599D01*
X150200348Y-105727599D01*
X150079075Y-105739543D01*
X149923467Y-105786746D01*
X149780058Y-105863400D01*
X149718497Y-105913922D01*
X149654360Y-105966558D01*
X149628507Y-105998060D01*
X149344624Y-106281944D01*
X149239335Y-106261000D01*
X148956665Y-106261000D01*
X148679426Y-106316147D01*
X148418273Y-106424320D01*
X148183241Y-106581363D01*
X147983363Y-106781241D01*
X147826320Y-107016273D01*
X147718147Y-107277426D01*
X147663000Y-107554665D01*
X142913000Y-107554665D01*
X142857853Y-107277426D01*
X142749680Y-107016273D01*
X142592637Y-106781241D01*
X142392759Y-106581363D01*
X142157727Y-106424320D01*
X141896574Y-106316147D01*
X141619335Y-106261000D01*
X141336665Y-106261000D01*
X141059426Y-106316147D01*
X140798273Y-106424320D01*
X140563241Y-106581363D01*
X140363363Y-106781241D01*
X140208000Y-107013759D01*
X140052637Y-106781241D01*
X139852759Y-106581363D01*
X139617727Y-106424320D01*
X139356574Y-106316147D01*
X139079335Y-106261000D01*
X138796665Y-106261000D01*
X138691376Y-106281944D01*
X138407497Y-105998065D01*
X138381640Y-105966558D01*
X138255941Y-105863400D01*
X138112533Y-105786746D01*
X137956925Y-105739543D01*
X137835652Y-105727599D01*
X137835649Y-105727599D01*
X137795099Y-105723605D01*
X137754549Y-105727599D01*
X129961451Y-105727599D01*
X129920900Y-105723605D01*
X129880350Y-105727599D01*
X129880348Y-105727599D01*
X129759075Y-105739543D01*
X129603467Y-105786746D01*
X129460058Y-105863400D01*
X129398497Y-105913922D01*
X129334360Y-105966558D01*
X129308507Y-105998060D01*
X129024624Y-106281944D01*
X128919335Y-106261000D01*
X128636665Y-106261000D01*
X128359426Y-106316147D01*
X128098273Y-106424320D01*
X127863241Y-106581363D01*
X127663363Y-106781241D01*
X127506320Y-107016273D01*
X127398147Y-107277426D01*
X127343000Y-107554665D01*
X127343000Y-107837335D01*
X127398147Y-108114574D01*
X127506320Y-108375727D01*
X127663363Y-108610759D01*
X127863241Y-108810637D01*
X127952500Y-108870278D01*
X127952501Y-109950722D01*
X127863241Y-110010363D01*
X127663363Y-110210241D01*
X127506320Y-110445273D01*
X127398147Y-110706426D01*
X127343000Y-110983665D01*
X127343000Y-111266335D01*
X127398147Y-111543574D01*
X127506320Y-111804727D01*
X127663363Y-112039759D01*
X127863241Y-112239637D01*
X127952500Y-112299278D01*
X127952501Y-113379722D01*
X127863241Y-113439363D01*
X127663363Y-113639241D01*
X127506320Y-113874273D01*
X127398147Y-114135426D01*
X127343000Y-114412665D01*
X127343000Y-114695335D01*
X127398147Y-114972574D01*
X127506320Y-115233727D01*
X127663363Y-115468759D01*
X127863241Y-115668637D01*
X127952500Y-115728278D01*
X127952501Y-116808722D01*
X127863241Y-116868363D01*
X127663363Y-117068241D01*
X127506320Y-117303273D01*
X127398147Y-117564426D01*
X127343000Y-117841665D01*
X127343000Y-118124335D01*
X127398147Y-118401574D01*
X127456229Y-118541796D01*
X124193221Y-115278789D01*
X124193221Y-109946263D01*
X124197214Y-109905720D01*
X124193221Y-109865177D01*
X124193221Y-109865168D01*
X124181277Y-109743895D01*
X124134074Y-109588287D01*
X124057420Y-109444879D01*
X123954262Y-109319180D01*
X123922762Y-109293329D01*
X122572056Y-107942624D01*
X122593000Y-107837335D01*
X122593000Y-107554665D01*
X122537853Y-107277426D01*
X122429680Y-107016273D01*
X122272637Y-106781241D01*
X122072759Y-106581363D01*
X121837727Y-106424320D01*
X121576574Y-106316147D01*
X121299335Y-106261000D01*
X121016665Y-106261000D01*
X120739426Y-106316147D01*
X120478273Y-106424320D01*
X120243241Y-106581363D01*
X120043363Y-106781241D01*
X119886320Y-107016273D01*
X119778147Y-107277426D01*
X119723000Y-107554665D01*
X119723000Y-107837335D01*
X119778147Y-108114574D01*
X119886320Y-108375727D01*
X120043363Y-108610759D01*
X120243241Y-108810637D01*
X120478273Y-108967680D01*
X120739426Y-109075853D01*
X121016665Y-109131000D01*
X121299335Y-109131000D01*
X121404624Y-109110056D01*
X122542221Y-110247654D01*
X122542221Y-110728386D01*
X122537853Y-110706426D01*
X122429680Y-110445273D01*
X122272637Y-110210241D01*
X122072759Y-110010363D01*
X121837727Y-109853320D01*
X121576574Y-109745147D01*
X121299335Y-109690000D01*
X121016665Y-109690000D01*
X120739426Y-109745147D01*
X120478273Y-109853320D01*
X120243241Y-110010363D01*
X120043363Y-110210241D01*
X119886320Y-110445273D01*
X119778147Y-110706426D01*
X119723000Y-110983665D01*
X119723000Y-111266335D01*
X119778147Y-111543574D01*
X119886320Y-111804727D01*
X120043363Y-112039759D01*
X120243241Y-112239637D01*
X120478273Y-112396680D01*
X120739426Y-112504853D01*
X121016665Y-112560000D01*
X121299335Y-112560000D01*
X121404624Y-112539057D01*
X122008811Y-113143245D01*
X122008811Y-113396634D01*
X121837727Y-113282320D01*
X121576574Y-113174147D01*
X121299335Y-113119000D01*
X121016665Y-113119000D01*
X120739426Y-113174147D01*
X120478273Y-113282320D01*
X120243241Y-113439363D01*
X120043363Y-113639241D01*
X119886320Y-113874273D01*
X119778147Y-114135426D01*
X119723000Y-114412665D01*
X119723000Y-114695335D01*
X119778147Y-114972574D01*
X119886320Y-115233727D01*
X120043363Y-115468759D01*
X120243241Y-115668637D01*
X120478273Y-115825680D01*
X120739426Y-115933853D01*
X121016665Y-115989000D01*
X121299335Y-115989000D01*
X121404624Y-115968056D01*
X121475401Y-116038834D01*
X121475401Y-116583022D01*
X121299335Y-116548000D01*
X121016665Y-116548000D01*
X120739426Y-116603147D01*
X120478273Y-116711320D01*
X120243241Y-116868363D01*
X120043363Y-117068241D01*
X119886320Y-117303273D01*
X119848072Y-117395612D01*
X119848072Y-115613000D01*
X119835812Y-115488518D01*
X119799502Y-115368820D01*
X119740537Y-115258506D01*
X119661185Y-115161815D01*
X119564494Y-115082463D01*
X119454180Y-115023498D01*
X119334482Y-114987188D01*
X119210000Y-114974928D01*
X117010000Y-114974928D01*
X116885518Y-114987188D01*
X116765820Y-115023498D01*
X116655506Y-115082463D01*
X116558815Y-115161815D01*
X116479463Y-115258506D01*
X116420498Y-115368820D01*
X116384188Y-115488518D01*
X116371928Y-115613000D01*
X110769000Y-115613000D01*
X110769000Y-97122653D01*
X114765952Y-97122653D01*
X114921962Y-97438214D01*
X115296745Y-97629020D01*
X115701551Y-97743044D01*
X116120824Y-97775902D01*
X116538451Y-97726334D01*
X116938383Y-97596243D01*
X117234038Y-97438214D01*
X117390048Y-97122653D01*
X116078000Y-95810605D01*
X114765952Y-97122653D01*
X110769000Y-97122653D01*
X110769000Y-95673824D01*
X113933098Y-95673824D01*
X113982666Y-96091451D01*
X114112757Y-96491383D01*
X114270786Y-96787038D01*
X114586347Y-96943048D01*
X115898395Y-95631000D01*
X116257605Y-95631000D01*
X117569653Y-96943048D01*
X117885214Y-96787038D01*
X118076020Y-96412255D01*
X118190044Y-96007449D01*
X118222902Y-95588176D01*
X118173334Y-95170549D01*
X118043243Y-94770617D01*
X117885214Y-94474962D01*
X117569653Y-94318952D01*
X116257605Y-95631000D01*
X115898395Y-95631000D01*
X114586347Y-94318952D01*
X114270786Y-94474962D01*
X114079980Y-94849745D01*
X113965956Y-95254551D01*
X113933098Y-95673824D01*
X110769000Y-95673824D01*
X110769000Y-94139347D01*
X114765952Y-94139347D01*
X116078000Y-95451395D01*
X117390048Y-94139347D01*
X117234038Y-93823786D01*
X116859255Y-93632980D01*
X116454449Y-93518956D01*
X116035176Y-93486098D01*
X115617549Y-93535666D01*
X115217617Y-93665757D01*
X114921962Y-93823786D01*
X114765952Y-94139347D01*
X110769000Y-94139347D01*
X110769000Y-81431000D01*
X113939928Y-81431000D01*
X113939928Y-84431000D01*
X113952188Y-84555482D01*
X113988498Y-84675180D01*
X114047463Y-84785494D01*
X114126815Y-84882185D01*
X114223506Y-84961537D01*
X114333820Y-85020502D01*
X114453518Y-85056812D01*
X114578000Y-85069072D01*
X117578000Y-85069072D01*
X117702482Y-85056812D01*
X117822180Y-85020502D01*
X117932494Y-84961537D01*
X118029185Y-84882185D01*
X118108537Y-84785494D01*
X118167502Y-84675180D01*
X118203812Y-84555482D01*
X118216072Y-84431000D01*
X118216072Y-82229768D01*
X129159133Y-71286708D01*
X129197896Y-71254896D01*
X129324860Y-71100190D01*
X129419202Y-70923687D01*
X129477298Y-70732171D01*
X129492000Y-70582902D01*
X129496915Y-70533000D01*
X129492000Y-70483098D01*
X129492000Y-68677763D01*
X129571860Y-68827171D01*
X129744485Y-69037515D01*
X129954829Y-69210140D01*
X130194808Y-69338411D01*
X130455201Y-69417401D01*
X130460000Y-69417874D01*
X130460001Y-92748724D01*
X117426872Y-105781854D01*
X117388104Y-105813670D01*
X117261140Y-105968376D01*
X117166798Y-106144880D01*
X117108702Y-106336395D01*
X117108702Y-106336396D01*
X117089085Y-106535566D01*
X117094000Y-106585468D01*
X117094000Y-107685202D01*
X117004002Y-107745337D01*
X116762337Y-107987002D01*
X116572463Y-108271169D01*
X116441675Y-108586919D01*
X116375000Y-108922117D01*
X116375000Y-109263883D01*
X116441675Y-109599081D01*
X116572463Y-109914831D01*
X116762337Y-110198998D01*
X117004002Y-110440663D01*
X117288169Y-110630537D01*
X117603919Y-110761325D01*
X117939117Y-110828000D01*
X118280883Y-110828000D01*
X118616081Y-110761325D01*
X118931831Y-110630537D01*
X119215998Y-110440663D01*
X119457663Y-110198998D01*
X119647537Y-109914831D01*
X119778325Y-109599081D01*
X119845000Y-109263883D01*
X119845000Y-108922117D01*
X119778325Y-108586919D01*
X119647537Y-108271169D01*
X119457663Y-107987002D01*
X119215998Y-107745337D01*
X119126000Y-107685202D01*
X119126000Y-106956406D01*
X125123109Y-100959297D01*
X125263225Y-101297566D01*
X125474987Y-101614491D01*
X125744509Y-101884013D01*
X126061434Y-102095775D01*
X126413581Y-102241639D01*
X126787419Y-102316000D01*
X127168581Y-102316000D01*
X127542419Y-102241639D01*
X127894566Y-102095775D01*
X128211491Y-101884013D01*
X128481013Y-101614491D01*
X128692775Y-101297566D01*
X128838639Y-100945419D01*
X128913000Y-100571581D01*
X128913000Y-100190419D01*
X153043000Y-100190419D01*
X153043000Y-100571581D01*
X153117361Y-100945419D01*
X153263225Y-101297566D01*
X153474987Y-101614491D01*
X153744509Y-101884013D01*
X154061434Y-102095775D01*
X154413581Y-102241639D01*
X154787419Y-102316000D01*
X155168581Y-102316000D01*
X155542419Y-102241639D01*
X155894566Y-102095775D01*
X156211491Y-101884013D01*
X156481013Y-101614491D01*
X156692775Y-101297566D01*
X156838639Y-100945419D01*
X156913000Y-100571581D01*
X156913000Y-100190419D01*
X156838639Y-99816581D01*
X156692775Y-99464434D01*
X156481013Y-99147509D01*
X156211491Y-98877987D01*
X155894566Y-98666225D01*
X155542419Y-98520361D01*
X155168581Y-98446000D01*
X154787419Y-98446000D01*
X154413581Y-98520361D01*
X154061434Y-98666225D01*
X153744509Y-98877987D01*
X153474987Y-99147509D01*
X153263225Y-99464434D01*
X153117361Y-99816581D01*
X153043000Y-100190419D01*
X128913000Y-100190419D01*
X128838639Y-99816581D01*
X128692775Y-99464434D01*
X128481013Y-99147509D01*
X128211491Y-98877987D01*
X127894566Y-98666225D01*
X127556297Y-98526110D01*
X132159133Y-93923274D01*
X132197896Y-93891462D01*
X132324860Y-93736756D01*
X132419202Y-93560253D01*
X132477298Y-93368737D01*
X132492000Y-93219468D01*
X132492000Y-93219461D01*
X132496914Y-93169567D01*
X132492000Y-93119673D01*
X132492000Y-77990419D01*
X139043000Y-77990419D01*
X139043000Y-78371581D01*
X139117361Y-78745419D01*
X139263225Y-79097566D01*
X139474987Y-79414491D01*
X139744509Y-79684013D01*
X140061434Y-79895775D01*
X140413581Y-80041639D01*
X140787419Y-80116000D01*
X141168581Y-80116000D01*
X141542419Y-80041639D01*
X141894566Y-79895775D01*
X142211491Y-79684013D01*
X142481013Y-79414491D01*
X142692775Y-79097566D01*
X142838639Y-78745419D01*
X142913000Y-78371581D01*
X142913000Y-77990419D01*
X142838639Y-77616581D01*
X142692775Y-77264434D01*
X142481013Y-76947509D01*
X142211491Y-76677987D01*
X141894566Y-76466225D01*
X141542419Y-76320361D01*
X141168581Y-76246000D01*
X140787419Y-76246000D01*
X140413581Y-76320361D01*
X140061434Y-76466225D01*
X139744509Y-76677987D01*
X139474987Y-76947509D01*
X139263225Y-77264434D01*
X139117361Y-77616581D01*
X139043000Y-77990419D01*
X132492000Y-77990419D01*
X132492000Y-69417874D01*
X132496799Y-69417401D01*
X132757192Y-69338411D01*
X132997171Y-69210140D01*
X133207515Y-69037515D01*
X133380140Y-68827171D01*
X133508411Y-68587192D01*
X133587401Y-68326799D01*
X133614072Y-68056000D01*
X133614072Y-66056000D01*
X133603325Y-65946881D01*
X163213724Y-65946881D01*
X163573912Y-66436548D01*
X164237882Y-66796849D01*
X164959385Y-67020694D01*
X165710695Y-67099480D01*
X166462938Y-67030178D01*
X167187208Y-66815452D01*
X167855670Y-66463555D01*
X167896088Y-66436548D01*
X168256276Y-65946881D01*
X165735000Y-63425605D01*
X163213724Y-65946881D01*
X133603325Y-65946881D01*
X133587401Y-65785201D01*
X133508411Y-65524808D01*
X133380140Y-65284829D01*
X133207515Y-65074485D01*
X132997171Y-64901860D01*
X132757192Y-64773589D01*
X132496799Y-64694599D01*
X132226000Y-64667928D01*
X130726000Y-64667928D01*
X130455201Y-64694599D01*
X130194808Y-64773589D01*
X129954829Y-64901860D01*
X129744485Y-65074485D01*
X129571860Y-65284829D01*
X129492000Y-65434237D01*
X129492000Y-64730185D01*
X129646186Y-64714999D01*
X129930028Y-64628896D01*
X130191618Y-64489073D01*
X130420903Y-64300903D01*
X130609073Y-64071618D01*
X130748896Y-63810028D01*
X130834999Y-63526186D01*
X130864072Y-63231000D01*
X130864072Y-63221695D01*
X161881520Y-63221695D01*
X161950822Y-63973938D01*
X162165548Y-64698208D01*
X162517445Y-65366670D01*
X162544452Y-65407088D01*
X163034119Y-65767276D01*
X165555395Y-63246000D01*
X165914605Y-63246000D01*
X168435881Y-65767276D01*
X168925548Y-65407088D01*
X169285849Y-64743118D01*
X169509694Y-64021615D01*
X169588480Y-63270305D01*
X169519178Y-62518062D01*
X169304452Y-61793792D01*
X168952555Y-61125330D01*
X168925548Y-61084912D01*
X168435881Y-60724724D01*
X165914605Y-63246000D01*
X165555395Y-63246000D01*
X163034119Y-60724724D01*
X162544452Y-61084912D01*
X162184151Y-61748882D01*
X161960306Y-62470385D01*
X161881520Y-63221695D01*
X130864072Y-63221695D01*
X130864072Y-61481000D01*
X130834999Y-61185814D01*
X130748896Y-60901972D01*
X130609073Y-60640382D01*
X130530893Y-60545119D01*
X163213724Y-60545119D01*
X165735000Y-63066395D01*
X168256276Y-60545119D01*
X167896088Y-60055452D01*
X167232118Y-59695151D01*
X166510615Y-59471306D01*
X165759305Y-59392520D01*
X165007062Y-59461822D01*
X164282792Y-59676548D01*
X163614330Y-60028445D01*
X163573912Y-60055452D01*
X163213724Y-60545119D01*
X130530893Y-60545119D01*
X130420903Y-60411097D01*
X130191618Y-60222927D01*
X129930028Y-60083104D01*
X129646186Y-59997001D01*
X129351000Y-59967928D01*
X127601000Y-59967928D01*
X127305814Y-59997001D01*
X127021972Y-60083104D01*
X126760382Y-60222927D01*
X126531097Y-60411097D01*
X126342927Y-60640382D01*
X126203104Y-60901972D01*
X126117001Y-61185814D01*
X126087928Y-61481000D01*
X126087928Y-63231000D01*
X126117001Y-63526186D01*
X126203104Y-63810028D01*
X126342927Y-64071618D01*
X126531097Y-64300903D01*
X126760382Y-64489073D01*
X127021972Y-64628896D01*
X127151160Y-64668085D01*
X125761750Y-64671000D01*
X125603000Y-64829750D01*
X125603000Y-66929000D01*
X125623000Y-66929000D01*
X125623000Y-67183000D01*
X125603000Y-67183000D01*
X125603000Y-69282250D01*
X125761750Y-69441000D01*
X127226000Y-69444072D01*
X127350482Y-69431812D01*
X127460001Y-69398590D01*
X127460001Y-70112158D01*
X116779232Y-80792928D01*
X114578000Y-80792928D01*
X114453518Y-80805188D01*
X114333820Y-80841498D01*
X114223506Y-80900463D01*
X114126815Y-80979815D01*
X114047463Y-81076506D01*
X113988498Y-81186820D01*
X113952188Y-81306518D01*
X113939928Y-81431000D01*
X110769000Y-81431000D01*
X110769000Y-68806000D01*
X123087928Y-68806000D01*
X123100188Y-68930482D01*
X123136498Y-69050180D01*
X123195463Y-69160494D01*
X123274815Y-69257185D01*
X123371506Y-69336537D01*
X123481820Y-69395502D01*
X123601518Y-69431812D01*
X123726000Y-69444072D01*
X125190250Y-69441000D01*
X125349000Y-69282250D01*
X125349000Y-67183000D01*
X123249750Y-67183000D01*
X123091000Y-67341750D01*
X123087928Y-68806000D01*
X110769000Y-68806000D01*
X110769000Y-65946881D01*
X112159724Y-65946881D01*
X112519912Y-66436548D01*
X113183882Y-66796849D01*
X113905385Y-67020694D01*
X114656695Y-67099480D01*
X115408938Y-67030178D01*
X116133208Y-66815452D01*
X116801670Y-66463555D01*
X116842088Y-66436548D01*
X117202276Y-65946881D01*
X114681000Y-63425605D01*
X112159724Y-65946881D01*
X110769000Y-65946881D01*
X110769000Y-63221695D01*
X110827520Y-63221695D01*
X110896822Y-63973938D01*
X111111548Y-64698208D01*
X111463445Y-65366670D01*
X111490452Y-65407088D01*
X111980119Y-65767276D01*
X114501395Y-63246000D01*
X114860605Y-63246000D01*
X117381881Y-65767276D01*
X117871548Y-65407088D01*
X117926403Y-65306000D01*
X123087928Y-65306000D01*
X123091000Y-66770250D01*
X123249750Y-66929000D01*
X125349000Y-66929000D01*
X125349000Y-64829750D01*
X125190250Y-64671000D01*
X123726000Y-64667928D01*
X123601518Y-64680188D01*
X123481820Y-64716498D01*
X123371506Y-64775463D01*
X123274815Y-64854815D01*
X123195463Y-64951506D01*
X123136498Y-65061820D01*
X123100188Y-65181518D01*
X123087928Y-65306000D01*
X117926403Y-65306000D01*
X118231849Y-64743118D01*
X118455694Y-64021615D01*
X118534480Y-63270305D01*
X118465178Y-62518062D01*
X118250452Y-61793792D01*
X117898555Y-61125330D01*
X117871548Y-61084912D01*
X117381881Y-60724724D01*
X114860605Y-63246000D01*
X114501395Y-63246000D01*
X111980119Y-60724724D01*
X111490452Y-61084912D01*
X111130151Y-61748882D01*
X110906306Y-62470385D01*
X110827520Y-63221695D01*
X110769000Y-63221695D01*
X110769000Y-60545119D01*
X112159724Y-60545119D01*
X114681000Y-63066395D01*
X117202276Y-60545119D01*
X116842088Y-60055452D01*
X116178118Y-59695151D01*
X115456615Y-59471306D01*
X114705305Y-59392520D01*
X113953062Y-59461822D01*
X113228792Y-59676548D01*
X112560330Y-60028445D01*
X112519912Y-60055452D01*
X112159724Y-60545119D01*
X110769000Y-60545119D01*
X110769000Y-59334000D01*
X169647000Y-59334000D01*
X169647001Y-145263000D01*
G37*
%TD.AperFunction*%
D24*
X129158998Y-128675432D02*
X129158998Y-128798748D01*
X129000250Y-128640000D01*
X128386000Y-128636928D01*
X128261518Y-128649188D01*
X128141820Y-128685498D01*
X128031506Y-128744463D01*
X127934815Y-128823815D01*
X127855463Y-128920506D01*
X127796498Y-129030820D01*
X127760188Y-129150518D01*
X127747928Y-129275000D01*
X127751000Y-129889250D01*
X127909750Y-130048000D01*
X129159000Y-130048000D01*
X129159000Y-130028000D01*
X129413000Y-130028000D01*
X129413000Y-130048000D01*
X129433000Y-130048000D01*
X129433000Y-130302000D01*
X129413000Y-130302000D01*
X129413000Y-131551250D01*
X129571750Y-131710000D01*
X130186000Y-131713072D01*
X130310482Y-131700812D01*
X130430180Y-131664502D01*
X130540494Y-131605537D01*
X130637185Y-131526185D01*
X130716537Y-131429494D01*
X130775502Y-131319180D01*
X130781056Y-131300873D01*
X130847495Y-131367312D01*
X131098905Y-131535299D01*
X131378257Y-131651011D01*
X131674816Y-131710000D01*
X131977184Y-131710000D01*
X132243402Y-131657046D01*
X132243402Y-134788954D01*
X131977184Y-134736000D01*
X131674816Y-134736000D01*
X131494333Y-134771900D01*
X128435258Y-131712826D01*
X129000250Y-131710000D01*
X129159000Y-131551250D01*
X129159000Y-130302000D01*
X127909750Y-130302000D01*
X127751000Y-130460750D01*
X127748174Y-131025742D01*
X123126401Y-126403969D01*
X123126401Y-122642833D01*
X129158998Y-128675432D01*
%TA.AperFunction,Conductor*%
D25*
G36*
X129158998Y-128675432D02*
G01*
X129158998Y-128798748D01*
X129000250Y-128640000D01*
X128386000Y-128636928D01*
X128261518Y-128649188D01*
X128141820Y-128685498D01*
X128031506Y-128744463D01*
X127934815Y-128823815D01*
X127855463Y-128920506D01*
X127796498Y-129030820D01*
X127760188Y-129150518D01*
X127747928Y-129275000D01*
X127751000Y-129889250D01*
X127909750Y-130048000D01*
X129159000Y-130048000D01*
X129159000Y-130028000D01*
X129413000Y-130028000D01*
X129413000Y-130048000D01*
X129433000Y-130048000D01*
X129433000Y-130302000D01*
X129413000Y-130302000D01*
X129413000Y-131551250D01*
X129571750Y-131710000D01*
X130186000Y-131713072D01*
X130310482Y-131700812D01*
X130430180Y-131664502D01*
X130540494Y-131605537D01*
X130637185Y-131526185D01*
X130716537Y-131429494D01*
X130775502Y-131319180D01*
X130781056Y-131300873D01*
X130847495Y-131367312D01*
X131098905Y-131535299D01*
X131378257Y-131651011D01*
X131674816Y-131710000D01*
X131977184Y-131710000D01*
X132243402Y-131657046D01*
X132243402Y-134788954D01*
X131977184Y-134736000D01*
X131674816Y-134736000D01*
X131494333Y-134771900D01*
X128435258Y-131712826D01*
X129000250Y-131710000D01*
X129159000Y-131551250D01*
X129159000Y-130302000D01*
X127909750Y-130302000D01*
X127751000Y-130460750D01*
X127748174Y-131025742D01*
X123126401Y-126403969D01*
X123126401Y-122642833D01*
X129158998Y-128675432D01*
G37*
%TD.AperFunction*%
D24*
X129158998Y-122579432D02*
X129158998Y-122702748D01*
X129000250Y-122544000D01*
X128386000Y-122540928D01*
X128261518Y-122553188D01*
X128141820Y-122589498D01*
X128031506Y-122648463D01*
X127934815Y-122727815D01*
X127855463Y-122824506D01*
X127796498Y-122934820D01*
X127760188Y-123054518D01*
X127747928Y-123179000D01*
X127751000Y-123793250D01*
X127909750Y-123952000D01*
X129159000Y-123952000D01*
X129159000Y-123932000D01*
X129413000Y-123932000D01*
X129413000Y-123952000D01*
X129433000Y-123952000D01*
X129433000Y-124206000D01*
X129413000Y-124206000D01*
X129413000Y-125455250D01*
X129571750Y-125614000D01*
X130186000Y-125617072D01*
X130310482Y-125604812D01*
X130430180Y-125568502D01*
X130540494Y-125509537D01*
X130637185Y-125430185D01*
X130716537Y-125333494D01*
X130775502Y-125223180D01*
X130781056Y-125204873D01*
X130847495Y-125271312D01*
X131098905Y-125439299D01*
X131378257Y-125555011D01*
X131674816Y-125614000D01*
X131977184Y-125614000D01*
X132243401Y-125561046D01*
X132243402Y-128692954D01*
X131977184Y-128640000D01*
X131674816Y-128640000D01*
X131494334Y-128675900D01*
X128435259Y-125616826D01*
X129000250Y-125614000D01*
X129159000Y-125455250D01*
X129159000Y-124206000D01*
X127909750Y-124206000D01*
X127751000Y-124364750D01*
X127748174Y-124929741D01*
X123659811Y-120841379D01*
X123659811Y-117080243D01*
X129158998Y-122579432D01*
%TA.AperFunction,Conductor*%
D25*
G36*
X129158998Y-122579432D02*
G01*
X129158998Y-122702748D01*
X129000250Y-122544000D01*
X128386000Y-122540928D01*
X128261518Y-122553188D01*
X128141820Y-122589498D01*
X128031506Y-122648463D01*
X127934815Y-122727815D01*
X127855463Y-122824506D01*
X127796498Y-122934820D01*
X127760188Y-123054518D01*
X127747928Y-123179000D01*
X127751000Y-123793250D01*
X127909750Y-123952000D01*
X129159000Y-123952000D01*
X129159000Y-123932000D01*
X129413000Y-123932000D01*
X129413000Y-123952000D01*
X129433000Y-123952000D01*
X129433000Y-124206000D01*
X129413000Y-124206000D01*
X129413000Y-125455250D01*
X129571750Y-125614000D01*
X130186000Y-125617072D01*
X130310482Y-125604812D01*
X130430180Y-125568502D01*
X130540494Y-125509537D01*
X130637185Y-125430185D01*
X130716537Y-125333494D01*
X130775502Y-125223180D01*
X130781056Y-125204873D01*
X130847495Y-125271312D01*
X131098905Y-125439299D01*
X131378257Y-125555011D01*
X131674816Y-125614000D01*
X131977184Y-125614000D01*
X132243401Y-125561046D01*
X132243402Y-128692954D01*
X131977184Y-128640000D01*
X131674816Y-128640000D01*
X131494334Y-128675900D01*
X128435259Y-125616826D01*
X129000250Y-125614000D01*
X129159000Y-125455250D01*
X129159000Y-124206000D01*
X127909750Y-124206000D01*
X127751000Y-124364750D01*
X127748174Y-124929741D01*
X123659811Y-120841379D01*
X123659811Y-117080243D01*
X129158998Y-122579432D01*
G37*
%TD.AperFunction*%
%TD*%
M02*
