%TF.GenerationSoftware,KiCad,Pcbnew,(5.1.9-0-10_14)*%
%TF.CreationDate,2021-08-10T16:49:40-04:00*%
%TF.ProjectId,led-tester,6c65642d-7465-4737-9465-722e6b696361,v1*%
%TF.SameCoordinates,Original*%
%TF.FileFunction,Legend,Bot*%
%TF.FilePolarity,Positive*%
%FSLAX46Y46*%
G04 Gerber Fmt 4.6, Leading zero omitted, Abs format (unit mm)*
G04 Created by KiCad (PCBNEW (5.1.9-0-10_14)) date 2021-08-10 16:49:40*
%MOMM*%
%LPD*%
G01*
G04 APERTURE LIST*
%ADD10C,0.010000*%
G04 APERTURE END LIST*
D10*
%TO.C,SYM1*%
G36*
X153622375Y-129677885D02*
G01*
X153441119Y-129688769D01*
X153251053Y-129705701D01*
X153064008Y-129727015D01*
X152891816Y-129751042D01*
X152746311Y-129776115D01*
X152639323Y-129800567D01*
X152582684Y-129822729D01*
X152580243Y-129824757D01*
X152570362Y-129866410D01*
X152568724Y-129953110D01*
X152575578Y-130066908D01*
X152576712Y-130078807D01*
X152599314Y-130308174D01*
X152696199Y-130288797D01*
X152918584Y-130253655D01*
X153176527Y-130227753D01*
X153442500Y-130213119D01*
X153688970Y-130211782D01*
X153725482Y-130212965D01*
X153964117Y-130233755D01*
X154166175Y-130278977D01*
X154334282Y-130352922D01*
X154471061Y-130459876D01*
X154579137Y-130604128D01*
X154661134Y-130789967D01*
X154719676Y-131021681D01*
X154757389Y-131303557D01*
X154776896Y-131639885D01*
X154781161Y-131937957D01*
X154774919Y-132287123D01*
X154755106Y-132580077D01*
X154720324Y-132822932D01*
X154669171Y-133021797D01*
X154600249Y-133182784D01*
X154512158Y-133312005D01*
X154452139Y-133374429D01*
X154337315Y-133467060D01*
X154215719Y-133534148D01*
X154075124Y-133578916D01*
X153903302Y-133604588D01*
X153688027Y-133614389D01*
X153543000Y-133614134D01*
X153354819Y-133608382D01*
X153161688Y-133597005D01*
X152986633Y-133581663D01*
X152855611Y-133564520D01*
X152596846Y-133520647D01*
X152574868Y-133755185D01*
X152566550Y-133870947D01*
X152564854Y-133960327D01*
X152570020Y-134006170D01*
X152571307Y-134008139D01*
X152627632Y-134034136D01*
X152738329Y-134059205D01*
X152894269Y-134082259D01*
X153086325Y-134102207D01*
X153305368Y-134117960D01*
X153542270Y-134128429D01*
X153590625Y-134129783D01*
X153809682Y-134134264D01*
X153977761Y-134134689D01*
X154107294Y-134130395D01*
X154210714Y-134120716D01*
X154300451Y-134104989D01*
X154368500Y-134088217D01*
X154607820Y-134003572D01*
X154810202Y-133887231D01*
X154978109Y-133735009D01*
X155114003Y-133542723D01*
X155220348Y-133306189D01*
X155299607Y-133021222D01*
X155354241Y-132683640D01*
X155382317Y-132365856D01*
X155392916Y-132092245D01*
X155392860Y-131800083D01*
X155382953Y-131506233D01*
X155364001Y-131227555D01*
X155336809Y-130980912D01*
X155308017Y-130810000D01*
X155224391Y-130510389D01*
X155107073Y-130259660D01*
X154953402Y-130056026D01*
X154760716Y-129897699D01*
X154526354Y-129782891D01*
X154247655Y-129709817D01*
X153921958Y-129676687D01*
X153622375Y-129677885D01*
G37*
X153622375Y-129677885D02*
X153441119Y-129688769D01*
X153251053Y-129705701D01*
X153064008Y-129727015D01*
X152891816Y-129751042D01*
X152746311Y-129776115D01*
X152639323Y-129800567D01*
X152582684Y-129822729D01*
X152580243Y-129824757D01*
X152570362Y-129866410D01*
X152568724Y-129953110D01*
X152575578Y-130066908D01*
X152576712Y-130078807D01*
X152599314Y-130308174D01*
X152696199Y-130288797D01*
X152918584Y-130253655D01*
X153176527Y-130227753D01*
X153442500Y-130213119D01*
X153688970Y-130211782D01*
X153725482Y-130212965D01*
X153964117Y-130233755D01*
X154166175Y-130278977D01*
X154334282Y-130352922D01*
X154471061Y-130459876D01*
X154579137Y-130604128D01*
X154661134Y-130789967D01*
X154719676Y-131021681D01*
X154757389Y-131303557D01*
X154776896Y-131639885D01*
X154781161Y-131937957D01*
X154774919Y-132287123D01*
X154755106Y-132580077D01*
X154720324Y-132822932D01*
X154669171Y-133021797D01*
X154600249Y-133182784D01*
X154512158Y-133312005D01*
X154452139Y-133374429D01*
X154337315Y-133467060D01*
X154215719Y-133534148D01*
X154075124Y-133578916D01*
X153903302Y-133604588D01*
X153688027Y-133614389D01*
X153543000Y-133614134D01*
X153354819Y-133608382D01*
X153161688Y-133597005D01*
X152986633Y-133581663D01*
X152855611Y-133564520D01*
X152596846Y-133520647D01*
X152574868Y-133755185D01*
X152566550Y-133870947D01*
X152564854Y-133960327D01*
X152570020Y-134006170D01*
X152571307Y-134008139D01*
X152627632Y-134034136D01*
X152738329Y-134059205D01*
X152894269Y-134082259D01*
X153086325Y-134102207D01*
X153305368Y-134117960D01*
X153542270Y-134128429D01*
X153590625Y-134129783D01*
X153809682Y-134134264D01*
X153977761Y-134134689D01*
X154107294Y-134130395D01*
X154210714Y-134120716D01*
X154300451Y-134104989D01*
X154368500Y-134088217D01*
X154607820Y-134003572D01*
X154810202Y-133887231D01*
X154978109Y-133735009D01*
X155114003Y-133542723D01*
X155220348Y-133306189D01*
X155299607Y-133021222D01*
X155354241Y-132683640D01*
X155382317Y-132365856D01*
X155392916Y-132092245D01*
X155392860Y-131800083D01*
X155382953Y-131506233D01*
X155364001Y-131227555D01*
X155336809Y-130980912D01*
X155308017Y-130810000D01*
X155224391Y-130510389D01*
X155107073Y-130259660D01*
X154953402Y-130056026D01*
X154760716Y-129897699D01*
X154526354Y-129782891D01*
X154247655Y-129709817D01*
X153921958Y-129676687D01*
X153622375Y-129677885D01*
G36*
X146838802Y-130878579D02*
G01*
X146655901Y-130886863D01*
X146500641Y-130903695D01*
X146499750Y-130903834D01*
X146338670Y-130928987D01*
X146229836Y-130949054D01*
X146163079Y-130970651D01*
X146128230Y-131000391D01*
X146115123Y-131044887D01*
X146113589Y-131110754D01*
X146113987Y-131154754D01*
X146118166Y-131259769D01*
X146128412Y-131340374D01*
X146137799Y-131369906D01*
X146175556Y-131385002D01*
X146267903Y-131395283D01*
X146417550Y-131400905D01*
X146627208Y-131402025D01*
X146685000Y-131401656D01*
X146883840Y-131400760D01*
X147031093Y-131402554D01*
X147138652Y-131408162D01*
X147218413Y-131418705D01*
X147282268Y-131435303D01*
X147342111Y-131459080D01*
X147354676Y-131464810D01*
X147476631Y-131537924D01*
X147571950Y-131635849D01*
X147642785Y-131765152D01*
X147691290Y-131932399D01*
X147719617Y-132144157D01*
X147729919Y-132406993D01*
X147728077Y-132603770D01*
X147723154Y-132790332D01*
X147717029Y-132926778D01*
X147707564Y-133026487D01*
X147692625Y-133102836D01*
X147670076Y-133169203D01*
X147637780Y-133238966D01*
X147621539Y-133271043D01*
X147555557Y-133385826D01*
X147488241Y-133462225D01*
X147398698Y-133522272D01*
X147367765Y-133538659D01*
X147302555Y-133570291D01*
X147242513Y-133592283D01*
X147174580Y-133606225D01*
X147085696Y-133613709D01*
X146962803Y-133616327D01*
X146792839Y-133615670D01*
X146739935Y-133615165D01*
X146567345Y-133612182D01*
X146412038Y-133607187D01*
X146287672Y-133600787D01*
X146207906Y-133593591D01*
X146192022Y-133590747D01*
X146152098Y-133583047D01*
X146128695Y-133593055D01*
X146117401Y-133633046D01*
X146113803Y-133715294D01*
X146113500Y-133809165D01*
X146112994Y-133917049D01*
X146118557Y-133989178D01*
X146140814Y-134034747D01*
X146190386Y-134062953D01*
X146277898Y-134082990D01*
X146413973Y-134104053D01*
X146462750Y-134111468D01*
X146607627Y-134127396D01*
X146783299Y-134137034D01*
X146973803Y-134140557D01*
X147163178Y-134138144D01*
X147335461Y-134129970D01*
X147474691Y-134116213D01*
X147558125Y-134099337D01*
X147780787Y-134004055D01*
X147960954Y-133870069D01*
X148102722Y-133692463D01*
X148210182Y-133466318D01*
X148276757Y-133236016D01*
X148298039Y-133097234D01*
X148312028Y-132911903D01*
X148318890Y-132696533D01*
X148318791Y-132467634D01*
X148311898Y-132241719D01*
X148298376Y-132035297D01*
X148278392Y-131864879D01*
X148262118Y-131781646D01*
X148171673Y-131505297D01*
X148049164Y-131281288D01*
X147891467Y-131105437D01*
X147695455Y-130973560D01*
X147637500Y-130945812D01*
X147543717Y-130919742D01*
X147401800Y-130899425D01*
X147226906Y-130885419D01*
X147034188Y-130878284D01*
X146838802Y-130878579D01*
G37*
X146838802Y-130878579D02*
X146655901Y-130886863D01*
X146500641Y-130903695D01*
X146499750Y-130903834D01*
X146338670Y-130928987D01*
X146229836Y-130949054D01*
X146163079Y-130970651D01*
X146128230Y-131000391D01*
X146115123Y-131044887D01*
X146113589Y-131110754D01*
X146113987Y-131154754D01*
X146118166Y-131259769D01*
X146128412Y-131340374D01*
X146137799Y-131369906D01*
X146175556Y-131385002D01*
X146267903Y-131395283D01*
X146417550Y-131400905D01*
X146627208Y-131402025D01*
X146685000Y-131401656D01*
X146883840Y-131400760D01*
X147031093Y-131402554D01*
X147138652Y-131408162D01*
X147218413Y-131418705D01*
X147282268Y-131435303D01*
X147342111Y-131459080D01*
X147354676Y-131464810D01*
X147476631Y-131537924D01*
X147571950Y-131635849D01*
X147642785Y-131765152D01*
X147691290Y-131932399D01*
X147719617Y-132144157D01*
X147729919Y-132406993D01*
X147728077Y-132603770D01*
X147723154Y-132790332D01*
X147717029Y-132926778D01*
X147707564Y-133026487D01*
X147692625Y-133102836D01*
X147670076Y-133169203D01*
X147637780Y-133238966D01*
X147621539Y-133271043D01*
X147555557Y-133385826D01*
X147488241Y-133462225D01*
X147398698Y-133522272D01*
X147367765Y-133538659D01*
X147302555Y-133570291D01*
X147242513Y-133592283D01*
X147174580Y-133606225D01*
X147085696Y-133613709D01*
X146962803Y-133616327D01*
X146792839Y-133615670D01*
X146739935Y-133615165D01*
X146567345Y-133612182D01*
X146412038Y-133607187D01*
X146287672Y-133600787D01*
X146207906Y-133593591D01*
X146192022Y-133590747D01*
X146152098Y-133583047D01*
X146128695Y-133593055D01*
X146117401Y-133633046D01*
X146113803Y-133715294D01*
X146113500Y-133809165D01*
X146112994Y-133917049D01*
X146118557Y-133989178D01*
X146140814Y-134034747D01*
X146190386Y-134062953D01*
X146277898Y-134082990D01*
X146413973Y-134104053D01*
X146462750Y-134111468D01*
X146607627Y-134127396D01*
X146783299Y-134137034D01*
X146973803Y-134140557D01*
X147163178Y-134138144D01*
X147335461Y-134129970D01*
X147474691Y-134116213D01*
X147558125Y-134099337D01*
X147780787Y-134004055D01*
X147960954Y-133870069D01*
X148102722Y-133692463D01*
X148210182Y-133466318D01*
X148276757Y-133236016D01*
X148298039Y-133097234D01*
X148312028Y-132911903D01*
X148318890Y-132696533D01*
X148318791Y-132467634D01*
X148311898Y-132241719D01*
X148298376Y-132035297D01*
X148278392Y-131864879D01*
X148262118Y-131781646D01*
X148171673Y-131505297D01*
X148049164Y-131281288D01*
X147891467Y-131105437D01*
X147695455Y-130973560D01*
X147637500Y-130945812D01*
X147543717Y-130919742D01*
X147401800Y-130899425D01*
X147226906Y-130885419D01*
X147034188Y-130878284D01*
X146838802Y-130878579D01*
G36*
X144874700Y-131818062D02*
G01*
X144872951Y-132191914D01*
X144867534Y-132507631D01*
X144857435Y-132770522D01*
X144841638Y-132985896D01*
X144819131Y-133159064D01*
X144788899Y-133295333D01*
X144749927Y-133400014D01*
X144701202Y-133478416D01*
X144641709Y-133535849D01*
X144570434Y-133577621D01*
X144535815Y-133592127D01*
X144430481Y-133621998D01*
X144308810Y-133632955D01*
X144152442Y-133627445D01*
X144001266Y-133608054D01*
X143839034Y-133573177D01*
X143684996Y-133528313D01*
X143558403Y-133478959D01*
X143486188Y-133437139D01*
X143475575Y-133414212D01*
X143466877Y-133360645D01*
X143459944Y-133271663D01*
X143454625Y-133142495D01*
X143450771Y-132968365D01*
X143448234Y-132744501D01*
X143446862Y-132466129D01*
X143446500Y-132171362D01*
X143446500Y-130937000D01*
X142875000Y-130937000D01*
X142875000Y-134080250D01*
X143160750Y-134080250D01*
X143296072Y-134079492D01*
X143380102Y-134075110D01*
X143425045Y-134063940D01*
X143443108Y-134042816D01*
X143446497Y-134008574D01*
X143446500Y-134006166D01*
X143453582Y-133940781D01*
X143464902Y-133913681D01*
X143499881Y-133918056D01*
X143577294Y-133945609D01*
X143682843Y-133990995D01*
X143726840Y-134011560D01*
X143834102Y-134061265D01*
X143920589Y-134094680D01*
X144004372Y-134115405D01*
X144103523Y-134127043D01*
X144236112Y-134133193D01*
X144351375Y-134136009D01*
X144555570Y-134136791D01*
X144707095Y-134128591D01*
X144816246Y-134110634D01*
X144857540Y-134097982D01*
X145020563Y-134019026D01*
X145150830Y-133911018D01*
X145252089Y-133767226D01*
X145328088Y-133580916D01*
X145382573Y-133345358D01*
X145415306Y-133096000D01*
X145423168Y-132983971D01*
X145430314Y-132820094D01*
X145436451Y-132616018D01*
X145441291Y-132383395D01*
X145444542Y-132133873D01*
X145445916Y-131879104D01*
X145445931Y-131865687D01*
X145446750Y-130937000D01*
X144875250Y-130937000D01*
X144874700Y-131818062D01*
G37*
X144874700Y-131818062D02*
X144872951Y-132191914D01*
X144867534Y-132507631D01*
X144857435Y-132770522D01*
X144841638Y-132985896D01*
X144819131Y-133159064D01*
X144788899Y-133295333D01*
X144749927Y-133400014D01*
X144701202Y-133478416D01*
X144641709Y-133535849D01*
X144570434Y-133577621D01*
X144535815Y-133592127D01*
X144430481Y-133621998D01*
X144308810Y-133632955D01*
X144152442Y-133627445D01*
X144001266Y-133608054D01*
X143839034Y-133573177D01*
X143684996Y-133528313D01*
X143558403Y-133478959D01*
X143486188Y-133437139D01*
X143475575Y-133414212D01*
X143466877Y-133360645D01*
X143459944Y-133271663D01*
X143454625Y-133142495D01*
X143450771Y-132968365D01*
X143448234Y-132744501D01*
X143446862Y-132466129D01*
X143446500Y-132171362D01*
X143446500Y-130937000D01*
X142875000Y-130937000D01*
X142875000Y-134080250D01*
X143160750Y-134080250D01*
X143296072Y-134079492D01*
X143380102Y-134075110D01*
X143425045Y-134063940D01*
X143443108Y-134042816D01*
X143446497Y-134008574D01*
X143446500Y-134006166D01*
X143453582Y-133940781D01*
X143464902Y-133913681D01*
X143499881Y-133918056D01*
X143577294Y-133945609D01*
X143682843Y-133990995D01*
X143726840Y-134011560D01*
X143834102Y-134061265D01*
X143920589Y-134094680D01*
X144004372Y-134115405D01*
X144103523Y-134127043D01*
X144236112Y-134133193D01*
X144351375Y-134136009D01*
X144555570Y-134136791D01*
X144707095Y-134128591D01*
X144816246Y-134110634D01*
X144857540Y-134097982D01*
X145020563Y-134019026D01*
X145150830Y-133911018D01*
X145252089Y-133767226D01*
X145328088Y-133580916D01*
X145382573Y-133345358D01*
X145415306Y-133096000D01*
X145423168Y-132983971D01*
X145430314Y-132820094D01*
X145436451Y-132616018D01*
X145441291Y-132383395D01*
X145444542Y-132133873D01*
X145445916Y-131879104D01*
X145445931Y-131865687D01*
X145446750Y-130937000D01*
X144875250Y-130937000D01*
X144874700Y-131818062D01*
G36*
X139890500Y-130937000D02*
G01*
X138938000Y-130937000D01*
X138938000Y-131411552D01*
X139406313Y-131420338D01*
X139874625Y-131429125D01*
X139874625Y-132397500D01*
X139874347Y-132712373D01*
X139871629Y-132969481D01*
X139863645Y-133174557D01*
X139847568Y-133333336D01*
X139820573Y-133451552D01*
X139779834Y-133534937D01*
X139722524Y-133589226D01*
X139645819Y-133620152D01*
X139546891Y-133633449D01*
X139422915Y-133634851D01*
X139271064Y-133630092D01*
X139267184Y-133629954D01*
X138945492Y-133618548D01*
X138929200Y-133841461D01*
X138922757Y-133953353D01*
X138921170Y-134037509D01*
X138924736Y-134076720D01*
X138925149Y-134077299D01*
X138975607Y-134097661D01*
X139075903Y-134114155D01*
X139212477Y-134126467D01*
X139371768Y-134134279D01*
X139540213Y-134137275D01*
X139704251Y-134135137D01*
X139850322Y-134127549D01*
X139964862Y-134114194D01*
X140014519Y-134102744D01*
X140151680Y-134028663D01*
X140272867Y-133906274D01*
X140364367Y-133750727D01*
X140386742Y-133691556D01*
X140402365Y-133634334D01*
X140415287Y-133563033D01*
X140425937Y-133470472D01*
X140434746Y-133349471D01*
X140442144Y-133192846D01*
X140448560Y-132993418D01*
X140454425Y-132744004D01*
X140459482Y-132476875D01*
X140477875Y-131429125D01*
X140676313Y-131419672D01*
X140874750Y-131410219D01*
X140874750Y-130937000D01*
X140462000Y-130937000D01*
X140462000Y-129984500D01*
X139890500Y-129984500D01*
X139890500Y-130937000D01*
G37*
X139890500Y-130937000D02*
X138938000Y-130937000D01*
X138938000Y-131411552D01*
X139406313Y-131420338D01*
X139874625Y-131429125D01*
X139874625Y-132397500D01*
X139874347Y-132712373D01*
X139871629Y-132969481D01*
X139863645Y-133174557D01*
X139847568Y-133333336D01*
X139820573Y-133451552D01*
X139779834Y-133534937D01*
X139722524Y-133589226D01*
X139645819Y-133620152D01*
X139546891Y-133633449D01*
X139422915Y-133634851D01*
X139271064Y-133630092D01*
X139267184Y-133629954D01*
X138945492Y-133618548D01*
X138929200Y-133841461D01*
X138922757Y-133953353D01*
X138921170Y-134037509D01*
X138924736Y-134076720D01*
X138925149Y-134077299D01*
X138975607Y-134097661D01*
X139075903Y-134114155D01*
X139212477Y-134126467D01*
X139371768Y-134134279D01*
X139540213Y-134137275D01*
X139704251Y-134135137D01*
X139850322Y-134127549D01*
X139964862Y-134114194D01*
X140014519Y-134102744D01*
X140151680Y-134028663D01*
X140272867Y-133906274D01*
X140364367Y-133750727D01*
X140386742Y-133691556D01*
X140402365Y-133634334D01*
X140415287Y-133563033D01*
X140425937Y-133470472D01*
X140434746Y-133349471D01*
X140442144Y-133192846D01*
X140448560Y-132993418D01*
X140454425Y-132744004D01*
X140459482Y-132476875D01*
X140477875Y-131429125D01*
X140676313Y-131419672D01*
X140874750Y-131410219D01*
X140874750Y-130937000D01*
X140462000Y-130937000D01*
X140462000Y-129984500D01*
X139890500Y-129984500D01*
X139890500Y-130937000D01*
G36*
X137289569Y-130893048D02*
G01*
X137255250Y-130893287D01*
X137026484Y-130897740D01*
X136811844Y-130907226D01*
X136626601Y-130920814D01*
X136486025Y-130937568D01*
X136461500Y-130941793D01*
X136223375Y-130986387D01*
X136214102Y-131231568D01*
X136212720Y-131347121D01*
X136217383Y-131433293D01*
X136227103Y-131474850D01*
X136229977Y-131476496D01*
X136269631Y-131472668D01*
X136359043Y-131462432D01*
X136484973Y-131447344D01*
X136634181Y-131428963D01*
X136634919Y-131428871D01*
X136953932Y-131395194D01*
X137218030Y-131381458D01*
X137432781Y-131388263D01*
X137603752Y-131416211D01*
X137736512Y-131465903D01*
X137836628Y-131537941D01*
X137858527Y-131561005D01*
X137936602Y-131687210D01*
X137951876Y-131814253D01*
X137904226Y-131938693D01*
X137873438Y-131980073D01*
X137816124Y-132034882D01*
X137738735Y-132081782D01*
X137632058Y-132123988D01*
X137486880Y-132164712D01*
X137293988Y-132207168D01*
X137133381Y-132238199D01*
X136843104Y-132299869D01*
X136610648Y-132368572D01*
X136430369Y-132449230D01*
X136296622Y-132546763D01*
X136203765Y-132666093D01*
X136146152Y-132812140D01*
X136118141Y-132989826D01*
X136113125Y-133127750D01*
X136126630Y-133383390D01*
X136171205Y-133589909D01*
X136251298Y-133755837D01*
X136371361Y-133889704D01*
X136535843Y-134000040D01*
X136580077Y-134022814D01*
X136661506Y-134062092D01*
X136729639Y-134090246D01*
X136797521Y-134109287D01*
X136878195Y-134121232D01*
X136984704Y-134128093D01*
X137130092Y-134131884D01*
X137302153Y-134134301D01*
X137582848Y-134132995D01*
X137834855Y-134122238D01*
X138043306Y-134102762D01*
X138096625Y-134095090D01*
X138228538Y-134073894D01*
X138339267Y-134055866D01*
X138411831Y-134043780D01*
X138427410Y-134041039D01*
X138451096Y-134021759D01*
X138463521Y-133967591D01*
X138466387Y-133867289D01*
X138464719Y-133794766D01*
X138459700Y-133679203D01*
X138453509Y-133591496D01*
X138447355Y-133548103D01*
X138446429Y-133546344D01*
X138412781Y-133546033D01*
X138328257Y-133552688D01*
X138204961Y-133565174D01*
X138054996Y-133582352D01*
X138026840Y-133585765D01*
X137716618Y-133618822D01*
X137460810Y-133634504D01*
X137252561Y-133632120D01*
X137085015Y-133610980D01*
X136951318Y-133570394D01*
X136844614Y-133509670D01*
X136788428Y-133461027D01*
X136719435Y-133379800D01*
X136689331Y-133300235D01*
X136683750Y-133214581D01*
X136700015Y-133082882D01*
X136752956Y-132978069D01*
X136848793Y-132895250D01*
X136993748Y-132829530D01*
X137194040Y-132776016D01*
X137257523Y-132763196D01*
X137504752Y-132714956D01*
X137698652Y-132674834D01*
X137848521Y-132640482D01*
X137963661Y-132609549D01*
X138053373Y-132579685D01*
X138126957Y-132548541D01*
X138148052Y-132538206D01*
X138309321Y-132433449D01*
X138422546Y-132302331D01*
X138492205Y-132136558D01*
X138522774Y-131927834D01*
X138525073Y-131839700D01*
X138501908Y-131584149D01*
X138430789Y-131369289D01*
X138310042Y-131192331D01*
X138137994Y-131050488D01*
X138009688Y-130981191D01*
X137936259Y-130948135D01*
X137872962Y-130924225D01*
X137807830Y-130908066D01*
X137728892Y-130898263D01*
X137624182Y-130893422D01*
X137481730Y-130892148D01*
X137289569Y-130893048D01*
G37*
X137289569Y-130893048D02*
X137255250Y-130893287D01*
X137026484Y-130897740D01*
X136811844Y-130907226D01*
X136626601Y-130920814D01*
X136486025Y-130937568D01*
X136461500Y-130941793D01*
X136223375Y-130986387D01*
X136214102Y-131231568D01*
X136212720Y-131347121D01*
X136217383Y-131433293D01*
X136227103Y-131474850D01*
X136229977Y-131476496D01*
X136269631Y-131472668D01*
X136359043Y-131462432D01*
X136484973Y-131447344D01*
X136634181Y-131428963D01*
X136634919Y-131428871D01*
X136953932Y-131395194D01*
X137218030Y-131381458D01*
X137432781Y-131388263D01*
X137603752Y-131416211D01*
X137736512Y-131465903D01*
X137836628Y-131537941D01*
X137858527Y-131561005D01*
X137936602Y-131687210D01*
X137951876Y-131814253D01*
X137904226Y-131938693D01*
X137873438Y-131980073D01*
X137816124Y-132034882D01*
X137738735Y-132081782D01*
X137632058Y-132123988D01*
X137486880Y-132164712D01*
X137293988Y-132207168D01*
X137133381Y-132238199D01*
X136843104Y-132299869D01*
X136610648Y-132368572D01*
X136430369Y-132449230D01*
X136296622Y-132546763D01*
X136203765Y-132666093D01*
X136146152Y-132812140D01*
X136118141Y-132989826D01*
X136113125Y-133127750D01*
X136126630Y-133383390D01*
X136171205Y-133589909D01*
X136251298Y-133755837D01*
X136371361Y-133889704D01*
X136535843Y-134000040D01*
X136580077Y-134022814D01*
X136661506Y-134062092D01*
X136729639Y-134090246D01*
X136797521Y-134109287D01*
X136878195Y-134121232D01*
X136984704Y-134128093D01*
X137130092Y-134131884D01*
X137302153Y-134134301D01*
X137582848Y-134132995D01*
X137834855Y-134122238D01*
X138043306Y-134102762D01*
X138096625Y-134095090D01*
X138228538Y-134073894D01*
X138339267Y-134055866D01*
X138411831Y-134043780D01*
X138427410Y-134041039D01*
X138451096Y-134021759D01*
X138463521Y-133967591D01*
X138466387Y-133867289D01*
X138464719Y-133794766D01*
X138459700Y-133679203D01*
X138453509Y-133591496D01*
X138447355Y-133548103D01*
X138446429Y-133546344D01*
X138412781Y-133546033D01*
X138328257Y-133552688D01*
X138204961Y-133565174D01*
X138054996Y-133582352D01*
X138026840Y-133585765D01*
X137716618Y-133618822D01*
X137460810Y-133634504D01*
X137252561Y-133632120D01*
X137085015Y-133610980D01*
X136951318Y-133570394D01*
X136844614Y-133509670D01*
X136788428Y-133461027D01*
X136719435Y-133379800D01*
X136689331Y-133300235D01*
X136683750Y-133214581D01*
X136700015Y-133082882D01*
X136752956Y-132978069D01*
X136848793Y-132895250D01*
X136993748Y-132829530D01*
X137194040Y-132776016D01*
X137257523Y-132763196D01*
X137504752Y-132714956D01*
X137698652Y-132674834D01*
X137848521Y-132640482D01*
X137963661Y-132609549D01*
X138053373Y-132579685D01*
X138126957Y-132548541D01*
X138148052Y-132538206D01*
X138309321Y-132433449D01*
X138422546Y-132302331D01*
X138492205Y-132136558D01*
X138522774Y-131927834D01*
X138525073Y-131839700D01*
X138501908Y-131584149D01*
X138430789Y-131369289D01*
X138310042Y-131192331D01*
X138137994Y-131050488D01*
X138009688Y-130981191D01*
X137936259Y-130948135D01*
X137872962Y-130924225D01*
X137807830Y-130908066D01*
X137728892Y-130898263D01*
X137624182Y-130893422D01*
X137481730Y-130892148D01*
X137289569Y-130893048D01*
G36*
X126317375Y-129677885D02*
G01*
X126136119Y-129688769D01*
X125946053Y-129705701D01*
X125759008Y-129727015D01*
X125586816Y-129751042D01*
X125441311Y-129776115D01*
X125334323Y-129800567D01*
X125277684Y-129822729D01*
X125275243Y-129824757D01*
X125265362Y-129866410D01*
X125263724Y-129953110D01*
X125270578Y-130066908D01*
X125271712Y-130078807D01*
X125294314Y-130308174D01*
X125391199Y-130288797D01*
X125644768Y-130247624D01*
X125909609Y-130221519D01*
X126172985Y-130210391D01*
X126422159Y-130214147D01*
X126644395Y-130232696D01*
X126826955Y-130265947D01*
X126928794Y-130299864D01*
X127074024Y-130382980D01*
X127194523Y-130495805D01*
X127291578Y-130642747D01*
X127366477Y-130828211D01*
X127420509Y-131056604D01*
X127454961Y-131332331D01*
X127471122Y-131659798D01*
X127470280Y-132043413D01*
X127467715Y-132143500D01*
X127455486Y-132439036D01*
X127436486Y-132679842D01*
X127408400Y-132874527D01*
X127368917Y-133031705D01*
X127315726Y-133159986D01*
X127246513Y-133267983D01*
X127158968Y-133364307D01*
X127133622Y-133387866D01*
X127020252Y-133476355D01*
X126897509Y-133540254D01*
X126753426Y-133582584D01*
X126576033Y-133606369D01*
X126353363Y-133614634D01*
X126238000Y-133614134D01*
X126049910Y-133608392D01*
X125856957Y-133597041D01*
X125682134Y-133581738D01*
X125551269Y-133564625D01*
X125293162Y-133520857D01*
X125271803Y-133756566D01*
X125263638Y-133872430D01*
X125261716Y-133961701D01*
X125266319Y-134007380D01*
X125267583Y-134009416D01*
X125323103Y-134034733D01*
X125432807Y-134059305D01*
X125587378Y-134082030D01*
X125777501Y-134101806D01*
X125993861Y-134117533D01*
X126227143Y-134128108D01*
X126285625Y-134129783D01*
X126504682Y-134134264D01*
X126672761Y-134134689D01*
X126802294Y-134130395D01*
X126905714Y-134120716D01*
X126995451Y-134104989D01*
X127063500Y-134088217D01*
X127326314Y-133991558D01*
X127544794Y-133854552D01*
X127721966Y-133673783D01*
X127860857Y-133445840D01*
X127964491Y-133167307D01*
X127998453Y-133033434D01*
X128040686Y-132790145D01*
X128070140Y-132503830D01*
X128086905Y-132189588D01*
X128091071Y-131862518D01*
X128082728Y-131537718D01*
X128061967Y-131230286D01*
X128028878Y-130955319D01*
X127984691Y-130732348D01*
X127890879Y-130445262D01*
X127766879Y-130207180D01*
X127609216Y-130015901D01*
X127414414Y-129869228D01*
X127178994Y-129764962D01*
X126899483Y-129700904D01*
X126572402Y-129674855D01*
X126317375Y-129677885D01*
G37*
X126317375Y-129677885D02*
X126136119Y-129688769D01*
X125946053Y-129705701D01*
X125759008Y-129727015D01*
X125586816Y-129751042D01*
X125441311Y-129776115D01*
X125334323Y-129800567D01*
X125277684Y-129822729D01*
X125275243Y-129824757D01*
X125265362Y-129866410D01*
X125263724Y-129953110D01*
X125270578Y-130066908D01*
X125271712Y-130078807D01*
X125294314Y-130308174D01*
X125391199Y-130288797D01*
X125644768Y-130247624D01*
X125909609Y-130221519D01*
X126172985Y-130210391D01*
X126422159Y-130214147D01*
X126644395Y-130232696D01*
X126826955Y-130265947D01*
X126928794Y-130299864D01*
X127074024Y-130382980D01*
X127194523Y-130495805D01*
X127291578Y-130642747D01*
X127366477Y-130828211D01*
X127420509Y-131056604D01*
X127454961Y-131332331D01*
X127471122Y-131659798D01*
X127470280Y-132043413D01*
X127467715Y-132143500D01*
X127455486Y-132439036D01*
X127436486Y-132679842D01*
X127408400Y-132874527D01*
X127368917Y-133031705D01*
X127315726Y-133159986D01*
X127246513Y-133267983D01*
X127158968Y-133364307D01*
X127133622Y-133387866D01*
X127020252Y-133476355D01*
X126897509Y-133540254D01*
X126753426Y-133582584D01*
X126576033Y-133606369D01*
X126353363Y-133614634D01*
X126238000Y-133614134D01*
X126049910Y-133608392D01*
X125856957Y-133597041D01*
X125682134Y-133581738D01*
X125551269Y-133564625D01*
X125293162Y-133520857D01*
X125271803Y-133756566D01*
X125263638Y-133872430D01*
X125261716Y-133961701D01*
X125266319Y-134007380D01*
X125267583Y-134009416D01*
X125323103Y-134034733D01*
X125432807Y-134059305D01*
X125587378Y-134082030D01*
X125777501Y-134101806D01*
X125993861Y-134117533D01*
X126227143Y-134128108D01*
X126285625Y-134129783D01*
X126504682Y-134134264D01*
X126672761Y-134134689D01*
X126802294Y-134130395D01*
X126905714Y-134120716D01*
X126995451Y-134104989D01*
X127063500Y-134088217D01*
X127326314Y-133991558D01*
X127544794Y-133854552D01*
X127721966Y-133673783D01*
X127860857Y-133445840D01*
X127964491Y-133167307D01*
X127998453Y-133033434D01*
X128040686Y-132790145D01*
X128070140Y-132503830D01*
X128086905Y-132189588D01*
X128091071Y-131862518D01*
X128082728Y-131537718D01*
X128061967Y-131230286D01*
X128028878Y-130955319D01*
X127984691Y-130732348D01*
X127890879Y-130445262D01*
X127766879Y-130207180D01*
X127609216Y-130015901D01*
X127414414Y-129869228D01*
X127178994Y-129764962D01*
X126899483Y-129700904D01*
X126572402Y-129674855D01*
X126317375Y-129677885D01*
G36*
X151288750Y-134080250D02*
G01*
X151860250Y-134080250D01*
X151860250Y-130937000D01*
X151288750Y-130937000D01*
X151288750Y-134080250D01*
G37*
X151288750Y-134080250D02*
X151860250Y-134080250D01*
X151860250Y-130937000D01*
X151288750Y-130937000D01*
X151288750Y-134080250D01*
G36*
X148742731Y-130883167D02*
G01*
X148727660Y-130919682D01*
X148719772Y-130994311D01*
X148717090Y-131118319D01*
X148717000Y-131158026D01*
X148717000Y-131442552D01*
X148851938Y-131477262D01*
X149132489Y-131558952D01*
X149415478Y-131658178D01*
X149613938Y-131739483D01*
X149828250Y-131834501D01*
X149828250Y-134080250D01*
X150399750Y-134080250D01*
X150399750Y-130937000D01*
X149828250Y-130937000D01*
X149828250Y-131318326D01*
X149566313Y-131177252D01*
X149426631Y-131107530D01*
X149269575Y-131037893D01*
X149110057Y-130974007D01*
X148962986Y-130921536D01*
X148843273Y-130886147D01*
X148766965Y-130873500D01*
X148742731Y-130883167D01*
G37*
X148742731Y-130883167D02*
X148727660Y-130919682D01*
X148719772Y-130994311D01*
X148717090Y-131118319D01*
X148717000Y-131158026D01*
X148717000Y-131442552D01*
X148851938Y-131477262D01*
X149132489Y-131558952D01*
X149415478Y-131658178D01*
X149613938Y-131739483D01*
X149828250Y-131834501D01*
X149828250Y-134080250D01*
X150399750Y-134080250D01*
X150399750Y-130937000D01*
X149828250Y-130937000D01*
X149828250Y-131318326D01*
X149566313Y-131177252D01*
X149426631Y-131107530D01*
X149269575Y-131037893D01*
X149110057Y-130974007D01*
X148962986Y-130921536D01*
X148843273Y-130886147D01*
X148766965Y-130873500D01*
X148742731Y-130883167D01*
G36*
X141414500Y-134080250D02*
G01*
X141986000Y-134080250D01*
X141986000Y-130937000D01*
X141414500Y-130937000D01*
X141414500Y-134080250D01*
G37*
X141414500Y-134080250D02*
X141986000Y-134080250D01*
X141986000Y-130937000D01*
X141414500Y-130937000D01*
X141414500Y-134080250D01*
G36*
X133318250Y-133572250D02*
G01*
X131508500Y-133572250D01*
X131508500Y-134080250D01*
X133921500Y-134080250D01*
X133921500Y-129730500D01*
X133318250Y-129730500D01*
X133318250Y-133572250D01*
G37*
X133318250Y-133572250D02*
X131508500Y-133572250D01*
X131508500Y-134080250D01*
X133921500Y-134080250D01*
X133921500Y-129730500D01*
X133318250Y-129730500D01*
X133318250Y-133572250D01*
G36*
X130294311Y-131643437D02*
G01*
X130286125Y-133556375D01*
X129373313Y-133564799D01*
X128460500Y-133573223D01*
X128460500Y-134080250D01*
X130873500Y-134080250D01*
X130873500Y-129730500D01*
X130302496Y-129730500D01*
X130294311Y-131643437D01*
G37*
X130294311Y-131643437D02*
X130286125Y-133556375D01*
X129373313Y-133564799D01*
X128460500Y-133573223D01*
X128460500Y-134080250D01*
X130873500Y-134080250D01*
X130873500Y-129730500D01*
X130302496Y-129730500D01*
X130294311Y-131643437D01*
G36*
X151288750Y-130302000D02*
G01*
X151860250Y-130302000D01*
X151860250Y-129667000D01*
X151288750Y-129667000D01*
X151288750Y-130302000D01*
G37*
X151288750Y-130302000D02*
X151860250Y-130302000D01*
X151860250Y-129667000D01*
X151288750Y-129667000D01*
X151288750Y-130302000D01*
G36*
X141414500Y-130302000D02*
G01*
X141986000Y-130302000D01*
X141986000Y-129667000D01*
X141414500Y-129667000D01*
X141414500Y-130302000D01*
G37*
X141414500Y-130302000D02*
X141986000Y-130302000D01*
X141986000Y-129667000D01*
X141414500Y-129667000D01*
X141414500Y-130302000D01*
G36*
X141995689Y-70549941D02*
G01*
X141986001Y-70555105D01*
X142009905Y-70578965D01*
X142075577Y-70633603D01*
X142173951Y-70711738D01*
X142295964Y-70806089D01*
X142344156Y-70842795D01*
X142948570Y-71330200D01*
X143490662Y-71828272D01*
X143970806Y-72337597D01*
X144389373Y-72858759D01*
X144746738Y-73392344D01*
X145043273Y-73938935D01*
X145279350Y-74499119D01*
X145455344Y-75073479D01*
X145571626Y-75662601D01*
X145607396Y-75961875D01*
X145628592Y-76299180D01*
X145627656Y-76640321D01*
X145603382Y-76992168D01*
X145554564Y-77361594D01*
X145479996Y-77755470D01*
X145378472Y-78180669D01*
X145248787Y-78644062D01*
X145089733Y-79152521D01*
X145000183Y-79421757D01*
X144896577Y-79733533D01*
X144815072Y-79992722D01*
X144754356Y-80205760D01*
X144713114Y-80379083D01*
X144690032Y-80519129D01*
X144683795Y-80632334D01*
X144693088Y-80725135D01*
X144716598Y-80803968D01*
X144717492Y-80806143D01*
X144758944Y-80878277D01*
X144819742Y-80932189D01*
X144905616Y-80968149D01*
X145022295Y-80986427D01*
X145175510Y-80987292D01*
X145370991Y-80971014D01*
X145614466Y-80937862D01*
X145911668Y-80888105D01*
X146024974Y-80867637D01*
X146667527Y-80755075D01*
X147260118Y-80662450D01*
X147812676Y-80588595D01*
X148335130Y-80532345D01*
X148837410Y-80492535D01*
X149329445Y-80467999D01*
X149465643Y-80463737D01*
X150071272Y-80462458D01*
X150622416Y-80493342D01*
X151119430Y-80556543D01*
X151562669Y-80652211D01*
X151952488Y-80780500D01*
X152289244Y-80941561D01*
X152573291Y-81135547D01*
X152804984Y-81362611D01*
X152984680Y-81622903D01*
X153112733Y-81916578D01*
X153149212Y-82042000D01*
X153183287Y-82252403D01*
X153192783Y-82504431D01*
X153178663Y-82781571D01*
X153141889Y-83067311D01*
X153083425Y-83345138D01*
X153070396Y-83394032D01*
X152988667Y-83666514D01*
X152891688Y-83944373D01*
X152776881Y-84232718D01*
X152641670Y-84536661D01*
X152483477Y-84861314D01*
X152299724Y-85211787D01*
X152087834Y-85593191D01*
X151845230Y-86010636D01*
X151569333Y-86469235D01*
X151296488Y-86911660D01*
X151065126Y-87288001D01*
X150870218Y-87615681D01*
X150710603Y-87897199D01*
X150585120Y-88135052D01*
X150492607Y-88331741D01*
X150431904Y-88489763D01*
X150401848Y-88611618D01*
X150401280Y-88699804D01*
X150429038Y-88756819D01*
X150436063Y-88763243D01*
X150480813Y-88776648D01*
X150578645Y-88791832D01*
X150719213Y-88807616D01*
X150892167Y-88822824D01*
X151066500Y-88835015D01*
X151889551Y-88896756D01*
X152651845Y-88976219D01*
X153353617Y-89073449D01*
X153995101Y-89188491D01*
X154576532Y-89321392D01*
X155098142Y-89472195D01*
X155560167Y-89640947D01*
X155817205Y-89754800D01*
X156076092Y-89885600D01*
X156291555Y-90012181D01*
X156481570Y-90146519D01*
X156664115Y-90300588D01*
X156733825Y-90365433D01*
X156968957Y-90626878D01*
X157147848Y-90911555D01*
X157270756Y-91220925D01*
X157337940Y-91556451D01*
X157349659Y-91919596D01*
X157306171Y-92311822D01*
X157207737Y-92734592D01*
X157173433Y-92848874D01*
X157122184Y-93005663D01*
X157065272Y-93164944D01*
X156999693Y-93333518D01*
X156922442Y-93518184D01*
X156830512Y-93725743D01*
X156720900Y-93962995D01*
X156590599Y-94236742D01*
X156436606Y-94553783D01*
X156273730Y-94884875D01*
X156075268Y-95289450D01*
X155904784Y-95644101D01*
X155760017Y-95954742D01*
X155638708Y-96227285D01*
X155538596Y-96467646D01*
X155457421Y-96681737D01*
X155392921Y-96875473D01*
X155342837Y-97054767D01*
X155304908Y-97225532D01*
X155276875Y-97393683D01*
X155259096Y-97539373D01*
X155247556Y-97897425D01*
X155291452Y-98224831D01*
X155391396Y-98522986D01*
X155548000Y-98793282D01*
X155761876Y-99037114D01*
X156003183Y-99234625D01*
X156104186Y-99303535D01*
X156207483Y-99367339D01*
X156321581Y-99430084D01*
X156454983Y-99495815D01*
X156616196Y-99568580D01*
X156813723Y-99652426D01*
X157056072Y-99751399D01*
X157265715Y-99835344D01*
X158047829Y-100157976D01*
X158766881Y-100477957D01*
X159423239Y-100795574D01*
X160017274Y-101111115D01*
X160549354Y-101424868D01*
X161019849Y-101737121D01*
X161429129Y-102048162D01*
X161777562Y-102358280D01*
X162065518Y-102667761D01*
X162293367Y-102976895D01*
X162461477Y-103285969D01*
X162570219Y-103595272D01*
X162619961Y-103905090D01*
X162623500Y-104012999D01*
X162595443Y-104296861D01*
X162513798Y-104597656D01*
X162382354Y-104905114D01*
X162204901Y-105208965D01*
X162155909Y-105280182D01*
X162017876Y-105456462D01*
X161830840Y-105666005D01*
X161597897Y-105905761D01*
X161322137Y-106172681D01*
X161006654Y-106463718D01*
X160654541Y-106775823D01*
X160523851Y-106888930D01*
X160249327Y-107127078D01*
X160019481Y-107331193D01*
X159829094Y-107506518D01*
X159672949Y-107658296D01*
X159545828Y-107791770D01*
X159442513Y-107912185D01*
X159357785Y-108024782D01*
X159290153Y-108128634D01*
X159199219Y-108325667D01*
X159163636Y-108520218D01*
X159184355Y-108703005D01*
X159221501Y-108797939D01*
X159330765Y-108952049D01*
X159497682Y-109103967D01*
X159716434Y-109249680D01*
X159981201Y-109385170D01*
X160206831Y-109477798D01*
X160415749Y-109581334D01*
X160598446Y-109727579D01*
X160755631Y-109918599D01*
X160888016Y-110156457D01*
X160996309Y-110443217D01*
X161081220Y-110780944D01*
X161143460Y-111171700D01*
X161183737Y-111617551D01*
X161202762Y-112120561D01*
X161204561Y-112379125D01*
X161188362Y-113080528D01*
X161141917Y-113817220D01*
X161064763Y-114593464D01*
X160956437Y-115413525D01*
X160816476Y-116281668D01*
X160727805Y-116770761D01*
X160642395Y-117225398D01*
X160751885Y-117308462D01*
X160993367Y-117528609D01*
X161180416Y-117781233D01*
X161313071Y-118066176D01*
X161391371Y-118383282D01*
X161415356Y-118732392D01*
X161385064Y-119113349D01*
X161300534Y-119525996D01*
X161161806Y-119970174D01*
X160968919Y-120445726D01*
X160721911Y-120952494D01*
X160420823Y-121490322D01*
X160065692Y-122059051D01*
X159656559Y-122658523D01*
X159303699Y-123142375D01*
X158976170Y-123569960D01*
X158634172Y-123996059D01*
X158272085Y-124427037D01*
X157884287Y-124869256D01*
X157465159Y-125329083D01*
X157009079Y-125812879D01*
X156510428Y-126327010D01*
X156324295Y-126515812D01*
X156120146Y-126722371D01*
X155930944Y-126914353D01*
X155761128Y-127087212D01*
X155615137Y-127236405D01*
X155497409Y-127357388D01*
X155412384Y-127445616D01*
X155364501Y-127496546D01*
X155355485Y-127507573D01*
X155384537Y-127489918D01*
X155455704Y-127441606D01*
X155559608Y-127369140D01*
X155686873Y-127279025D01*
X155749625Y-127234190D01*
X156512690Y-126656478D01*
X157259015Y-126028244D01*
X157990845Y-125347224D01*
X158710425Y-124611157D01*
X159419999Y-123817780D01*
X160121811Y-122964832D01*
X160596521Y-122348625D01*
X161002955Y-121792640D01*
X161398534Y-121222652D01*
X161779645Y-120644974D01*
X162142677Y-120065918D01*
X162484019Y-119491799D01*
X162800056Y-118928930D01*
X163087179Y-118383624D01*
X163341774Y-117862194D01*
X163560230Y-117370954D01*
X163738934Y-116916218D01*
X163793532Y-116760625D01*
X163856573Y-116548757D01*
X163922477Y-116279433D01*
X163990327Y-115958587D01*
X164059205Y-115592150D01*
X164128194Y-115186054D01*
X164196376Y-114746231D01*
X164262834Y-114278613D01*
X164326650Y-113789133D01*
X164386908Y-113283723D01*
X164442690Y-112768314D01*
X164493078Y-112248840D01*
X164495665Y-112220375D01*
X164623149Y-110489151D01*
X164692473Y-108757487D01*
X164703923Y-107028655D01*
X164657787Y-105305930D01*
X164554353Y-103592584D01*
X164393907Y-101891890D01*
X164176738Y-100207123D01*
X163903133Y-98541555D01*
X163573379Y-96898460D01*
X163187763Y-95281112D01*
X162922104Y-94297500D01*
X162445329Y-92724648D01*
X161910334Y-91175925D01*
X161316857Y-89650787D01*
X160664633Y-88148692D01*
X159953400Y-86669096D01*
X159182894Y-85211457D01*
X158352854Y-83775233D01*
X157463015Y-82359879D01*
X156513114Y-80964855D01*
X156348071Y-80733076D01*
X155550282Y-79657857D01*
X154735947Y-78635398D01*
X153906296Y-77666894D01*
X153062562Y-76753538D01*
X152205977Y-75896524D01*
X151337771Y-75097045D01*
X150459177Y-74356297D01*
X149571426Y-73675471D01*
X148675750Y-73055763D01*
X147973608Y-72616299D01*
X147236452Y-72198548D01*
X146494151Y-71821788D01*
X145752832Y-71488429D01*
X145018621Y-71200883D01*
X144297646Y-70961562D01*
X143596032Y-70772876D01*
X142963321Y-70644454D01*
X142803850Y-70619829D01*
X142632470Y-70597176D01*
X142460573Y-70577536D01*
X142299553Y-70561950D01*
X142160803Y-70551462D01*
X142055718Y-70547111D01*
X141995689Y-70549941D01*
G37*
X141995689Y-70549941D02*
X141986001Y-70555105D01*
X142009905Y-70578965D01*
X142075577Y-70633603D01*
X142173951Y-70711738D01*
X142295964Y-70806089D01*
X142344156Y-70842795D01*
X142948570Y-71330200D01*
X143490662Y-71828272D01*
X143970806Y-72337597D01*
X144389373Y-72858759D01*
X144746738Y-73392344D01*
X145043273Y-73938935D01*
X145279350Y-74499119D01*
X145455344Y-75073479D01*
X145571626Y-75662601D01*
X145607396Y-75961875D01*
X145628592Y-76299180D01*
X145627656Y-76640321D01*
X145603382Y-76992168D01*
X145554564Y-77361594D01*
X145479996Y-77755470D01*
X145378472Y-78180669D01*
X145248787Y-78644062D01*
X145089733Y-79152521D01*
X145000183Y-79421757D01*
X144896577Y-79733533D01*
X144815072Y-79992722D01*
X144754356Y-80205760D01*
X144713114Y-80379083D01*
X144690032Y-80519129D01*
X144683795Y-80632334D01*
X144693088Y-80725135D01*
X144716598Y-80803968D01*
X144717492Y-80806143D01*
X144758944Y-80878277D01*
X144819742Y-80932189D01*
X144905616Y-80968149D01*
X145022295Y-80986427D01*
X145175510Y-80987292D01*
X145370991Y-80971014D01*
X145614466Y-80937862D01*
X145911668Y-80888105D01*
X146024974Y-80867637D01*
X146667527Y-80755075D01*
X147260118Y-80662450D01*
X147812676Y-80588595D01*
X148335130Y-80532345D01*
X148837410Y-80492535D01*
X149329445Y-80467999D01*
X149465643Y-80463737D01*
X150071272Y-80462458D01*
X150622416Y-80493342D01*
X151119430Y-80556543D01*
X151562669Y-80652211D01*
X151952488Y-80780500D01*
X152289244Y-80941561D01*
X152573291Y-81135547D01*
X152804984Y-81362611D01*
X152984680Y-81622903D01*
X153112733Y-81916578D01*
X153149212Y-82042000D01*
X153183287Y-82252403D01*
X153192783Y-82504431D01*
X153178663Y-82781571D01*
X153141889Y-83067311D01*
X153083425Y-83345138D01*
X153070396Y-83394032D01*
X152988667Y-83666514D01*
X152891688Y-83944373D01*
X152776881Y-84232718D01*
X152641670Y-84536661D01*
X152483477Y-84861314D01*
X152299724Y-85211787D01*
X152087834Y-85593191D01*
X151845230Y-86010636D01*
X151569333Y-86469235D01*
X151296488Y-86911660D01*
X151065126Y-87288001D01*
X150870218Y-87615681D01*
X150710603Y-87897199D01*
X150585120Y-88135052D01*
X150492607Y-88331741D01*
X150431904Y-88489763D01*
X150401848Y-88611618D01*
X150401280Y-88699804D01*
X150429038Y-88756819D01*
X150436063Y-88763243D01*
X150480813Y-88776648D01*
X150578645Y-88791832D01*
X150719213Y-88807616D01*
X150892167Y-88822824D01*
X151066500Y-88835015D01*
X151889551Y-88896756D01*
X152651845Y-88976219D01*
X153353617Y-89073449D01*
X153995101Y-89188491D01*
X154576532Y-89321392D01*
X155098142Y-89472195D01*
X155560167Y-89640947D01*
X155817205Y-89754800D01*
X156076092Y-89885600D01*
X156291555Y-90012181D01*
X156481570Y-90146519D01*
X156664115Y-90300588D01*
X156733825Y-90365433D01*
X156968957Y-90626878D01*
X157147848Y-90911555D01*
X157270756Y-91220925D01*
X157337940Y-91556451D01*
X157349659Y-91919596D01*
X157306171Y-92311822D01*
X157207737Y-92734592D01*
X157173433Y-92848874D01*
X157122184Y-93005663D01*
X157065272Y-93164944D01*
X156999693Y-93333518D01*
X156922442Y-93518184D01*
X156830512Y-93725743D01*
X156720900Y-93962995D01*
X156590599Y-94236742D01*
X156436606Y-94553783D01*
X156273730Y-94884875D01*
X156075268Y-95289450D01*
X155904784Y-95644101D01*
X155760017Y-95954742D01*
X155638708Y-96227285D01*
X155538596Y-96467646D01*
X155457421Y-96681737D01*
X155392921Y-96875473D01*
X155342837Y-97054767D01*
X155304908Y-97225532D01*
X155276875Y-97393683D01*
X155259096Y-97539373D01*
X155247556Y-97897425D01*
X155291452Y-98224831D01*
X155391396Y-98522986D01*
X155548000Y-98793282D01*
X155761876Y-99037114D01*
X156003183Y-99234625D01*
X156104186Y-99303535D01*
X156207483Y-99367339D01*
X156321581Y-99430084D01*
X156454983Y-99495815D01*
X156616196Y-99568580D01*
X156813723Y-99652426D01*
X157056072Y-99751399D01*
X157265715Y-99835344D01*
X158047829Y-100157976D01*
X158766881Y-100477957D01*
X159423239Y-100795574D01*
X160017274Y-101111115D01*
X160549354Y-101424868D01*
X161019849Y-101737121D01*
X161429129Y-102048162D01*
X161777562Y-102358280D01*
X162065518Y-102667761D01*
X162293367Y-102976895D01*
X162461477Y-103285969D01*
X162570219Y-103595272D01*
X162619961Y-103905090D01*
X162623500Y-104012999D01*
X162595443Y-104296861D01*
X162513798Y-104597656D01*
X162382354Y-104905114D01*
X162204901Y-105208965D01*
X162155909Y-105280182D01*
X162017876Y-105456462D01*
X161830840Y-105666005D01*
X161597897Y-105905761D01*
X161322137Y-106172681D01*
X161006654Y-106463718D01*
X160654541Y-106775823D01*
X160523851Y-106888930D01*
X160249327Y-107127078D01*
X160019481Y-107331193D01*
X159829094Y-107506518D01*
X159672949Y-107658296D01*
X159545828Y-107791770D01*
X159442513Y-107912185D01*
X159357785Y-108024782D01*
X159290153Y-108128634D01*
X159199219Y-108325667D01*
X159163636Y-108520218D01*
X159184355Y-108703005D01*
X159221501Y-108797939D01*
X159330765Y-108952049D01*
X159497682Y-109103967D01*
X159716434Y-109249680D01*
X159981201Y-109385170D01*
X160206831Y-109477798D01*
X160415749Y-109581334D01*
X160598446Y-109727579D01*
X160755631Y-109918599D01*
X160888016Y-110156457D01*
X160996309Y-110443217D01*
X161081220Y-110780944D01*
X161143460Y-111171700D01*
X161183737Y-111617551D01*
X161202762Y-112120561D01*
X161204561Y-112379125D01*
X161188362Y-113080528D01*
X161141917Y-113817220D01*
X161064763Y-114593464D01*
X160956437Y-115413525D01*
X160816476Y-116281668D01*
X160727805Y-116770761D01*
X160642395Y-117225398D01*
X160751885Y-117308462D01*
X160993367Y-117528609D01*
X161180416Y-117781233D01*
X161313071Y-118066176D01*
X161391371Y-118383282D01*
X161415356Y-118732392D01*
X161385064Y-119113349D01*
X161300534Y-119525996D01*
X161161806Y-119970174D01*
X160968919Y-120445726D01*
X160721911Y-120952494D01*
X160420823Y-121490322D01*
X160065692Y-122059051D01*
X159656559Y-122658523D01*
X159303699Y-123142375D01*
X158976170Y-123569960D01*
X158634172Y-123996059D01*
X158272085Y-124427037D01*
X157884287Y-124869256D01*
X157465159Y-125329083D01*
X157009079Y-125812879D01*
X156510428Y-126327010D01*
X156324295Y-126515812D01*
X156120146Y-126722371D01*
X155930944Y-126914353D01*
X155761128Y-127087212D01*
X155615137Y-127236405D01*
X155497409Y-127357388D01*
X155412384Y-127445616D01*
X155364501Y-127496546D01*
X155355485Y-127507573D01*
X155384537Y-127489918D01*
X155455704Y-127441606D01*
X155559608Y-127369140D01*
X155686873Y-127279025D01*
X155749625Y-127234190D01*
X156512690Y-126656478D01*
X157259015Y-126028244D01*
X157990845Y-125347224D01*
X158710425Y-124611157D01*
X159419999Y-123817780D01*
X160121811Y-122964832D01*
X160596521Y-122348625D01*
X161002955Y-121792640D01*
X161398534Y-121222652D01*
X161779645Y-120644974D01*
X162142677Y-120065918D01*
X162484019Y-119491799D01*
X162800056Y-118928930D01*
X163087179Y-118383624D01*
X163341774Y-117862194D01*
X163560230Y-117370954D01*
X163738934Y-116916218D01*
X163793532Y-116760625D01*
X163856573Y-116548757D01*
X163922477Y-116279433D01*
X163990327Y-115958587D01*
X164059205Y-115592150D01*
X164128194Y-115186054D01*
X164196376Y-114746231D01*
X164262834Y-114278613D01*
X164326650Y-113789133D01*
X164386908Y-113283723D01*
X164442690Y-112768314D01*
X164493078Y-112248840D01*
X164495665Y-112220375D01*
X164623149Y-110489151D01*
X164692473Y-108757487D01*
X164703923Y-107028655D01*
X164657787Y-105305930D01*
X164554353Y-103592584D01*
X164393907Y-101891890D01*
X164176738Y-100207123D01*
X163903133Y-98541555D01*
X163573379Y-96898460D01*
X163187763Y-95281112D01*
X162922104Y-94297500D01*
X162445329Y-92724648D01*
X161910334Y-91175925D01*
X161316857Y-89650787D01*
X160664633Y-88148692D01*
X159953400Y-86669096D01*
X159182894Y-85211457D01*
X158352854Y-83775233D01*
X157463015Y-82359879D01*
X156513114Y-80964855D01*
X156348071Y-80733076D01*
X155550282Y-79657857D01*
X154735947Y-78635398D01*
X153906296Y-77666894D01*
X153062562Y-76753538D01*
X152205977Y-75896524D01*
X151337771Y-75097045D01*
X150459177Y-74356297D01*
X149571426Y-73675471D01*
X148675750Y-73055763D01*
X147973608Y-72616299D01*
X147236452Y-72198548D01*
X146494151Y-71821788D01*
X145752832Y-71488429D01*
X145018621Y-71200883D01*
X144297646Y-70961562D01*
X143596032Y-70772876D01*
X142963321Y-70644454D01*
X142803850Y-70619829D01*
X142632470Y-70597176D01*
X142460573Y-70577536D01*
X142299553Y-70561950D01*
X142160803Y-70551462D01*
X142055718Y-70547111D01*
X141995689Y-70549941D01*
G36*
X138398250Y-70561150D02*
G01*
X137985684Y-70600931D01*
X137530724Y-70674728D01*
X137042923Y-70780039D01*
X136531835Y-70914361D01*
X136007015Y-71075192D01*
X135478016Y-71260029D01*
X134974584Y-71457955D01*
X134066365Y-71868049D01*
X133163246Y-72340636D01*
X132266180Y-72874845D01*
X131376125Y-73469804D01*
X130494034Y-74124641D01*
X129620862Y-74838486D01*
X128757565Y-75610465D01*
X127905099Y-76439708D01*
X127064417Y-77325344D01*
X126236476Y-78266501D01*
X125422229Y-79262306D01*
X124622634Y-80311889D01*
X123838643Y-81414379D01*
X123476026Y-81950285D01*
X122649207Y-83231880D01*
X121881291Y-84506720D01*
X121169082Y-85781320D01*
X120509385Y-87062196D01*
X119899004Y-88355860D01*
X119334745Y-89668829D01*
X118813411Y-91007617D01*
X118331808Y-92378739D01*
X118271287Y-92561723D01*
X117795861Y-94107008D01*
X117373629Y-95684918D01*
X117005157Y-97292543D01*
X116691010Y-98926974D01*
X116431755Y-100585304D01*
X116227957Y-102264624D01*
X116096004Y-103743125D01*
X116066297Y-104157194D01*
X116041367Y-104541340D01*
X116020849Y-104906629D01*
X116004375Y-105264129D01*
X115991579Y-105624905D01*
X115982093Y-106000025D01*
X115975550Y-106400556D01*
X115971583Y-106837563D01*
X115969826Y-107322114D01*
X115969658Y-107553125D01*
X115971860Y-108212816D01*
X115978854Y-108821270D01*
X115991228Y-109390605D01*
X116009568Y-109932946D01*
X116034459Y-110460412D01*
X116066488Y-110985126D01*
X116106242Y-111519209D01*
X116154305Y-112074782D01*
X116211265Y-112663969D01*
X116221825Y-112767850D01*
X116263609Y-113156138D01*
X116310561Y-113556988D01*
X116361548Y-113962855D01*
X116415440Y-114366194D01*
X116471103Y-114759460D01*
X116527405Y-115135106D01*
X116583214Y-115485589D01*
X116637398Y-115803361D01*
X116688824Y-116080879D01*
X116736361Y-116310596D01*
X116778875Y-116484967D01*
X116780473Y-116490750D01*
X116878246Y-116798199D01*
X117011773Y-117149455D01*
X117177777Y-117538238D01*
X117372984Y-117958265D01*
X117594119Y-118403254D01*
X117837904Y-118866924D01*
X118101066Y-119342993D01*
X118380329Y-119825178D01*
X118672416Y-120307198D01*
X118974053Y-120782772D01*
X119185393Y-121102915D01*
X119768577Y-121939954D01*
X120373794Y-122747799D01*
X120996899Y-123521907D01*
X121633749Y-124257737D01*
X122280199Y-124950747D01*
X122932105Y-125596395D01*
X123585323Y-126190140D01*
X124235708Y-126727440D01*
X124507625Y-126935628D01*
X124733092Y-127103564D01*
X124912602Y-127235432D01*
X125046214Y-127330377D01*
X125133991Y-127387544D01*
X125175992Y-127406080D01*
X125172278Y-127385128D01*
X125122910Y-127323834D01*
X125027947Y-127221344D01*
X124887451Y-127076802D01*
X124701482Y-126889353D01*
X124523500Y-126711414D01*
X123855928Y-126031593D01*
X123231013Y-125367377D01*
X122649327Y-124719851D01*
X122111443Y-124090102D01*
X121617936Y-123479213D01*
X121169377Y-122888272D01*
X120766340Y-122318363D01*
X120409398Y-121770571D01*
X120099124Y-121245983D01*
X119836091Y-120745683D01*
X119620872Y-120270756D01*
X119454040Y-119822290D01*
X119336168Y-119401368D01*
X119267830Y-119009076D01*
X119249597Y-118646500D01*
X119282045Y-118314725D01*
X119365744Y-118014837D01*
X119501269Y-117747920D01*
X119675598Y-117528910D01*
X119770991Y-117434667D01*
X119863032Y-117350726D01*
X119931880Y-117295180D01*
X119932170Y-117294978D01*
X120023965Y-117231124D01*
X119925072Y-116710124D01*
X119755517Y-115739544D01*
X119624564Y-114817098D01*
X119531990Y-113940675D01*
X119477567Y-113108163D01*
X119460996Y-112363250D01*
X119462968Y-112023888D01*
X119469431Y-111736554D01*
X119481425Y-111489869D01*
X119499991Y-111272456D01*
X119526169Y-111072936D01*
X119561000Y-110879931D01*
X119605524Y-110682062D01*
X119620122Y-110623236D01*
X119718455Y-110301130D01*
X119838472Y-110034750D01*
X119984123Y-109818848D01*
X120159353Y-109648179D01*
X120368112Y-109517494D01*
X120493281Y-109462810D01*
X120810421Y-109324496D01*
X121069650Y-109175472D01*
X121269851Y-109016756D01*
X121409909Y-108849370D01*
X121488709Y-108674335D01*
X121506940Y-108535288D01*
X121481320Y-108384411D01*
X121408373Y-108207304D01*
X121292971Y-108013898D01*
X121172232Y-107852741D01*
X121110673Y-107780631D01*
X121038426Y-107702708D01*
X120950681Y-107614565D01*
X120842623Y-107511794D01*
X120709442Y-107389987D01*
X120546324Y-107244738D01*
X120348458Y-107071637D01*
X120111031Y-106866277D01*
X119856250Y-106647406D01*
X119462663Y-106300003D01*
X119123156Y-105977764D01*
X118835267Y-105676959D01*
X118596532Y-105393856D01*
X118404489Y-105124722D01*
X118256674Y-104865827D01*
X118150624Y-104613439D01*
X118083876Y-104363825D01*
X118053967Y-104113256D01*
X118054466Y-103917771D01*
X118090298Y-103633040D01*
X118169807Y-103361503D01*
X118296884Y-103095434D01*
X118475423Y-102827107D01*
X118709314Y-102548796D01*
X118784202Y-102469121D01*
X119074372Y-102189198D01*
X119404104Y-101913694D01*
X119776170Y-101641026D01*
X120193337Y-101369607D01*
X120658379Y-101097851D01*
X121174063Y-100824174D01*
X121743161Y-100546990D01*
X122368442Y-100264713D01*
X123052678Y-99975758D01*
X123353671Y-99853878D01*
X123673725Y-99724139D01*
X123941244Y-99611504D01*
X124163598Y-99512010D01*
X124348154Y-99421697D01*
X124502284Y-99336603D01*
X124633355Y-99252766D01*
X124748736Y-99166224D01*
X124855798Y-99073016D01*
X124918975Y-99012375D01*
X125109456Y-98798821D01*
X125249438Y-98579984D01*
X125342998Y-98344541D01*
X125394215Y-98081169D01*
X125407167Y-97778546D01*
X125403673Y-97666698D01*
X125393206Y-97502199D01*
X125376246Y-97344644D01*
X125350695Y-97188268D01*
X125314453Y-97027305D01*
X125265420Y-96855989D01*
X125201499Y-96668556D01*
X125120589Y-96459239D01*
X125020592Y-96222273D01*
X124899408Y-95951892D01*
X124754939Y-95642331D01*
X124585084Y-95287825D01*
X124396628Y-94900750D01*
X124187221Y-94470008D01*
X124005908Y-94089770D01*
X123850776Y-93754579D01*
X123719913Y-93458974D01*
X123611407Y-93197498D01*
X123523345Y-92964690D01*
X123453816Y-92755094D01*
X123400905Y-92563249D01*
X123362702Y-92383698D01*
X123337294Y-92210980D01*
X123322768Y-92039639D01*
X123317212Y-91864214D01*
X123317000Y-91818983D01*
X123337924Y-91478411D01*
X123403529Y-91175942D01*
X123518069Y-90900711D01*
X123685796Y-90641855D01*
X123854333Y-90446369D01*
X124094567Y-90222749D01*
X124372934Y-90017214D01*
X124691622Y-89829170D01*
X125052818Y-89658021D01*
X125458708Y-89503173D01*
X125911479Y-89364031D01*
X126413319Y-89240000D01*
X126966412Y-89130485D01*
X127572948Y-89034892D01*
X128235111Y-88952624D01*
X128955090Y-88883088D01*
X129735071Y-88825689D01*
X129834533Y-88819482D01*
X130009188Y-88805636D01*
X130128714Y-88788208D01*
X130201450Y-88765689D01*
X130226656Y-88748558D01*
X130255940Y-88699175D01*
X130263327Y-88628152D01*
X130247215Y-88532080D01*
X130206004Y-88407551D01*
X130138092Y-88251158D01*
X130041877Y-88059492D01*
X129915757Y-87829145D01*
X129758132Y-87556710D01*
X129567400Y-87238778D01*
X129353652Y-86890805D01*
X129135378Y-86537246D01*
X128947292Y-86229507D01*
X128785091Y-85960094D01*
X128644470Y-85721512D01*
X128521125Y-85506268D01*
X128410753Y-85306865D01*
X128309049Y-85115810D01*
X128211708Y-84925609D01*
X128128020Y-84756625D01*
X127898030Y-84253868D01*
X127716110Y-83785345D01*
X127582545Y-83352146D01*
X127497618Y-82955365D01*
X127461615Y-82596095D01*
X127474820Y-82275428D01*
X127477192Y-82257370D01*
X127532617Y-81971196D01*
X127618584Y-81727616D01*
X127743230Y-81509808D01*
X127914691Y-81300949D01*
X127964877Y-81249113D01*
X128183601Y-81062051D01*
X128442915Y-80901671D01*
X128747693Y-80765862D01*
X129102809Y-80652515D01*
X129513137Y-80559519D01*
X129590337Y-80545295D01*
X129718323Y-80523447D01*
X129835633Y-80506406D01*
X129952779Y-80493600D01*
X130080272Y-80484463D01*
X130228622Y-80478423D01*
X130408343Y-80474912D01*
X130629944Y-80473360D01*
X130903938Y-80473198D01*
X130921125Y-80473219D01*
X131318692Y-80477351D01*
X131699704Y-80489414D01*
X132074049Y-80510460D01*
X132451613Y-80541542D01*
X132842285Y-80583713D01*
X133255951Y-80638027D01*
X133702498Y-80705536D01*
X134191812Y-80787293D01*
X134667625Y-80872225D01*
X134964128Y-80924427D01*
X135205839Y-80961765D01*
X135399703Y-80984217D01*
X135552670Y-80991765D01*
X135671687Y-80984388D01*
X135763700Y-80962067D01*
X135835657Y-80924783D01*
X135894506Y-80872516D01*
X135897910Y-80868748D01*
X135940910Y-80811549D01*
X135970260Y-80746649D01*
X135984950Y-80667938D01*
X135983972Y-80569305D01*
X135966315Y-80444639D01*
X135930971Y-80287829D01*
X135876928Y-80092765D01*
X135803178Y-79853334D01*
X135708711Y-79563428D01*
X135656282Y-79406249D01*
X135516181Y-78981210D01*
X135398464Y-78606228D01*
X135301371Y-78272628D01*
X135223143Y-77971737D01*
X135162023Y-77694880D01*
X135116252Y-77433382D01*
X135084070Y-77178570D01*
X135063719Y-76921768D01*
X135053441Y-76654302D01*
X135051294Y-76422250D01*
X135054491Y-76132934D01*
X135064852Y-75888444D01*
X135084722Y-75670288D01*
X135116444Y-75459975D01*
X135162362Y-75239015D01*
X135224819Y-74988915D01*
X135240385Y-74930482D01*
X135415664Y-74395266D01*
X135652309Y-73863211D01*
X135948188Y-73337510D01*
X136301165Y-72821356D01*
X136709108Y-72317942D01*
X137169882Y-71830464D01*
X137545661Y-71480054D01*
X137680220Y-71362040D01*
X137808583Y-71252099D01*
X137940930Y-71141944D01*
X138087440Y-71023288D01*
X138258293Y-70887844D01*
X138463667Y-70727325D01*
X138604844Y-70617739D01*
X138699875Y-70544104D01*
X138398250Y-70561150D01*
G37*
X138398250Y-70561150D02*
X137985684Y-70600931D01*
X137530724Y-70674728D01*
X137042923Y-70780039D01*
X136531835Y-70914361D01*
X136007015Y-71075192D01*
X135478016Y-71260029D01*
X134974584Y-71457955D01*
X134066365Y-71868049D01*
X133163246Y-72340636D01*
X132266180Y-72874845D01*
X131376125Y-73469804D01*
X130494034Y-74124641D01*
X129620862Y-74838486D01*
X128757565Y-75610465D01*
X127905099Y-76439708D01*
X127064417Y-77325344D01*
X126236476Y-78266501D01*
X125422229Y-79262306D01*
X124622634Y-80311889D01*
X123838643Y-81414379D01*
X123476026Y-81950285D01*
X122649207Y-83231880D01*
X121881291Y-84506720D01*
X121169082Y-85781320D01*
X120509385Y-87062196D01*
X119899004Y-88355860D01*
X119334745Y-89668829D01*
X118813411Y-91007617D01*
X118331808Y-92378739D01*
X118271287Y-92561723D01*
X117795861Y-94107008D01*
X117373629Y-95684918D01*
X117005157Y-97292543D01*
X116691010Y-98926974D01*
X116431755Y-100585304D01*
X116227957Y-102264624D01*
X116096004Y-103743125D01*
X116066297Y-104157194D01*
X116041367Y-104541340D01*
X116020849Y-104906629D01*
X116004375Y-105264129D01*
X115991579Y-105624905D01*
X115982093Y-106000025D01*
X115975550Y-106400556D01*
X115971583Y-106837563D01*
X115969826Y-107322114D01*
X115969658Y-107553125D01*
X115971860Y-108212816D01*
X115978854Y-108821270D01*
X115991228Y-109390605D01*
X116009568Y-109932946D01*
X116034459Y-110460412D01*
X116066488Y-110985126D01*
X116106242Y-111519209D01*
X116154305Y-112074782D01*
X116211265Y-112663969D01*
X116221825Y-112767850D01*
X116263609Y-113156138D01*
X116310561Y-113556988D01*
X116361548Y-113962855D01*
X116415440Y-114366194D01*
X116471103Y-114759460D01*
X116527405Y-115135106D01*
X116583214Y-115485589D01*
X116637398Y-115803361D01*
X116688824Y-116080879D01*
X116736361Y-116310596D01*
X116778875Y-116484967D01*
X116780473Y-116490750D01*
X116878246Y-116798199D01*
X117011773Y-117149455D01*
X117177777Y-117538238D01*
X117372984Y-117958265D01*
X117594119Y-118403254D01*
X117837904Y-118866924D01*
X118101066Y-119342993D01*
X118380329Y-119825178D01*
X118672416Y-120307198D01*
X118974053Y-120782772D01*
X119185393Y-121102915D01*
X119768577Y-121939954D01*
X120373794Y-122747799D01*
X120996899Y-123521907D01*
X121633749Y-124257737D01*
X122280199Y-124950747D01*
X122932105Y-125596395D01*
X123585323Y-126190140D01*
X124235708Y-126727440D01*
X124507625Y-126935628D01*
X124733092Y-127103564D01*
X124912602Y-127235432D01*
X125046214Y-127330377D01*
X125133991Y-127387544D01*
X125175992Y-127406080D01*
X125172278Y-127385128D01*
X125122910Y-127323834D01*
X125027947Y-127221344D01*
X124887451Y-127076802D01*
X124701482Y-126889353D01*
X124523500Y-126711414D01*
X123855928Y-126031593D01*
X123231013Y-125367377D01*
X122649327Y-124719851D01*
X122111443Y-124090102D01*
X121617936Y-123479213D01*
X121169377Y-122888272D01*
X120766340Y-122318363D01*
X120409398Y-121770571D01*
X120099124Y-121245983D01*
X119836091Y-120745683D01*
X119620872Y-120270756D01*
X119454040Y-119822290D01*
X119336168Y-119401368D01*
X119267830Y-119009076D01*
X119249597Y-118646500D01*
X119282045Y-118314725D01*
X119365744Y-118014837D01*
X119501269Y-117747920D01*
X119675598Y-117528910D01*
X119770991Y-117434667D01*
X119863032Y-117350726D01*
X119931880Y-117295180D01*
X119932170Y-117294978D01*
X120023965Y-117231124D01*
X119925072Y-116710124D01*
X119755517Y-115739544D01*
X119624564Y-114817098D01*
X119531990Y-113940675D01*
X119477567Y-113108163D01*
X119460996Y-112363250D01*
X119462968Y-112023888D01*
X119469431Y-111736554D01*
X119481425Y-111489869D01*
X119499991Y-111272456D01*
X119526169Y-111072936D01*
X119561000Y-110879931D01*
X119605524Y-110682062D01*
X119620122Y-110623236D01*
X119718455Y-110301130D01*
X119838472Y-110034750D01*
X119984123Y-109818848D01*
X120159353Y-109648179D01*
X120368112Y-109517494D01*
X120493281Y-109462810D01*
X120810421Y-109324496D01*
X121069650Y-109175472D01*
X121269851Y-109016756D01*
X121409909Y-108849370D01*
X121488709Y-108674335D01*
X121506940Y-108535288D01*
X121481320Y-108384411D01*
X121408373Y-108207304D01*
X121292971Y-108013898D01*
X121172232Y-107852741D01*
X121110673Y-107780631D01*
X121038426Y-107702708D01*
X120950681Y-107614565D01*
X120842623Y-107511794D01*
X120709442Y-107389987D01*
X120546324Y-107244738D01*
X120348458Y-107071637D01*
X120111031Y-106866277D01*
X119856250Y-106647406D01*
X119462663Y-106300003D01*
X119123156Y-105977764D01*
X118835267Y-105676959D01*
X118596532Y-105393856D01*
X118404489Y-105124722D01*
X118256674Y-104865827D01*
X118150624Y-104613439D01*
X118083876Y-104363825D01*
X118053967Y-104113256D01*
X118054466Y-103917771D01*
X118090298Y-103633040D01*
X118169807Y-103361503D01*
X118296884Y-103095434D01*
X118475423Y-102827107D01*
X118709314Y-102548796D01*
X118784202Y-102469121D01*
X119074372Y-102189198D01*
X119404104Y-101913694D01*
X119776170Y-101641026D01*
X120193337Y-101369607D01*
X120658379Y-101097851D01*
X121174063Y-100824174D01*
X121743161Y-100546990D01*
X122368442Y-100264713D01*
X123052678Y-99975758D01*
X123353671Y-99853878D01*
X123673725Y-99724139D01*
X123941244Y-99611504D01*
X124163598Y-99512010D01*
X124348154Y-99421697D01*
X124502284Y-99336603D01*
X124633355Y-99252766D01*
X124748736Y-99166224D01*
X124855798Y-99073016D01*
X124918975Y-99012375D01*
X125109456Y-98798821D01*
X125249438Y-98579984D01*
X125342998Y-98344541D01*
X125394215Y-98081169D01*
X125407167Y-97778546D01*
X125403673Y-97666698D01*
X125393206Y-97502199D01*
X125376246Y-97344644D01*
X125350695Y-97188268D01*
X125314453Y-97027305D01*
X125265420Y-96855989D01*
X125201499Y-96668556D01*
X125120589Y-96459239D01*
X125020592Y-96222273D01*
X124899408Y-95951892D01*
X124754939Y-95642331D01*
X124585084Y-95287825D01*
X124396628Y-94900750D01*
X124187221Y-94470008D01*
X124005908Y-94089770D01*
X123850776Y-93754579D01*
X123719913Y-93458974D01*
X123611407Y-93197498D01*
X123523345Y-92964690D01*
X123453816Y-92755094D01*
X123400905Y-92563249D01*
X123362702Y-92383698D01*
X123337294Y-92210980D01*
X123322768Y-92039639D01*
X123317212Y-91864214D01*
X123317000Y-91818983D01*
X123337924Y-91478411D01*
X123403529Y-91175942D01*
X123518069Y-90900711D01*
X123685796Y-90641855D01*
X123854333Y-90446369D01*
X124094567Y-90222749D01*
X124372934Y-90017214D01*
X124691622Y-89829170D01*
X125052818Y-89658021D01*
X125458708Y-89503173D01*
X125911479Y-89364031D01*
X126413319Y-89240000D01*
X126966412Y-89130485D01*
X127572948Y-89034892D01*
X128235111Y-88952624D01*
X128955090Y-88883088D01*
X129735071Y-88825689D01*
X129834533Y-88819482D01*
X130009188Y-88805636D01*
X130128714Y-88788208D01*
X130201450Y-88765689D01*
X130226656Y-88748558D01*
X130255940Y-88699175D01*
X130263327Y-88628152D01*
X130247215Y-88532080D01*
X130206004Y-88407551D01*
X130138092Y-88251158D01*
X130041877Y-88059492D01*
X129915757Y-87829145D01*
X129758132Y-87556710D01*
X129567400Y-87238778D01*
X129353652Y-86890805D01*
X129135378Y-86537246D01*
X128947292Y-86229507D01*
X128785091Y-85960094D01*
X128644470Y-85721512D01*
X128521125Y-85506268D01*
X128410753Y-85306865D01*
X128309049Y-85115810D01*
X128211708Y-84925609D01*
X128128020Y-84756625D01*
X127898030Y-84253868D01*
X127716110Y-83785345D01*
X127582545Y-83352146D01*
X127497618Y-82955365D01*
X127461615Y-82596095D01*
X127474820Y-82275428D01*
X127477192Y-82257370D01*
X127532617Y-81971196D01*
X127618584Y-81727616D01*
X127743230Y-81509808D01*
X127914691Y-81300949D01*
X127964877Y-81249113D01*
X128183601Y-81062051D01*
X128442915Y-80901671D01*
X128747693Y-80765862D01*
X129102809Y-80652515D01*
X129513137Y-80559519D01*
X129590337Y-80545295D01*
X129718323Y-80523447D01*
X129835633Y-80506406D01*
X129952779Y-80493600D01*
X130080272Y-80484463D01*
X130228622Y-80478423D01*
X130408343Y-80474912D01*
X130629944Y-80473360D01*
X130903938Y-80473198D01*
X130921125Y-80473219D01*
X131318692Y-80477351D01*
X131699704Y-80489414D01*
X132074049Y-80510460D01*
X132451613Y-80541542D01*
X132842285Y-80583713D01*
X133255951Y-80638027D01*
X133702498Y-80705536D01*
X134191812Y-80787293D01*
X134667625Y-80872225D01*
X134964128Y-80924427D01*
X135205839Y-80961765D01*
X135399703Y-80984217D01*
X135552670Y-80991765D01*
X135671687Y-80984388D01*
X135763700Y-80962067D01*
X135835657Y-80924783D01*
X135894506Y-80872516D01*
X135897910Y-80868748D01*
X135940910Y-80811549D01*
X135970260Y-80746649D01*
X135984950Y-80667938D01*
X135983972Y-80569305D01*
X135966315Y-80444639D01*
X135930971Y-80287829D01*
X135876928Y-80092765D01*
X135803178Y-79853334D01*
X135708711Y-79563428D01*
X135656282Y-79406249D01*
X135516181Y-78981210D01*
X135398464Y-78606228D01*
X135301371Y-78272628D01*
X135223143Y-77971737D01*
X135162023Y-77694880D01*
X135116252Y-77433382D01*
X135084070Y-77178570D01*
X135063719Y-76921768D01*
X135053441Y-76654302D01*
X135051294Y-76422250D01*
X135054491Y-76132934D01*
X135064852Y-75888444D01*
X135084722Y-75670288D01*
X135116444Y-75459975D01*
X135162362Y-75239015D01*
X135224819Y-74988915D01*
X135240385Y-74930482D01*
X135415664Y-74395266D01*
X135652309Y-73863211D01*
X135948188Y-73337510D01*
X136301165Y-72821356D01*
X136709108Y-72317942D01*
X137169882Y-71830464D01*
X137545661Y-71480054D01*
X137680220Y-71362040D01*
X137808583Y-71252099D01*
X137940930Y-71141944D01*
X138087440Y-71023288D01*
X138258293Y-70887844D01*
X138463667Y-70727325D01*
X138604844Y-70617739D01*
X138699875Y-70544104D01*
X138398250Y-70561150D01*
G36*
X150209548Y-112357716D02*
G01*
X150057068Y-112375895D01*
X149644938Y-112465531D01*
X149209500Y-112612374D01*
X148752656Y-112815349D01*
X148276309Y-113073381D01*
X147782360Y-113385396D01*
X147272710Y-113750318D01*
X146749262Y-114167073D01*
X146478625Y-114398337D01*
X146128858Y-114713981D01*
X145783288Y-115045008D01*
X145445397Y-115386967D01*
X145118665Y-115735404D01*
X144806575Y-116085867D01*
X144512607Y-116433903D01*
X144240243Y-116775062D01*
X143992964Y-117104889D01*
X143774251Y-117418934D01*
X143587585Y-117712743D01*
X143436447Y-117981864D01*
X143324320Y-118221845D01*
X143254683Y-118428234D01*
X143233195Y-118549090D01*
X143225766Y-118656402D01*
X143231404Y-118720126D01*
X143255124Y-118759662D01*
X143295506Y-118790224D01*
X143347150Y-118815641D01*
X143408106Y-118826114D01*
X143484708Y-118819486D01*
X143583287Y-118793601D01*
X143710175Y-118746300D01*
X143871705Y-118675429D01*
X144074207Y-118578828D01*
X144324014Y-118454342D01*
X144411256Y-118410155D01*
X144733545Y-118247883D01*
X145010742Y-118111768D01*
X145253278Y-117997158D01*
X145471585Y-117899397D01*
X145676094Y-117813831D01*
X145877237Y-117735807D01*
X146085445Y-117660669D01*
X146111018Y-117651758D01*
X146582853Y-117502928D01*
X147018938Y-117397496D01*
X147428192Y-117333729D01*
X147819538Y-117309894D01*
X147872400Y-117309643D01*
X148279652Y-117337060D01*
X148652794Y-117417690D01*
X148992028Y-117551701D01*
X149297553Y-117739263D01*
X149569572Y-117980545D01*
X149808284Y-118275717D01*
X150013892Y-118624947D01*
X150186595Y-119028404D01*
X150288252Y-119344008D01*
X150365446Y-119648289D01*
X150429960Y-119976422D01*
X150482002Y-120332678D01*
X150521775Y-120721333D01*
X150549484Y-121146660D01*
X150565334Y-121612931D01*
X150569529Y-122124422D01*
X150562276Y-122685404D01*
X150543777Y-123300153D01*
X150514239Y-123972941D01*
X150512107Y-124015500D01*
X150495625Y-124354028D01*
X150483634Y-124635722D01*
X150476491Y-124867114D01*
X150474553Y-125054734D01*
X150478176Y-125205116D01*
X150487717Y-125324788D01*
X150503532Y-125420284D01*
X150525978Y-125498135D01*
X150555411Y-125564871D01*
X150592188Y-125627025D01*
X150600788Y-125639973D01*
X150707108Y-125766301D01*
X150830029Y-125844375D01*
X150984573Y-125881471D01*
X151110883Y-125887042D01*
X151260360Y-125877205D01*
X151413528Y-125853401D01*
X151511000Y-125828768D01*
X151797773Y-125713012D01*
X152109728Y-125545048D01*
X152442410Y-125328825D01*
X152791362Y-125068295D01*
X153152131Y-124767408D01*
X153520259Y-124430115D01*
X153891292Y-124060365D01*
X154260774Y-123662110D01*
X154624250Y-123239300D01*
X154977263Y-122795886D01*
X155070562Y-122672668D01*
X155475531Y-122103525D01*
X155834137Y-121540314D01*
X156144091Y-120987373D01*
X156403105Y-120449043D01*
X156608893Y-119929664D01*
X156741011Y-119503505D01*
X156770056Y-119391696D01*
X156791885Y-119295331D01*
X156807501Y-119202513D01*
X156817908Y-119101341D01*
X156824110Y-118979916D01*
X156827109Y-118826339D01*
X156827909Y-118628711D01*
X156827733Y-118475125D01*
X156826616Y-118236348D01*
X156823635Y-118047738D01*
X156817746Y-117895967D01*
X156807902Y-117767706D01*
X156793057Y-117649627D01*
X156772164Y-117528403D01*
X156744178Y-117390704D01*
X156741707Y-117379071D01*
X156580025Y-116767897D01*
X156362406Y-116183765D01*
X156091635Y-115629552D01*
X155770500Y-115108136D01*
X155401784Y-114622393D01*
X154988273Y-114175201D01*
X154532754Y-113769436D01*
X154038011Y-113407977D01*
X153506830Y-113093699D01*
X152941997Y-112829480D01*
X152346297Y-112618198D01*
X152054164Y-112537425D01*
X151671028Y-112453872D01*
X151280826Y-112392978D01*
X150897730Y-112355890D01*
X150535914Y-112343754D01*
X150209548Y-112357716D01*
G37*
X150209548Y-112357716D02*
X150057068Y-112375895D01*
X149644938Y-112465531D01*
X149209500Y-112612374D01*
X148752656Y-112815349D01*
X148276309Y-113073381D01*
X147782360Y-113385396D01*
X147272710Y-113750318D01*
X146749262Y-114167073D01*
X146478625Y-114398337D01*
X146128858Y-114713981D01*
X145783288Y-115045008D01*
X145445397Y-115386967D01*
X145118665Y-115735404D01*
X144806575Y-116085867D01*
X144512607Y-116433903D01*
X144240243Y-116775062D01*
X143992964Y-117104889D01*
X143774251Y-117418934D01*
X143587585Y-117712743D01*
X143436447Y-117981864D01*
X143324320Y-118221845D01*
X143254683Y-118428234D01*
X143233195Y-118549090D01*
X143225766Y-118656402D01*
X143231404Y-118720126D01*
X143255124Y-118759662D01*
X143295506Y-118790224D01*
X143347150Y-118815641D01*
X143408106Y-118826114D01*
X143484708Y-118819486D01*
X143583287Y-118793601D01*
X143710175Y-118746300D01*
X143871705Y-118675429D01*
X144074207Y-118578828D01*
X144324014Y-118454342D01*
X144411256Y-118410155D01*
X144733545Y-118247883D01*
X145010742Y-118111768D01*
X145253278Y-117997158D01*
X145471585Y-117899397D01*
X145676094Y-117813831D01*
X145877237Y-117735807D01*
X146085445Y-117660669D01*
X146111018Y-117651758D01*
X146582853Y-117502928D01*
X147018938Y-117397496D01*
X147428192Y-117333729D01*
X147819538Y-117309894D01*
X147872400Y-117309643D01*
X148279652Y-117337060D01*
X148652794Y-117417690D01*
X148992028Y-117551701D01*
X149297553Y-117739263D01*
X149569572Y-117980545D01*
X149808284Y-118275717D01*
X150013892Y-118624947D01*
X150186595Y-119028404D01*
X150288252Y-119344008D01*
X150365446Y-119648289D01*
X150429960Y-119976422D01*
X150482002Y-120332678D01*
X150521775Y-120721333D01*
X150549484Y-121146660D01*
X150565334Y-121612931D01*
X150569529Y-122124422D01*
X150562276Y-122685404D01*
X150543777Y-123300153D01*
X150514239Y-123972941D01*
X150512107Y-124015500D01*
X150495625Y-124354028D01*
X150483634Y-124635722D01*
X150476491Y-124867114D01*
X150474553Y-125054734D01*
X150478176Y-125205116D01*
X150487717Y-125324788D01*
X150503532Y-125420284D01*
X150525978Y-125498135D01*
X150555411Y-125564871D01*
X150592188Y-125627025D01*
X150600788Y-125639973D01*
X150707108Y-125766301D01*
X150830029Y-125844375D01*
X150984573Y-125881471D01*
X151110883Y-125887042D01*
X151260360Y-125877205D01*
X151413528Y-125853401D01*
X151511000Y-125828768D01*
X151797773Y-125713012D01*
X152109728Y-125545048D01*
X152442410Y-125328825D01*
X152791362Y-125068295D01*
X153152131Y-124767408D01*
X153520259Y-124430115D01*
X153891292Y-124060365D01*
X154260774Y-123662110D01*
X154624250Y-123239300D01*
X154977263Y-122795886D01*
X155070562Y-122672668D01*
X155475531Y-122103525D01*
X155834137Y-121540314D01*
X156144091Y-120987373D01*
X156403105Y-120449043D01*
X156608893Y-119929664D01*
X156741011Y-119503505D01*
X156770056Y-119391696D01*
X156791885Y-119295331D01*
X156807501Y-119202513D01*
X156817908Y-119101341D01*
X156824110Y-118979916D01*
X156827109Y-118826339D01*
X156827909Y-118628711D01*
X156827733Y-118475125D01*
X156826616Y-118236348D01*
X156823635Y-118047738D01*
X156817746Y-117895967D01*
X156807902Y-117767706D01*
X156793057Y-117649627D01*
X156772164Y-117528403D01*
X156744178Y-117390704D01*
X156741707Y-117379071D01*
X156580025Y-116767897D01*
X156362406Y-116183765D01*
X156091635Y-115629552D01*
X155770500Y-115108136D01*
X155401784Y-114622393D01*
X154988273Y-114175201D01*
X154532754Y-113769436D01*
X154038011Y-113407977D01*
X153506830Y-113093699D01*
X152941997Y-112829480D01*
X152346297Y-112618198D01*
X152054164Y-112537425D01*
X151671028Y-112453872D01*
X151280826Y-112392978D01*
X150897730Y-112355890D01*
X150535914Y-112343754D01*
X150209548Y-112357716D01*
G36*
X144892476Y-121546482D02*
G01*
X144258826Y-121554875D01*
X143141512Y-125872875D01*
X143425053Y-125882057D01*
X143552862Y-125884348D01*
X143654892Y-125882708D01*
X143715779Y-125877541D01*
X143725667Y-125874166D01*
X143739184Y-125839185D01*
X143765604Y-125753419D01*
X143801834Y-125627531D01*
X143844778Y-125472189D01*
X143875754Y-125356984D01*
X144008767Y-124856875D01*
X145779159Y-124856875D01*
X145893491Y-125285500D01*
X145937040Y-125449182D01*
X145976295Y-125597501D01*
X146007520Y-125716284D01*
X146026978Y-125791359D01*
X146029517Y-125801437D01*
X146051210Y-125888750D01*
X146354876Y-125888750D01*
X146502143Y-125886625D01*
X146593969Y-125879525D01*
X146638293Y-125866362D01*
X146644370Y-125849062D01*
X146634236Y-125812387D01*
X146609551Y-125719287D01*
X146571633Y-125574825D01*
X146521799Y-125384062D01*
X146461367Y-125152057D01*
X146391653Y-124883874D01*
X146313976Y-124584573D01*
X146239380Y-124296750D01*
X145637250Y-124296750D01*
X145616527Y-124309284D01*
X145551562Y-124318939D01*
X145438159Y-124325917D01*
X145272126Y-124330423D01*
X145049266Y-124332661D01*
X144891125Y-124333000D01*
X144681073Y-124332033D01*
X144493899Y-124329321D01*
X144338373Y-124325142D01*
X144223262Y-124319777D01*
X144157335Y-124313504D01*
X144145000Y-124309195D01*
X144152625Y-124274032D01*
X144174332Y-124184339D01*
X144208374Y-124047084D01*
X144253002Y-123869232D01*
X144306468Y-123657748D01*
X144367024Y-123419599D01*
X144432922Y-123161750D01*
X144435850Y-123150320D01*
X144726700Y-122015250D01*
X144896225Y-122015250D01*
X144990281Y-122017814D01*
X145051838Y-122024409D01*
X145065750Y-122030406D01*
X145073409Y-122063571D01*
X145095201Y-122151229D01*
X145129349Y-122286399D01*
X145174076Y-122462100D01*
X145227606Y-122671349D01*
X145288160Y-122907167D01*
X145351500Y-123153031D01*
X145417269Y-123408905D01*
X145477701Y-123645892D01*
X145531008Y-123856838D01*
X145575402Y-124034587D01*
X145609095Y-124171985D01*
X145630301Y-124261876D01*
X145637250Y-124296750D01*
X146239380Y-124296750D01*
X146229652Y-124259216D01*
X146139999Y-123912863D01*
X146078162Y-123673732D01*
X145526125Y-121538089D01*
X144892476Y-121546482D01*
G37*
X144892476Y-121546482D02*
X144258826Y-121554875D01*
X143141512Y-125872875D01*
X143425053Y-125882057D01*
X143552862Y-125884348D01*
X143654892Y-125882708D01*
X143715779Y-125877541D01*
X143725667Y-125874166D01*
X143739184Y-125839185D01*
X143765604Y-125753419D01*
X143801834Y-125627531D01*
X143844778Y-125472189D01*
X143875754Y-125356984D01*
X144008767Y-124856875D01*
X145779159Y-124856875D01*
X145893491Y-125285500D01*
X145937040Y-125449182D01*
X145976295Y-125597501D01*
X146007520Y-125716284D01*
X146026978Y-125791359D01*
X146029517Y-125801437D01*
X146051210Y-125888750D01*
X146354876Y-125888750D01*
X146502143Y-125886625D01*
X146593969Y-125879525D01*
X146638293Y-125866362D01*
X146644370Y-125849062D01*
X146634236Y-125812387D01*
X146609551Y-125719287D01*
X146571633Y-125574825D01*
X146521799Y-125384062D01*
X146461367Y-125152057D01*
X146391653Y-124883874D01*
X146313976Y-124584573D01*
X146239380Y-124296750D01*
X145637250Y-124296750D01*
X145616527Y-124309284D01*
X145551562Y-124318939D01*
X145438159Y-124325917D01*
X145272126Y-124330423D01*
X145049266Y-124332661D01*
X144891125Y-124333000D01*
X144681073Y-124332033D01*
X144493899Y-124329321D01*
X144338373Y-124325142D01*
X144223262Y-124319777D01*
X144157335Y-124313504D01*
X144145000Y-124309195D01*
X144152625Y-124274032D01*
X144174332Y-124184339D01*
X144208374Y-124047084D01*
X144253002Y-123869232D01*
X144306468Y-123657748D01*
X144367024Y-123419599D01*
X144432922Y-123161750D01*
X144435850Y-123150320D01*
X144726700Y-122015250D01*
X144896225Y-122015250D01*
X144990281Y-122017814D01*
X145051838Y-122024409D01*
X145065750Y-122030406D01*
X145073409Y-122063571D01*
X145095201Y-122151229D01*
X145129349Y-122286399D01*
X145174076Y-122462100D01*
X145227606Y-122671349D01*
X145288160Y-122907167D01*
X145351500Y-123153031D01*
X145417269Y-123408905D01*
X145477701Y-123645892D01*
X145531008Y-123856838D01*
X145575402Y-124034587D01*
X145609095Y-124171985D01*
X145630301Y-124261876D01*
X145637250Y-124296750D01*
X146239380Y-124296750D01*
X146229652Y-124259216D01*
X146139999Y-123912863D01*
X146078162Y-123673732D01*
X145526125Y-121538089D01*
X144892476Y-121546482D01*
G36*
X141859000Y-123507500D02*
G01*
X141676438Y-123507224D01*
X141538241Y-123503344D01*
X141394820Y-123493814D01*
X141335125Y-123487708D01*
X141176375Y-123468468D01*
X140684614Y-122503734D01*
X140192852Y-121539000D01*
X139507278Y-121539000D01*
X139664355Y-121832687D01*
X139734217Y-121963783D01*
X139819800Y-122125133D01*
X139917064Y-122309049D01*
X140021970Y-122507845D01*
X140130480Y-122713831D01*
X140238554Y-122919322D01*
X140342154Y-123116628D01*
X140437240Y-123298064D01*
X140519773Y-123455942D01*
X140585715Y-123582573D01*
X140631025Y-123670272D01*
X140651666Y-123711349D01*
X140652500Y-123713413D01*
X140637535Y-123741821D01*
X140594864Y-123819619D01*
X140527824Y-123940803D01*
X140439751Y-124099367D01*
X140333981Y-124289306D01*
X140213852Y-124504615D01*
X140082700Y-124739290D01*
X140050475Y-124796897D01*
X139448449Y-125872875D01*
X139788122Y-125881962D01*
X139949657Y-125884267D01*
X140058253Y-125880278D01*
X140124248Y-125869009D01*
X140157982Y-125849471D01*
X140160438Y-125846409D01*
X140183197Y-125808428D01*
X140232395Y-125721714D01*
X140304120Y-125593311D01*
X140394465Y-125430263D01*
X140499518Y-125239617D01*
X140615371Y-125028417D01*
X140680864Y-124908633D01*
X141168648Y-124015500D01*
X141366518Y-124015500D01*
X141503077Y-124019000D01*
X141640419Y-124027985D01*
X141711694Y-124035690D01*
X141859000Y-124055881D01*
X141859000Y-125888750D01*
X142462250Y-125888750D01*
X142462250Y-121539000D01*
X141859000Y-121539000D01*
X141859000Y-123507500D01*
G37*
X141859000Y-123507500D02*
X141676438Y-123507224D01*
X141538241Y-123503344D01*
X141394820Y-123493814D01*
X141335125Y-123487708D01*
X141176375Y-123468468D01*
X140684614Y-122503734D01*
X140192852Y-121539000D01*
X139507278Y-121539000D01*
X139664355Y-121832687D01*
X139734217Y-121963783D01*
X139819800Y-122125133D01*
X139917064Y-122309049D01*
X140021970Y-122507845D01*
X140130480Y-122713831D01*
X140238554Y-122919322D01*
X140342154Y-123116628D01*
X140437240Y-123298064D01*
X140519773Y-123455942D01*
X140585715Y-123582573D01*
X140631025Y-123670272D01*
X140651666Y-123711349D01*
X140652500Y-123713413D01*
X140637535Y-123741821D01*
X140594864Y-123819619D01*
X140527824Y-123940803D01*
X140439751Y-124099367D01*
X140333981Y-124289306D01*
X140213852Y-124504615D01*
X140082700Y-124739290D01*
X140050475Y-124796897D01*
X139448449Y-125872875D01*
X139788122Y-125881962D01*
X139949657Y-125884267D01*
X140058253Y-125880278D01*
X140124248Y-125869009D01*
X140157982Y-125849471D01*
X140160438Y-125846409D01*
X140183197Y-125808428D01*
X140232395Y-125721714D01*
X140304120Y-125593311D01*
X140394465Y-125430263D01*
X140499518Y-125239617D01*
X140615371Y-125028417D01*
X140680864Y-124908633D01*
X141168648Y-124015500D01*
X141366518Y-124015500D01*
X141503077Y-124019000D01*
X141640419Y-124027985D01*
X141711694Y-124035690D01*
X141859000Y-124055881D01*
X141859000Y-125888750D01*
X142462250Y-125888750D01*
X142462250Y-121539000D01*
X141859000Y-121539000D01*
X141859000Y-123507500D01*
G36*
X137207914Y-123285250D02*
G01*
X137109201Y-123604597D01*
X137015728Y-123905091D01*
X136929202Y-124181371D01*
X136851329Y-124428078D01*
X136783817Y-124639852D01*
X136728372Y-124811332D01*
X136686701Y-124937160D01*
X136660512Y-125011974D01*
X136651813Y-125031500D01*
X136639489Y-125002018D01*
X136610385Y-124917147D01*
X136566200Y-124782253D01*
X136508634Y-124602697D01*
X136439384Y-124383844D01*
X136360150Y-124131058D01*
X136272631Y-123849702D01*
X136178525Y-123545139D01*
X136098680Y-123285250D01*
X135563527Y-121539000D01*
X134493000Y-121539000D01*
X134493000Y-125888750D01*
X135096250Y-125888750D01*
X135096250Y-124029046D01*
X135096372Y-123636986D01*
X135096821Y-123303755D01*
X135097726Y-123024685D01*
X135099215Y-122795105D01*
X135101415Y-122610345D01*
X135104453Y-122465736D01*
X135108459Y-122356609D01*
X135113558Y-122278292D01*
X135119880Y-122226118D01*
X135127551Y-122195415D01*
X135136701Y-122181514D01*
X135146837Y-122179609D01*
X135164548Y-122200880D01*
X135193323Y-122261449D01*
X135234116Y-122364058D01*
X135287883Y-122511450D01*
X135355582Y-122706366D01*
X135438167Y-122951550D01*
X135536594Y-123249743D01*
X135651820Y-123603689D01*
X135759084Y-123936125D01*
X136320743Y-125682375D01*
X136982208Y-125682375D01*
X137275028Y-124777500D01*
X137368178Y-124489633D01*
X137472432Y-124167426D01*
X137581209Y-123831224D01*
X137687925Y-123501372D01*
X137785998Y-123198218D01*
X137842577Y-123023312D01*
X137935335Y-122740749D01*
X138011719Y-122517413D01*
X138072453Y-122351375D01*
X138118264Y-122240709D01*
X138149879Y-122183486D01*
X138162528Y-122174000D01*
X138172168Y-122181308D01*
X138180371Y-122206248D01*
X138187249Y-122253340D01*
X138192910Y-122327106D01*
X138197467Y-122432066D01*
X138201027Y-122572743D01*
X138203702Y-122753657D01*
X138205601Y-122979330D01*
X138206835Y-123254282D01*
X138207514Y-123583035D01*
X138207747Y-123970110D01*
X138207750Y-124031375D01*
X138207750Y-125888750D01*
X138811000Y-125888750D01*
X138811000Y-121539000D01*
X137746035Y-121539000D01*
X137207914Y-123285250D01*
G37*
X137207914Y-123285250D02*
X137109201Y-123604597D01*
X137015728Y-123905091D01*
X136929202Y-124181371D01*
X136851329Y-124428078D01*
X136783817Y-124639852D01*
X136728372Y-124811332D01*
X136686701Y-124937160D01*
X136660512Y-125011974D01*
X136651813Y-125031500D01*
X136639489Y-125002018D01*
X136610385Y-124917147D01*
X136566200Y-124782253D01*
X136508634Y-124602697D01*
X136439384Y-124383844D01*
X136360150Y-124131058D01*
X136272631Y-123849702D01*
X136178525Y-123545139D01*
X136098680Y-123285250D01*
X135563527Y-121539000D01*
X134493000Y-121539000D01*
X134493000Y-125888750D01*
X135096250Y-125888750D01*
X135096250Y-124029046D01*
X135096372Y-123636986D01*
X135096821Y-123303755D01*
X135097726Y-123024685D01*
X135099215Y-122795105D01*
X135101415Y-122610345D01*
X135104453Y-122465736D01*
X135108459Y-122356609D01*
X135113558Y-122278292D01*
X135119880Y-122226118D01*
X135127551Y-122195415D01*
X135136701Y-122181514D01*
X135146837Y-122179609D01*
X135164548Y-122200880D01*
X135193323Y-122261449D01*
X135234116Y-122364058D01*
X135287883Y-122511450D01*
X135355582Y-122706366D01*
X135438167Y-122951550D01*
X135536594Y-123249743D01*
X135651820Y-123603689D01*
X135759084Y-123936125D01*
X136320743Y-125682375D01*
X136982208Y-125682375D01*
X137275028Y-124777500D01*
X137368178Y-124489633D01*
X137472432Y-124167426D01*
X137581209Y-123831224D01*
X137687925Y-123501372D01*
X137785998Y-123198218D01*
X137842577Y-123023312D01*
X137935335Y-122740749D01*
X138011719Y-122517413D01*
X138072453Y-122351375D01*
X138118264Y-122240709D01*
X138149879Y-122183486D01*
X138162528Y-122174000D01*
X138172168Y-122181308D01*
X138180371Y-122206248D01*
X138187249Y-122253340D01*
X138192910Y-122327106D01*
X138197467Y-122432066D01*
X138201027Y-122572743D01*
X138203702Y-122753657D01*
X138205601Y-122979330D01*
X138206835Y-123254282D01*
X138207514Y-123583035D01*
X138207747Y-123970110D01*
X138207750Y-124031375D01*
X138207750Y-125888750D01*
X138811000Y-125888750D01*
X138811000Y-121539000D01*
X137746035Y-121539000D01*
X137207914Y-123285250D01*
G36*
X129875597Y-112349715D02*
G01*
X129710073Y-112360366D01*
X129134780Y-112425744D01*
X128595908Y-112532387D01*
X128078488Y-112684258D01*
X127567553Y-112885322D01*
X127353401Y-112984375D01*
X126795296Y-113287181D01*
X126275279Y-113638040D01*
X125796164Y-114033800D01*
X125360763Y-114471306D01*
X124971891Y-114947404D01*
X124632360Y-115458941D01*
X124344984Y-116002763D01*
X124112576Y-116575716D01*
X124089596Y-116643047D01*
X123981274Y-117011294D01*
X123893468Y-117401574D01*
X123828187Y-117798661D01*
X123787443Y-118187331D01*
X123773248Y-118552356D01*
X123787611Y-118878512D01*
X123790554Y-118907101D01*
X123864607Y-119348434D01*
X123992023Y-119815068D01*
X124170102Y-120302484D01*
X124396144Y-120806163D01*
X124667452Y-121321586D01*
X124981324Y-121844233D01*
X125335062Y-122369586D01*
X125725967Y-122893124D01*
X126151338Y-123410330D01*
X126608476Y-123916682D01*
X127050726Y-124365119D01*
X127445238Y-124732498D01*
X127824031Y-125052993D01*
X128184451Y-125324747D01*
X128523841Y-125545903D01*
X128839549Y-125714607D01*
X129128918Y-125829001D01*
X129156878Y-125837553D01*
X129328835Y-125874422D01*
X129506302Y-125888446D01*
X129670369Y-125879882D01*
X129802126Y-125848983D01*
X129845164Y-125828273D01*
X129973981Y-125719146D01*
X130069199Y-125566810D01*
X130133615Y-125365741D01*
X130160315Y-125206125D01*
X130163691Y-125133049D01*
X130163454Y-125006499D01*
X130159882Y-124836381D01*
X130153247Y-124632602D01*
X130143827Y-124405068D01*
X130131896Y-124163686D01*
X130130756Y-124142500D01*
X130099473Y-123516954D01*
X130076822Y-122949065D01*
X130062983Y-122433555D01*
X130058133Y-121965146D01*
X130062453Y-121538559D01*
X130076119Y-121148517D01*
X130099312Y-120789742D01*
X130132210Y-120456955D01*
X130174992Y-120144878D01*
X130227837Y-119848234D01*
X130285101Y-119586069D01*
X130419011Y-119117113D01*
X130585213Y-118702335D01*
X130783954Y-118341622D01*
X131015481Y-118034861D01*
X131280040Y-117781939D01*
X131577878Y-117582743D01*
X131909242Y-117437161D01*
X132274378Y-117345081D01*
X132673533Y-117306388D01*
X133106953Y-117320971D01*
X133574886Y-117388717D01*
X134077579Y-117509514D01*
X134521573Y-117650047D01*
X134821444Y-117760460D01*
X135132000Y-117887346D01*
X135463576Y-118035333D01*
X135826506Y-118209044D01*
X136231125Y-118413107D01*
X136262450Y-118429253D01*
X136525717Y-118563091D01*
X136740376Y-118667019D01*
X136912663Y-118743135D01*
X137048810Y-118793539D01*
X137155053Y-118820330D01*
X137237625Y-118825608D01*
X137302760Y-118811473D01*
X137339889Y-118792095D01*
X137386532Y-118756041D01*
X137408431Y-118714035D01*
X137411254Y-118645597D01*
X137403883Y-118560898D01*
X137364449Y-118382234D01*
X137280195Y-118164364D01*
X137153306Y-117910774D01*
X136985964Y-117624954D01*
X136780355Y-117310393D01*
X136538661Y-116970578D01*
X136263067Y-116608998D01*
X135955756Y-116229142D01*
X135909408Y-116173607D01*
X135787186Y-116033480D01*
X135627829Y-115859466D01*
X135440627Y-115661000D01*
X135234871Y-115447519D01*
X135019850Y-115228460D01*
X134804854Y-115013259D01*
X134599173Y-114811353D01*
X134412097Y-114632178D01*
X134252916Y-114485171D01*
X134207250Y-114444588D01*
X133649810Y-113976930D01*
X133108722Y-113566106D01*
X132585124Y-113212879D01*
X132080152Y-112918015D01*
X131594946Y-112682278D01*
X131566494Y-112670034D01*
X131211040Y-112531039D01*
X130882936Y-112432631D01*
X130563470Y-112371689D01*
X130233928Y-112345091D01*
X129875597Y-112349715D01*
G37*
X129875597Y-112349715D02*
X129710073Y-112360366D01*
X129134780Y-112425744D01*
X128595908Y-112532387D01*
X128078488Y-112684258D01*
X127567553Y-112885322D01*
X127353401Y-112984375D01*
X126795296Y-113287181D01*
X126275279Y-113638040D01*
X125796164Y-114033800D01*
X125360763Y-114471306D01*
X124971891Y-114947404D01*
X124632360Y-115458941D01*
X124344984Y-116002763D01*
X124112576Y-116575716D01*
X124089596Y-116643047D01*
X123981274Y-117011294D01*
X123893468Y-117401574D01*
X123828187Y-117798661D01*
X123787443Y-118187331D01*
X123773248Y-118552356D01*
X123787611Y-118878512D01*
X123790554Y-118907101D01*
X123864607Y-119348434D01*
X123992023Y-119815068D01*
X124170102Y-120302484D01*
X124396144Y-120806163D01*
X124667452Y-121321586D01*
X124981324Y-121844233D01*
X125335062Y-122369586D01*
X125725967Y-122893124D01*
X126151338Y-123410330D01*
X126608476Y-123916682D01*
X127050726Y-124365119D01*
X127445238Y-124732498D01*
X127824031Y-125052993D01*
X128184451Y-125324747D01*
X128523841Y-125545903D01*
X128839549Y-125714607D01*
X129128918Y-125829001D01*
X129156878Y-125837553D01*
X129328835Y-125874422D01*
X129506302Y-125888446D01*
X129670369Y-125879882D01*
X129802126Y-125848983D01*
X129845164Y-125828273D01*
X129973981Y-125719146D01*
X130069199Y-125566810D01*
X130133615Y-125365741D01*
X130160315Y-125206125D01*
X130163691Y-125133049D01*
X130163454Y-125006499D01*
X130159882Y-124836381D01*
X130153247Y-124632602D01*
X130143827Y-124405068D01*
X130131896Y-124163686D01*
X130130756Y-124142500D01*
X130099473Y-123516954D01*
X130076822Y-122949065D01*
X130062983Y-122433555D01*
X130058133Y-121965146D01*
X130062453Y-121538559D01*
X130076119Y-121148517D01*
X130099312Y-120789742D01*
X130132210Y-120456955D01*
X130174992Y-120144878D01*
X130227837Y-119848234D01*
X130285101Y-119586069D01*
X130419011Y-119117113D01*
X130585213Y-118702335D01*
X130783954Y-118341622D01*
X131015481Y-118034861D01*
X131280040Y-117781939D01*
X131577878Y-117582743D01*
X131909242Y-117437161D01*
X132274378Y-117345081D01*
X132673533Y-117306388D01*
X133106953Y-117320971D01*
X133574886Y-117388717D01*
X134077579Y-117509514D01*
X134521573Y-117650047D01*
X134821444Y-117760460D01*
X135132000Y-117887346D01*
X135463576Y-118035333D01*
X135826506Y-118209044D01*
X136231125Y-118413107D01*
X136262450Y-118429253D01*
X136525717Y-118563091D01*
X136740376Y-118667019D01*
X136912663Y-118743135D01*
X137048810Y-118793539D01*
X137155053Y-118820330D01*
X137237625Y-118825608D01*
X137302760Y-118811473D01*
X137339889Y-118792095D01*
X137386532Y-118756041D01*
X137408431Y-118714035D01*
X137411254Y-118645597D01*
X137403883Y-118560898D01*
X137364449Y-118382234D01*
X137280195Y-118164364D01*
X137153306Y-117910774D01*
X136985964Y-117624954D01*
X136780355Y-117310393D01*
X136538661Y-116970578D01*
X136263067Y-116608998D01*
X135955756Y-116229142D01*
X135909408Y-116173607D01*
X135787186Y-116033480D01*
X135627829Y-115859466D01*
X135440627Y-115661000D01*
X135234871Y-115447519D01*
X135019850Y-115228460D01*
X134804854Y-115013259D01*
X134599173Y-114811353D01*
X134412097Y-114632178D01*
X134252916Y-114485171D01*
X134207250Y-114444588D01*
X133649810Y-113976930D01*
X133108722Y-113566106D01*
X132585124Y-113212879D01*
X132080152Y-112918015D01*
X131594946Y-112682278D01*
X131566494Y-112670034D01*
X131211040Y-112531039D01*
X130882936Y-112432631D01*
X130563470Y-112371689D01*
X130233928Y-112345091D01*
X129875597Y-112349715D01*
G36*
X139837469Y-97049426D02*
G01*
X139732950Y-97056904D01*
X139645954Y-97071303D01*
X139561158Y-97094736D01*
X139463235Y-97129315D01*
X139406493Y-97150711D01*
X139027806Y-97323845D01*
X138646981Y-97553886D01*
X138269781Y-97834731D01*
X137901968Y-98160279D01*
X137549305Y-98524431D01*
X137217554Y-98921084D01*
X136912476Y-99344138D01*
X136639835Y-99787492D01*
X136405393Y-100245045D01*
X136335764Y-100401929D01*
X136200888Y-100752800D01*
X136108897Y-101077060D01*
X136056010Y-101391163D01*
X136038543Y-101695250D01*
X136040172Y-101854313D01*
X136049009Y-102007875D01*
X136066890Y-102161173D01*
X136095648Y-102319444D01*
X136137119Y-102487926D01*
X136193138Y-102671857D01*
X136265540Y-102876473D01*
X136356158Y-103107012D01*
X136466829Y-103368711D01*
X136599387Y-103666809D01*
X136755666Y-104006542D01*
X136937502Y-104393149D01*
X137111897Y-104759125D01*
X137370957Y-105305551D01*
X137601876Y-105804118D01*
X137807648Y-106262306D01*
X137991270Y-106687597D01*
X138155735Y-107087473D01*
X138304039Y-107469415D01*
X138439177Y-107840907D01*
X138564145Y-108209428D01*
X138681938Y-108582462D01*
X138792851Y-108958055D01*
X138969537Y-109619515D01*
X139118174Y-110275555D01*
X139240434Y-110937546D01*
X139337989Y-111616853D01*
X139412512Y-112324846D01*
X139465675Y-113072892D01*
X139494650Y-113728500D01*
X139502156Y-113937888D01*
X139509627Y-114094455D01*
X139518502Y-114208860D01*
X139530222Y-114291764D01*
X139546227Y-114353828D01*
X139567956Y-114405713D01*
X139592116Y-114449968D01*
X139704646Y-114584395D01*
X139858670Y-114685857D01*
X140038616Y-114749237D01*
X140228910Y-114769421D01*
X140413980Y-114741293D01*
X140446125Y-114730488D01*
X140586330Y-114650931D01*
X140707474Y-114531498D01*
X140790848Y-114392273D01*
X140807735Y-114342238D01*
X140816486Y-114277630D01*
X140824310Y-114159544D01*
X140830869Y-113998000D01*
X140835826Y-113803019D01*
X140838844Y-113584620D01*
X140839634Y-113395125D01*
X140859895Y-112501565D01*
X140922226Y-111644411D01*
X141028426Y-110810973D01*
X141180292Y-109988560D01*
X141379624Y-109164481D01*
X141498870Y-108743750D01*
X141647578Y-108268175D01*
X141810295Y-107798613D01*
X141990247Y-107327892D01*
X142190660Y-106848841D01*
X142414760Y-106354289D01*
X142665773Y-105837065D01*
X142946925Y-105289998D01*
X143261442Y-104705916D01*
X143541323Y-104203500D01*
X143758767Y-103815111D01*
X143944985Y-103475592D01*
X144102477Y-103180011D01*
X144233745Y-102923435D01*
X144341290Y-102700933D01*
X144427614Y-102507571D01*
X144495217Y-102338418D01*
X144515409Y-102282625D01*
X144548364Y-102185199D01*
X144572043Y-102100856D01*
X144587982Y-102015998D01*
X144597714Y-101917024D01*
X144602775Y-101790336D01*
X144604700Y-101622335D01*
X144604994Y-101488875D01*
X144603956Y-101275437D01*
X144599655Y-101111010D01*
X144590819Y-100981131D01*
X144576180Y-100871344D01*
X144554468Y-100767187D01*
X144535063Y-100692369D01*
X144378202Y-100234872D01*
X144163286Y-99786513D01*
X143895638Y-99352534D01*
X143580583Y-98938177D01*
X143223445Y-98548684D01*
X142829550Y-98189298D01*
X142404220Y-97865260D01*
X141952782Y-97581814D01*
X141480559Y-97344200D01*
X140992876Y-97157662D01*
X140922375Y-97135525D01*
X140801649Y-97100560D01*
X140696465Y-97076252D01*
X140590104Y-97060654D01*
X140465844Y-97051817D01*
X140306963Y-97047794D01*
X140160375Y-97046781D01*
X139974836Y-97046756D01*
X139837469Y-97049426D01*
G37*
X139837469Y-97049426D02*
X139732950Y-97056904D01*
X139645954Y-97071303D01*
X139561158Y-97094736D01*
X139463235Y-97129315D01*
X139406493Y-97150711D01*
X139027806Y-97323845D01*
X138646981Y-97553886D01*
X138269781Y-97834731D01*
X137901968Y-98160279D01*
X137549305Y-98524431D01*
X137217554Y-98921084D01*
X136912476Y-99344138D01*
X136639835Y-99787492D01*
X136405393Y-100245045D01*
X136335764Y-100401929D01*
X136200888Y-100752800D01*
X136108897Y-101077060D01*
X136056010Y-101391163D01*
X136038543Y-101695250D01*
X136040172Y-101854313D01*
X136049009Y-102007875D01*
X136066890Y-102161173D01*
X136095648Y-102319444D01*
X136137119Y-102487926D01*
X136193138Y-102671857D01*
X136265540Y-102876473D01*
X136356158Y-103107012D01*
X136466829Y-103368711D01*
X136599387Y-103666809D01*
X136755666Y-104006542D01*
X136937502Y-104393149D01*
X137111897Y-104759125D01*
X137370957Y-105305551D01*
X137601876Y-105804118D01*
X137807648Y-106262306D01*
X137991270Y-106687597D01*
X138155735Y-107087473D01*
X138304039Y-107469415D01*
X138439177Y-107840907D01*
X138564145Y-108209428D01*
X138681938Y-108582462D01*
X138792851Y-108958055D01*
X138969537Y-109619515D01*
X139118174Y-110275555D01*
X139240434Y-110937546D01*
X139337989Y-111616853D01*
X139412512Y-112324846D01*
X139465675Y-113072892D01*
X139494650Y-113728500D01*
X139502156Y-113937888D01*
X139509627Y-114094455D01*
X139518502Y-114208860D01*
X139530222Y-114291764D01*
X139546227Y-114353828D01*
X139567956Y-114405713D01*
X139592116Y-114449968D01*
X139704646Y-114584395D01*
X139858670Y-114685857D01*
X140038616Y-114749237D01*
X140228910Y-114769421D01*
X140413980Y-114741293D01*
X140446125Y-114730488D01*
X140586330Y-114650931D01*
X140707474Y-114531498D01*
X140790848Y-114392273D01*
X140807735Y-114342238D01*
X140816486Y-114277630D01*
X140824310Y-114159544D01*
X140830869Y-113998000D01*
X140835826Y-113803019D01*
X140838844Y-113584620D01*
X140839634Y-113395125D01*
X140859895Y-112501565D01*
X140922226Y-111644411D01*
X141028426Y-110810973D01*
X141180292Y-109988560D01*
X141379624Y-109164481D01*
X141498870Y-108743750D01*
X141647578Y-108268175D01*
X141810295Y-107798613D01*
X141990247Y-107327892D01*
X142190660Y-106848841D01*
X142414760Y-106354289D01*
X142665773Y-105837065D01*
X142946925Y-105289998D01*
X143261442Y-104705916D01*
X143541323Y-104203500D01*
X143758767Y-103815111D01*
X143944985Y-103475592D01*
X144102477Y-103180011D01*
X144233745Y-102923435D01*
X144341290Y-102700933D01*
X144427614Y-102507571D01*
X144495217Y-102338418D01*
X144515409Y-102282625D01*
X144548364Y-102185199D01*
X144572043Y-102100856D01*
X144587982Y-102015998D01*
X144597714Y-101917024D01*
X144602775Y-101790336D01*
X144604700Y-101622335D01*
X144604994Y-101488875D01*
X144603956Y-101275437D01*
X144599655Y-101111010D01*
X144590819Y-100981131D01*
X144576180Y-100871344D01*
X144554468Y-100767187D01*
X144535063Y-100692369D01*
X144378202Y-100234872D01*
X144163286Y-99786513D01*
X143895638Y-99352534D01*
X143580583Y-98938177D01*
X143223445Y-98548684D01*
X142829550Y-98189298D01*
X142404220Y-97865260D01*
X141952782Y-97581814D01*
X141480559Y-97344200D01*
X140992876Y-97157662D01*
X140922375Y-97135525D01*
X140801649Y-97100560D01*
X140696465Y-97076252D01*
X140590104Y-97060654D01*
X140465844Y-97051817D01*
X140306963Y-97047794D01*
X140160375Y-97046781D01*
X139974836Y-97046756D01*
X139837469Y-97049426D01*
G36*
X155937339Y-102758259D02*
G01*
X155602794Y-102854304D01*
X155233359Y-103001436D01*
X154830479Y-103198666D01*
X154395599Y-103445005D01*
X153930164Y-103739463D01*
X153435620Y-104081052D01*
X152913412Y-104468782D01*
X152364985Y-104901663D01*
X151791783Y-105378706D01*
X151195254Y-105898923D01*
X150717250Y-106331677D01*
X150617504Y-106424758D01*
X150488921Y-106546890D01*
X150336636Y-106693025D01*
X150165780Y-106858114D01*
X149981487Y-107037109D01*
X149788891Y-107224962D01*
X149593124Y-107416625D01*
X149399319Y-107607050D01*
X149212611Y-107791188D01*
X149038131Y-107963990D01*
X148881013Y-108120410D01*
X148746390Y-108255398D01*
X148639396Y-108363906D01*
X148565163Y-108440887D01*
X148528824Y-108481291D01*
X148526500Y-108486194D01*
X148561011Y-108475694D01*
X148643812Y-108449107D01*
X148762914Y-108410315D01*
X148906331Y-108363205D01*
X148923375Y-108357583D01*
X149676520Y-108119379D01*
X150413024Y-107906872D01*
X151128586Y-107720854D01*
X151818905Y-107562117D01*
X152479680Y-107431453D01*
X153106610Y-107329654D01*
X153695395Y-107257513D01*
X154241733Y-107215821D01*
X154741323Y-107205371D01*
X155101127Y-107219798D01*
X155441896Y-107250734D01*
X155739073Y-107293015D01*
X156012096Y-107350285D01*
X156280403Y-107426188D01*
X156383817Y-107460214D01*
X156554839Y-107517762D01*
X156675499Y-107553066D01*
X156755733Y-107563787D01*
X156805478Y-107547586D01*
X156834672Y-107502124D01*
X156853252Y-107425062D01*
X156865944Y-107346738D01*
X156904670Y-107165801D01*
X156964657Y-107002587D01*
X157053237Y-106844636D01*
X157177743Y-106679490D01*
X157345506Y-106494689D01*
X157400429Y-106438535D01*
X157642524Y-106210621D01*
X157895272Y-106008865D01*
X158113024Y-105858039D01*
X158321999Y-105727732D01*
X158571188Y-105583691D01*
X158843474Y-105434932D01*
X159121740Y-105290470D01*
X159388867Y-105159322D01*
X159627739Y-105050504D01*
X159718375Y-105012469D01*
X159829500Y-104965776D01*
X159917942Y-104925610D01*
X159966676Y-104899756D01*
X159969360Y-104897722D01*
X159970952Y-104856907D01*
X159931102Y-104780549D01*
X159855890Y-104675224D01*
X159751391Y-104547510D01*
X159623684Y-104403986D01*
X159478845Y-104251229D01*
X159322953Y-104095818D01*
X159162085Y-103944328D01*
X159002317Y-103803340D01*
X158849729Y-103679429D01*
X158829375Y-103663887D01*
X158466199Y-103413086D01*
X158088020Y-103196947D01*
X157702394Y-103017838D01*
X157316881Y-102878125D01*
X156939037Y-102780175D01*
X156576420Y-102726354D01*
X156236586Y-102719029D01*
X155937339Y-102758259D01*
G37*
X155937339Y-102758259D02*
X155602794Y-102854304D01*
X155233359Y-103001436D01*
X154830479Y-103198666D01*
X154395599Y-103445005D01*
X153930164Y-103739463D01*
X153435620Y-104081052D01*
X152913412Y-104468782D01*
X152364985Y-104901663D01*
X151791783Y-105378706D01*
X151195254Y-105898923D01*
X150717250Y-106331677D01*
X150617504Y-106424758D01*
X150488921Y-106546890D01*
X150336636Y-106693025D01*
X150165780Y-106858114D01*
X149981487Y-107037109D01*
X149788891Y-107224962D01*
X149593124Y-107416625D01*
X149399319Y-107607050D01*
X149212611Y-107791188D01*
X149038131Y-107963990D01*
X148881013Y-108120410D01*
X148746390Y-108255398D01*
X148639396Y-108363906D01*
X148565163Y-108440887D01*
X148528824Y-108481291D01*
X148526500Y-108486194D01*
X148561011Y-108475694D01*
X148643812Y-108449107D01*
X148762914Y-108410315D01*
X148906331Y-108363205D01*
X148923375Y-108357583D01*
X149676520Y-108119379D01*
X150413024Y-107906872D01*
X151128586Y-107720854D01*
X151818905Y-107562117D01*
X152479680Y-107431453D01*
X153106610Y-107329654D01*
X153695395Y-107257513D01*
X154241733Y-107215821D01*
X154741323Y-107205371D01*
X155101127Y-107219798D01*
X155441896Y-107250734D01*
X155739073Y-107293015D01*
X156012096Y-107350285D01*
X156280403Y-107426188D01*
X156383817Y-107460214D01*
X156554839Y-107517762D01*
X156675499Y-107553066D01*
X156755733Y-107563787D01*
X156805478Y-107547586D01*
X156834672Y-107502124D01*
X156853252Y-107425062D01*
X156865944Y-107346738D01*
X156904670Y-107165801D01*
X156964657Y-107002587D01*
X157053237Y-106844636D01*
X157177743Y-106679490D01*
X157345506Y-106494689D01*
X157400429Y-106438535D01*
X157642524Y-106210621D01*
X157895272Y-106008865D01*
X158113024Y-105858039D01*
X158321999Y-105727732D01*
X158571188Y-105583691D01*
X158843474Y-105434932D01*
X159121740Y-105290470D01*
X159388867Y-105159322D01*
X159627739Y-105050504D01*
X159718375Y-105012469D01*
X159829500Y-104965776D01*
X159917942Y-104925610D01*
X159966676Y-104899756D01*
X159969360Y-104897722D01*
X159970952Y-104856907D01*
X159931102Y-104780549D01*
X159855890Y-104675224D01*
X159751391Y-104547510D01*
X159623684Y-104403986D01*
X159478845Y-104251229D01*
X159322953Y-104095818D01*
X159162085Y-103944328D01*
X159002317Y-103803340D01*
X158849729Y-103679429D01*
X158829375Y-103663887D01*
X158466199Y-103413086D01*
X158088020Y-103196947D01*
X157702394Y-103017838D01*
X157316881Y-102878125D01*
X156939037Y-102780175D01*
X156576420Y-102726354D01*
X156236586Y-102719029D01*
X155937339Y-102758259D01*
G36*
X124034312Y-102724013D02*
G01*
X123706826Y-102770950D01*
X123349251Y-102860903D01*
X123169545Y-102917569D01*
X122696453Y-103105996D01*
X122231514Y-103352047D01*
X121784745Y-103649875D01*
X121442237Y-103925778D01*
X121282794Y-104074890D01*
X121109134Y-104253225D01*
X120936917Y-104443468D01*
X120781801Y-104628304D01*
X120659442Y-104790419D01*
X120656526Y-104794629D01*
X120588134Y-104893633D01*
X120881005Y-105013889D01*
X121298894Y-105197631D01*
X121706521Y-105400246D01*
X122095071Y-105616296D01*
X122455733Y-105840340D01*
X122779692Y-106066941D01*
X123058135Y-106290658D01*
X123259470Y-106481825D01*
X123451121Y-106704439D01*
X123590264Y-106919645D01*
X123684168Y-107141461D01*
X123740102Y-107383902D01*
X123745034Y-107418187D01*
X123757493Y-107491675D01*
X123777799Y-107539437D01*
X123815424Y-107562281D01*
X123879842Y-107561017D01*
X123980524Y-107536453D01*
X124126942Y-107489399D01*
X124217728Y-107458557D01*
X124662370Y-107335528D01*
X125154978Y-107253854D01*
X125695336Y-107213533D01*
X126283228Y-107214557D01*
X126918439Y-107256922D01*
X127600752Y-107340623D01*
X128329951Y-107465654D01*
X128838501Y-107571187D01*
X129296050Y-107677891D01*
X129790011Y-107803136D01*
X130300834Y-107941457D01*
X130808967Y-108087388D01*
X131294859Y-108235462D01*
X131738958Y-108380213D01*
X131770438Y-108390920D01*
X131890954Y-108429497D01*
X131985096Y-108454781D01*
X132039760Y-108463507D01*
X132048250Y-108460135D01*
X132026115Y-108430608D01*
X131963106Y-108362262D01*
X131864324Y-108260084D01*
X131734868Y-108129061D01*
X131579835Y-107974178D01*
X131404326Y-107800422D01*
X131213439Y-107612780D01*
X131012273Y-107416238D01*
X130805927Y-107215783D01*
X130599500Y-107016400D01*
X130398090Y-106823077D01*
X130206798Y-106640800D01*
X130030721Y-106474554D01*
X129874958Y-106329328D01*
X129783609Y-106245455D01*
X129171617Y-105698984D01*
X128582693Y-105194901D01*
X128018370Y-104734284D01*
X127480177Y-104318212D01*
X126969648Y-103947765D01*
X126488313Y-103624021D01*
X126037703Y-103348059D01*
X125619350Y-103120959D01*
X125234785Y-102943798D01*
X124945016Y-102836318D01*
X124642529Y-102757195D01*
X124342587Y-102719594D01*
X124034312Y-102724013D01*
G37*
X124034312Y-102724013D02*
X123706826Y-102770950D01*
X123349251Y-102860903D01*
X123169545Y-102917569D01*
X122696453Y-103105996D01*
X122231514Y-103352047D01*
X121784745Y-103649875D01*
X121442237Y-103925778D01*
X121282794Y-104074890D01*
X121109134Y-104253225D01*
X120936917Y-104443468D01*
X120781801Y-104628304D01*
X120659442Y-104790419D01*
X120656526Y-104794629D01*
X120588134Y-104893633D01*
X120881005Y-105013889D01*
X121298894Y-105197631D01*
X121706521Y-105400246D01*
X122095071Y-105616296D01*
X122455733Y-105840340D01*
X122779692Y-106066941D01*
X123058135Y-106290658D01*
X123259470Y-106481825D01*
X123451121Y-106704439D01*
X123590264Y-106919645D01*
X123684168Y-107141461D01*
X123740102Y-107383902D01*
X123745034Y-107418187D01*
X123757493Y-107491675D01*
X123777799Y-107539437D01*
X123815424Y-107562281D01*
X123879842Y-107561017D01*
X123980524Y-107536453D01*
X124126942Y-107489399D01*
X124217728Y-107458557D01*
X124662370Y-107335528D01*
X125154978Y-107253854D01*
X125695336Y-107213533D01*
X126283228Y-107214557D01*
X126918439Y-107256922D01*
X127600752Y-107340623D01*
X128329951Y-107465654D01*
X128838501Y-107571187D01*
X129296050Y-107677891D01*
X129790011Y-107803136D01*
X130300834Y-107941457D01*
X130808967Y-108087388D01*
X131294859Y-108235462D01*
X131738958Y-108380213D01*
X131770438Y-108390920D01*
X131890954Y-108429497D01*
X131985096Y-108454781D01*
X132039760Y-108463507D01*
X132048250Y-108460135D01*
X132026115Y-108430608D01*
X131963106Y-108362262D01*
X131864324Y-108260084D01*
X131734868Y-108129061D01*
X131579835Y-107974178D01*
X131404326Y-107800422D01*
X131213439Y-107612780D01*
X131012273Y-107416238D01*
X130805927Y-107215783D01*
X130599500Y-107016400D01*
X130398090Y-106823077D01*
X130206798Y-106640800D01*
X130030721Y-106474554D01*
X129874958Y-106329328D01*
X129783609Y-106245455D01*
X129171617Y-105698984D01*
X128582693Y-105194901D01*
X128018370Y-104734284D01*
X127480177Y-104318212D01*
X126969648Y-103947765D01*
X126488313Y-103624021D01*
X126037703Y-103348059D01*
X125619350Y-103120959D01*
X125234785Y-102943798D01*
X124945016Y-102836318D01*
X124642529Y-102757195D01*
X124342587Y-102719594D01*
X124034312Y-102724013D01*
G36*
X152712411Y-93006864D02*
G01*
X152280747Y-93046602D01*
X151898405Y-93125573D01*
X151565029Y-93243844D01*
X151384000Y-93336221D01*
X151253056Y-93426084D01*
X151093521Y-93557507D01*
X150914740Y-93721132D01*
X150726063Y-93907597D01*
X150536834Y-94107543D01*
X150356402Y-94311610D01*
X150194113Y-94510438D01*
X150138715Y-94583250D01*
X149831874Y-95017347D01*
X149513413Y-95508999D01*
X149185675Y-96053813D01*
X148851001Y-96647396D01*
X148511732Y-97285358D01*
X148170210Y-97963305D01*
X147828777Y-98676845D01*
X147489775Y-99421587D01*
X147184982Y-100123625D01*
X147061323Y-100416601D01*
X146949032Y-100685852D01*
X146850152Y-100926274D01*
X146766728Y-101132765D01*
X146700803Y-101300221D01*
X146654420Y-101423542D01*
X146629625Y-101497623D01*
X146626540Y-101517910D01*
X146652833Y-101500918D01*
X146719605Y-101448626D01*
X146819274Y-101367232D01*
X146944257Y-101262935D01*
X147086970Y-101141935D01*
X147097750Y-101132724D01*
X147502464Y-100794337D01*
X147928319Y-100452265D01*
X148364454Y-100114609D01*
X148800010Y-99789469D01*
X149224125Y-99484948D01*
X149625938Y-99209144D01*
X149994589Y-98970160D01*
X150010283Y-98960364D01*
X150556570Y-98633132D01*
X151068769Y-98354089D01*
X151551779Y-98121301D01*
X152010497Y-97932834D01*
X152449824Y-97786752D01*
X152874656Y-97681123D01*
X153289893Y-97614012D01*
X153463625Y-97596764D01*
X153619968Y-97582382D01*
X153753377Y-97566848D01*
X153851078Y-97551888D01*
X153900297Y-97539225D01*
X153902862Y-97537486D01*
X153908607Y-97495711D01*
X153897406Y-97412327D01*
X153874552Y-97316306D01*
X153835369Y-97061890D01*
X153852414Y-96779947D01*
X153925418Y-96471936D01*
X154054109Y-96139314D01*
X154117390Y-96007099D01*
X154255147Y-95761178D01*
X154435587Y-95483806D01*
X154652137Y-95183609D01*
X154898226Y-94869214D01*
X155167280Y-94549247D01*
X155452728Y-94232334D01*
X155540953Y-94138750D01*
X155647545Y-94026577D01*
X155736298Y-93932547D01*
X155799084Y-93865319D01*
X155827777Y-93833550D01*
X155828710Y-93832204D01*
X155802716Y-93812069D01*
X155731613Y-93769561D01*
X155626926Y-93711024D01*
X155500183Y-93642797D01*
X155362910Y-93571223D01*
X155257059Y-93517706D01*
X154766333Y-93305602D01*
X154259071Y-93150607D01*
X153728671Y-93051086D01*
X153193750Y-93006296D01*
X152712411Y-93006864D01*
G37*
X152712411Y-93006864D02*
X152280747Y-93046602D01*
X151898405Y-93125573D01*
X151565029Y-93243844D01*
X151384000Y-93336221D01*
X151253056Y-93426084D01*
X151093521Y-93557507D01*
X150914740Y-93721132D01*
X150726063Y-93907597D01*
X150536834Y-94107543D01*
X150356402Y-94311610D01*
X150194113Y-94510438D01*
X150138715Y-94583250D01*
X149831874Y-95017347D01*
X149513413Y-95508999D01*
X149185675Y-96053813D01*
X148851001Y-96647396D01*
X148511732Y-97285358D01*
X148170210Y-97963305D01*
X147828777Y-98676845D01*
X147489775Y-99421587D01*
X147184982Y-100123625D01*
X147061323Y-100416601D01*
X146949032Y-100685852D01*
X146850152Y-100926274D01*
X146766728Y-101132765D01*
X146700803Y-101300221D01*
X146654420Y-101423542D01*
X146629625Y-101497623D01*
X146626540Y-101517910D01*
X146652833Y-101500918D01*
X146719605Y-101448626D01*
X146819274Y-101367232D01*
X146944257Y-101262935D01*
X147086970Y-101141935D01*
X147097750Y-101132724D01*
X147502464Y-100794337D01*
X147928319Y-100452265D01*
X148364454Y-100114609D01*
X148800010Y-99789469D01*
X149224125Y-99484948D01*
X149625938Y-99209144D01*
X149994589Y-98970160D01*
X150010283Y-98960364D01*
X150556570Y-98633132D01*
X151068769Y-98354089D01*
X151551779Y-98121301D01*
X152010497Y-97932834D01*
X152449824Y-97786752D01*
X152874656Y-97681123D01*
X153289893Y-97614012D01*
X153463625Y-97596764D01*
X153619968Y-97582382D01*
X153753377Y-97566848D01*
X153851078Y-97551888D01*
X153900297Y-97539225D01*
X153902862Y-97537486D01*
X153908607Y-97495711D01*
X153897406Y-97412327D01*
X153874552Y-97316306D01*
X153835369Y-97061890D01*
X153852414Y-96779947D01*
X153925418Y-96471936D01*
X154054109Y-96139314D01*
X154117390Y-96007099D01*
X154255147Y-95761178D01*
X154435587Y-95483806D01*
X154652137Y-95183609D01*
X154898226Y-94869214D01*
X155167280Y-94549247D01*
X155452728Y-94232334D01*
X155540953Y-94138750D01*
X155647545Y-94026577D01*
X155736298Y-93932547D01*
X155799084Y-93865319D01*
X155827777Y-93833550D01*
X155828710Y-93832204D01*
X155802716Y-93812069D01*
X155731613Y-93769561D01*
X155626926Y-93711024D01*
X155500183Y-93642797D01*
X155362910Y-93571223D01*
X155257059Y-93517706D01*
X154766333Y-93305602D01*
X154259071Y-93150607D01*
X153728671Y-93051086D01*
X153193750Y-93006296D01*
X152712411Y-93006864D01*
G36*
X127295104Y-93016268D02*
G01*
X127049455Y-93026119D01*
X126833739Y-93045681D01*
X126631266Y-93077368D01*
X126425347Y-93123594D01*
X126199292Y-93186774D01*
X126031625Y-93238719D01*
X125875517Y-93293563D01*
X125693599Y-93365719D01*
X125499329Y-93448981D01*
X125306164Y-93537142D01*
X125127561Y-93623996D01*
X124976979Y-93703336D01*
X124867873Y-93768955D01*
X124842441Y-93787173D01*
X124764507Y-93847199D01*
X125128191Y-94224464D01*
X125528660Y-94661120D01*
X125876887Y-95085617D01*
X126171311Y-95495683D01*
X126410370Y-95889047D01*
X126592502Y-96263441D01*
X126669681Y-96465824D01*
X126740076Y-96716357D01*
X126768184Y-96941289D01*
X126755467Y-97161040D01*
X126729253Y-97297198D01*
X126704104Y-97411913D01*
X126688277Y-97500122D01*
X126684509Y-97546040D01*
X126685591Y-97548918D01*
X126720170Y-97555746D01*
X126806224Y-97566173D01*
X126931911Y-97578935D01*
X127085392Y-97592769D01*
X127136507Y-97597056D01*
X127457115Y-97633487D01*
X127766806Y-97687328D01*
X127937316Y-97726677D01*
X128423848Y-97875630D01*
X128940713Y-98079173D01*
X129486886Y-98336680D01*
X130061342Y-98647526D01*
X130663054Y-99011084D01*
X131290999Y-99426728D01*
X131944151Y-99893831D01*
X132621483Y-100411769D01*
X133321971Y-100979913D01*
X133476357Y-101109282D01*
X133627415Y-101236057D01*
X133760634Y-101346874D01*
X133868936Y-101435931D01*
X133945246Y-101497421D01*
X133982489Y-101525542D01*
X133985000Y-101526529D01*
X133973168Y-101490365D01*
X133939926Y-101403918D01*
X133888658Y-101275368D01*
X133822749Y-101112892D01*
X133745582Y-100924668D01*
X133660541Y-100718875D01*
X133571010Y-100503690D01*
X133480373Y-100287291D01*
X133392013Y-100077856D01*
X133309315Y-99883563D01*
X133235662Y-99712591D01*
X133211482Y-99657112D01*
X132856741Y-98865633D01*
X132504502Y-98117964D01*
X132155820Y-97415840D01*
X131811753Y-96760996D01*
X131473356Y-96155168D01*
X131141685Y-95600093D01*
X130817795Y-95097505D01*
X130502742Y-94649140D01*
X130197583Y-94256735D01*
X129903374Y-93922024D01*
X129621169Y-93646743D01*
X129485551Y-93532450D01*
X129280742Y-93382588D01*
X129075868Y-93262502D01*
X128861073Y-93169498D01*
X128626497Y-93100883D01*
X128362284Y-93053961D01*
X128058574Y-93026039D01*
X127705510Y-93014424D01*
X127587375Y-93013715D01*
X127295104Y-93016268D01*
G37*
X127295104Y-93016268D02*
X127049455Y-93026119D01*
X126833739Y-93045681D01*
X126631266Y-93077368D01*
X126425347Y-93123594D01*
X126199292Y-93186774D01*
X126031625Y-93238719D01*
X125875517Y-93293563D01*
X125693599Y-93365719D01*
X125499329Y-93448981D01*
X125306164Y-93537142D01*
X125127561Y-93623996D01*
X124976979Y-93703336D01*
X124867873Y-93768955D01*
X124842441Y-93787173D01*
X124764507Y-93847199D01*
X125128191Y-94224464D01*
X125528660Y-94661120D01*
X125876887Y-95085617D01*
X126171311Y-95495683D01*
X126410370Y-95889047D01*
X126592502Y-96263441D01*
X126669681Y-96465824D01*
X126740076Y-96716357D01*
X126768184Y-96941289D01*
X126755467Y-97161040D01*
X126729253Y-97297198D01*
X126704104Y-97411913D01*
X126688277Y-97500122D01*
X126684509Y-97546040D01*
X126685591Y-97548918D01*
X126720170Y-97555746D01*
X126806224Y-97566173D01*
X126931911Y-97578935D01*
X127085392Y-97592769D01*
X127136507Y-97597056D01*
X127457115Y-97633487D01*
X127766806Y-97687328D01*
X127937316Y-97726677D01*
X128423848Y-97875630D01*
X128940713Y-98079173D01*
X129486886Y-98336680D01*
X130061342Y-98647526D01*
X130663054Y-99011084D01*
X131290999Y-99426728D01*
X131944151Y-99893831D01*
X132621483Y-100411769D01*
X133321971Y-100979913D01*
X133476357Y-101109282D01*
X133627415Y-101236057D01*
X133760634Y-101346874D01*
X133868936Y-101435931D01*
X133945246Y-101497421D01*
X133982489Y-101525542D01*
X133985000Y-101526529D01*
X133973168Y-101490365D01*
X133939926Y-101403918D01*
X133888658Y-101275368D01*
X133822749Y-101112892D01*
X133745582Y-100924668D01*
X133660541Y-100718875D01*
X133571010Y-100503690D01*
X133480373Y-100287291D01*
X133392013Y-100077856D01*
X133309315Y-99883563D01*
X133235662Y-99712591D01*
X133211482Y-99657112D01*
X132856741Y-98865633D01*
X132504502Y-98117964D01*
X132155820Y-97415840D01*
X131811753Y-96760996D01*
X131473356Y-96155168D01*
X131141685Y-95600093D01*
X130817795Y-95097505D01*
X130502742Y-94649140D01*
X130197583Y-94256735D01*
X129903374Y-93922024D01*
X129621169Y-93646743D01*
X129485551Y-93532450D01*
X129280742Y-93382588D01*
X129075868Y-93262502D01*
X128861073Y-93169498D01*
X128626497Y-93100883D01*
X128362284Y-93053961D01*
X128058574Y-93026039D01*
X127705510Y-93014424D01*
X127587375Y-93013715D01*
X127295104Y-93016268D01*
G36*
X132833761Y-83633174D02*
G01*
X132278089Y-83714524D01*
X132136504Y-83744610D01*
X131923132Y-83792911D01*
X132130918Y-84207570D01*
X132410883Y-84808338D01*
X132640141Y-85393657D01*
X132725062Y-85645625D01*
X132814451Y-85940994D01*
X132878702Y-86195976D01*
X132920785Y-86427119D01*
X132943673Y-86650974D01*
X132950338Y-86884092D01*
X132950282Y-86899750D01*
X132942143Y-87132073D01*
X132917684Y-87318623D01*
X132872689Y-87475963D01*
X132802943Y-87620656D01*
X132742804Y-87715095D01*
X132689832Y-87800771D01*
X132656886Y-87870755D01*
X132651500Y-87894261D01*
X132653368Y-87916772D01*
X132665848Y-87935674D01*
X132699259Y-87956265D01*
X132763915Y-87983841D01*
X132870136Y-88023700D01*
X132984875Y-88065416D01*
X133394320Y-88241962D01*
X133813272Y-88478330D01*
X134241994Y-88774789D01*
X134680749Y-89131603D01*
X135129801Y-89549041D01*
X135589413Y-90027368D01*
X136059847Y-90566851D01*
X136541368Y-91167756D01*
X137034237Y-91830352D01*
X137538719Y-92554903D01*
X137793171Y-92937104D01*
X137918713Y-93129004D01*
X138038202Y-93312871D01*
X138145369Y-93478963D01*
X138233945Y-93617541D01*
X138297662Y-93718864D01*
X138321805Y-93758487D01*
X138419984Y-93924141D01*
X138406858Y-93737758D01*
X138346331Y-92979803D01*
X138270117Y-92193210D01*
X138180569Y-91398096D01*
X138080043Y-90614576D01*
X137970892Y-89862767D01*
X137905635Y-89455625D01*
X137768745Y-88688229D01*
X137623689Y-87982819D01*
X137470186Y-87338370D01*
X137307954Y-86753859D01*
X137136710Y-86228262D01*
X136956173Y-85760555D01*
X136787187Y-85391625D01*
X136631352Y-85098084D01*
X136479332Y-84856169D01*
X136321337Y-84655482D01*
X136147576Y-84485622D01*
X135948259Y-84336192D01*
X135713596Y-84196792D01*
X135612639Y-84144043D01*
X135444210Y-84062013D01*
X135268172Y-83981962D01*
X135106321Y-83913499D01*
X134989052Y-83869134D01*
X134476948Y-83726665D01*
X133941495Y-83639608D01*
X133390998Y-83608323D01*
X132833761Y-83633174D01*
G37*
X132833761Y-83633174D02*
X132278089Y-83714524D01*
X132136504Y-83744610D01*
X131923132Y-83792911D01*
X132130918Y-84207570D01*
X132410883Y-84808338D01*
X132640141Y-85393657D01*
X132725062Y-85645625D01*
X132814451Y-85940994D01*
X132878702Y-86195976D01*
X132920785Y-86427119D01*
X132943673Y-86650974D01*
X132950338Y-86884092D01*
X132950282Y-86899750D01*
X132942143Y-87132073D01*
X132917684Y-87318623D01*
X132872689Y-87475963D01*
X132802943Y-87620656D01*
X132742804Y-87715095D01*
X132689832Y-87800771D01*
X132656886Y-87870755D01*
X132651500Y-87894261D01*
X132653368Y-87916772D01*
X132665848Y-87935674D01*
X132699259Y-87956265D01*
X132763915Y-87983841D01*
X132870136Y-88023700D01*
X132984875Y-88065416D01*
X133394320Y-88241962D01*
X133813272Y-88478330D01*
X134241994Y-88774789D01*
X134680749Y-89131603D01*
X135129801Y-89549041D01*
X135589413Y-90027368D01*
X136059847Y-90566851D01*
X136541368Y-91167756D01*
X137034237Y-91830352D01*
X137538719Y-92554903D01*
X137793171Y-92937104D01*
X137918713Y-93129004D01*
X138038202Y-93312871D01*
X138145369Y-93478963D01*
X138233945Y-93617541D01*
X138297662Y-93718864D01*
X138321805Y-93758487D01*
X138419984Y-93924141D01*
X138406858Y-93737758D01*
X138346331Y-92979803D01*
X138270117Y-92193210D01*
X138180569Y-91398096D01*
X138080043Y-90614576D01*
X137970892Y-89862767D01*
X137905635Y-89455625D01*
X137768745Y-88688229D01*
X137623689Y-87982819D01*
X137470186Y-87338370D01*
X137307954Y-86753859D01*
X137136710Y-86228262D01*
X136956173Y-85760555D01*
X136787187Y-85391625D01*
X136631352Y-85098084D01*
X136479332Y-84856169D01*
X136321337Y-84655482D01*
X136147576Y-84485622D01*
X135948259Y-84336192D01*
X135713596Y-84196792D01*
X135612639Y-84144043D01*
X135444210Y-84062013D01*
X135268172Y-83981962D01*
X135106321Y-83913499D01*
X134989052Y-83869134D01*
X134476948Y-83726665D01*
X133941495Y-83639608D01*
X133390998Y-83608323D01*
X132833761Y-83633174D01*
G36*
X146709661Y-83636636D02*
G01*
X146246746Y-83706531D01*
X145795321Y-83815240D01*
X145366026Y-83960045D01*
X144969506Y-84138226D01*
X144616403Y-84347064D01*
X144515093Y-84419343D01*
X144358724Y-84562325D01*
X144195123Y-84759896D01*
X144028977Y-85004274D01*
X143864972Y-85287678D01*
X143707795Y-85602325D01*
X143562132Y-85940433D01*
X143497694Y-86108736D01*
X143346390Y-86556127D01*
X143199176Y-87062187D01*
X143057004Y-87622162D01*
X142920829Y-88231299D01*
X142791603Y-88884844D01*
X142670281Y-89578043D01*
X142557815Y-90306143D01*
X142455159Y-91064391D01*
X142383798Y-91662250D01*
X142361448Y-91867183D01*
X142337805Y-92095279D01*
X142313590Y-92338455D01*
X142289521Y-92588630D01*
X142266318Y-92837720D01*
X142244700Y-93077645D01*
X142225387Y-93300321D01*
X142209097Y-93497667D01*
X142196551Y-93661600D01*
X142188468Y-93784039D01*
X142185567Y-93856900D01*
X142186933Y-93874015D01*
X142205869Y-93851377D01*
X142253303Y-93782864D01*
X142323989Y-93676391D01*
X142412684Y-93539878D01*
X142514144Y-93381241D01*
X142532579Y-93352177D01*
X143037390Y-92578560D01*
X143534012Y-91864705D01*
X144024650Y-91207732D01*
X144511507Y-90604759D01*
X144996786Y-90052905D01*
X145303241Y-89729628D01*
X145685732Y-89351766D01*
X146044723Y-89026204D01*
X146385914Y-88748854D01*
X146715010Y-88515632D01*
X147037714Y-88322451D01*
X147359728Y-88165224D01*
X147638819Y-88056220D01*
X147759682Y-88010903D01*
X147858422Y-87967897D01*
X147918541Y-87934594D01*
X147926971Y-87927142D01*
X147935908Y-87886522D01*
X147911704Y-87816799D01*
X147850889Y-87708156D01*
X147847595Y-87702779D01*
X147746131Y-87508333D01*
X147680788Y-87307192D01*
X147648181Y-87083326D01*
X147644923Y-86820702D01*
X147647770Y-86756875D01*
X147688987Y-86389736D01*
X147775149Y-85983107D01*
X147904950Y-85541012D01*
X148077087Y-85067472D01*
X148290255Y-84566510D01*
X148501264Y-84125070D01*
X148572601Y-83977537D01*
X148614401Y-83877132D01*
X148629294Y-83816234D01*
X148619912Y-83787222D01*
X148618270Y-83786099D01*
X148555466Y-83763134D01*
X148441136Y-83736472D01*
X148287004Y-83708029D01*
X148104796Y-83679720D01*
X147906237Y-83653463D01*
X147703052Y-83631172D01*
X147627385Y-83624168D01*
X147173421Y-83608275D01*
X146709661Y-83636636D01*
G37*
X146709661Y-83636636D02*
X146246746Y-83706531D01*
X145795321Y-83815240D01*
X145366026Y-83960045D01*
X144969506Y-84138226D01*
X144616403Y-84347064D01*
X144515093Y-84419343D01*
X144358724Y-84562325D01*
X144195123Y-84759896D01*
X144028977Y-85004274D01*
X143864972Y-85287678D01*
X143707795Y-85602325D01*
X143562132Y-85940433D01*
X143497694Y-86108736D01*
X143346390Y-86556127D01*
X143199176Y-87062187D01*
X143057004Y-87622162D01*
X142920829Y-88231299D01*
X142791603Y-88884844D01*
X142670281Y-89578043D01*
X142557815Y-90306143D01*
X142455159Y-91064391D01*
X142383798Y-91662250D01*
X142361448Y-91867183D01*
X142337805Y-92095279D01*
X142313590Y-92338455D01*
X142289521Y-92588630D01*
X142266318Y-92837720D01*
X142244700Y-93077645D01*
X142225387Y-93300321D01*
X142209097Y-93497667D01*
X142196551Y-93661600D01*
X142188468Y-93784039D01*
X142185567Y-93856900D01*
X142186933Y-93874015D01*
X142205869Y-93851377D01*
X142253303Y-93782864D01*
X142323989Y-93676391D01*
X142412684Y-93539878D01*
X142514144Y-93381241D01*
X142532579Y-93352177D01*
X143037390Y-92578560D01*
X143534012Y-91864705D01*
X144024650Y-91207732D01*
X144511507Y-90604759D01*
X144996786Y-90052905D01*
X145303241Y-89729628D01*
X145685732Y-89351766D01*
X146044723Y-89026204D01*
X146385914Y-88748854D01*
X146715010Y-88515632D01*
X147037714Y-88322451D01*
X147359728Y-88165224D01*
X147638819Y-88056220D01*
X147759682Y-88010903D01*
X147858422Y-87967897D01*
X147918541Y-87934594D01*
X147926971Y-87927142D01*
X147935908Y-87886522D01*
X147911704Y-87816799D01*
X147850889Y-87708156D01*
X147847595Y-87702779D01*
X147746131Y-87508333D01*
X147680788Y-87307192D01*
X147648181Y-87083326D01*
X147644923Y-86820702D01*
X147647770Y-86756875D01*
X147688987Y-86389736D01*
X147775149Y-85983107D01*
X147904950Y-85541012D01*
X148077087Y-85067472D01*
X148290255Y-84566510D01*
X148501264Y-84125070D01*
X148572601Y-83977537D01*
X148614401Y-83877132D01*
X148629294Y-83816234D01*
X148619912Y-83787222D01*
X148618270Y-83786099D01*
X148555466Y-83763134D01*
X148441136Y-83736472D01*
X148287004Y-83708029D01*
X148104796Y-83679720D01*
X147906237Y-83653463D01*
X147703052Y-83631172D01*
X147627385Y-83624168D01*
X147173421Y-83608275D01*
X146709661Y-83636636D01*
%TD*%
M02*
