M48
; DRILL file {KiCad (5.1.9-0-10_14)} date Tuesday, August 10, 2021 at 04:32:12 PM
; FORMAT={-:-/ absolute / inch / decimal}
; #@! TF.CreationDate,2021-08-10T16:32:12-04:00
; #@! TF.GenerationSoftware,Kicad,Pcbnew,(5.1.9-0-10_14)
FMAT,2
INCH
T1C0.0197
T2C0.0315
T3C0.0339
T4C0.0354
T5C0.0394
T6C0.0433
T7C0.0945
T8C0.1260
T9C0.1024
%
G90
G05
T1
X4.4205Y-2.49
X4.4205Y-5.565
X4.4482Y-2.4232
X4.4482Y-2.5568
X4.4482Y-5.4982
X4.4482Y-5.6318
X4.515Y-2.3955
X4.515Y-2.5845
X4.515Y-5.4705
X4.515Y-5.6595
X4.5818Y-2.4232
X4.5818Y-2.5568
X4.5818Y-5.4982
X4.5818Y-5.6318
X4.6095Y-2.49
X4.6095Y-5.565
X6.4305Y-2.49
X6.4305Y-5.565
X6.4582Y-2.4232
X6.4582Y-2.5568
X6.4582Y-5.4982
X6.4582Y-5.6318
X6.525Y-2.3955
X6.525Y-2.5845
X6.525Y-5.4705
X6.525Y-5.6595
X6.5918Y-2.4232
X6.5918Y-2.5568
X6.5918Y-5.4982
X6.5918Y-5.6318
X6.6195Y-2.49
X6.6195Y-5.565
T2
X4.77Y-4.24
X4.77Y-4.375
X4.77Y-4.51
X4.77Y-4.645
X5.07Y-4.24
X5.07Y-4.375
X5.07Y-4.51
X5.07Y-4.645
X5.17Y-4.24
X5.17Y-4.375
X5.17Y-4.51
X5.17Y-4.645
X5.47Y-4.24
X5.47Y-4.375
X5.47Y-4.51
X5.47Y-4.645
X5.57Y-4.24
X5.57Y-4.375
X5.57Y-4.51
X5.57Y-4.645
X5.87Y-4.24
X5.87Y-4.375
X5.87Y-4.51
X5.87Y-4.645
X5.97Y-4.24
X5.97Y-4.375
X5.97Y-4.51
X5.97Y-4.645
X6.27Y-4.24
X6.27Y-4.375
X6.27Y-4.51
X6.27Y-4.645
T4
X5.09Y-4.885
X5.09Y-5.125
X5.09Y-5.365
X5.09Y-5.605
X5.19Y-4.885
X5.19Y-5.125
X5.19Y-5.365
X5.19Y-5.605
X5.345Y-4.885
X5.345Y-5.125
X5.345Y-5.365
X5.345Y-5.605
X5.445Y-4.885
X5.445Y-5.125
X5.445Y-5.365
X5.445Y-5.605
X5.6Y-4.885
X5.6Y-5.125
X5.6Y-5.365
X5.6Y-5.605
X5.7Y-4.885
X5.7Y-5.125
X5.7Y-5.365
X5.7Y-5.605
X5.855Y-4.885
X5.855Y-5.125
X5.855Y-5.365
X5.855Y-5.605
X5.955Y-4.885
X5.955Y-5.125
X5.955Y-5.365
X5.955Y-5.605
T6
X4.65Y-4.295
X4.65Y-4.595
T7
X4.57Y-3.265
X4.57Y-3.765
T8
X4.515Y-2.49
X4.515Y-5.565
X6.525Y-2.49
X6.525Y-5.565
T9
X4.9991Y-3.952
X5.5503Y-3.078
X6.1015Y-3.952
T3
G00X6.49Y-4.2549
M15
G01X6.44Y-4.2549
M16
G05
G00X6.49Y-4.44
M15
G01X6.44Y-4.44
M16
G05
G00X6.49Y-4.625
M15
G01X6.44Y-4.625
M16
G05
T5
G00X4.94Y-2.6794
M15
G01X4.94Y-2.6006
M16
G05
G00X5.0975Y-2.455
M15
G01X5.0187Y-2.455
M16
G05
G00X5.1762Y-2.6794
M15
G01X5.1762Y-2.6006
M16
G05
T0
M30
