%TF.GenerationSoftware,KiCad,Pcbnew,(5.1.9-0-10_14)*%
%TF.CreationDate,2021-08-10T16:32:06-04:00*%
%TF.ProjectId,led-tester,6c65642d-7465-4737-9465-722e6b696361,v1*%
%TF.SameCoordinates,Original*%
%TF.FileFunction,Copper,L2,Bot*%
%TF.FilePolarity,Positive*%
%FSLAX46Y46*%
G04 Gerber Fmt 4.6, Leading zero omitted, Abs format (unit mm)*
G04 Created by KiCad (PCBNEW (5.1.9-0-10_14)) date 2021-08-10 16:32:06*
%MOMM*%
%LPD*%
G01*
G04 APERTURE LIST*
%TA.AperFunction,ComponentPad*%
%ADD10C,3.000000*%
%TD*%
%TA.AperFunction,ComponentPad*%
%ADD11R,3.000000X3.000000*%
%TD*%
%TA.AperFunction,ComponentPad*%
%ADD12C,1.600000*%
%TD*%
%TA.AperFunction,ComponentPad*%
%ADD13O,1.600000X1.600000*%
%TD*%
%TA.AperFunction,ComponentPad*%
%ADD14C,0.800000*%
%TD*%
%TA.AperFunction,ComponentPad*%
%ADD15C,6.400000*%
%TD*%
%TA.AperFunction,ComponentPad*%
%ADD16R,1.800000X1.800000*%
%TD*%
%TA.AperFunction,ComponentPad*%
%ADD17C,1.800000*%
%TD*%
%TA.AperFunction,ComponentPad*%
%ADD18R,2.200000X2.200000*%
%TD*%
%TA.AperFunction,ComponentPad*%
%ADD19O,2.200000X2.200000*%
%TD*%
%TA.AperFunction,ComponentPad*%
%ADD20R,3.500000X3.500000*%
%TD*%
%TA.AperFunction,ComponentPad*%
%ADD21O,2.923750X1.653750*%
%TD*%
%TA.AperFunction,Conductor*%
%ADD22C,0.381000*%
%TD*%
%TA.AperFunction,Conductor*%
%ADD23C,0.762000*%
%TD*%
%TA.AperFunction,Conductor*%
%ADD24C,0.254000*%
%TD*%
%TA.AperFunction,Conductor*%
%ADD25C,0.100000*%
%TD*%
G04 APERTURE END LIST*
D10*
%TO.P,BT1,2*%
%TO.N,GND*%
X116078000Y-95631000D03*
D11*
%TO.P,BT1,1*%
%TO.N,Net-(BT1-Pad1)*%
X116078000Y-82931000D03*
%TD*%
D12*
%TO.P,R7,1*%
%TO.N,Net-(D7-Pad2)*%
X131318000Y-111125000D03*
D13*
%TO.P,R7,2*%
%TO.N,VCC*%
X138938000Y-111125000D03*
%TD*%
D14*
%TO.P,H4,1*%
%TO.N,GND*%
X167432056Y-139653944D03*
X165735000Y-138951000D03*
X164037944Y-139653944D03*
X163335000Y-141351000D03*
X164037944Y-143048056D03*
X165735000Y-143751000D03*
X167432056Y-143048056D03*
X168135000Y-141351000D03*
D15*
X165735000Y-141351000D03*
%TD*%
D14*
%TO.P,H3,1*%
%TO.N,GND*%
X167432056Y-61548944D03*
X165735000Y-60846000D03*
X164037944Y-61548944D03*
X163335000Y-63246000D03*
X164037944Y-64943056D03*
X165735000Y-65646000D03*
X167432056Y-64943056D03*
X168135000Y-63246000D03*
D15*
X165735000Y-63246000D03*
%TD*%
D14*
%TO.P,H2,1*%
%TO.N,GND*%
X116378056Y-139653944D03*
X114681000Y-138951000D03*
X112983944Y-139653944D03*
X112281000Y-141351000D03*
X112983944Y-143048056D03*
X114681000Y-143751000D03*
X116378056Y-143048056D03*
X117081000Y-141351000D03*
D15*
X114681000Y-141351000D03*
%TD*%
D14*
%TO.P,H1,1*%
%TO.N,GND*%
X116378056Y-61548944D03*
X114681000Y-60846000D03*
X112983944Y-61548944D03*
X112281000Y-63246000D03*
X112983944Y-64943056D03*
X114681000Y-65646000D03*
X116378056Y-64943056D03*
X117081000Y-63246000D03*
D15*
X114681000Y-63246000D03*
%TD*%
D16*
%TO.P,D1,1*%
%TO.N,GND*%
X129286000Y-142367000D03*
D17*
%TO.P,D1,2*%
%TO.N,Net-(D1-Pad2)*%
X131826000Y-142367000D03*
%TD*%
D16*
%TO.P,D2,1*%
%TO.N,GND*%
X129286000Y-136271000D03*
D17*
%TO.P,D2,2*%
%TO.N,Net-(D2-Pad2)*%
X131826000Y-136271000D03*
%TD*%
%TO.P,D3,2*%
%TO.N,Net-(D3-Pad2)*%
X131826000Y-130175000D03*
D16*
%TO.P,D3,1*%
%TO.N,GND*%
X129286000Y-130175000D03*
%TD*%
%TO.P,D4,1*%
%TO.N,GND*%
X129286000Y-124079000D03*
D17*
%TO.P,D4,2*%
%TO.N,Net-(D4-Pad2)*%
X131826000Y-124079000D03*
%TD*%
D16*
%TO.P,D5,1*%
%TO.N,GND*%
X135763000Y-142367000D03*
D17*
%TO.P,D5,2*%
%TO.N,Net-(D5-Pad2)*%
X138303000Y-142367000D03*
%TD*%
D16*
%TO.P,D6,1*%
%TO.N,GND*%
X135763000Y-136271000D03*
D17*
%TO.P,D6,2*%
%TO.N,Net-(D6-Pad2)*%
X138303000Y-136271000D03*
%TD*%
%TO.P,D7,2*%
%TO.N,Net-(D7-Pad2)*%
X138303000Y-130175000D03*
D16*
%TO.P,D7,1*%
%TO.N,GND*%
X135763000Y-130175000D03*
%TD*%
%TO.P,D8,1*%
%TO.N,GND*%
X135763000Y-124079000D03*
D17*
%TO.P,D8,2*%
%TO.N,Net-(D8-Pad2)*%
X138303000Y-124079000D03*
%TD*%
%TO.P,D9,2*%
%TO.N,Net-(D9-Pad2)*%
X144780000Y-142367000D03*
D16*
%TO.P,D9,1*%
%TO.N,GND*%
X142240000Y-142367000D03*
%TD*%
D17*
%TO.P,D10,2*%
%TO.N,Net-(D10-Pad2)*%
X144780000Y-136271000D03*
D16*
%TO.P,D10,1*%
%TO.N,GND*%
X142240000Y-136271000D03*
%TD*%
D17*
%TO.P,D11,2*%
%TO.N,Net-(D11-Pad2)*%
X144780000Y-130175000D03*
D16*
%TO.P,D11,1*%
%TO.N,GND*%
X142240000Y-130175000D03*
%TD*%
D17*
%TO.P,D12,2*%
%TO.N,Net-(D12-Pad2)*%
X144780000Y-124079000D03*
D16*
%TO.P,D12,1*%
%TO.N,GND*%
X142240000Y-124079000D03*
%TD*%
%TO.P,D13,1*%
%TO.N,GND*%
X148717000Y-142367000D03*
D17*
%TO.P,D13,2*%
%TO.N,Net-(D13-Pad2)*%
X151257000Y-142367000D03*
%TD*%
D16*
%TO.P,D14,1*%
%TO.N,GND*%
X148717000Y-136271000D03*
D17*
%TO.P,D14,2*%
%TO.N,Net-(D14-Pad2)*%
X151257000Y-136271000D03*
%TD*%
%TO.P,D15,2*%
%TO.N,Net-(D15-Pad2)*%
X151257000Y-130175000D03*
D16*
%TO.P,D15,1*%
%TO.N,GND*%
X148717000Y-130175000D03*
%TD*%
%TO.P,D16,1*%
%TO.N,GND*%
X148717000Y-124079000D03*
D17*
%TO.P,D16,2*%
%TO.N,Net-(D16-Pad2)*%
X151257000Y-124079000D03*
%TD*%
D18*
%TO.P,D17,1*%
%TO.N,Net-(D17-Pad1)*%
X118110000Y-116713000D03*
D19*
%TO.P,D17,2*%
%TO.N,Net-(D17-Pad2)*%
X118110000Y-109093000D03*
%TD*%
%TO.P,J1,3*%
%TO.N,Net-(BT1-Pad1)*%
%TA.AperFunction,ComponentPad*%
G36*
G01*
X130226000Y-61481000D02*
X130226000Y-63231000D01*
G75*
G02*
X129351000Y-64106000I-875000J0D01*
G01*
X127601000Y-64106000D01*
G75*
G02*
X126726000Y-63231000I0J875000D01*
G01*
X126726000Y-61481000D01*
G75*
G02*
X127601000Y-60606000I875000J0D01*
G01*
X129351000Y-60606000D01*
G75*
G02*
X130226000Y-61481000I0J-875000D01*
G01*
G37*
%TD.AperFunction*%
%TO.P,J1,2*%
%TO.N,Net-(D17-Pad2)*%
%TA.AperFunction,ComponentPad*%
G36*
G01*
X132976000Y-66056000D02*
X132976000Y-68056000D01*
G75*
G02*
X132226000Y-68806000I-750000J0D01*
G01*
X130726000Y-68806000D01*
G75*
G02*
X129976000Y-68056000I0J750000D01*
G01*
X129976000Y-66056000D01*
G75*
G02*
X130726000Y-65306000I750000J0D01*
G01*
X132226000Y-65306000D01*
G75*
G02*
X132976000Y-66056000I0J-750000D01*
G01*
G37*
%TD.AperFunction*%
D20*
%TO.P,J1,1*%
%TO.N,GND*%
X125476000Y-67056000D03*
%TD*%
D12*
%TO.P,R1,1*%
%TO.N,Net-(D1-Pad2)*%
X121158000Y-117983000D03*
D13*
%TO.P,R1,2*%
%TO.N,VCC*%
X128778000Y-117983000D03*
%TD*%
D12*
%TO.P,R2,1*%
%TO.N,Net-(D2-Pad2)*%
X121158000Y-114554000D03*
D13*
%TO.P,R2,2*%
%TO.N,VCC*%
X128778000Y-114554000D03*
%TD*%
%TO.P,R3,2*%
%TO.N,VCC*%
X128778000Y-111125000D03*
D12*
%TO.P,R3,1*%
%TO.N,Net-(D3-Pad2)*%
X121158000Y-111125000D03*
%TD*%
%TO.P,R4,1*%
%TO.N,Net-(D4-Pad2)*%
X121158000Y-107696000D03*
D13*
%TO.P,R4,2*%
%TO.N,VCC*%
X128778000Y-107696000D03*
%TD*%
D12*
%TO.P,R5,1*%
%TO.N,Net-(D5-Pad2)*%
X131318000Y-117983000D03*
D13*
%TO.P,R5,2*%
%TO.N,VCC*%
X138938000Y-117983000D03*
%TD*%
%TO.P,R6,2*%
%TO.N,VCC*%
X138938000Y-114554000D03*
D12*
%TO.P,R6,1*%
%TO.N,Net-(D6-Pad2)*%
X131318000Y-114554000D03*
%TD*%
D13*
%TO.P,R8,2*%
%TO.N,VCC*%
X138938000Y-107696000D03*
D12*
%TO.P,R8,1*%
%TO.N,Net-(D8-Pad2)*%
X131318000Y-107696000D03*
%TD*%
D13*
%TO.P,R9,2*%
%TO.N,VCC*%
X149098000Y-117983000D03*
D12*
%TO.P,R9,1*%
%TO.N,Net-(D9-Pad2)*%
X141478000Y-117983000D03*
%TD*%
D13*
%TO.P,R10,2*%
%TO.N,VCC*%
X149098000Y-114554000D03*
D12*
%TO.P,R10,1*%
%TO.N,Net-(D10-Pad2)*%
X141478000Y-114554000D03*
%TD*%
D13*
%TO.P,R11,2*%
%TO.N,VCC*%
X149098000Y-111125000D03*
D12*
%TO.P,R11,1*%
%TO.N,Net-(D11-Pad2)*%
X141478000Y-111125000D03*
%TD*%
D13*
%TO.P,R12,2*%
%TO.N,VCC*%
X149098000Y-107696000D03*
D12*
%TO.P,R12,1*%
%TO.N,Net-(D12-Pad2)*%
X141478000Y-107696000D03*
%TD*%
%TO.P,R13,1*%
%TO.N,Net-(D13-Pad2)*%
X151638000Y-117983000D03*
D13*
%TO.P,R13,2*%
%TO.N,VCC*%
X159258000Y-117983000D03*
%TD*%
%TO.P,R14,2*%
%TO.N,VCC*%
X159258000Y-114554000D03*
D12*
%TO.P,R14,1*%
%TO.N,Net-(D14-Pad2)*%
X151638000Y-114554000D03*
%TD*%
%TO.P,R15,1*%
%TO.N,Net-(D15-Pad2)*%
X151638000Y-111125000D03*
D13*
%TO.P,R15,2*%
%TO.N,VCC*%
X159258000Y-111125000D03*
%TD*%
D12*
%TO.P,R16,1*%
%TO.N,Net-(D16-Pad2)*%
X151638000Y-107696000D03*
D13*
%TO.P,R16,2*%
%TO.N,VCC*%
X159258000Y-107696000D03*
%TD*%
D21*
%TO.P,SW1,1*%
%TO.N,VCC*%
X164211000Y-117475000D03*
%TO.P,SW1,2*%
%TO.N,Net-(D17-Pad1)*%
X164211000Y-112775000D03*
%TO.P,SW1,3*%
%TO.N,GND*%
X164211000Y-108075000D03*
%TD*%
D22*
%TO.N,Net-(D13-Pad2)*%
X149959901Y-119661099D02*
X151638000Y-117983000D01*
X149959901Y-141069901D02*
X149959901Y-119661099D01*
X151257000Y-142367000D02*
X149959901Y-141069901D01*
%TO.N,Net-(D14-Pad2)*%
X152780901Y-134747099D02*
X151257000Y-136271000D01*
X152780901Y-115696901D02*
X152780901Y-134747099D01*
X151638000Y-114554000D02*
X152780901Y-115696901D01*
D23*
%TO.N,Net-(D17-Pad1)*%
X148903566Y-112775000D02*
X164211000Y-112775000D01*
X145028967Y-116649599D02*
X148903566Y-112775000D01*
X118173401Y-116649599D02*
X145028967Y-116649599D01*
X118110000Y-116713000D02*
X118173401Y-116649599D01*
D22*
%TO.N,VCC*%
X147955099Y-119125901D02*
X149098000Y-117983000D01*
X140080901Y-119125901D02*
X147955099Y-119125901D01*
X138938000Y-117983000D02*
X140080901Y-119125901D01*
%TD*%
D24*
%TO.N,GND*%
X169647001Y-145263000D02*
X110769000Y-145263000D01*
X110769000Y-144051881D01*
X112159724Y-144051881D01*
X112519912Y-144541548D01*
X113183882Y-144901849D01*
X113905385Y-145125694D01*
X114656695Y-145204480D01*
X115408938Y-145135178D01*
X116133208Y-144920452D01*
X116801670Y-144568555D01*
X116842088Y-144541548D01*
X117202276Y-144051881D01*
X163213724Y-144051881D01*
X163573912Y-144541548D01*
X164237882Y-144901849D01*
X164959385Y-145125694D01*
X165710695Y-145204480D01*
X166462938Y-145135178D01*
X167187208Y-144920452D01*
X167855670Y-144568555D01*
X167896088Y-144541548D01*
X168256276Y-144051881D01*
X165735000Y-141530605D01*
X163213724Y-144051881D01*
X117202276Y-144051881D01*
X114681000Y-141530605D01*
X112159724Y-144051881D01*
X110769000Y-144051881D01*
X110769000Y-141326695D01*
X110827520Y-141326695D01*
X110896822Y-142078938D01*
X111111548Y-142803208D01*
X111463445Y-143471670D01*
X111490452Y-143512088D01*
X111980119Y-143872276D01*
X114501395Y-141351000D01*
X114860605Y-141351000D01*
X117381881Y-143872276D01*
X117871548Y-143512088D01*
X118004544Y-143267000D01*
X127747928Y-143267000D01*
X127760188Y-143391482D01*
X127796498Y-143511180D01*
X127855463Y-143621494D01*
X127934815Y-143718185D01*
X128031506Y-143797537D01*
X128141820Y-143856502D01*
X128261518Y-143892812D01*
X128386000Y-143905072D01*
X129000250Y-143902000D01*
X129159000Y-143743250D01*
X129159000Y-142494000D01*
X127909750Y-142494000D01*
X127751000Y-142652750D01*
X127747928Y-143267000D01*
X118004544Y-143267000D01*
X118231849Y-142848118D01*
X118455694Y-142126615D01*
X118524864Y-141467000D01*
X127747928Y-141467000D01*
X127751000Y-142081250D01*
X127909750Y-142240000D01*
X129159000Y-142240000D01*
X129159000Y-140990750D01*
X129413000Y-140990750D01*
X129413000Y-142240000D01*
X129433000Y-142240000D01*
X129433000Y-142494000D01*
X129413000Y-142494000D01*
X129413000Y-143743250D01*
X129571750Y-143902000D01*
X130186000Y-143905072D01*
X130310482Y-143892812D01*
X130430180Y-143856502D01*
X130540494Y-143797537D01*
X130637185Y-143718185D01*
X130716537Y-143621494D01*
X130775502Y-143511180D01*
X130781056Y-143492873D01*
X130847495Y-143559312D01*
X131098905Y-143727299D01*
X131378257Y-143843011D01*
X131674816Y-143902000D01*
X131977184Y-143902000D01*
X132273743Y-143843011D01*
X132553095Y-143727299D01*
X132804505Y-143559312D01*
X133018312Y-143345505D01*
X133070767Y-143267000D01*
X134224928Y-143267000D01*
X134237188Y-143391482D01*
X134273498Y-143511180D01*
X134332463Y-143621494D01*
X134411815Y-143718185D01*
X134508506Y-143797537D01*
X134618820Y-143856502D01*
X134738518Y-143892812D01*
X134863000Y-143905072D01*
X135477250Y-143902000D01*
X135636000Y-143743250D01*
X135636000Y-142494000D01*
X134386750Y-142494000D01*
X134228000Y-142652750D01*
X134224928Y-143267000D01*
X133070767Y-143267000D01*
X133186299Y-143094095D01*
X133302011Y-142814743D01*
X133361000Y-142518184D01*
X133361000Y-142215816D01*
X133302011Y-141919257D01*
X133186299Y-141639905D01*
X133070768Y-141467000D01*
X134224928Y-141467000D01*
X134228000Y-142081250D01*
X134386750Y-142240000D01*
X135636000Y-142240000D01*
X135636000Y-140990750D01*
X135890000Y-140990750D01*
X135890000Y-142240000D01*
X135910000Y-142240000D01*
X135910000Y-142494000D01*
X135890000Y-142494000D01*
X135890000Y-143743250D01*
X136048750Y-143902000D01*
X136663000Y-143905072D01*
X136787482Y-143892812D01*
X136907180Y-143856502D01*
X137017494Y-143797537D01*
X137114185Y-143718185D01*
X137193537Y-143621494D01*
X137252502Y-143511180D01*
X137258056Y-143492873D01*
X137324495Y-143559312D01*
X137575905Y-143727299D01*
X137855257Y-143843011D01*
X138151816Y-143902000D01*
X138454184Y-143902000D01*
X138750743Y-143843011D01*
X139030095Y-143727299D01*
X139281505Y-143559312D01*
X139495312Y-143345505D01*
X139547767Y-143267000D01*
X140701928Y-143267000D01*
X140714188Y-143391482D01*
X140750498Y-143511180D01*
X140809463Y-143621494D01*
X140888815Y-143718185D01*
X140985506Y-143797537D01*
X141095820Y-143856502D01*
X141215518Y-143892812D01*
X141340000Y-143905072D01*
X141954250Y-143902000D01*
X142113000Y-143743250D01*
X142113000Y-142494000D01*
X140863750Y-142494000D01*
X140705000Y-142652750D01*
X140701928Y-143267000D01*
X139547767Y-143267000D01*
X139663299Y-143094095D01*
X139779011Y-142814743D01*
X139838000Y-142518184D01*
X139838000Y-142215816D01*
X139779011Y-141919257D01*
X139663299Y-141639905D01*
X139547768Y-141467000D01*
X140701928Y-141467000D01*
X140705000Y-142081250D01*
X140863750Y-142240000D01*
X142113000Y-142240000D01*
X142113000Y-140990750D01*
X142367000Y-140990750D01*
X142367000Y-142240000D01*
X142387000Y-142240000D01*
X142387000Y-142494000D01*
X142367000Y-142494000D01*
X142367000Y-143743250D01*
X142525750Y-143902000D01*
X143140000Y-143905072D01*
X143264482Y-143892812D01*
X143384180Y-143856502D01*
X143494494Y-143797537D01*
X143591185Y-143718185D01*
X143670537Y-143621494D01*
X143729502Y-143511180D01*
X143735056Y-143492873D01*
X143801495Y-143559312D01*
X144052905Y-143727299D01*
X144332257Y-143843011D01*
X144628816Y-143902000D01*
X144931184Y-143902000D01*
X145227743Y-143843011D01*
X145507095Y-143727299D01*
X145758505Y-143559312D01*
X145972312Y-143345505D01*
X146024767Y-143267000D01*
X147178928Y-143267000D01*
X147191188Y-143391482D01*
X147227498Y-143511180D01*
X147286463Y-143621494D01*
X147365815Y-143718185D01*
X147462506Y-143797537D01*
X147572820Y-143856502D01*
X147692518Y-143892812D01*
X147817000Y-143905072D01*
X148431250Y-143902000D01*
X148590000Y-143743250D01*
X148590000Y-142494000D01*
X147340750Y-142494000D01*
X147182000Y-142652750D01*
X147178928Y-143267000D01*
X146024767Y-143267000D01*
X146140299Y-143094095D01*
X146256011Y-142814743D01*
X146315000Y-142518184D01*
X146315000Y-142215816D01*
X146256011Y-141919257D01*
X146140299Y-141639905D01*
X146024768Y-141467000D01*
X147178928Y-141467000D01*
X147182000Y-142081250D01*
X147340750Y-142240000D01*
X148590000Y-142240000D01*
X148590000Y-140990750D01*
X148431250Y-140832000D01*
X147817000Y-140828928D01*
X147692518Y-140841188D01*
X147572820Y-140877498D01*
X147462506Y-140936463D01*
X147365815Y-141015815D01*
X147286463Y-141112506D01*
X147227498Y-141222820D01*
X147191188Y-141342518D01*
X147178928Y-141467000D01*
X146024768Y-141467000D01*
X145972312Y-141388495D01*
X145758505Y-141174688D01*
X145507095Y-141006701D01*
X145227743Y-140890989D01*
X144931184Y-140832000D01*
X144628816Y-140832000D01*
X144332257Y-140890989D01*
X144052905Y-141006701D01*
X143801495Y-141174688D01*
X143735056Y-141241127D01*
X143729502Y-141222820D01*
X143670537Y-141112506D01*
X143591185Y-141015815D01*
X143494494Y-140936463D01*
X143384180Y-140877498D01*
X143264482Y-140841188D01*
X143140000Y-140828928D01*
X142525750Y-140832000D01*
X142367000Y-140990750D01*
X142113000Y-140990750D01*
X141954250Y-140832000D01*
X141340000Y-140828928D01*
X141215518Y-140841188D01*
X141095820Y-140877498D01*
X140985506Y-140936463D01*
X140888815Y-141015815D01*
X140809463Y-141112506D01*
X140750498Y-141222820D01*
X140714188Y-141342518D01*
X140701928Y-141467000D01*
X139547768Y-141467000D01*
X139495312Y-141388495D01*
X139281505Y-141174688D01*
X139030095Y-141006701D01*
X138750743Y-140890989D01*
X138454184Y-140832000D01*
X138151816Y-140832000D01*
X137855257Y-140890989D01*
X137575905Y-141006701D01*
X137324495Y-141174688D01*
X137258056Y-141241127D01*
X137252502Y-141222820D01*
X137193537Y-141112506D01*
X137114185Y-141015815D01*
X137017494Y-140936463D01*
X136907180Y-140877498D01*
X136787482Y-140841188D01*
X136663000Y-140828928D01*
X136048750Y-140832000D01*
X135890000Y-140990750D01*
X135636000Y-140990750D01*
X135477250Y-140832000D01*
X134863000Y-140828928D01*
X134738518Y-140841188D01*
X134618820Y-140877498D01*
X134508506Y-140936463D01*
X134411815Y-141015815D01*
X134332463Y-141112506D01*
X134273498Y-141222820D01*
X134237188Y-141342518D01*
X134224928Y-141467000D01*
X133070768Y-141467000D01*
X133018312Y-141388495D01*
X132804505Y-141174688D01*
X132553095Y-141006701D01*
X132273743Y-140890989D01*
X131977184Y-140832000D01*
X131674816Y-140832000D01*
X131378257Y-140890989D01*
X131098905Y-141006701D01*
X130847495Y-141174688D01*
X130781056Y-141241127D01*
X130775502Y-141222820D01*
X130716537Y-141112506D01*
X130637185Y-141015815D01*
X130540494Y-140936463D01*
X130430180Y-140877498D01*
X130310482Y-140841188D01*
X130186000Y-140828928D01*
X129571750Y-140832000D01*
X129413000Y-140990750D01*
X129159000Y-140990750D01*
X129000250Y-140832000D01*
X128386000Y-140828928D01*
X128261518Y-140841188D01*
X128141820Y-140877498D01*
X128031506Y-140936463D01*
X127934815Y-141015815D01*
X127855463Y-141112506D01*
X127796498Y-141222820D01*
X127760188Y-141342518D01*
X127747928Y-141467000D01*
X118524864Y-141467000D01*
X118534480Y-141375305D01*
X118465178Y-140623062D01*
X118250452Y-139898792D01*
X117898555Y-139230330D01*
X117871548Y-139189912D01*
X117381881Y-138829724D01*
X114860605Y-141351000D01*
X114501395Y-141351000D01*
X111980119Y-138829724D01*
X111490452Y-139189912D01*
X111130151Y-139853882D01*
X110906306Y-140575385D01*
X110827520Y-141326695D01*
X110769000Y-141326695D01*
X110769000Y-138650119D01*
X112159724Y-138650119D01*
X114681000Y-141171395D01*
X117202276Y-138650119D01*
X116842088Y-138160452D01*
X116178118Y-137800151D01*
X115456615Y-137576306D01*
X114705305Y-137497520D01*
X113953062Y-137566822D01*
X113228792Y-137781548D01*
X112560330Y-138133445D01*
X112519912Y-138160452D01*
X112159724Y-138650119D01*
X110769000Y-138650119D01*
X110769000Y-137171000D01*
X127747928Y-137171000D01*
X127760188Y-137295482D01*
X127796498Y-137415180D01*
X127855463Y-137525494D01*
X127934815Y-137622185D01*
X128031506Y-137701537D01*
X128141820Y-137760502D01*
X128261518Y-137796812D01*
X128386000Y-137809072D01*
X129000250Y-137806000D01*
X129159000Y-137647250D01*
X129159000Y-136398000D01*
X127909750Y-136398000D01*
X127751000Y-136556750D01*
X127747928Y-137171000D01*
X110769000Y-137171000D01*
X110769000Y-135371000D01*
X127747928Y-135371000D01*
X127751000Y-135985250D01*
X127909750Y-136144000D01*
X129159000Y-136144000D01*
X129159000Y-134894750D01*
X129413000Y-134894750D01*
X129413000Y-136144000D01*
X129433000Y-136144000D01*
X129433000Y-136398000D01*
X129413000Y-136398000D01*
X129413000Y-137647250D01*
X129571750Y-137806000D01*
X130186000Y-137809072D01*
X130310482Y-137796812D01*
X130430180Y-137760502D01*
X130540494Y-137701537D01*
X130637185Y-137622185D01*
X130716537Y-137525494D01*
X130775502Y-137415180D01*
X130781056Y-137396873D01*
X130847495Y-137463312D01*
X131098905Y-137631299D01*
X131378257Y-137747011D01*
X131674816Y-137806000D01*
X131977184Y-137806000D01*
X132273743Y-137747011D01*
X132553095Y-137631299D01*
X132804505Y-137463312D01*
X133018312Y-137249505D01*
X133070767Y-137171000D01*
X134224928Y-137171000D01*
X134237188Y-137295482D01*
X134273498Y-137415180D01*
X134332463Y-137525494D01*
X134411815Y-137622185D01*
X134508506Y-137701537D01*
X134618820Y-137760502D01*
X134738518Y-137796812D01*
X134863000Y-137809072D01*
X135477250Y-137806000D01*
X135636000Y-137647250D01*
X135636000Y-136398000D01*
X134386750Y-136398000D01*
X134228000Y-136556750D01*
X134224928Y-137171000D01*
X133070767Y-137171000D01*
X133186299Y-136998095D01*
X133302011Y-136718743D01*
X133361000Y-136422184D01*
X133361000Y-136119816D01*
X133302011Y-135823257D01*
X133186299Y-135543905D01*
X133070768Y-135371000D01*
X134224928Y-135371000D01*
X134228000Y-135985250D01*
X134386750Y-136144000D01*
X135636000Y-136144000D01*
X135636000Y-134894750D01*
X135890000Y-134894750D01*
X135890000Y-136144000D01*
X135910000Y-136144000D01*
X135910000Y-136398000D01*
X135890000Y-136398000D01*
X135890000Y-137647250D01*
X136048750Y-137806000D01*
X136663000Y-137809072D01*
X136787482Y-137796812D01*
X136907180Y-137760502D01*
X137017494Y-137701537D01*
X137114185Y-137622185D01*
X137193537Y-137525494D01*
X137252502Y-137415180D01*
X137258056Y-137396873D01*
X137324495Y-137463312D01*
X137575905Y-137631299D01*
X137855257Y-137747011D01*
X138151816Y-137806000D01*
X138454184Y-137806000D01*
X138750743Y-137747011D01*
X139030095Y-137631299D01*
X139281505Y-137463312D01*
X139495312Y-137249505D01*
X139547767Y-137171000D01*
X140701928Y-137171000D01*
X140714188Y-137295482D01*
X140750498Y-137415180D01*
X140809463Y-137525494D01*
X140888815Y-137622185D01*
X140985506Y-137701537D01*
X141095820Y-137760502D01*
X141215518Y-137796812D01*
X141340000Y-137809072D01*
X141954250Y-137806000D01*
X142113000Y-137647250D01*
X142113000Y-136398000D01*
X140863750Y-136398000D01*
X140705000Y-136556750D01*
X140701928Y-137171000D01*
X139547767Y-137171000D01*
X139663299Y-136998095D01*
X139779011Y-136718743D01*
X139838000Y-136422184D01*
X139838000Y-136119816D01*
X139779011Y-135823257D01*
X139663299Y-135543905D01*
X139547768Y-135371000D01*
X140701928Y-135371000D01*
X140705000Y-135985250D01*
X140863750Y-136144000D01*
X142113000Y-136144000D01*
X142113000Y-134894750D01*
X142367000Y-134894750D01*
X142367000Y-136144000D01*
X142387000Y-136144000D01*
X142387000Y-136398000D01*
X142367000Y-136398000D01*
X142367000Y-137647250D01*
X142525750Y-137806000D01*
X143140000Y-137809072D01*
X143264482Y-137796812D01*
X143384180Y-137760502D01*
X143494494Y-137701537D01*
X143591185Y-137622185D01*
X143670537Y-137525494D01*
X143729502Y-137415180D01*
X143735056Y-137396873D01*
X143801495Y-137463312D01*
X144052905Y-137631299D01*
X144332257Y-137747011D01*
X144628816Y-137806000D01*
X144931184Y-137806000D01*
X145227743Y-137747011D01*
X145507095Y-137631299D01*
X145758505Y-137463312D01*
X145972312Y-137249505D01*
X146024767Y-137171000D01*
X147178928Y-137171000D01*
X147191188Y-137295482D01*
X147227498Y-137415180D01*
X147286463Y-137525494D01*
X147365815Y-137622185D01*
X147462506Y-137701537D01*
X147572820Y-137760502D01*
X147692518Y-137796812D01*
X147817000Y-137809072D01*
X148431250Y-137806000D01*
X148590000Y-137647250D01*
X148590000Y-136398000D01*
X147340750Y-136398000D01*
X147182000Y-136556750D01*
X147178928Y-137171000D01*
X146024767Y-137171000D01*
X146140299Y-136998095D01*
X146256011Y-136718743D01*
X146315000Y-136422184D01*
X146315000Y-136119816D01*
X146256011Y-135823257D01*
X146140299Y-135543905D01*
X146024768Y-135371000D01*
X147178928Y-135371000D01*
X147182000Y-135985250D01*
X147340750Y-136144000D01*
X148590000Y-136144000D01*
X148590000Y-134894750D01*
X148431250Y-134736000D01*
X147817000Y-134732928D01*
X147692518Y-134745188D01*
X147572820Y-134781498D01*
X147462506Y-134840463D01*
X147365815Y-134919815D01*
X147286463Y-135016506D01*
X147227498Y-135126820D01*
X147191188Y-135246518D01*
X147178928Y-135371000D01*
X146024768Y-135371000D01*
X145972312Y-135292495D01*
X145758505Y-135078688D01*
X145507095Y-134910701D01*
X145227743Y-134794989D01*
X144931184Y-134736000D01*
X144628816Y-134736000D01*
X144332257Y-134794989D01*
X144052905Y-134910701D01*
X143801495Y-135078688D01*
X143735056Y-135145127D01*
X143729502Y-135126820D01*
X143670537Y-135016506D01*
X143591185Y-134919815D01*
X143494494Y-134840463D01*
X143384180Y-134781498D01*
X143264482Y-134745188D01*
X143140000Y-134732928D01*
X142525750Y-134736000D01*
X142367000Y-134894750D01*
X142113000Y-134894750D01*
X141954250Y-134736000D01*
X141340000Y-134732928D01*
X141215518Y-134745188D01*
X141095820Y-134781498D01*
X140985506Y-134840463D01*
X140888815Y-134919815D01*
X140809463Y-135016506D01*
X140750498Y-135126820D01*
X140714188Y-135246518D01*
X140701928Y-135371000D01*
X139547768Y-135371000D01*
X139495312Y-135292495D01*
X139281505Y-135078688D01*
X139030095Y-134910701D01*
X138750743Y-134794989D01*
X138454184Y-134736000D01*
X138151816Y-134736000D01*
X137855257Y-134794989D01*
X137575905Y-134910701D01*
X137324495Y-135078688D01*
X137258056Y-135145127D01*
X137252502Y-135126820D01*
X137193537Y-135016506D01*
X137114185Y-134919815D01*
X137017494Y-134840463D01*
X136907180Y-134781498D01*
X136787482Y-134745188D01*
X136663000Y-134732928D01*
X136048750Y-134736000D01*
X135890000Y-134894750D01*
X135636000Y-134894750D01*
X135477250Y-134736000D01*
X134863000Y-134732928D01*
X134738518Y-134745188D01*
X134618820Y-134781498D01*
X134508506Y-134840463D01*
X134411815Y-134919815D01*
X134332463Y-135016506D01*
X134273498Y-135126820D01*
X134237188Y-135246518D01*
X134224928Y-135371000D01*
X133070768Y-135371000D01*
X133018312Y-135292495D01*
X132804505Y-135078688D01*
X132553095Y-134910701D01*
X132273743Y-134794989D01*
X131977184Y-134736000D01*
X131674816Y-134736000D01*
X131378257Y-134794989D01*
X131098905Y-134910701D01*
X130847495Y-135078688D01*
X130781056Y-135145127D01*
X130775502Y-135126820D01*
X130716537Y-135016506D01*
X130637185Y-134919815D01*
X130540494Y-134840463D01*
X130430180Y-134781498D01*
X130310482Y-134745188D01*
X130186000Y-134732928D01*
X129571750Y-134736000D01*
X129413000Y-134894750D01*
X129159000Y-134894750D01*
X129000250Y-134736000D01*
X128386000Y-134732928D01*
X128261518Y-134745188D01*
X128141820Y-134781498D01*
X128031506Y-134840463D01*
X127934815Y-134919815D01*
X127855463Y-135016506D01*
X127796498Y-135126820D01*
X127760188Y-135246518D01*
X127747928Y-135371000D01*
X110769000Y-135371000D01*
X110769000Y-131075000D01*
X127747928Y-131075000D01*
X127760188Y-131199482D01*
X127796498Y-131319180D01*
X127855463Y-131429494D01*
X127934815Y-131526185D01*
X128031506Y-131605537D01*
X128141820Y-131664502D01*
X128261518Y-131700812D01*
X128386000Y-131713072D01*
X129000250Y-131710000D01*
X129159000Y-131551250D01*
X129159000Y-130302000D01*
X127909750Y-130302000D01*
X127751000Y-130460750D01*
X127747928Y-131075000D01*
X110769000Y-131075000D01*
X110769000Y-129275000D01*
X127747928Y-129275000D01*
X127751000Y-129889250D01*
X127909750Y-130048000D01*
X129159000Y-130048000D01*
X129159000Y-128798750D01*
X129413000Y-128798750D01*
X129413000Y-130048000D01*
X129433000Y-130048000D01*
X129433000Y-130302000D01*
X129413000Y-130302000D01*
X129413000Y-131551250D01*
X129571750Y-131710000D01*
X130186000Y-131713072D01*
X130310482Y-131700812D01*
X130430180Y-131664502D01*
X130540494Y-131605537D01*
X130637185Y-131526185D01*
X130716537Y-131429494D01*
X130775502Y-131319180D01*
X130781056Y-131300873D01*
X130847495Y-131367312D01*
X131098905Y-131535299D01*
X131378257Y-131651011D01*
X131674816Y-131710000D01*
X131977184Y-131710000D01*
X132273743Y-131651011D01*
X132553095Y-131535299D01*
X132804505Y-131367312D01*
X133018312Y-131153505D01*
X133070767Y-131075000D01*
X134224928Y-131075000D01*
X134237188Y-131199482D01*
X134273498Y-131319180D01*
X134332463Y-131429494D01*
X134411815Y-131526185D01*
X134508506Y-131605537D01*
X134618820Y-131664502D01*
X134738518Y-131700812D01*
X134863000Y-131713072D01*
X135477250Y-131710000D01*
X135636000Y-131551250D01*
X135636000Y-130302000D01*
X134386750Y-130302000D01*
X134228000Y-130460750D01*
X134224928Y-131075000D01*
X133070767Y-131075000D01*
X133186299Y-130902095D01*
X133302011Y-130622743D01*
X133361000Y-130326184D01*
X133361000Y-130023816D01*
X133302011Y-129727257D01*
X133186299Y-129447905D01*
X133070768Y-129275000D01*
X134224928Y-129275000D01*
X134228000Y-129889250D01*
X134386750Y-130048000D01*
X135636000Y-130048000D01*
X135636000Y-128798750D01*
X135890000Y-128798750D01*
X135890000Y-130048000D01*
X135910000Y-130048000D01*
X135910000Y-130302000D01*
X135890000Y-130302000D01*
X135890000Y-131551250D01*
X136048750Y-131710000D01*
X136663000Y-131713072D01*
X136787482Y-131700812D01*
X136907180Y-131664502D01*
X137017494Y-131605537D01*
X137114185Y-131526185D01*
X137193537Y-131429494D01*
X137252502Y-131319180D01*
X137258056Y-131300873D01*
X137324495Y-131367312D01*
X137575905Y-131535299D01*
X137855257Y-131651011D01*
X138151816Y-131710000D01*
X138454184Y-131710000D01*
X138750743Y-131651011D01*
X139030095Y-131535299D01*
X139281505Y-131367312D01*
X139495312Y-131153505D01*
X139547767Y-131075000D01*
X140701928Y-131075000D01*
X140714188Y-131199482D01*
X140750498Y-131319180D01*
X140809463Y-131429494D01*
X140888815Y-131526185D01*
X140985506Y-131605537D01*
X141095820Y-131664502D01*
X141215518Y-131700812D01*
X141340000Y-131713072D01*
X141954250Y-131710000D01*
X142113000Y-131551250D01*
X142113000Y-130302000D01*
X140863750Y-130302000D01*
X140705000Y-130460750D01*
X140701928Y-131075000D01*
X139547767Y-131075000D01*
X139663299Y-130902095D01*
X139779011Y-130622743D01*
X139838000Y-130326184D01*
X139838000Y-130023816D01*
X139779011Y-129727257D01*
X139663299Y-129447905D01*
X139547768Y-129275000D01*
X140701928Y-129275000D01*
X140705000Y-129889250D01*
X140863750Y-130048000D01*
X142113000Y-130048000D01*
X142113000Y-128798750D01*
X142367000Y-128798750D01*
X142367000Y-130048000D01*
X142387000Y-130048000D01*
X142387000Y-130302000D01*
X142367000Y-130302000D01*
X142367000Y-131551250D01*
X142525750Y-131710000D01*
X143140000Y-131713072D01*
X143264482Y-131700812D01*
X143384180Y-131664502D01*
X143494494Y-131605537D01*
X143591185Y-131526185D01*
X143670537Y-131429494D01*
X143729502Y-131319180D01*
X143735056Y-131300873D01*
X143801495Y-131367312D01*
X144052905Y-131535299D01*
X144332257Y-131651011D01*
X144628816Y-131710000D01*
X144931184Y-131710000D01*
X145227743Y-131651011D01*
X145507095Y-131535299D01*
X145758505Y-131367312D01*
X145972312Y-131153505D01*
X146024767Y-131075000D01*
X147178928Y-131075000D01*
X147191188Y-131199482D01*
X147227498Y-131319180D01*
X147286463Y-131429494D01*
X147365815Y-131526185D01*
X147462506Y-131605537D01*
X147572820Y-131664502D01*
X147692518Y-131700812D01*
X147817000Y-131713072D01*
X148431250Y-131710000D01*
X148590000Y-131551250D01*
X148590000Y-130302000D01*
X147340750Y-130302000D01*
X147182000Y-130460750D01*
X147178928Y-131075000D01*
X146024767Y-131075000D01*
X146140299Y-130902095D01*
X146256011Y-130622743D01*
X146315000Y-130326184D01*
X146315000Y-130023816D01*
X146256011Y-129727257D01*
X146140299Y-129447905D01*
X146024768Y-129275000D01*
X147178928Y-129275000D01*
X147182000Y-129889250D01*
X147340750Y-130048000D01*
X148590000Y-130048000D01*
X148590000Y-128798750D01*
X148431250Y-128640000D01*
X147817000Y-128636928D01*
X147692518Y-128649188D01*
X147572820Y-128685498D01*
X147462506Y-128744463D01*
X147365815Y-128823815D01*
X147286463Y-128920506D01*
X147227498Y-129030820D01*
X147191188Y-129150518D01*
X147178928Y-129275000D01*
X146024768Y-129275000D01*
X145972312Y-129196495D01*
X145758505Y-128982688D01*
X145507095Y-128814701D01*
X145227743Y-128698989D01*
X144931184Y-128640000D01*
X144628816Y-128640000D01*
X144332257Y-128698989D01*
X144052905Y-128814701D01*
X143801495Y-128982688D01*
X143735056Y-129049127D01*
X143729502Y-129030820D01*
X143670537Y-128920506D01*
X143591185Y-128823815D01*
X143494494Y-128744463D01*
X143384180Y-128685498D01*
X143264482Y-128649188D01*
X143140000Y-128636928D01*
X142525750Y-128640000D01*
X142367000Y-128798750D01*
X142113000Y-128798750D01*
X141954250Y-128640000D01*
X141340000Y-128636928D01*
X141215518Y-128649188D01*
X141095820Y-128685498D01*
X140985506Y-128744463D01*
X140888815Y-128823815D01*
X140809463Y-128920506D01*
X140750498Y-129030820D01*
X140714188Y-129150518D01*
X140701928Y-129275000D01*
X139547768Y-129275000D01*
X139495312Y-129196495D01*
X139281505Y-128982688D01*
X139030095Y-128814701D01*
X138750743Y-128698989D01*
X138454184Y-128640000D01*
X138151816Y-128640000D01*
X137855257Y-128698989D01*
X137575905Y-128814701D01*
X137324495Y-128982688D01*
X137258056Y-129049127D01*
X137252502Y-129030820D01*
X137193537Y-128920506D01*
X137114185Y-128823815D01*
X137017494Y-128744463D01*
X136907180Y-128685498D01*
X136787482Y-128649188D01*
X136663000Y-128636928D01*
X136048750Y-128640000D01*
X135890000Y-128798750D01*
X135636000Y-128798750D01*
X135477250Y-128640000D01*
X134863000Y-128636928D01*
X134738518Y-128649188D01*
X134618820Y-128685498D01*
X134508506Y-128744463D01*
X134411815Y-128823815D01*
X134332463Y-128920506D01*
X134273498Y-129030820D01*
X134237188Y-129150518D01*
X134224928Y-129275000D01*
X133070768Y-129275000D01*
X133018312Y-129196495D01*
X132804505Y-128982688D01*
X132553095Y-128814701D01*
X132273743Y-128698989D01*
X131977184Y-128640000D01*
X131674816Y-128640000D01*
X131378257Y-128698989D01*
X131098905Y-128814701D01*
X130847495Y-128982688D01*
X130781056Y-129049127D01*
X130775502Y-129030820D01*
X130716537Y-128920506D01*
X130637185Y-128823815D01*
X130540494Y-128744463D01*
X130430180Y-128685498D01*
X130310482Y-128649188D01*
X130186000Y-128636928D01*
X129571750Y-128640000D01*
X129413000Y-128798750D01*
X129159000Y-128798750D01*
X129000250Y-128640000D01*
X128386000Y-128636928D01*
X128261518Y-128649188D01*
X128141820Y-128685498D01*
X128031506Y-128744463D01*
X127934815Y-128823815D01*
X127855463Y-128920506D01*
X127796498Y-129030820D01*
X127760188Y-129150518D01*
X127747928Y-129275000D01*
X110769000Y-129275000D01*
X110769000Y-124979000D01*
X127747928Y-124979000D01*
X127760188Y-125103482D01*
X127796498Y-125223180D01*
X127855463Y-125333494D01*
X127934815Y-125430185D01*
X128031506Y-125509537D01*
X128141820Y-125568502D01*
X128261518Y-125604812D01*
X128386000Y-125617072D01*
X129000250Y-125614000D01*
X129159000Y-125455250D01*
X129159000Y-124206000D01*
X127909750Y-124206000D01*
X127751000Y-124364750D01*
X127747928Y-124979000D01*
X110769000Y-124979000D01*
X110769000Y-123179000D01*
X127747928Y-123179000D01*
X127751000Y-123793250D01*
X127909750Y-123952000D01*
X129159000Y-123952000D01*
X129159000Y-122702750D01*
X129413000Y-122702750D01*
X129413000Y-123952000D01*
X129433000Y-123952000D01*
X129433000Y-124206000D01*
X129413000Y-124206000D01*
X129413000Y-125455250D01*
X129571750Y-125614000D01*
X130186000Y-125617072D01*
X130310482Y-125604812D01*
X130430180Y-125568502D01*
X130540494Y-125509537D01*
X130637185Y-125430185D01*
X130716537Y-125333494D01*
X130775502Y-125223180D01*
X130781056Y-125204873D01*
X130847495Y-125271312D01*
X131098905Y-125439299D01*
X131378257Y-125555011D01*
X131674816Y-125614000D01*
X131977184Y-125614000D01*
X132273743Y-125555011D01*
X132553095Y-125439299D01*
X132804505Y-125271312D01*
X133018312Y-125057505D01*
X133070767Y-124979000D01*
X134224928Y-124979000D01*
X134237188Y-125103482D01*
X134273498Y-125223180D01*
X134332463Y-125333494D01*
X134411815Y-125430185D01*
X134508506Y-125509537D01*
X134618820Y-125568502D01*
X134738518Y-125604812D01*
X134863000Y-125617072D01*
X135477250Y-125614000D01*
X135636000Y-125455250D01*
X135636000Y-124206000D01*
X134386750Y-124206000D01*
X134228000Y-124364750D01*
X134224928Y-124979000D01*
X133070767Y-124979000D01*
X133186299Y-124806095D01*
X133302011Y-124526743D01*
X133361000Y-124230184D01*
X133361000Y-123927816D01*
X133302011Y-123631257D01*
X133186299Y-123351905D01*
X133070768Y-123179000D01*
X134224928Y-123179000D01*
X134228000Y-123793250D01*
X134386750Y-123952000D01*
X135636000Y-123952000D01*
X135636000Y-122702750D01*
X135890000Y-122702750D01*
X135890000Y-123952000D01*
X135910000Y-123952000D01*
X135910000Y-124206000D01*
X135890000Y-124206000D01*
X135890000Y-125455250D01*
X136048750Y-125614000D01*
X136663000Y-125617072D01*
X136787482Y-125604812D01*
X136907180Y-125568502D01*
X137017494Y-125509537D01*
X137114185Y-125430185D01*
X137193537Y-125333494D01*
X137252502Y-125223180D01*
X137258056Y-125204873D01*
X137324495Y-125271312D01*
X137575905Y-125439299D01*
X137855257Y-125555011D01*
X138151816Y-125614000D01*
X138454184Y-125614000D01*
X138750743Y-125555011D01*
X139030095Y-125439299D01*
X139281505Y-125271312D01*
X139495312Y-125057505D01*
X139547767Y-124979000D01*
X140701928Y-124979000D01*
X140714188Y-125103482D01*
X140750498Y-125223180D01*
X140809463Y-125333494D01*
X140888815Y-125430185D01*
X140985506Y-125509537D01*
X141095820Y-125568502D01*
X141215518Y-125604812D01*
X141340000Y-125617072D01*
X141954250Y-125614000D01*
X142113000Y-125455250D01*
X142113000Y-124206000D01*
X140863750Y-124206000D01*
X140705000Y-124364750D01*
X140701928Y-124979000D01*
X139547767Y-124979000D01*
X139663299Y-124806095D01*
X139779011Y-124526743D01*
X139838000Y-124230184D01*
X139838000Y-123927816D01*
X139779011Y-123631257D01*
X139663299Y-123351905D01*
X139547768Y-123179000D01*
X140701928Y-123179000D01*
X140705000Y-123793250D01*
X140863750Y-123952000D01*
X142113000Y-123952000D01*
X142113000Y-122702750D01*
X142367000Y-122702750D01*
X142367000Y-123952000D01*
X142387000Y-123952000D01*
X142387000Y-124206000D01*
X142367000Y-124206000D01*
X142367000Y-125455250D01*
X142525750Y-125614000D01*
X143140000Y-125617072D01*
X143264482Y-125604812D01*
X143384180Y-125568502D01*
X143494494Y-125509537D01*
X143591185Y-125430185D01*
X143670537Y-125333494D01*
X143729502Y-125223180D01*
X143735056Y-125204873D01*
X143801495Y-125271312D01*
X144052905Y-125439299D01*
X144332257Y-125555011D01*
X144628816Y-125614000D01*
X144931184Y-125614000D01*
X145227743Y-125555011D01*
X145507095Y-125439299D01*
X145758505Y-125271312D01*
X145972312Y-125057505D01*
X146024767Y-124979000D01*
X147178928Y-124979000D01*
X147191188Y-125103482D01*
X147227498Y-125223180D01*
X147286463Y-125333494D01*
X147365815Y-125430185D01*
X147462506Y-125509537D01*
X147572820Y-125568502D01*
X147692518Y-125604812D01*
X147817000Y-125617072D01*
X148431250Y-125614000D01*
X148590000Y-125455250D01*
X148590000Y-124206000D01*
X147340750Y-124206000D01*
X147182000Y-124364750D01*
X147178928Y-124979000D01*
X146024767Y-124979000D01*
X146140299Y-124806095D01*
X146256011Y-124526743D01*
X146315000Y-124230184D01*
X146315000Y-123927816D01*
X146256011Y-123631257D01*
X146140299Y-123351905D01*
X146024768Y-123179000D01*
X147178928Y-123179000D01*
X147182000Y-123793250D01*
X147340750Y-123952000D01*
X148590000Y-123952000D01*
X148590000Y-122702750D01*
X148431250Y-122544000D01*
X147817000Y-122540928D01*
X147692518Y-122553188D01*
X147572820Y-122589498D01*
X147462506Y-122648463D01*
X147365815Y-122727815D01*
X147286463Y-122824506D01*
X147227498Y-122934820D01*
X147191188Y-123054518D01*
X147178928Y-123179000D01*
X146024768Y-123179000D01*
X145972312Y-123100495D01*
X145758505Y-122886688D01*
X145507095Y-122718701D01*
X145227743Y-122602989D01*
X144931184Y-122544000D01*
X144628816Y-122544000D01*
X144332257Y-122602989D01*
X144052905Y-122718701D01*
X143801495Y-122886688D01*
X143735056Y-122953127D01*
X143729502Y-122934820D01*
X143670537Y-122824506D01*
X143591185Y-122727815D01*
X143494494Y-122648463D01*
X143384180Y-122589498D01*
X143264482Y-122553188D01*
X143140000Y-122540928D01*
X142525750Y-122544000D01*
X142367000Y-122702750D01*
X142113000Y-122702750D01*
X141954250Y-122544000D01*
X141340000Y-122540928D01*
X141215518Y-122553188D01*
X141095820Y-122589498D01*
X140985506Y-122648463D01*
X140888815Y-122727815D01*
X140809463Y-122824506D01*
X140750498Y-122934820D01*
X140714188Y-123054518D01*
X140701928Y-123179000D01*
X139547768Y-123179000D01*
X139495312Y-123100495D01*
X139281505Y-122886688D01*
X139030095Y-122718701D01*
X138750743Y-122602989D01*
X138454184Y-122544000D01*
X138151816Y-122544000D01*
X137855257Y-122602989D01*
X137575905Y-122718701D01*
X137324495Y-122886688D01*
X137258056Y-122953127D01*
X137252502Y-122934820D01*
X137193537Y-122824506D01*
X137114185Y-122727815D01*
X137017494Y-122648463D01*
X136907180Y-122589498D01*
X136787482Y-122553188D01*
X136663000Y-122540928D01*
X136048750Y-122544000D01*
X135890000Y-122702750D01*
X135636000Y-122702750D01*
X135477250Y-122544000D01*
X134863000Y-122540928D01*
X134738518Y-122553188D01*
X134618820Y-122589498D01*
X134508506Y-122648463D01*
X134411815Y-122727815D01*
X134332463Y-122824506D01*
X134273498Y-122934820D01*
X134237188Y-123054518D01*
X134224928Y-123179000D01*
X133070768Y-123179000D01*
X133018312Y-123100495D01*
X132804505Y-122886688D01*
X132553095Y-122718701D01*
X132273743Y-122602989D01*
X131977184Y-122544000D01*
X131674816Y-122544000D01*
X131378257Y-122602989D01*
X131098905Y-122718701D01*
X130847495Y-122886688D01*
X130781056Y-122953127D01*
X130775502Y-122934820D01*
X130716537Y-122824506D01*
X130637185Y-122727815D01*
X130540494Y-122648463D01*
X130430180Y-122589498D01*
X130310482Y-122553188D01*
X130186000Y-122540928D01*
X129571750Y-122544000D01*
X129413000Y-122702750D01*
X129159000Y-122702750D01*
X129000250Y-122544000D01*
X128386000Y-122540928D01*
X128261518Y-122553188D01*
X128141820Y-122589498D01*
X128031506Y-122648463D01*
X127934815Y-122727815D01*
X127855463Y-122824506D01*
X127796498Y-122934820D01*
X127760188Y-123054518D01*
X127747928Y-123179000D01*
X110769000Y-123179000D01*
X110769000Y-115613000D01*
X116371928Y-115613000D01*
X116371928Y-117813000D01*
X116384188Y-117937482D01*
X116420498Y-118057180D01*
X116479463Y-118167494D01*
X116558815Y-118264185D01*
X116655506Y-118343537D01*
X116765820Y-118402502D01*
X116885518Y-118438812D01*
X117010000Y-118451072D01*
X119210000Y-118451072D01*
X119334482Y-118438812D01*
X119454180Y-118402502D01*
X119564494Y-118343537D01*
X119661185Y-118264185D01*
X119733331Y-118176274D01*
X119778147Y-118401574D01*
X119886320Y-118662727D01*
X120043363Y-118897759D01*
X120243241Y-119097637D01*
X120478273Y-119254680D01*
X120739426Y-119362853D01*
X121016665Y-119418000D01*
X121299335Y-119418000D01*
X121576574Y-119362853D01*
X121837727Y-119254680D01*
X122072759Y-119097637D01*
X122272637Y-118897759D01*
X122429680Y-118662727D01*
X122537853Y-118401574D01*
X122593000Y-118124335D01*
X122593000Y-117841665D01*
X122557978Y-117665599D01*
X127378022Y-117665599D01*
X127343000Y-117841665D01*
X127343000Y-118124335D01*
X127398147Y-118401574D01*
X127506320Y-118662727D01*
X127663363Y-118897759D01*
X127863241Y-119097637D01*
X128098273Y-119254680D01*
X128359426Y-119362853D01*
X128636665Y-119418000D01*
X128919335Y-119418000D01*
X129196574Y-119362853D01*
X129457727Y-119254680D01*
X129692759Y-119097637D01*
X129892637Y-118897759D01*
X130048000Y-118665241D01*
X130203363Y-118897759D01*
X130403241Y-119097637D01*
X130638273Y-119254680D01*
X130899426Y-119362853D01*
X131176665Y-119418000D01*
X131459335Y-119418000D01*
X131736574Y-119362853D01*
X131997727Y-119254680D01*
X132232759Y-119097637D01*
X132432637Y-118897759D01*
X132589680Y-118662727D01*
X132697853Y-118401574D01*
X132753000Y-118124335D01*
X132753000Y-117841665D01*
X132717978Y-117665599D01*
X137538022Y-117665599D01*
X137503000Y-117841665D01*
X137503000Y-118124335D01*
X137558147Y-118401574D01*
X137666320Y-118662727D01*
X137823363Y-118897759D01*
X138023241Y-119097637D01*
X138258273Y-119254680D01*
X138519426Y-119362853D01*
X138796665Y-119418000D01*
X139079335Y-119418000D01*
X139184624Y-119397056D01*
X139468507Y-119680940D01*
X139494360Y-119712442D01*
X139558497Y-119765078D01*
X139620058Y-119815600D01*
X139763467Y-119892254D01*
X139919075Y-119939457D01*
X140040348Y-119951401D01*
X140040350Y-119951401D01*
X140080900Y-119955395D01*
X140121451Y-119951401D01*
X147914549Y-119951401D01*
X147955099Y-119955395D01*
X147995649Y-119951401D01*
X147995652Y-119951401D01*
X148116925Y-119939457D01*
X148272533Y-119892254D01*
X148415941Y-119815600D01*
X148541640Y-119712442D01*
X148567497Y-119680935D01*
X148851376Y-119397056D01*
X148956665Y-119418000D01*
X149170999Y-119418000D01*
X149146346Y-119499273D01*
X149130407Y-119661099D01*
X149134402Y-119701660D01*
X149134402Y-122543342D01*
X149002750Y-122544000D01*
X148844000Y-122702750D01*
X148844000Y-123952000D01*
X148864000Y-123952000D01*
X148864000Y-124206000D01*
X148844000Y-124206000D01*
X148844000Y-125455250D01*
X149002750Y-125614000D01*
X149134402Y-125614658D01*
X149134402Y-128639342D01*
X149002750Y-128640000D01*
X148844000Y-128798750D01*
X148844000Y-130048000D01*
X148864000Y-130048000D01*
X148864000Y-130302000D01*
X148844000Y-130302000D01*
X148844000Y-131551250D01*
X149002750Y-131710000D01*
X149134401Y-131710658D01*
X149134401Y-134735342D01*
X149002750Y-134736000D01*
X148844000Y-134894750D01*
X148844000Y-136144000D01*
X148864000Y-136144000D01*
X148864000Y-136398000D01*
X148844000Y-136398000D01*
X148844000Y-137647250D01*
X149002750Y-137806000D01*
X149134401Y-137806658D01*
X149134401Y-140831342D01*
X149002750Y-140832000D01*
X148844000Y-140990750D01*
X148844000Y-142240000D01*
X148864000Y-142240000D01*
X148864000Y-142494000D01*
X148844000Y-142494000D01*
X148844000Y-143743250D01*
X149002750Y-143902000D01*
X149617000Y-143905072D01*
X149741482Y-143892812D01*
X149861180Y-143856502D01*
X149971494Y-143797537D01*
X150068185Y-143718185D01*
X150147537Y-143621494D01*
X150206502Y-143511180D01*
X150212056Y-143492873D01*
X150278495Y-143559312D01*
X150529905Y-143727299D01*
X150809257Y-143843011D01*
X151105816Y-143902000D01*
X151408184Y-143902000D01*
X151704743Y-143843011D01*
X151984095Y-143727299D01*
X152235505Y-143559312D01*
X152449312Y-143345505D01*
X152617299Y-143094095D01*
X152733011Y-142814743D01*
X152792000Y-142518184D01*
X152792000Y-142215816D01*
X152733011Y-141919257D01*
X152617299Y-141639905D01*
X152449312Y-141388495D01*
X152387512Y-141326695D01*
X161881520Y-141326695D01*
X161950822Y-142078938D01*
X162165548Y-142803208D01*
X162517445Y-143471670D01*
X162544452Y-143512088D01*
X163034119Y-143872276D01*
X165555395Y-141351000D01*
X165914605Y-141351000D01*
X168435881Y-143872276D01*
X168925548Y-143512088D01*
X169285849Y-142848118D01*
X169509694Y-142126615D01*
X169588480Y-141375305D01*
X169519178Y-140623062D01*
X169304452Y-139898792D01*
X168952555Y-139230330D01*
X168925548Y-139189912D01*
X168435881Y-138829724D01*
X165914605Y-141351000D01*
X165555395Y-141351000D01*
X163034119Y-138829724D01*
X162544452Y-139189912D01*
X162184151Y-139853882D01*
X161960306Y-140575385D01*
X161881520Y-141326695D01*
X152387512Y-141326695D01*
X152235505Y-141174688D01*
X151984095Y-141006701D01*
X151704743Y-140890989D01*
X151408184Y-140832000D01*
X151105816Y-140832000D01*
X150925333Y-140867900D01*
X150785401Y-140727969D01*
X150785401Y-138650119D01*
X163213724Y-138650119D01*
X165735000Y-141171395D01*
X168256276Y-138650119D01*
X167896088Y-138160452D01*
X167232118Y-137800151D01*
X166510615Y-137576306D01*
X165759305Y-137497520D01*
X165007062Y-137566822D01*
X164282792Y-137781548D01*
X163614330Y-138133445D01*
X163573912Y-138160452D01*
X163213724Y-138650119D01*
X150785401Y-138650119D01*
X150785401Y-137737129D01*
X150809257Y-137747011D01*
X151105816Y-137806000D01*
X151408184Y-137806000D01*
X151704743Y-137747011D01*
X151984095Y-137631299D01*
X152235505Y-137463312D01*
X152449312Y-137249505D01*
X152617299Y-136998095D01*
X152733011Y-136718743D01*
X152792000Y-136422184D01*
X152792000Y-136119816D01*
X152756100Y-135939333D01*
X153335940Y-135359493D01*
X153367442Y-135333640D01*
X153438941Y-135246518D01*
X153470599Y-135207943D01*
X153475549Y-135198682D01*
X153547254Y-135064533D01*
X153594457Y-134908925D01*
X153606401Y-134787652D01*
X153606401Y-134787643D01*
X153610394Y-134747100D01*
X153606401Y-134706557D01*
X153606401Y-117841665D01*
X157823000Y-117841665D01*
X157823000Y-118124335D01*
X157878147Y-118401574D01*
X157986320Y-118662727D01*
X158143363Y-118897759D01*
X158343241Y-119097637D01*
X158578273Y-119254680D01*
X158839426Y-119362853D01*
X159116665Y-119418000D01*
X159399335Y-119418000D01*
X159676574Y-119362853D01*
X159937727Y-119254680D01*
X160172759Y-119097637D01*
X160372637Y-118897759D01*
X160529680Y-118662727D01*
X160637853Y-118401574D01*
X160693000Y-118124335D01*
X160693000Y-117841665D01*
X160637853Y-117564426D01*
X160600812Y-117475000D01*
X162107052Y-117475000D01*
X162135277Y-117761578D01*
X162218869Y-118037142D01*
X162354614Y-118291104D01*
X162537297Y-118513703D01*
X162759896Y-118696386D01*
X163013858Y-118832131D01*
X163289422Y-118915723D01*
X163504185Y-118936875D01*
X164917815Y-118936875D01*
X165132578Y-118915723D01*
X165408142Y-118832131D01*
X165662104Y-118696386D01*
X165884703Y-118513703D01*
X166067386Y-118291104D01*
X166203131Y-118037142D01*
X166286723Y-117761578D01*
X166314948Y-117475000D01*
X166286723Y-117188422D01*
X166203131Y-116912858D01*
X166067386Y-116658896D01*
X165884703Y-116436297D01*
X165662104Y-116253614D01*
X165408142Y-116117869D01*
X165132578Y-116034277D01*
X164917815Y-116013125D01*
X163504185Y-116013125D01*
X163289422Y-116034277D01*
X163013858Y-116117869D01*
X162759896Y-116253614D01*
X162537297Y-116436297D01*
X162354614Y-116658896D01*
X162218869Y-116912858D01*
X162135277Y-117188422D01*
X162107052Y-117475000D01*
X160600812Y-117475000D01*
X160529680Y-117303273D01*
X160372637Y-117068241D01*
X160172759Y-116868363D01*
X159937727Y-116711320D01*
X159676574Y-116603147D01*
X159399335Y-116548000D01*
X159116665Y-116548000D01*
X158839426Y-116603147D01*
X158578273Y-116711320D01*
X158343241Y-116868363D01*
X158143363Y-117068241D01*
X157986320Y-117303273D01*
X157878147Y-117564426D01*
X157823000Y-117841665D01*
X153606401Y-117841665D01*
X153606401Y-115737451D01*
X153610395Y-115696900D01*
X153603676Y-115628684D01*
X153594457Y-115535075D01*
X153547254Y-115379467D01*
X153541563Y-115368820D01*
X153470600Y-115236058D01*
X153393292Y-115141859D01*
X153367442Y-115110360D01*
X153335941Y-115084509D01*
X153052056Y-114800624D01*
X153073000Y-114695335D01*
X153073000Y-114412665D01*
X153017853Y-114135426D01*
X152909680Y-113874273D01*
X152854039Y-113791000D01*
X158041961Y-113791000D01*
X157986320Y-113874273D01*
X157878147Y-114135426D01*
X157823000Y-114412665D01*
X157823000Y-114695335D01*
X157878147Y-114972574D01*
X157986320Y-115233727D01*
X158143363Y-115468759D01*
X158343241Y-115668637D01*
X158578273Y-115825680D01*
X158839426Y-115933853D01*
X159116665Y-115989000D01*
X159399335Y-115989000D01*
X159676574Y-115933853D01*
X159937727Y-115825680D01*
X160172759Y-115668637D01*
X160372637Y-115468759D01*
X160529680Y-115233727D01*
X160637853Y-114972574D01*
X160693000Y-114695335D01*
X160693000Y-114412665D01*
X160637853Y-114135426D01*
X160529680Y-113874273D01*
X160474039Y-113791000D01*
X162518665Y-113791000D01*
X162537297Y-113813703D01*
X162759896Y-113996386D01*
X163013858Y-114132131D01*
X163289422Y-114215723D01*
X163504185Y-114236875D01*
X164917815Y-114236875D01*
X165132578Y-114215723D01*
X165408142Y-114132131D01*
X165662104Y-113996386D01*
X165884703Y-113813703D01*
X166067386Y-113591104D01*
X166203131Y-113337142D01*
X166286723Y-113061578D01*
X166314948Y-112775000D01*
X166286723Y-112488422D01*
X166203131Y-112212858D01*
X166067386Y-111958896D01*
X165884703Y-111736297D01*
X165662104Y-111553614D01*
X165408142Y-111417869D01*
X165132578Y-111334277D01*
X164917815Y-111313125D01*
X163504185Y-111313125D01*
X163289422Y-111334277D01*
X163013858Y-111417869D01*
X162759896Y-111553614D01*
X162537297Y-111736297D01*
X162518665Y-111759000D01*
X160548621Y-111759000D01*
X160637853Y-111543574D01*
X160693000Y-111266335D01*
X160693000Y-110983665D01*
X160637853Y-110706426D01*
X160529680Y-110445273D01*
X160372637Y-110210241D01*
X160172759Y-110010363D01*
X159937727Y-109853320D01*
X159676574Y-109745147D01*
X159399335Y-109690000D01*
X159116665Y-109690000D01*
X158839426Y-109745147D01*
X158578273Y-109853320D01*
X158343241Y-110010363D01*
X158143363Y-110210241D01*
X157986320Y-110445273D01*
X157878147Y-110706426D01*
X157823000Y-110983665D01*
X157823000Y-111266335D01*
X157878147Y-111543574D01*
X157967379Y-111759000D01*
X152928621Y-111759000D01*
X153017853Y-111543574D01*
X153073000Y-111266335D01*
X153073000Y-110983665D01*
X153017853Y-110706426D01*
X152909680Y-110445273D01*
X152752637Y-110210241D01*
X152552759Y-110010363D01*
X152317727Y-109853320D01*
X152056574Y-109745147D01*
X151779335Y-109690000D01*
X151496665Y-109690000D01*
X151219426Y-109745147D01*
X150958273Y-109853320D01*
X150723241Y-110010363D01*
X150523363Y-110210241D01*
X150368000Y-110442759D01*
X150212637Y-110210241D01*
X150012759Y-110010363D01*
X149777727Y-109853320D01*
X149516574Y-109745147D01*
X149239335Y-109690000D01*
X148956665Y-109690000D01*
X148679426Y-109745147D01*
X148418273Y-109853320D01*
X148183241Y-110010363D01*
X147983363Y-110210241D01*
X147826320Y-110445273D01*
X147718147Y-110706426D01*
X147663000Y-110983665D01*
X147663000Y-111266335D01*
X147718147Y-111543574D01*
X147826320Y-111804727D01*
X147983363Y-112039759D01*
X148092665Y-112149061D01*
X144608127Y-115633599D01*
X142427797Y-115633599D01*
X142592637Y-115468759D01*
X142749680Y-115233727D01*
X142857853Y-114972574D01*
X142913000Y-114695335D01*
X142913000Y-114412665D01*
X142857853Y-114135426D01*
X142749680Y-113874273D01*
X142592637Y-113639241D01*
X142392759Y-113439363D01*
X142157727Y-113282320D01*
X141896574Y-113174147D01*
X141619335Y-113119000D01*
X141336665Y-113119000D01*
X141059426Y-113174147D01*
X140798273Y-113282320D01*
X140563241Y-113439363D01*
X140363363Y-113639241D01*
X140208000Y-113871759D01*
X140052637Y-113639241D01*
X139852759Y-113439363D01*
X139617727Y-113282320D01*
X139356574Y-113174147D01*
X139079335Y-113119000D01*
X138796665Y-113119000D01*
X138519426Y-113174147D01*
X138258273Y-113282320D01*
X138023241Y-113439363D01*
X137823363Y-113639241D01*
X137666320Y-113874273D01*
X137558147Y-114135426D01*
X137503000Y-114412665D01*
X137503000Y-114695335D01*
X137558147Y-114972574D01*
X137666320Y-115233727D01*
X137823363Y-115468759D01*
X137988203Y-115633599D01*
X132267797Y-115633599D01*
X132432637Y-115468759D01*
X132589680Y-115233727D01*
X132697853Y-114972574D01*
X132753000Y-114695335D01*
X132753000Y-114412665D01*
X132697853Y-114135426D01*
X132589680Y-113874273D01*
X132432637Y-113639241D01*
X132232759Y-113439363D01*
X131997727Y-113282320D01*
X131736574Y-113174147D01*
X131459335Y-113119000D01*
X131176665Y-113119000D01*
X130899426Y-113174147D01*
X130638273Y-113282320D01*
X130403241Y-113439363D01*
X130203363Y-113639241D01*
X130048000Y-113871759D01*
X129892637Y-113639241D01*
X129692759Y-113439363D01*
X129457727Y-113282320D01*
X129196574Y-113174147D01*
X128919335Y-113119000D01*
X128636665Y-113119000D01*
X128359426Y-113174147D01*
X128098273Y-113282320D01*
X127863241Y-113439363D01*
X127663363Y-113639241D01*
X127506320Y-113874273D01*
X127398147Y-114135426D01*
X127343000Y-114412665D01*
X127343000Y-114695335D01*
X127398147Y-114972574D01*
X127506320Y-115233727D01*
X127663363Y-115468759D01*
X127828203Y-115633599D01*
X122107797Y-115633599D01*
X122272637Y-115468759D01*
X122429680Y-115233727D01*
X122537853Y-114972574D01*
X122593000Y-114695335D01*
X122593000Y-114412665D01*
X122537853Y-114135426D01*
X122429680Y-113874273D01*
X122272637Y-113639241D01*
X122072759Y-113439363D01*
X121837727Y-113282320D01*
X121576574Y-113174147D01*
X121299335Y-113119000D01*
X121016665Y-113119000D01*
X120739426Y-113174147D01*
X120478273Y-113282320D01*
X120243241Y-113439363D01*
X120043363Y-113639241D01*
X119886320Y-113874273D01*
X119778147Y-114135426D01*
X119723000Y-114412665D01*
X119723000Y-114695335D01*
X119778147Y-114972574D01*
X119886320Y-115233727D01*
X120043363Y-115468759D01*
X120208203Y-115633599D01*
X119848072Y-115633599D01*
X119848072Y-115613000D01*
X119835812Y-115488518D01*
X119799502Y-115368820D01*
X119740537Y-115258506D01*
X119661185Y-115161815D01*
X119564494Y-115082463D01*
X119454180Y-115023498D01*
X119334482Y-114987188D01*
X119210000Y-114974928D01*
X117010000Y-114974928D01*
X116885518Y-114987188D01*
X116765820Y-115023498D01*
X116655506Y-115082463D01*
X116558815Y-115161815D01*
X116479463Y-115258506D01*
X116420498Y-115368820D01*
X116384188Y-115488518D01*
X116371928Y-115613000D01*
X110769000Y-115613000D01*
X110769000Y-110983665D01*
X119723000Y-110983665D01*
X119723000Y-111266335D01*
X119778147Y-111543574D01*
X119886320Y-111804727D01*
X120043363Y-112039759D01*
X120243241Y-112239637D01*
X120478273Y-112396680D01*
X120739426Y-112504853D01*
X121016665Y-112560000D01*
X121299335Y-112560000D01*
X121576574Y-112504853D01*
X121837727Y-112396680D01*
X122072759Y-112239637D01*
X122272637Y-112039759D01*
X122429680Y-111804727D01*
X122537853Y-111543574D01*
X122593000Y-111266335D01*
X122593000Y-110983665D01*
X127343000Y-110983665D01*
X127343000Y-111266335D01*
X127398147Y-111543574D01*
X127506320Y-111804727D01*
X127663363Y-112039759D01*
X127863241Y-112239637D01*
X128098273Y-112396680D01*
X128359426Y-112504853D01*
X128636665Y-112560000D01*
X128919335Y-112560000D01*
X129196574Y-112504853D01*
X129457727Y-112396680D01*
X129692759Y-112239637D01*
X129892637Y-112039759D01*
X130048000Y-111807241D01*
X130203363Y-112039759D01*
X130403241Y-112239637D01*
X130638273Y-112396680D01*
X130899426Y-112504853D01*
X131176665Y-112560000D01*
X131459335Y-112560000D01*
X131736574Y-112504853D01*
X131997727Y-112396680D01*
X132232759Y-112239637D01*
X132432637Y-112039759D01*
X132589680Y-111804727D01*
X132697853Y-111543574D01*
X132753000Y-111266335D01*
X132753000Y-110983665D01*
X137503000Y-110983665D01*
X137503000Y-111266335D01*
X137558147Y-111543574D01*
X137666320Y-111804727D01*
X137823363Y-112039759D01*
X138023241Y-112239637D01*
X138258273Y-112396680D01*
X138519426Y-112504853D01*
X138796665Y-112560000D01*
X139079335Y-112560000D01*
X139356574Y-112504853D01*
X139617727Y-112396680D01*
X139852759Y-112239637D01*
X140052637Y-112039759D01*
X140208000Y-111807241D01*
X140363363Y-112039759D01*
X140563241Y-112239637D01*
X140798273Y-112396680D01*
X141059426Y-112504853D01*
X141336665Y-112560000D01*
X141619335Y-112560000D01*
X141896574Y-112504853D01*
X142157727Y-112396680D01*
X142392759Y-112239637D01*
X142592637Y-112039759D01*
X142749680Y-111804727D01*
X142857853Y-111543574D01*
X142913000Y-111266335D01*
X142913000Y-110983665D01*
X142857853Y-110706426D01*
X142749680Y-110445273D01*
X142592637Y-110210241D01*
X142392759Y-110010363D01*
X142157727Y-109853320D01*
X141896574Y-109745147D01*
X141619335Y-109690000D01*
X141336665Y-109690000D01*
X141059426Y-109745147D01*
X140798273Y-109853320D01*
X140563241Y-110010363D01*
X140363363Y-110210241D01*
X140208000Y-110442759D01*
X140052637Y-110210241D01*
X139852759Y-110010363D01*
X139617727Y-109853320D01*
X139356574Y-109745147D01*
X139079335Y-109690000D01*
X138796665Y-109690000D01*
X138519426Y-109745147D01*
X138258273Y-109853320D01*
X138023241Y-110010363D01*
X137823363Y-110210241D01*
X137666320Y-110445273D01*
X137558147Y-110706426D01*
X137503000Y-110983665D01*
X132753000Y-110983665D01*
X132697853Y-110706426D01*
X132589680Y-110445273D01*
X132432637Y-110210241D01*
X132232759Y-110010363D01*
X131997727Y-109853320D01*
X131736574Y-109745147D01*
X131459335Y-109690000D01*
X131176665Y-109690000D01*
X130899426Y-109745147D01*
X130638273Y-109853320D01*
X130403241Y-110010363D01*
X130203363Y-110210241D01*
X130048000Y-110442759D01*
X129892637Y-110210241D01*
X129692759Y-110010363D01*
X129457727Y-109853320D01*
X129196574Y-109745147D01*
X128919335Y-109690000D01*
X128636665Y-109690000D01*
X128359426Y-109745147D01*
X128098273Y-109853320D01*
X127863241Y-110010363D01*
X127663363Y-110210241D01*
X127506320Y-110445273D01*
X127398147Y-110706426D01*
X127343000Y-110983665D01*
X122593000Y-110983665D01*
X122537853Y-110706426D01*
X122429680Y-110445273D01*
X122272637Y-110210241D01*
X122072759Y-110010363D01*
X121837727Y-109853320D01*
X121576574Y-109745147D01*
X121299335Y-109690000D01*
X121016665Y-109690000D01*
X120739426Y-109745147D01*
X120478273Y-109853320D01*
X120243241Y-110010363D01*
X120043363Y-110210241D01*
X119886320Y-110445273D01*
X119778147Y-110706426D01*
X119723000Y-110983665D01*
X110769000Y-110983665D01*
X110769000Y-108922117D01*
X116375000Y-108922117D01*
X116375000Y-109263883D01*
X116441675Y-109599081D01*
X116572463Y-109914831D01*
X116762337Y-110198998D01*
X117004002Y-110440663D01*
X117288169Y-110630537D01*
X117603919Y-110761325D01*
X117939117Y-110828000D01*
X118280883Y-110828000D01*
X118616081Y-110761325D01*
X118931831Y-110630537D01*
X119215998Y-110440663D01*
X119457663Y-110198998D01*
X119647537Y-109914831D01*
X119778325Y-109599081D01*
X119845000Y-109263883D01*
X119845000Y-108922117D01*
X119778325Y-108586919D01*
X119647537Y-108271169D01*
X119457663Y-107987002D01*
X119215998Y-107745337D01*
X118931831Y-107555463D01*
X118929905Y-107554665D01*
X119723000Y-107554665D01*
X119723000Y-107837335D01*
X119778147Y-108114574D01*
X119886320Y-108375727D01*
X120043363Y-108610759D01*
X120243241Y-108810637D01*
X120478273Y-108967680D01*
X120739426Y-109075853D01*
X121016665Y-109131000D01*
X121299335Y-109131000D01*
X121576574Y-109075853D01*
X121837727Y-108967680D01*
X122072759Y-108810637D01*
X122272637Y-108610759D01*
X122429680Y-108375727D01*
X122537853Y-108114574D01*
X122593000Y-107837335D01*
X122593000Y-107554665D01*
X127343000Y-107554665D01*
X127343000Y-107837335D01*
X127398147Y-108114574D01*
X127506320Y-108375727D01*
X127663363Y-108610759D01*
X127863241Y-108810637D01*
X128098273Y-108967680D01*
X128359426Y-109075853D01*
X128636665Y-109131000D01*
X128919335Y-109131000D01*
X129196574Y-109075853D01*
X129457727Y-108967680D01*
X129692759Y-108810637D01*
X129892637Y-108610759D01*
X130048000Y-108378241D01*
X130203363Y-108610759D01*
X130403241Y-108810637D01*
X130638273Y-108967680D01*
X130899426Y-109075853D01*
X131176665Y-109131000D01*
X131459335Y-109131000D01*
X131736574Y-109075853D01*
X131997727Y-108967680D01*
X132232759Y-108810637D01*
X132432637Y-108610759D01*
X132589680Y-108375727D01*
X132697853Y-108114574D01*
X132753000Y-107837335D01*
X132753000Y-107554665D01*
X137503000Y-107554665D01*
X137503000Y-107837335D01*
X137558147Y-108114574D01*
X137666320Y-108375727D01*
X137823363Y-108610759D01*
X138023241Y-108810637D01*
X138258273Y-108967680D01*
X138519426Y-109075853D01*
X138796665Y-109131000D01*
X139079335Y-109131000D01*
X139356574Y-109075853D01*
X139617727Y-108967680D01*
X139852759Y-108810637D01*
X140052637Y-108610759D01*
X140208000Y-108378241D01*
X140363363Y-108610759D01*
X140563241Y-108810637D01*
X140798273Y-108967680D01*
X141059426Y-109075853D01*
X141336665Y-109131000D01*
X141619335Y-109131000D01*
X141896574Y-109075853D01*
X142157727Y-108967680D01*
X142392759Y-108810637D01*
X142592637Y-108610759D01*
X142749680Y-108375727D01*
X142857853Y-108114574D01*
X142913000Y-107837335D01*
X142913000Y-107554665D01*
X147663000Y-107554665D01*
X147663000Y-107837335D01*
X147718147Y-108114574D01*
X147826320Y-108375727D01*
X147983363Y-108610759D01*
X148183241Y-108810637D01*
X148418273Y-108967680D01*
X148679426Y-109075853D01*
X148956665Y-109131000D01*
X149239335Y-109131000D01*
X149516574Y-109075853D01*
X149777727Y-108967680D01*
X150012759Y-108810637D01*
X150212637Y-108610759D01*
X150368000Y-108378241D01*
X150523363Y-108610759D01*
X150723241Y-108810637D01*
X150958273Y-108967680D01*
X151219426Y-109075853D01*
X151496665Y-109131000D01*
X151779335Y-109131000D01*
X152056574Y-109075853D01*
X152317727Y-108967680D01*
X152552759Y-108810637D01*
X152752637Y-108610759D01*
X152909680Y-108375727D01*
X153017853Y-108114574D01*
X153073000Y-107837335D01*
X153073000Y-107554665D01*
X157823000Y-107554665D01*
X157823000Y-107837335D01*
X157878147Y-108114574D01*
X157986320Y-108375727D01*
X158143363Y-108610759D01*
X158343241Y-108810637D01*
X158578273Y-108967680D01*
X158839426Y-109075853D01*
X159116665Y-109131000D01*
X159399335Y-109131000D01*
X159676574Y-109075853D01*
X159937727Y-108967680D01*
X160172759Y-108810637D01*
X160372637Y-108610759D01*
X160494579Y-108428259D01*
X162157449Y-108428259D01*
X162176802Y-108517103D01*
X162289937Y-108781578D01*
X162452495Y-109018900D01*
X162658229Y-109219948D01*
X162899232Y-109376996D01*
X163166243Y-109484009D01*
X163449000Y-109536875D01*
X164084000Y-109536875D01*
X164084000Y-108202000D01*
X164338000Y-108202000D01*
X164338000Y-109536875D01*
X164973000Y-109536875D01*
X165255757Y-109484009D01*
X165522768Y-109376996D01*
X165763771Y-109219948D01*
X165969505Y-109018900D01*
X166132063Y-108781578D01*
X166245198Y-108517103D01*
X166264551Y-108428259D01*
X166142922Y-108202000D01*
X164338000Y-108202000D01*
X164084000Y-108202000D01*
X162279078Y-108202000D01*
X162157449Y-108428259D01*
X160494579Y-108428259D01*
X160529680Y-108375727D01*
X160637853Y-108114574D01*
X160693000Y-107837335D01*
X160693000Y-107721741D01*
X162157449Y-107721741D01*
X162279078Y-107948000D01*
X164084000Y-107948000D01*
X164084000Y-106613125D01*
X164338000Y-106613125D01*
X164338000Y-107948000D01*
X166142922Y-107948000D01*
X166264551Y-107721741D01*
X166245198Y-107632897D01*
X166132063Y-107368422D01*
X165969505Y-107131100D01*
X165763771Y-106930052D01*
X165522768Y-106773004D01*
X165255757Y-106665991D01*
X164973000Y-106613125D01*
X164338000Y-106613125D01*
X164084000Y-106613125D01*
X163449000Y-106613125D01*
X163166243Y-106665991D01*
X162899232Y-106773004D01*
X162658229Y-106930052D01*
X162452495Y-107131100D01*
X162289937Y-107368422D01*
X162176802Y-107632897D01*
X162157449Y-107721741D01*
X160693000Y-107721741D01*
X160693000Y-107554665D01*
X160637853Y-107277426D01*
X160529680Y-107016273D01*
X160372637Y-106781241D01*
X160172759Y-106581363D01*
X159937727Y-106424320D01*
X159676574Y-106316147D01*
X159399335Y-106261000D01*
X159116665Y-106261000D01*
X158839426Y-106316147D01*
X158578273Y-106424320D01*
X158343241Y-106581363D01*
X158143363Y-106781241D01*
X157986320Y-107016273D01*
X157878147Y-107277426D01*
X157823000Y-107554665D01*
X153073000Y-107554665D01*
X153017853Y-107277426D01*
X152909680Y-107016273D01*
X152752637Y-106781241D01*
X152552759Y-106581363D01*
X152317727Y-106424320D01*
X152056574Y-106316147D01*
X151779335Y-106261000D01*
X151496665Y-106261000D01*
X151219426Y-106316147D01*
X150958273Y-106424320D01*
X150723241Y-106581363D01*
X150523363Y-106781241D01*
X150368000Y-107013759D01*
X150212637Y-106781241D01*
X150012759Y-106581363D01*
X149777727Y-106424320D01*
X149516574Y-106316147D01*
X149239335Y-106261000D01*
X148956665Y-106261000D01*
X148679426Y-106316147D01*
X148418273Y-106424320D01*
X148183241Y-106581363D01*
X147983363Y-106781241D01*
X147826320Y-107016273D01*
X147718147Y-107277426D01*
X147663000Y-107554665D01*
X142913000Y-107554665D01*
X142857853Y-107277426D01*
X142749680Y-107016273D01*
X142592637Y-106781241D01*
X142392759Y-106581363D01*
X142157727Y-106424320D01*
X141896574Y-106316147D01*
X141619335Y-106261000D01*
X141336665Y-106261000D01*
X141059426Y-106316147D01*
X140798273Y-106424320D01*
X140563241Y-106581363D01*
X140363363Y-106781241D01*
X140208000Y-107013759D01*
X140052637Y-106781241D01*
X139852759Y-106581363D01*
X139617727Y-106424320D01*
X139356574Y-106316147D01*
X139079335Y-106261000D01*
X138796665Y-106261000D01*
X138519426Y-106316147D01*
X138258273Y-106424320D01*
X138023241Y-106581363D01*
X137823363Y-106781241D01*
X137666320Y-107016273D01*
X137558147Y-107277426D01*
X137503000Y-107554665D01*
X132753000Y-107554665D01*
X132697853Y-107277426D01*
X132589680Y-107016273D01*
X132432637Y-106781241D01*
X132232759Y-106581363D01*
X131997727Y-106424320D01*
X131736574Y-106316147D01*
X131459335Y-106261000D01*
X131176665Y-106261000D01*
X130899426Y-106316147D01*
X130638273Y-106424320D01*
X130403241Y-106581363D01*
X130203363Y-106781241D01*
X130048000Y-107013759D01*
X129892637Y-106781241D01*
X129692759Y-106581363D01*
X129457727Y-106424320D01*
X129196574Y-106316147D01*
X128919335Y-106261000D01*
X128636665Y-106261000D01*
X128359426Y-106316147D01*
X128098273Y-106424320D01*
X127863241Y-106581363D01*
X127663363Y-106781241D01*
X127506320Y-107016273D01*
X127398147Y-107277426D01*
X127343000Y-107554665D01*
X122593000Y-107554665D01*
X122537853Y-107277426D01*
X122429680Y-107016273D01*
X122272637Y-106781241D01*
X122072759Y-106581363D01*
X121837727Y-106424320D01*
X121576574Y-106316147D01*
X121299335Y-106261000D01*
X121016665Y-106261000D01*
X120739426Y-106316147D01*
X120478273Y-106424320D01*
X120243241Y-106581363D01*
X120043363Y-106781241D01*
X119886320Y-107016273D01*
X119778147Y-107277426D01*
X119723000Y-107554665D01*
X118929905Y-107554665D01*
X118616081Y-107424675D01*
X118280883Y-107358000D01*
X117939117Y-107358000D01*
X117603919Y-107424675D01*
X117288169Y-107555463D01*
X117004002Y-107745337D01*
X116762337Y-107987002D01*
X116572463Y-108271169D01*
X116441675Y-108586919D01*
X116375000Y-108922117D01*
X110769000Y-108922117D01*
X110769000Y-100190419D01*
X125043000Y-100190419D01*
X125043000Y-100571581D01*
X125117361Y-100945419D01*
X125263225Y-101297566D01*
X125474987Y-101614491D01*
X125744509Y-101884013D01*
X126061434Y-102095775D01*
X126413581Y-102241639D01*
X126787419Y-102316000D01*
X127168581Y-102316000D01*
X127542419Y-102241639D01*
X127894566Y-102095775D01*
X128211491Y-101884013D01*
X128481013Y-101614491D01*
X128692775Y-101297566D01*
X128838639Y-100945419D01*
X128913000Y-100571581D01*
X128913000Y-100190419D01*
X153043000Y-100190419D01*
X153043000Y-100571581D01*
X153117361Y-100945419D01*
X153263225Y-101297566D01*
X153474987Y-101614491D01*
X153744509Y-101884013D01*
X154061434Y-102095775D01*
X154413581Y-102241639D01*
X154787419Y-102316000D01*
X155168581Y-102316000D01*
X155542419Y-102241639D01*
X155894566Y-102095775D01*
X156211491Y-101884013D01*
X156481013Y-101614491D01*
X156692775Y-101297566D01*
X156838639Y-100945419D01*
X156913000Y-100571581D01*
X156913000Y-100190419D01*
X156838639Y-99816581D01*
X156692775Y-99464434D01*
X156481013Y-99147509D01*
X156211491Y-98877987D01*
X155894566Y-98666225D01*
X155542419Y-98520361D01*
X155168581Y-98446000D01*
X154787419Y-98446000D01*
X154413581Y-98520361D01*
X154061434Y-98666225D01*
X153744509Y-98877987D01*
X153474987Y-99147509D01*
X153263225Y-99464434D01*
X153117361Y-99816581D01*
X153043000Y-100190419D01*
X128913000Y-100190419D01*
X128838639Y-99816581D01*
X128692775Y-99464434D01*
X128481013Y-99147509D01*
X128211491Y-98877987D01*
X127894566Y-98666225D01*
X127542419Y-98520361D01*
X127168581Y-98446000D01*
X126787419Y-98446000D01*
X126413581Y-98520361D01*
X126061434Y-98666225D01*
X125744509Y-98877987D01*
X125474987Y-99147509D01*
X125263225Y-99464434D01*
X125117361Y-99816581D01*
X125043000Y-100190419D01*
X110769000Y-100190419D01*
X110769000Y-97122653D01*
X114765952Y-97122653D01*
X114921962Y-97438214D01*
X115296745Y-97629020D01*
X115701551Y-97743044D01*
X116120824Y-97775902D01*
X116538451Y-97726334D01*
X116938383Y-97596243D01*
X117234038Y-97438214D01*
X117390048Y-97122653D01*
X116078000Y-95810605D01*
X114765952Y-97122653D01*
X110769000Y-97122653D01*
X110769000Y-95673824D01*
X113933098Y-95673824D01*
X113982666Y-96091451D01*
X114112757Y-96491383D01*
X114270786Y-96787038D01*
X114586347Y-96943048D01*
X115898395Y-95631000D01*
X116257605Y-95631000D01*
X117569653Y-96943048D01*
X117885214Y-96787038D01*
X118076020Y-96412255D01*
X118190044Y-96007449D01*
X118222902Y-95588176D01*
X118173334Y-95170549D01*
X118043243Y-94770617D01*
X117885214Y-94474962D01*
X117569653Y-94318952D01*
X116257605Y-95631000D01*
X115898395Y-95631000D01*
X114586347Y-94318952D01*
X114270786Y-94474962D01*
X114079980Y-94849745D01*
X113965956Y-95254551D01*
X113933098Y-95673824D01*
X110769000Y-95673824D01*
X110769000Y-94139347D01*
X114765952Y-94139347D01*
X116078000Y-95451395D01*
X117390048Y-94139347D01*
X117234038Y-93823786D01*
X116859255Y-93632980D01*
X116454449Y-93518956D01*
X116035176Y-93486098D01*
X115617549Y-93535666D01*
X115217617Y-93665757D01*
X114921962Y-93823786D01*
X114765952Y-94139347D01*
X110769000Y-94139347D01*
X110769000Y-81431000D01*
X113939928Y-81431000D01*
X113939928Y-84431000D01*
X113952188Y-84555482D01*
X113988498Y-84675180D01*
X114047463Y-84785494D01*
X114126815Y-84882185D01*
X114223506Y-84961537D01*
X114333820Y-85020502D01*
X114453518Y-85056812D01*
X114578000Y-85069072D01*
X117578000Y-85069072D01*
X117702482Y-85056812D01*
X117822180Y-85020502D01*
X117932494Y-84961537D01*
X118029185Y-84882185D01*
X118108537Y-84785494D01*
X118167502Y-84675180D01*
X118203812Y-84555482D01*
X118216072Y-84431000D01*
X118216072Y-81431000D01*
X118203812Y-81306518D01*
X118167502Y-81186820D01*
X118108537Y-81076506D01*
X118029185Y-80979815D01*
X117932494Y-80900463D01*
X117822180Y-80841498D01*
X117702482Y-80805188D01*
X117578000Y-80792928D01*
X114578000Y-80792928D01*
X114453518Y-80805188D01*
X114333820Y-80841498D01*
X114223506Y-80900463D01*
X114126815Y-80979815D01*
X114047463Y-81076506D01*
X113988498Y-81186820D01*
X113952188Y-81306518D01*
X113939928Y-81431000D01*
X110769000Y-81431000D01*
X110769000Y-77990419D01*
X139043000Y-77990419D01*
X139043000Y-78371581D01*
X139117361Y-78745419D01*
X139263225Y-79097566D01*
X139474987Y-79414491D01*
X139744509Y-79684013D01*
X140061434Y-79895775D01*
X140413581Y-80041639D01*
X140787419Y-80116000D01*
X141168581Y-80116000D01*
X141542419Y-80041639D01*
X141894566Y-79895775D01*
X142211491Y-79684013D01*
X142481013Y-79414491D01*
X142692775Y-79097566D01*
X142838639Y-78745419D01*
X142913000Y-78371581D01*
X142913000Y-77990419D01*
X142838639Y-77616581D01*
X142692775Y-77264434D01*
X142481013Y-76947509D01*
X142211491Y-76677987D01*
X141894566Y-76466225D01*
X141542419Y-76320361D01*
X141168581Y-76246000D01*
X140787419Y-76246000D01*
X140413581Y-76320361D01*
X140061434Y-76466225D01*
X139744509Y-76677987D01*
X139474987Y-76947509D01*
X139263225Y-77264434D01*
X139117361Y-77616581D01*
X139043000Y-77990419D01*
X110769000Y-77990419D01*
X110769000Y-68806000D01*
X123087928Y-68806000D01*
X123100188Y-68930482D01*
X123136498Y-69050180D01*
X123195463Y-69160494D01*
X123274815Y-69257185D01*
X123371506Y-69336537D01*
X123481820Y-69395502D01*
X123601518Y-69431812D01*
X123726000Y-69444072D01*
X125190250Y-69441000D01*
X125349000Y-69282250D01*
X125349000Y-67183000D01*
X125603000Y-67183000D01*
X125603000Y-69282250D01*
X125761750Y-69441000D01*
X127226000Y-69444072D01*
X127350482Y-69431812D01*
X127470180Y-69395502D01*
X127580494Y-69336537D01*
X127677185Y-69257185D01*
X127756537Y-69160494D01*
X127815502Y-69050180D01*
X127851812Y-68930482D01*
X127864072Y-68806000D01*
X127861000Y-67341750D01*
X127702250Y-67183000D01*
X125603000Y-67183000D01*
X125349000Y-67183000D01*
X123249750Y-67183000D01*
X123091000Y-67341750D01*
X123087928Y-68806000D01*
X110769000Y-68806000D01*
X110769000Y-65946881D01*
X112159724Y-65946881D01*
X112519912Y-66436548D01*
X113183882Y-66796849D01*
X113905385Y-67020694D01*
X114656695Y-67099480D01*
X115408938Y-67030178D01*
X116133208Y-66815452D01*
X116801670Y-66463555D01*
X116842088Y-66436548D01*
X117202276Y-65946881D01*
X114681000Y-63425605D01*
X112159724Y-65946881D01*
X110769000Y-65946881D01*
X110769000Y-63221695D01*
X110827520Y-63221695D01*
X110896822Y-63973938D01*
X111111548Y-64698208D01*
X111463445Y-65366670D01*
X111490452Y-65407088D01*
X111980119Y-65767276D01*
X114501395Y-63246000D01*
X114860605Y-63246000D01*
X117381881Y-65767276D01*
X117871548Y-65407088D01*
X117926403Y-65306000D01*
X123087928Y-65306000D01*
X123091000Y-66770250D01*
X123249750Y-66929000D01*
X125349000Y-66929000D01*
X125349000Y-64829750D01*
X125603000Y-64829750D01*
X125603000Y-66929000D01*
X127702250Y-66929000D01*
X127861000Y-66770250D01*
X127862498Y-66056000D01*
X129337928Y-66056000D01*
X129337928Y-68056000D01*
X129364599Y-68326799D01*
X129443589Y-68587192D01*
X129571860Y-68827171D01*
X129744485Y-69037515D01*
X129954829Y-69210140D01*
X130194808Y-69338411D01*
X130455201Y-69417401D01*
X130726000Y-69444072D01*
X132226000Y-69444072D01*
X132496799Y-69417401D01*
X132757192Y-69338411D01*
X132997171Y-69210140D01*
X133207515Y-69037515D01*
X133380140Y-68827171D01*
X133508411Y-68587192D01*
X133587401Y-68326799D01*
X133614072Y-68056000D01*
X133614072Y-66056000D01*
X133603325Y-65946881D01*
X163213724Y-65946881D01*
X163573912Y-66436548D01*
X164237882Y-66796849D01*
X164959385Y-67020694D01*
X165710695Y-67099480D01*
X166462938Y-67030178D01*
X167187208Y-66815452D01*
X167855670Y-66463555D01*
X167896088Y-66436548D01*
X168256276Y-65946881D01*
X165735000Y-63425605D01*
X163213724Y-65946881D01*
X133603325Y-65946881D01*
X133587401Y-65785201D01*
X133508411Y-65524808D01*
X133380140Y-65284829D01*
X133207515Y-65074485D01*
X132997171Y-64901860D01*
X132757192Y-64773589D01*
X132496799Y-64694599D01*
X132226000Y-64667928D01*
X130726000Y-64667928D01*
X130455201Y-64694599D01*
X130194808Y-64773589D01*
X129954829Y-64901860D01*
X129744485Y-65074485D01*
X129571860Y-65284829D01*
X129443589Y-65524808D01*
X129364599Y-65785201D01*
X129337928Y-66056000D01*
X127862498Y-66056000D01*
X127864072Y-65306000D01*
X127851812Y-65181518D01*
X127815502Y-65061820D01*
X127756537Y-64951506D01*
X127677185Y-64854815D01*
X127580494Y-64775463D01*
X127503869Y-64734506D01*
X127601000Y-64744072D01*
X129351000Y-64744072D01*
X129646186Y-64714999D01*
X129930028Y-64628896D01*
X130191618Y-64489073D01*
X130420903Y-64300903D01*
X130609073Y-64071618D01*
X130748896Y-63810028D01*
X130834999Y-63526186D01*
X130864072Y-63231000D01*
X130864072Y-63221695D01*
X161881520Y-63221695D01*
X161950822Y-63973938D01*
X162165548Y-64698208D01*
X162517445Y-65366670D01*
X162544452Y-65407088D01*
X163034119Y-65767276D01*
X165555395Y-63246000D01*
X165914605Y-63246000D01*
X168435881Y-65767276D01*
X168925548Y-65407088D01*
X169285849Y-64743118D01*
X169509694Y-64021615D01*
X169588480Y-63270305D01*
X169519178Y-62518062D01*
X169304452Y-61793792D01*
X168952555Y-61125330D01*
X168925548Y-61084912D01*
X168435881Y-60724724D01*
X165914605Y-63246000D01*
X165555395Y-63246000D01*
X163034119Y-60724724D01*
X162544452Y-61084912D01*
X162184151Y-61748882D01*
X161960306Y-62470385D01*
X161881520Y-63221695D01*
X130864072Y-63221695D01*
X130864072Y-61481000D01*
X130834999Y-61185814D01*
X130748896Y-60901972D01*
X130609073Y-60640382D01*
X130530893Y-60545119D01*
X163213724Y-60545119D01*
X165735000Y-63066395D01*
X168256276Y-60545119D01*
X167896088Y-60055452D01*
X167232118Y-59695151D01*
X166510615Y-59471306D01*
X165759305Y-59392520D01*
X165007062Y-59461822D01*
X164282792Y-59676548D01*
X163614330Y-60028445D01*
X163573912Y-60055452D01*
X163213724Y-60545119D01*
X130530893Y-60545119D01*
X130420903Y-60411097D01*
X130191618Y-60222927D01*
X129930028Y-60083104D01*
X129646186Y-59997001D01*
X129351000Y-59967928D01*
X127601000Y-59967928D01*
X127305814Y-59997001D01*
X127021972Y-60083104D01*
X126760382Y-60222927D01*
X126531097Y-60411097D01*
X126342927Y-60640382D01*
X126203104Y-60901972D01*
X126117001Y-61185814D01*
X126087928Y-61481000D01*
X126087928Y-63231000D01*
X126117001Y-63526186D01*
X126203104Y-63810028D01*
X126342927Y-64071618D01*
X126531097Y-64300903D01*
X126760382Y-64489073D01*
X127021972Y-64628896D01*
X127151160Y-64668085D01*
X125761750Y-64671000D01*
X125603000Y-64829750D01*
X125349000Y-64829750D01*
X125190250Y-64671000D01*
X123726000Y-64667928D01*
X123601518Y-64680188D01*
X123481820Y-64716498D01*
X123371506Y-64775463D01*
X123274815Y-64854815D01*
X123195463Y-64951506D01*
X123136498Y-65061820D01*
X123100188Y-65181518D01*
X123087928Y-65306000D01*
X117926403Y-65306000D01*
X118231849Y-64743118D01*
X118455694Y-64021615D01*
X118534480Y-63270305D01*
X118465178Y-62518062D01*
X118250452Y-61793792D01*
X117898555Y-61125330D01*
X117871548Y-61084912D01*
X117381881Y-60724724D01*
X114860605Y-63246000D01*
X114501395Y-63246000D01*
X111980119Y-60724724D01*
X111490452Y-61084912D01*
X111130151Y-61748882D01*
X110906306Y-62470385D01*
X110827520Y-63221695D01*
X110769000Y-63221695D01*
X110769000Y-60545119D01*
X112159724Y-60545119D01*
X114681000Y-63066395D01*
X117202276Y-60545119D01*
X116842088Y-60055452D01*
X116178118Y-59695151D01*
X115456615Y-59471306D01*
X114705305Y-59392520D01*
X113953062Y-59461822D01*
X113228792Y-59676548D01*
X112560330Y-60028445D01*
X112519912Y-60055452D01*
X112159724Y-60545119D01*
X110769000Y-60545119D01*
X110769000Y-59334000D01*
X169647000Y-59334000D01*
X169647001Y-145263000D01*
%TA.AperFunction,Conductor*%
D25*
G36*
X169647001Y-145263000D02*
G01*
X110769000Y-145263000D01*
X110769000Y-144051881D01*
X112159724Y-144051881D01*
X112519912Y-144541548D01*
X113183882Y-144901849D01*
X113905385Y-145125694D01*
X114656695Y-145204480D01*
X115408938Y-145135178D01*
X116133208Y-144920452D01*
X116801670Y-144568555D01*
X116842088Y-144541548D01*
X117202276Y-144051881D01*
X163213724Y-144051881D01*
X163573912Y-144541548D01*
X164237882Y-144901849D01*
X164959385Y-145125694D01*
X165710695Y-145204480D01*
X166462938Y-145135178D01*
X167187208Y-144920452D01*
X167855670Y-144568555D01*
X167896088Y-144541548D01*
X168256276Y-144051881D01*
X165735000Y-141530605D01*
X163213724Y-144051881D01*
X117202276Y-144051881D01*
X114681000Y-141530605D01*
X112159724Y-144051881D01*
X110769000Y-144051881D01*
X110769000Y-141326695D01*
X110827520Y-141326695D01*
X110896822Y-142078938D01*
X111111548Y-142803208D01*
X111463445Y-143471670D01*
X111490452Y-143512088D01*
X111980119Y-143872276D01*
X114501395Y-141351000D01*
X114860605Y-141351000D01*
X117381881Y-143872276D01*
X117871548Y-143512088D01*
X118004544Y-143267000D01*
X127747928Y-143267000D01*
X127760188Y-143391482D01*
X127796498Y-143511180D01*
X127855463Y-143621494D01*
X127934815Y-143718185D01*
X128031506Y-143797537D01*
X128141820Y-143856502D01*
X128261518Y-143892812D01*
X128386000Y-143905072D01*
X129000250Y-143902000D01*
X129159000Y-143743250D01*
X129159000Y-142494000D01*
X127909750Y-142494000D01*
X127751000Y-142652750D01*
X127747928Y-143267000D01*
X118004544Y-143267000D01*
X118231849Y-142848118D01*
X118455694Y-142126615D01*
X118524864Y-141467000D01*
X127747928Y-141467000D01*
X127751000Y-142081250D01*
X127909750Y-142240000D01*
X129159000Y-142240000D01*
X129159000Y-140990750D01*
X129413000Y-140990750D01*
X129413000Y-142240000D01*
X129433000Y-142240000D01*
X129433000Y-142494000D01*
X129413000Y-142494000D01*
X129413000Y-143743250D01*
X129571750Y-143902000D01*
X130186000Y-143905072D01*
X130310482Y-143892812D01*
X130430180Y-143856502D01*
X130540494Y-143797537D01*
X130637185Y-143718185D01*
X130716537Y-143621494D01*
X130775502Y-143511180D01*
X130781056Y-143492873D01*
X130847495Y-143559312D01*
X131098905Y-143727299D01*
X131378257Y-143843011D01*
X131674816Y-143902000D01*
X131977184Y-143902000D01*
X132273743Y-143843011D01*
X132553095Y-143727299D01*
X132804505Y-143559312D01*
X133018312Y-143345505D01*
X133070767Y-143267000D01*
X134224928Y-143267000D01*
X134237188Y-143391482D01*
X134273498Y-143511180D01*
X134332463Y-143621494D01*
X134411815Y-143718185D01*
X134508506Y-143797537D01*
X134618820Y-143856502D01*
X134738518Y-143892812D01*
X134863000Y-143905072D01*
X135477250Y-143902000D01*
X135636000Y-143743250D01*
X135636000Y-142494000D01*
X134386750Y-142494000D01*
X134228000Y-142652750D01*
X134224928Y-143267000D01*
X133070767Y-143267000D01*
X133186299Y-143094095D01*
X133302011Y-142814743D01*
X133361000Y-142518184D01*
X133361000Y-142215816D01*
X133302011Y-141919257D01*
X133186299Y-141639905D01*
X133070768Y-141467000D01*
X134224928Y-141467000D01*
X134228000Y-142081250D01*
X134386750Y-142240000D01*
X135636000Y-142240000D01*
X135636000Y-140990750D01*
X135890000Y-140990750D01*
X135890000Y-142240000D01*
X135910000Y-142240000D01*
X135910000Y-142494000D01*
X135890000Y-142494000D01*
X135890000Y-143743250D01*
X136048750Y-143902000D01*
X136663000Y-143905072D01*
X136787482Y-143892812D01*
X136907180Y-143856502D01*
X137017494Y-143797537D01*
X137114185Y-143718185D01*
X137193537Y-143621494D01*
X137252502Y-143511180D01*
X137258056Y-143492873D01*
X137324495Y-143559312D01*
X137575905Y-143727299D01*
X137855257Y-143843011D01*
X138151816Y-143902000D01*
X138454184Y-143902000D01*
X138750743Y-143843011D01*
X139030095Y-143727299D01*
X139281505Y-143559312D01*
X139495312Y-143345505D01*
X139547767Y-143267000D01*
X140701928Y-143267000D01*
X140714188Y-143391482D01*
X140750498Y-143511180D01*
X140809463Y-143621494D01*
X140888815Y-143718185D01*
X140985506Y-143797537D01*
X141095820Y-143856502D01*
X141215518Y-143892812D01*
X141340000Y-143905072D01*
X141954250Y-143902000D01*
X142113000Y-143743250D01*
X142113000Y-142494000D01*
X140863750Y-142494000D01*
X140705000Y-142652750D01*
X140701928Y-143267000D01*
X139547767Y-143267000D01*
X139663299Y-143094095D01*
X139779011Y-142814743D01*
X139838000Y-142518184D01*
X139838000Y-142215816D01*
X139779011Y-141919257D01*
X139663299Y-141639905D01*
X139547768Y-141467000D01*
X140701928Y-141467000D01*
X140705000Y-142081250D01*
X140863750Y-142240000D01*
X142113000Y-142240000D01*
X142113000Y-140990750D01*
X142367000Y-140990750D01*
X142367000Y-142240000D01*
X142387000Y-142240000D01*
X142387000Y-142494000D01*
X142367000Y-142494000D01*
X142367000Y-143743250D01*
X142525750Y-143902000D01*
X143140000Y-143905072D01*
X143264482Y-143892812D01*
X143384180Y-143856502D01*
X143494494Y-143797537D01*
X143591185Y-143718185D01*
X143670537Y-143621494D01*
X143729502Y-143511180D01*
X143735056Y-143492873D01*
X143801495Y-143559312D01*
X144052905Y-143727299D01*
X144332257Y-143843011D01*
X144628816Y-143902000D01*
X144931184Y-143902000D01*
X145227743Y-143843011D01*
X145507095Y-143727299D01*
X145758505Y-143559312D01*
X145972312Y-143345505D01*
X146024767Y-143267000D01*
X147178928Y-143267000D01*
X147191188Y-143391482D01*
X147227498Y-143511180D01*
X147286463Y-143621494D01*
X147365815Y-143718185D01*
X147462506Y-143797537D01*
X147572820Y-143856502D01*
X147692518Y-143892812D01*
X147817000Y-143905072D01*
X148431250Y-143902000D01*
X148590000Y-143743250D01*
X148590000Y-142494000D01*
X147340750Y-142494000D01*
X147182000Y-142652750D01*
X147178928Y-143267000D01*
X146024767Y-143267000D01*
X146140299Y-143094095D01*
X146256011Y-142814743D01*
X146315000Y-142518184D01*
X146315000Y-142215816D01*
X146256011Y-141919257D01*
X146140299Y-141639905D01*
X146024768Y-141467000D01*
X147178928Y-141467000D01*
X147182000Y-142081250D01*
X147340750Y-142240000D01*
X148590000Y-142240000D01*
X148590000Y-140990750D01*
X148431250Y-140832000D01*
X147817000Y-140828928D01*
X147692518Y-140841188D01*
X147572820Y-140877498D01*
X147462506Y-140936463D01*
X147365815Y-141015815D01*
X147286463Y-141112506D01*
X147227498Y-141222820D01*
X147191188Y-141342518D01*
X147178928Y-141467000D01*
X146024768Y-141467000D01*
X145972312Y-141388495D01*
X145758505Y-141174688D01*
X145507095Y-141006701D01*
X145227743Y-140890989D01*
X144931184Y-140832000D01*
X144628816Y-140832000D01*
X144332257Y-140890989D01*
X144052905Y-141006701D01*
X143801495Y-141174688D01*
X143735056Y-141241127D01*
X143729502Y-141222820D01*
X143670537Y-141112506D01*
X143591185Y-141015815D01*
X143494494Y-140936463D01*
X143384180Y-140877498D01*
X143264482Y-140841188D01*
X143140000Y-140828928D01*
X142525750Y-140832000D01*
X142367000Y-140990750D01*
X142113000Y-140990750D01*
X141954250Y-140832000D01*
X141340000Y-140828928D01*
X141215518Y-140841188D01*
X141095820Y-140877498D01*
X140985506Y-140936463D01*
X140888815Y-141015815D01*
X140809463Y-141112506D01*
X140750498Y-141222820D01*
X140714188Y-141342518D01*
X140701928Y-141467000D01*
X139547768Y-141467000D01*
X139495312Y-141388495D01*
X139281505Y-141174688D01*
X139030095Y-141006701D01*
X138750743Y-140890989D01*
X138454184Y-140832000D01*
X138151816Y-140832000D01*
X137855257Y-140890989D01*
X137575905Y-141006701D01*
X137324495Y-141174688D01*
X137258056Y-141241127D01*
X137252502Y-141222820D01*
X137193537Y-141112506D01*
X137114185Y-141015815D01*
X137017494Y-140936463D01*
X136907180Y-140877498D01*
X136787482Y-140841188D01*
X136663000Y-140828928D01*
X136048750Y-140832000D01*
X135890000Y-140990750D01*
X135636000Y-140990750D01*
X135477250Y-140832000D01*
X134863000Y-140828928D01*
X134738518Y-140841188D01*
X134618820Y-140877498D01*
X134508506Y-140936463D01*
X134411815Y-141015815D01*
X134332463Y-141112506D01*
X134273498Y-141222820D01*
X134237188Y-141342518D01*
X134224928Y-141467000D01*
X133070768Y-141467000D01*
X133018312Y-141388495D01*
X132804505Y-141174688D01*
X132553095Y-141006701D01*
X132273743Y-140890989D01*
X131977184Y-140832000D01*
X131674816Y-140832000D01*
X131378257Y-140890989D01*
X131098905Y-141006701D01*
X130847495Y-141174688D01*
X130781056Y-141241127D01*
X130775502Y-141222820D01*
X130716537Y-141112506D01*
X130637185Y-141015815D01*
X130540494Y-140936463D01*
X130430180Y-140877498D01*
X130310482Y-140841188D01*
X130186000Y-140828928D01*
X129571750Y-140832000D01*
X129413000Y-140990750D01*
X129159000Y-140990750D01*
X129000250Y-140832000D01*
X128386000Y-140828928D01*
X128261518Y-140841188D01*
X128141820Y-140877498D01*
X128031506Y-140936463D01*
X127934815Y-141015815D01*
X127855463Y-141112506D01*
X127796498Y-141222820D01*
X127760188Y-141342518D01*
X127747928Y-141467000D01*
X118524864Y-141467000D01*
X118534480Y-141375305D01*
X118465178Y-140623062D01*
X118250452Y-139898792D01*
X117898555Y-139230330D01*
X117871548Y-139189912D01*
X117381881Y-138829724D01*
X114860605Y-141351000D01*
X114501395Y-141351000D01*
X111980119Y-138829724D01*
X111490452Y-139189912D01*
X111130151Y-139853882D01*
X110906306Y-140575385D01*
X110827520Y-141326695D01*
X110769000Y-141326695D01*
X110769000Y-138650119D01*
X112159724Y-138650119D01*
X114681000Y-141171395D01*
X117202276Y-138650119D01*
X116842088Y-138160452D01*
X116178118Y-137800151D01*
X115456615Y-137576306D01*
X114705305Y-137497520D01*
X113953062Y-137566822D01*
X113228792Y-137781548D01*
X112560330Y-138133445D01*
X112519912Y-138160452D01*
X112159724Y-138650119D01*
X110769000Y-138650119D01*
X110769000Y-137171000D01*
X127747928Y-137171000D01*
X127760188Y-137295482D01*
X127796498Y-137415180D01*
X127855463Y-137525494D01*
X127934815Y-137622185D01*
X128031506Y-137701537D01*
X128141820Y-137760502D01*
X128261518Y-137796812D01*
X128386000Y-137809072D01*
X129000250Y-137806000D01*
X129159000Y-137647250D01*
X129159000Y-136398000D01*
X127909750Y-136398000D01*
X127751000Y-136556750D01*
X127747928Y-137171000D01*
X110769000Y-137171000D01*
X110769000Y-135371000D01*
X127747928Y-135371000D01*
X127751000Y-135985250D01*
X127909750Y-136144000D01*
X129159000Y-136144000D01*
X129159000Y-134894750D01*
X129413000Y-134894750D01*
X129413000Y-136144000D01*
X129433000Y-136144000D01*
X129433000Y-136398000D01*
X129413000Y-136398000D01*
X129413000Y-137647250D01*
X129571750Y-137806000D01*
X130186000Y-137809072D01*
X130310482Y-137796812D01*
X130430180Y-137760502D01*
X130540494Y-137701537D01*
X130637185Y-137622185D01*
X130716537Y-137525494D01*
X130775502Y-137415180D01*
X130781056Y-137396873D01*
X130847495Y-137463312D01*
X131098905Y-137631299D01*
X131378257Y-137747011D01*
X131674816Y-137806000D01*
X131977184Y-137806000D01*
X132273743Y-137747011D01*
X132553095Y-137631299D01*
X132804505Y-137463312D01*
X133018312Y-137249505D01*
X133070767Y-137171000D01*
X134224928Y-137171000D01*
X134237188Y-137295482D01*
X134273498Y-137415180D01*
X134332463Y-137525494D01*
X134411815Y-137622185D01*
X134508506Y-137701537D01*
X134618820Y-137760502D01*
X134738518Y-137796812D01*
X134863000Y-137809072D01*
X135477250Y-137806000D01*
X135636000Y-137647250D01*
X135636000Y-136398000D01*
X134386750Y-136398000D01*
X134228000Y-136556750D01*
X134224928Y-137171000D01*
X133070767Y-137171000D01*
X133186299Y-136998095D01*
X133302011Y-136718743D01*
X133361000Y-136422184D01*
X133361000Y-136119816D01*
X133302011Y-135823257D01*
X133186299Y-135543905D01*
X133070768Y-135371000D01*
X134224928Y-135371000D01*
X134228000Y-135985250D01*
X134386750Y-136144000D01*
X135636000Y-136144000D01*
X135636000Y-134894750D01*
X135890000Y-134894750D01*
X135890000Y-136144000D01*
X135910000Y-136144000D01*
X135910000Y-136398000D01*
X135890000Y-136398000D01*
X135890000Y-137647250D01*
X136048750Y-137806000D01*
X136663000Y-137809072D01*
X136787482Y-137796812D01*
X136907180Y-137760502D01*
X137017494Y-137701537D01*
X137114185Y-137622185D01*
X137193537Y-137525494D01*
X137252502Y-137415180D01*
X137258056Y-137396873D01*
X137324495Y-137463312D01*
X137575905Y-137631299D01*
X137855257Y-137747011D01*
X138151816Y-137806000D01*
X138454184Y-137806000D01*
X138750743Y-137747011D01*
X139030095Y-137631299D01*
X139281505Y-137463312D01*
X139495312Y-137249505D01*
X139547767Y-137171000D01*
X140701928Y-137171000D01*
X140714188Y-137295482D01*
X140750498Y-137415180D01*
X140809463Y-137525494D01*
X140888815Y-137622185D01*
X140985506Y-137701537D01*
X141095820Y-137760502D01*
X141215518Y-137796812D01*
X141340000Y-137809072D01*
X141954250Y-137806000D01*
X142113000Y-137647250D01*
X142113000Y-136398000D01*
X140863750Y-136398000D01*
X140705000Y-136556750D01*
X140701928Y-137171000D01*
X139547767Y-137171000D01*
X139663299Y-136998095D01*
X139779011Y-136718743D01*
X139838000Y-136422184D01*
X139838000Y-136119816D01*
X139779011Y-135823257D01*
X139663299Y-135543905D01*
X139547768Y-135371000D01*
X140701928Y-135371000D01*
X140705000Y-135985250D01*
X140863750Y-136144000D01*
X142113000Y-136144000D01*
X142113000Y-134894750D01*
X142367000Y-134894750D01*
X142367000Y-136144000D01*
X142387000Y-136144000D01*
X142387000Y-136398000D01*
X142367000Y-136398000D01*
X142367000Y-137647250D01*
X142525750Y-137806000D01*
X143140000Y-137809072D01*
X143264482Y-137796812D01*
X143384180Y-137760502D01*
X143494494Y-137701537D01*
X143591185Y-137622185D01*
X143670537Y-137525494D01*
X143729502Y-137415180D01*
X143735056Y-137396873D01*
X143801495Y-137463312D01*
X144052905Y-137631299D01*
X144332257Y-137747011D01*
X144628816Y-137806000D01*
X144931184Y-137806000D01*
X145227743Y-137747011D01*
X145507095Y-137631299D01*
X145758505Y-137463312D01*
X145972312Y-137249505D01*
X146024767Y-137171000D01*
X147178928Y-137171000D01*
X147191188Y-137295482D01*
X147227498Y-137415180D01*
X147286463Y-137525494D01*
X147365815Y-137622185D01*
X147462506Y-137701537D01*
X147572820Y-137760502D01*
X147692518Y-137796812D01*
X147817000Y-137809072D01*
X148431250Y-137806000D01*
X148590000Y-137647250D01*
X148590000Y-136398000D01*
X147340750Y-136398000D01*
X147182000Y-136556750D01*
X147178928Y-137171000D01*
X146024767Y-137171000D01*
X146140299Y-136998095D01*
X146256011Y-136718743D01*
X146315000Y-136422184D01*
X146315000Y-136119816D01*
X146256011Y-135823257D01*
X146140299Y-135543905D01*
X146024768Y-135371000D01*
X147178928Y-135371000D01*
X147182000Y-135985250D01*
X147340750Y-136144000D01*
X148590000Y-136144000D01*
X148590000Y-134894750D01*
X148431250Y-134736000D01*
X147817000Y-134732928D01*
X147692518Y-134745188D01*
X147572820Y-134781498D01*
X147462506Y-134840463D01*
X147365815Y-134919815D01*
X147286463Y-135016506D01*
X147227498Y-135126820D01*
X147191188Y-135246518D01*
X147178928Y-135371000D01*
X146024768Y-135371000D01*
X145972312Y-135292495D01*
X145758505Y-135078688D01*
X145507095Y-134910701D01*
X145227743Y-134794989D01*
X144931184Y-134736000D01*
X144628816Y-134736000D01*
X144332257Y-134794989D01*
X144052905Y-134910701D01*
X143801495Y-135078688D01*
X143735056Y-135145127D01*
X143729502Y-135126820D01*
X143670537Y-135016506D01*
X143591185Y-134919815D01*
X143494494Y-134840463D01*
X143384180Y-134781498D01*
X143264482Y-134745188D01*
X143140000Y-134732928D01*
X142525750Y-134736000D01*
X142367000Y-134894750D01*
X142113000Y-134894750D01*
X141954250Y-134736000D01*
X141340000Y-134732928D01*
X141215518Y-134745188D01*
X141095820Y-134781498D01*
X140985506Y-134840463D01*
X140888815Y-134919815D01*
X140809463Y-135016506D01*
X140750498Y-135126820D01*
X140714188Y-135246518D01*
X140701928Y-135371000D01*
X139547768Y-135371000D01*
X139495312Y-135292495D01*
X139281505Y-135078688D01*
X139030095Y-134910701D01*
X138750743Y-134794989D01*
X138454184Y-134736000D01*
X138151816Y-134736000D01*
X137855257Y-134794989D01*
X137575905Y-134910701D01*
X137324495Y-135078688D01*
X137258056Y-135145127D01*
X137252502Y-135126820D01*
X137193537Y-135016506D01*
X137114185Y-134919815D01*
X137017494Y-134840463D01*
X136907180Y-134781498D01*
X136787482Y-134745188D01*
X136663000Y-134732928D01*
X136048750Y-134736000D01*
X135890000Y-134894750D01*
X135636000Y-134894750D01*
X135477250Y-134736000D01*
X134863000Y-134732928D01*
X134738518Y-134745188D01*
X134618820Y-134781498D01*
X134508506Y-134840463D01*
X134411815Y-134919815D01*
X134332463Y-135016506D01*
X134273498Y-135126820D01*
X134237188Y-135246518D01*
X134224928Y-135371000D01*
X133070768Y-135371000D01*
X133018312Y-135292495D01*
X132804505Y-135078688D01*
X132553095Y-134910701D01*
X132273743Y-134794989D01*
X131977184Y-134736000D01*
X131674816Y-134736000D01*
X131378257Y-134794989D01*
X131098905Y-134910701D01*
X130847495Y-135078688D01*
X130781056Y-135145127D01*
X130775502Y-135126820D01*
X130716537Y-135016506D01*
X130637185Y-134919815D01*
X130540494Y-134840463D01*
X130430180Y-134781498D01*
X130310482Y-134745188D01*
X130186000Y-134732928D01*
X129571750Y-134736000D01*
X129413000Y-134894750D01*
X129159000Y-134894750D01*
X129000250Y-134736000D01*
X128386000Y-134732928D01*
X128261518Y-134745188D01*
X128141820Y-134781498D01*
X128031506Y-134840463D01*
X127934815Y-134919815D01*
X127855463Y-135016506D01*
X127796498Y-135126820D01*
X127760188Y-135246518D01*
X127747928Y-135371000D01*
X110769000Y-135371000D01*
X110769000Y-131075000D01*
X127747928Y-131075000D01*
X127760188Y-131199482D01*
X127796498Y-131319180D01*
X127855463Y-131429494D01*
X127934815Y-131526185D01*
X128031506Y-131605537D01*
X128141820Y-131664502D01*
X128261518Y-131700812D01*
X128386000Y-131713072D01*
X129000250Y-131710000D01*
X129159000Y-131551250D01*
X129159000Y-130302000D01*
X127909750Y-130302000D01*
X127751000Y-130460750D01*
X127747928Y-131075000D01*
X110769000Y-131075000D01*
X110769000Y-129275000D01*
X127747928Y-129275000D01*
X127751000Y-129889250D01*
X127909750Y-130048000D01*
X129159000Y-130048000D01*
X129159000Y-128798750D01*
X129413000Y-128798750D01*
X129413000Y-130048000D01*
X129433000Y-130048000D01*
X129433000Y-130302000D01*
X129413000Y-130302000D01*
X129413000Y-131551250D01*
X129571750Y-131710000D01*
X130186000Y-131713072D01*
X130310482Y-131700812D01*
X130430180Y-131664502D01*
X130540494Y-131605537D01*
X130637185Y-131526185D01*
X130716537Y-131429494D01*
X130775502Y-131319180D01*
X130781056Y-131300873D01*
X130847495Y-131367312D01*
X131098905Y-131535299D01*
X131378257Y-131651011D01*
X131674816Y-131710000D01*
X131977184Y-131710000D01*
X132273743Y-131651011D01*
X132553095Y-131535299D01*
X132804505Y-131367312D01*
X133018312Y-131153505D01*
X133070767Y-131075000D01*
X134224928Y-131075000D01*
X134237188Y-131199482D01*
X134273498Y-131319180D01*
X134332463Y-131429494D01*
X134411815Y-131526185D01*
X134508506Y-131605537D01*
X134618820Y-131664502D01*
X134738518Y-131700812D01*
X134863000Y-131713072D01*
X135477250Y-131710000D01*
X135636000Y-131551250D01*
X135636000Y-130302000D01*
X134386750Y-130302000D01*
X134228000Y-130460750D01*
X134224928Y-131075000D01*
X133070767Y-131075000D01*
X133186299Y-130902095D01*
X133302011Y-130622743D01*
X133361000Y-130326184D01*
X133361000Y-130023816D01*
X133302011Y-129727257D01*
X133186299Y-129447905D01*
X133070768Y-129275000D01*
X134224928Y-129275000D01*
X134228000Y-129889250D01*
X134386750Y-130048000D01*
X135636000Y-130048000D01*
X135636000Y-128798750D01*
X135890000Y-128798750D01*
X135890000Y-130048000D01*
X135910000Y-130048000D01*
X135910000Y-130302000D01*
X135890000Y-130302000D01*
X135890000Y-131551250D01*
X136048750Y-131710000D01*
X136663000Y-131713072D01*
X136787482Y-131700812D01*
X136907180Y-131664502D01*
X137017494Y-131605537D01*
X137114185Y-131526185D01*
X137193537Y-131429494D01*
X137252502Y-131319180D01*
X137258056Y-131300873D01*
X137324495Y-131367312D01*
X137575905Y-131535299D01*
X137855257Y-131651011D01*
X138151816Y-131710000D01*
X138454184Y-131710000D01*
X138750743Y-131651011D01*
X139030095Y-131535299D01*
X139281505Y-131367312D01*
X139495312Y-131153505D01*
X139547767Y-131075000D01*
X140701928Y-131075000D01*
X140714188Y-131199482D01*
X140750498Y-131319180D01*
X140809463Y-131429494D01*
X140888815Y-131526185D01*
X140985506Y-131605537D01*
X141095820Y-131664502D01*
X141215518Y-131700812D01*
X141340000Y-131713072D01*
X141954250Y-131710000D01*
X142113000Y-131551250D01*
X142113000Y-130302000D01*
X140863750Y-130302000D01*
X140705000Y-130460750D01*
X140701928Y-131075000D01*
X139547767Y-131075000D01*
X139663299Y-130902095D01*
X139779011Y-130622743D01*
X139838000Y-130326184D01*
X139838000Y-130023816D01*
X139779011Y-129727257D01*
X139663299Y-129447905D01*
X139547768Y-129275000D01*
X140701928Y-129275000D01*
X140705000Y-129889250D01*
X140863750Y-130048000D01*
X142113000Y-130048000D01*
X142113000Y-128798750D01*
X142367000Y-128798750D01*
X142367000Y-130048000D01*
X142387000Y-130048000D01*
X142387000Y-130302000D01*
X142367000Y-130302000D01*
X142367000Y-131551250D01*
X142525750Y-131710000D01*
X143140000Y-131713072D01*
X143264482Y-131700812D01*
X143384180Y-131664502D01*
X143494494Y-131605537D01*
X143591185Y-131526185D01*
X143670537Y-131429494D01*
X143729502Y-131319180D01*
X143735056Y-131300873D01*
X143801495Y-131367312D01*
X144052905Y-131535299D01*
X144332257Y-131651011D01*
X144628816Y-131710000D01*
X144931184Y-131710000D01*
X145227743Y-131651011D01*
X145507095Y-131535299D01*
X145758505Y-131367312D01*
X145972312Y-131153505D01*
X146024767Y-131075000D01*
X147178928Y-131075000D01*
X147191188Y-131199482D01*
X147227498Y-131319180D01*
X147286463Y-131429494D01*
X147365815Y-131526185D01*
X147462506Y-131605537D01*
X147572820Y-131664502D01*
X147692518Y-131700812D01*
X147817000Y-131713072D01*
X148431250Y-131710000D01*
X148590000Y-131551250D01*
X148590000Y-130302000D01*
X147340750Y-130302000D01*
X147182000Y-130460750D01*
X147178928Y-131075000D01*
X146024767Y-131075000D01*
X146140299Y-130902095D01*
X146256011Y-130622743D01*
X146315000Y-130326184D01*
X146315000Y-130023816D01*
X146256011Y-129727257D01*
X146140299Y-129447905D01*
X146024768Y-129275000D01*
X147178928Y-129275000D01*
X147182000Y-129889250D01*
X147340750Y-130048000D01*
X148590000Y-130048000D01*
X148590000Y-128798750D01*
X148431250Y-128640000D01*
X147817000Y-128636928D01*
X147692518Y-128649188D01*
X147572820Y-128685498D01*
X147462506Y-128744463D01*
X147365815Y-128823815D01*
X147286463Y-128920506D01*
X147227498Y-129030820D01*
X147191188Y-129150518D01*
X147178928Y-129275000D01*
X146024768Y-129275000D01*
X145972312Y-129196495D01*
X145758505Y-128982688D01*
X145507095Y-128814701D01*
X145227743Y-128698989D01*
X144931184Y-128640000D01*
X144628816Y-128640000D01*
X144332257Y-128698989D01*
X144052905Y-128814701D01*
X143801495Y-128982688D01*
X143735056Y-129049127D01*
X143729502Y-129030820D01*
X143670537Y-128920506D01*
X143591185Y-128823815D01*
X143494494Y-128744463D01*
X143384180Y-128685498D01*
X143264482Y-128649188D01*
X143140000Y-128636928D01*
X142525750Y-128640000D01*
X142367000Y-128798750D01*
X142113000Y-128798750D01*
X141954250Y-128640000D01*
X141340000Y-128636928D01*
X141215518Y-128649188D01*
X141095820Y-128685498D01*
X140985506Y-128744463D01*
X140888815Y-128823815D01*
X140809463Y-128920506D01*
X140750498Y-129030820D01*
X140714188Y-129150518D01*
X140701928Y-129275000D01*
X139547768Y-129275000D01*
X139495312Y-129196495D01*
X139281505Y-128982688D01*
X139030095Y-128814701D01*
X138750743Y-128698989D01*
X138454184Y-128640000D01*
X138151816Y-128640000D01*
X137855257Y-128698989D01*
X137575905Y-128814701D01*
X137324495Y-128982688D01*
X137258056Y-129049127D01*
X137252502Y-129030820D01*
X137193537Y-128920506D01*
X137114185Y-128823815D01*
X137017494Y-128744463D01*
X136907180Y-128685498D01*
X136787482Y-128649188D01*
X136663000Y-128636928D01*
X136048750Y-128640000D01*
X135890000Y-128798750D01*
X135636000Y-128798750D01*
X135477250Y-128640000D01*
X134863000Y-128636928D01*
X134738518Y-128649188D01*
X134618820Y-128685498D01*
X134508506Y-128744463D01*
X134411815Y-128823815D01*
X134332463Y-128920506D01*
X134273498Y-129030820D01*
X134237188Y-129150518D01*
X134224928Y-129275000D01*
X133070768Y-129275000D01*
X133018312Y-129196495D01*
X132804505Y-128982688D01*
X132553095Y-128814701D01*
X132273743Y-128698989D01*
X131977184Y-128640000D01*
X131674816Y-128640000D01*
X131378257Y-128698989D01*
X131098905Y-128814701D01*
X130847495Y-128982688D01*
X130781056Y-129049127D01*
X130775502Y-129030820D01*
X130716537Y-128920506D01*
X130637185Y-128823815D01*
X130540494Y-128744463D01*
X130430180Y-128685498D01*
X130310482Y-128649188D01*
X130186000Y-128636928D01*
X129571750Y-128640000D01*
X129413000Y-128798750D01*
X129159000Y-128798750D01*
X129000250Y-128640000D01*
X128386000Y-128636928D01*
X128261518Y-128649188D01*
X128141820Y-128685498D01*
X128031506Y-128744463D01*
X127934815Y-128823815D01*
X127855463Y-128920506D01*
X127796498Y-129030820D01*
X127760188Y-129150518D01*
X127747928Y-129275000D01*
X110769000Y-129275000D01*
X110769000Y-124979000D01*
X127747928Y-124979000D01*
X127760188Y-125103482D01*
X127796498Y-125223180D01*
X127855463Y-125333494D01*
X127934815Y-125430185D01*
X128031506Y-125509537D01*
X128141820Y-125568502D01*
X128261518Y-125604812D01*
X128386000Y-125617072D01*
X129000250Y-125614000D01*
X129159000Y-125455250D01*
X129159000Y-124206000D01*
X127909750Y-124206000D01*
X127751000Y-124364750D01*
X127747928Y-124979000D01*
X110769000Y-124979000D01*
X110769000Y-123179000D01*
X127747928Y-123179000D01*
X127751000Y-123793250D01*
X127909750Y-123952000D01*
X129159000Y-123952000D01*
X129159000Y-122702750D01*
X129413000Y-122702750D01*
X129413000Y-123952000D01*
X129433000Y-123952000D01*
X129433000Y-124206000D01*
X129413000Y-124206000D01*
X129413000Y-125455250D01*
X129571750Y-125614000D01*
X130186000Y-125617072D01*
X130310482Y-125604812D01*
X130430180Y-125568502D01*
X130540494Y-125509537D01*
X130637185Y-125430185D01*
X130716537Y-125333494D01*
X130775502Y-125223180D01*
X130781056Y-125204873D01*
X130847495Y-125271312D01*
X131098905Y-125439299D01*
X131378257Y-125555011D01*
X131674816Y-125614000D01*
X131977184Y-125614000D01*
X132273743Y-125555011D01*
X132553095Y-125439299D01*
X132804505Y-125271312D01*
X133018312Y-125057505D01*
X133070767Y-124979000D01*
X134224928Y-124979000D01*
X134237188Y-125103482D01*
X134273498Y-125223180D01*
X134332463Y-125333494D01*
X134411815Y-125430185D01*
X134508506Y-125509537D01*
X134618820Y-125568502D01*
X134738518Y-125604812D01*
X134863000Y-125617072D01*
X135477250Y-125614000D01*
X135636000Y-125455250D01*
X135636000Y-124206000D01*
X134386750Y-124206000D01*
X134228000Y-124364750D01*
X134224928Y-124979000D01*
X133070767Y-124979000D01*
X133186299Y-124806095D01*
X133302011Y-124526743D01*
X133361000Y-124230184D01*
X133361000Y-123927816D01*
X133302011Y-123631257D01*
X133186299Y-123351905D01*
X133070768Y-123179000D01*
X134224928Y-123179000D01*
X134228000Y-123793250D01*
X134386750Y-123952000D01*
X135636000Y-123952000D01*
X135636000Y-122702750D01*
X135890000Y-122702750D01*
X135890000Y-123952000D01*
X135910000Y-123952000D01*
X135910000Y-124206000D01*
X135890000Y-124206000D01*
X135890000Y-125455250D01*
X136048750Y-125614000D01*
X136663000Y-125617072D01*
X136787482Y-125604812D01*
X136907180Y-125568502D01*
X137017494Y-125509537D01*
X137114185Y-125430185D01*
X137193537Y-125333494D01*
X137252502Y-125223180D01*
X137258056Y-125204873D01*
X137324495Y-125271312D01*
X137575905Y-125439299D01*
X137855257Y-125555011D01*
X138151816Y-125614000D01*
X138454184Y-125614000D01*
X138750743Y-125555011D01*
X139030095Y-125439299D01*
X139281505Y-125271312D01*
X139495312Y-125057505D01*
X139547767Y-124979000D01*
X140701928Y-124979000D01*
X140714188Y-125103482D01*
X140750498Y-125223180D01*
X140809463Y-125333494D01*
X140888815Y-125430185D01*
X140985506Y-125509537D01*
X141095820Y-125568502D01*
X141215518Y-125604812D01*
X141340000Y-125617072D01*
X141954250Y-125614000D01*
X142113000Y-125455250D01*
X142113000Y-124206000D01*
X140863750Y-124206000D01*
X140705000Y-124364750D01*
X140701928Y-124979000D01*
X139547767Y-124979000D01*
X139663299Y-124806095D01*
X139779011Y-124526743D01*
X139838000Y-124230184D01*
X139838000Y-123927816D01*
X139779011Y-123631257D01*
X139663299Y-123351905D01*
X139547768Y-123179000D01*
X140701928Y-123179000D01*
X140705000Y-123793250D01*
X140863750Y-123952000D01*
X142113000Y-123952000D01*
X142113000Y-122702750D01*
X142367000Y-122702750D01*
X142367000Y-123952000D01*
X142387000Y-123952000D01*
X142387000Y-124206000D01*
X142367000Y-124206000D01*
X142367000Y-125455250D01*
X142525750Y-125614000D01*
X143140000Y-125617072D01*
X143264482Y-125604812D01*
X143384180Y-125568502D01*
X143494494Y-125509537D01*
X143591185Y-125430185D01*
X143670537Y-125333494D01*
X143729502Y-125223180D01*
X143735056Y-125204873D01*
X143801495Y-125271312D01*
X144052905Y-125439299D01*
X144332257Y-125555011D01*
X144628816Y-125614000D01*
X144931184Y-125614000D01*
X145227743Y-125555011D01*
X145507095Y-125439299D01*
X145758505Y-125271312D01*
X145972312Y-125057505D01*
X146024767Y-124979000D01*
X147178928Y-124979000D01*
X147191188Y-125103482D01*
X147227498Y-125223180D01*
X147286463Y-125333494D01*
X147365815Y-125430185D01*
X147462506Y-125509537D01*
X147572820Y-125568502D01*
X147692518Y-125604812D01*
X147817000Y-125617072D01*
X148431250Y-125614000D01*
X148590000Y-125455250D01*
X148590000Y-124206000D01*
X147340750Y-124206000D01*
X147182000Y-124364750D01*
X147178928Y-124979000D01*
X146024767Y-124979000D01*
X146140299Y-124806095D01*
X146256011Y-124526743D01*
X146315000Y-124230184D01*
X146315000Y-123927816D01*
X146256011Y-123631257D01*
X146140299Y-123351905D01*
X146024768Y-123179000D01*
X147178928Y-123179000D01*
X147182000Y-123793250D01*
X147340750Y-123952000D01*
X148590000Y-123952000D01*
X148590000Y-122702750D01*
X148431250Y-122544000D01*
X147817000Y-122540928D01*
X147692518Y-122553188D01*
X147572820Y-122589498D01*
X147462506Y-122648463D01*
X147365815Y-122727815D01*
X147286463Y-122824506D01*
X147227498Y-122934820D01*
X147191188Y-123054518D01*
X147178928Y-123179000D01*
X146024768Y-123179000D01*
X145972312Y-123100495D01*
X145758505Y-122886688D01*
X145507095Y-122718701D01*
X145227743Y-122602989D01*
X144931184Y-122544000D01*
X144628816Y-122544000D01*
X144332257Y-122602989D01*
X144052905Y-122718701D01*
X143801495Y-122886688D01*
X143735056Y-122953127D01*
X143729502Y-122934820D01*
X143670537Y-122824506D01*
X143591185Y-122727815D01*
X143494494Y-122648463D01*
X143384180Y-122589498D01*
X143264482Y-122553188D01*
X143140000Y-122540928D01*
X142525750Y-122544000D01*
X142367000Y-122702750D01*
X142113000Y-122702750D01*
X141954250Y-122544000D01*
X141340000Y-122540928D01*
X141215518Y-122553188D01*
X141095820Y-122589498D01*
X140985506Y-122648463D01*
X140888815Y-122727815D01*
X140809463Y-122824506D01*
X140750498Y-122934820D01*
X140714188Y-123054518D01*
X140701928Y-123179000D01*
X139547768Y-123179000D01*
X139495312Y-123100495D01*
X139281505Y-122886688D01*
X139030095Y-122718701D01*
X138750743Y-122602989D01*
X138454184Y-122544000D01*
X138151816Y-122544000D01*
X137855257Y-122602989D01*
X137575905Y-122718701D01*
X137324495Y-122886688D01*
X137258056Y-122953127D01*
X137252502Y-122934820D01*
X137193537Y-122824506D01*
X137114185Y-122727815D01*
X137017494Y-122648463D01*
X136907180Y-122589498D01*
X136787482Y-122553188D01*
X136663000Y-122540928D01*
X136048750Y-122544000D01*
X135890000Y-122702750D01*
X135636000Y-122702750D01*
X135477250Y-122544000D01*
X134863000Y-122540928D01*
X134738518Y-122553188D01*
X134618820Y-122589498D01*
X134508506Y-122648463D01*
X134411815Y-122727815D01*
X134332463Y-122824506D01*
X134273498Y-122934820D01*
X134237188Y-123054518D01*
X134224928Y-123179000D01*
X133070768Y-123179000D01*
X133018312Y-123100495D01*
X132804505Y-122886688D01*
X132553095Y-122718701D01*
X132273743Y-122602989D01*
X131977184Y-122544000D01*
X131674816Y-122544000D01*
X131378257Y-122602989D01*
X131098905Y-122718701D01*
X130847495Y-122886688D01*
X130781056Y-122953127D01*
X130775502Y-122934820D01*
X130716537Y-122824506D01*
X130637185Y-122727815D01*
X130540494Y-122648463D01*
X130430180Y-122589498D01*
X130310482Y-122553188D01*
X130186000Y-122540928D01*
X129571750Y-122544000D01*
X129413000Y-122702750D01*
X129159000Y-122702750D01*
X129000250Y-122544000D01*
X128386000Y-122540928D01*
X128261518Y-122553188D01*
X128141820Y-122589498D01*
X128031506Y-122648463D01*
X127934815Y-122727815D01*
X127855463Y-122824506D01*
X127796498Y-122934820D01*
X127760188Y-123054518D01*
X127747928Y-123179000D01*
X110769000Y-123179000D01*
X110769000Y-115613000D01*
X116371928Y-115613000D01*
X116371928Y-117813000D01*
X116384188Y-117937482D01*
X116420498Y-118057180D01*
X116479463Y-118167494D01*
X116558815Y-118264185D01*
X116655506Y-118343537D01*
X116765820Y-118402502D01*
X116885518Y-118438812D01*
X117010000Y-118451072D01*
X119210000Y-118451072D01*
X119334482Y-118438812D01*
X119454180Y-118402502D01*
X119564494Y-118343537D01*
X119661185Y-118264185D01*
X119733331Y-118176274D01*
X119778147Y-118401574D01*
X119886320Y-118662727D01*
X120043363Y-118897759D01*
X120243241Y-119097637D01*
X120478273Y-119254680D01*
X120739426Y-119362853D01*
X121016665Y-119418000D01*
X121299335Y-119418000D01*
X121576574Y-119362853D01*
X121837727Y-119254680D01*
X122072759Y-119097637D01*
X122272637Y-118897759D01*
X122429680Y-118662727D01*
X122537853Y-118401574D01*
X122593000Y-118124335D01*
X122593000Y-117841665D01*
X122557978Y-117665599D01*
X127378022Y-117665599D01*
X127343000Y-117841665D01*
X127343000Y-118124335D01*
X127398147Y-118401574D01*
X127506320Y-118662727D01*
X127663363Y-118897759D01*
X127863241Y-119097637D01*
X128098273Y-119254680D01*
X128359426Y-119362853D01*
X128636665Y-119418000D01*
X128919335Y-119418000D01*
X129196574Y-119362853D01*
X129457727Y-119254680D01*
X129692759Y-119097637D01*
X129892637Y-118897759D01*
X130048000Y-118665241D01*
X130203363Y-118897759D01*
X130403241Y-119097637D01*
X130638273Y-119254680D01*
X130899426Y-119362853D01*
X131176665Y-119418000D01*
X131459335Y-119418000D01*
X131736574Y-119362853D01*
X131997727Y-119254680D01*
X132232759Y-119097637D01*
X132432637Y-118897759D01*
X132589680Y-118662727D01*
X132697853Y-118401574D01*
X132753000Y-118124335D01*
X132753000Y-117841665D01*
X132717978Y-117665599D01*
X137538022Y-117665599D01*
X137503000Y-117841665D01*
X137503000Y-118124335D01*
X137558147Y-118401574D01*
X137666320Y-118662727D01*
X137823363Y-118897759D01*
X138023241Y-119097637D01*
X138258273Y-119254680D01*
X138519426Y-119362853D01*
X138796665Y-119418000D01*
X139079335Y-119418000D01*
X139184624Y-119397056D01*
X139468507Y-119680940D01*
X139494360Y-119712442D01*
X139558497Y-119765078D01*
X139620058Y-119815600D01*
X139763467Y-119892254D01*
X139919075Y-119939457D01*
X140040348Y-119951401D01*
X140040350Y-119951401D01*
X140080900Y-119955395D01*
X140121451Y-119951401D01*
X147914549Y-119951401D01*
X147955099Y-119955395D01*
X147995649Y-119951401D01*
X147995652Y-119951401D01*
X148116925Y-119939457D01*
X148272533Y-119892254D01*
X148415941Y-119815600D01*
X148541640Y-119712442D01*
X148567497Y-119680935D01*
X148851376Y-119397056D01*
X148956665Y-119418000D01*
X149170999Y-119418000D01*
X149146346Y-119499273D01*
X149130407Y-119661099D01*
X149134402Y-119701660D01*
X149134402Y-122543342D01*
X149002750Y-122544000D01*
X148844000Y-122702750D01*
X148844000Y-123952000D01*
X148864000Y-123952000D01*
X148864000Y-124206000D01*
X148844000Y-124206000D01*
X148844000Y-125455250D01*
X149002750Y-125614000D01*
X149134402Y-125614658D01*
X149134402Y-128639342D01*
X149002750Y-128640000D01*
X148844000Y-128798750D01*
X148844000Y-130048000D01*
X148864000Y-130048000D01*
X148864000Y-130302000D01*
X148844000Y-130302000D01*
X148844000Y-131551250D01*
X149002750Y-131710000D01*
X149134401Y-131710658D01*
X149134401Y-134735342D01*
X149002750Y-134736000D01*
X148844000Y-134894750D01*
X148844000Y-136144000D01*
X148864000Y-136144000D01*
X148864000Y-136398000D01*
X148844000Y-136398000D01*
X148844000Y-137647250D01*
X149002750Y-137806000D01*
X149134401Y-137806658D01*
X149134401Y-140831342D01*
X149002750Y-140832000D01*
X148844000Y-140990750D01*
X148844000Y-142240000D01*
X148864000Y-142240000D01*
X148864000Y-142494000D01*
X148844000Y-142494000D01*
X148844000Y-143743250D01*
X149002750Y-143902000D01*
X149617000Y-143905072D01*
X149741482Y-143892812D01*
X149861180Y-143856502D01*
X149971494Y-143797537D01*
X150068185Y-143718185D01*
X150147537Y-143621494D01*
X150206502Y-143511180D01*
X150212056Y-143492873D01*
X150278495Y-143559312D01*
X150529905Y-143727299D01*
X150809257Y-143843011D01*
X151105816Y-143902000D01*
X151408184Y-143902000D01*
X151704743Y-143843011D01*
X151984095Y-143727299D01*
X152235505Y-143559312D01*
X152449312Y-143345505D01*
X152617299Y-143094095D01*
X152733011Y-142814743D01*
X152792000Y-142518184D01*
X152792000Y-142215816D01*
X152733011Y-141919257D01*
X152617299Y-141639905D01*
X152449312Y-141388495D01*
X152387512Y-141326695D01*
X161881520Y-141326695D01*
X161950822Y-142078938D01*
X162165548Y-142803208D01*
X162517445Y-143471670D01*
X162544452Y-143512088D01*
X163034119Y-143872276D01*
X165555395Y-141351000D01*
X165914605Y-141351000D01*
X168435881Y-143872276D01*
X168925548Y-143512088D01*
X169285849Y-142848118D01*
X169509694Y-142126615D01*
X169588480Y-141375305D01*
X169519178Y-140623062D01*
X169304452Y-139898792D01*
X168952555Y-139230330D01*
X168925548Y-139189912D01*
X168435881Y-138829724D01*
X165914605Y-141351000D01*
X165555395Y-141351000D01*
X163034119Y-138829724D01*
X162544452Y-139189912D01*
X162184151Y-139853882D01*
X161960306Y-140575385D01*
X161881520Y-141326695D01*
X152387512Y-141326695D01*
X152235505Y-141174688D01*
X151984095Y-141006701D01*
X151704743Y-140890989D01*
X151408184Y-140832000D01*
X151105816Y-140832000D01*
X150925333Y-140867900D01*
X150785401Y-140727969D01*
X150785401Y-138650119D01*
X163213724Y-138650119D01*
X165735000Y-141171395D01*
X168256276Y-138650119D01*
X167896088Y-138160452D01*
X167232118Y-137800151D01*
X166510615Y-137576306D01*
X165759305Y-137497520D01*
X165007062Y-137566822D01*
X164282792Y-137781548D01*
X163614330Y-138133445D01*
X163573912Y-138160452D01*
X163213724Y-138650119D01*
X150785401Y-138650119D01*
X150785401Y-137737129D01*
X150809257Y-137747011D01*
X151105816Y-137806000D01*
X151408184Y-137806000D01*
X151704743Y-137747011D01*
X151984095Y-137631299D01*
X152235505Y-137463312D01*
X152449312Y-137249505D01*
X152617299Y-136998095D01*
X152733011Y-136718743D01*
X152792000Y-136422184D01*
X152792000Y-136119816D01*
X152756100Y-135939333D01*
X153335940Y-135359493D01*
X153367442Y-135333640D01*
X153438941Y-135246518D01*
X153470599Y-135207943D01*
X153475549Y-135198682D01*
X153547254Y-135064533D01*
X153594457Y-134908925D01*
X153606401Y-134787652D01*
X153606401Y-134787643D01*
X153610394Y-134747100D01*
X153606401Y-134706557D01*
X153606401Y-117841665D01*
X157823000Y-117841665D01*
X157823000Y-118124335D01*
X157878147Y-118401574D01*
X157986320Y-118662727D01*
X158143363Y-118897759D01*
X158343241Y-119097637D01*
X158578273Y-119254680D01*
X158839426Y-119362853D01*
X159116665Y-119418000D01*
X159399335Y-119418000D01*
X159676574Y-119362853D01*
X159937727Y-119254680D01*
X160172759Y-119097637D01*
X160372637Y-118897759D01*
X160529680Y-118662727D01*
X160637853Y-118401574D01*
X160693000Y-118124335D01*
X160693000Y-117841665D01*
X160637853Y-117564426D01*
X160600812Y-117475000D01*
X162107052Y-117475000D01*
X162135277Y-117761578D01*
X162218869Y-118037142D01*
X162354614Y-118291104D01*
X162537297Y-118513703D01*
X162759896Y-118696386D01*
X163013858Y-118832131D01*
X163289422Y-118915723D01*
X163504185Y-118936875D01*
X164917815Y-118936875D01*
X165132578Y-118915723D01*
X165408142Y-118832131D01*
X165662104Y-118696386D01*
X165884703Y-118513703D01*
X166067386Y-118291104D01*
X166203131Y-118037142D01*
X166286723Y-117761578D01*
X166314948Y-117475000D01*
X166286723Y-117188422D01*
X166203131Y-116912858D01*
X166067386Y-116658896D01*
X165884703Y-116436297D01*
X165662104Y-116253614D01*
X165408142Y-116117869D01*
X165132578Y-116034277D01*
X164917815Y-116013125D01*
X163504185Y-116013125D01*
X163289422Y-116034277D01*
X163013858Y-116117869D01*
X162759896Y-116253614D01*
X162537297Y-116436297D01*
X162354614Y-116658896D01*
X162218869Y-116912858D01*
X162135277Y-117188422D01*
X162107052Y-117475000D01*
X160600812Y-117475000D01*
X160529680Y-117303273D01*
X160372637Y-117068241D01*
X160172759Y-116868363D01*
X159937727Y-116711320D01*
X159676574Y-116603147D01*
X159399335Y-116548000D01*
X159116665Y-116548000D01*
X158839426Y-116603147D01*
X158578273Y-116711320D01*
X158343241Y-116868363D01*
X158143363Y-117068241D01*
X157986320Y-117303273D01*
X157878147Y-117564426D01*
X157823000Y-117841665D01*
X153606401Y-117841665D01*
X153606401Y-115737451D01*
X153610395Y-115696900D01*
X153603676Y-115628684D01*
X153594457Y-115535075D01*
X153547254Y-115379467D01*
X153541563Y-115368820D01*
X153470600Y-115236058D01*
X153393292Y-115141859D01*
X153367442Y-115110360D01*
X153335941Y-115084509D01*
X153052056Y-114800624D01*
X153073000Y-114695335D01*
X153073000Y-114412665D01*
X153017853Y-114135426D01*
X152909680Y-113874273D01*
X152854039Y-113791000D01*
X158041961Y-113791000D01*
X157986320Y-113874273D01*
X157878147Y-114135426D01*
X157823000Y-114412665D01*
X157823000Y-114695335D01*
X157878147Y-114972574D01*
X157986320Y-115233727D01*
X158143363Y-115468759D01*
X158343241Y-115668637D01*
X158578273Y-115825680D01*
X158839426Y-115933853D01*
X159116665Y-115989000D01*
X159399335Y-115989000D01*
X159676574Y-115933853D01*
X159937727Y-115825680D01*
X160172759Y-115668637D01*
X160372637Y-115468759D01*
X160529680Y-115233727D01*
X160637853Y-114972574D01*
X160693000Y-114695335D01*
X160693000Y-114412665D01*
X160637853Y-114135426D01*
X160529680Y-113874273D01*
X160474039Y-113791000D01*
X162518665Y-113791000D01*
X162537297Y-113813703D01*
X162759896Y-113996386D01*
X163013858Y-114132131D01*
X163289422Y-114215723D01*
X163504185Y-114236875D01*
X164917815Y-114236875D01*
X165132578Y-114215723D01*
X165408142Y-114132131D01*
X165662104Y-113996386D01*
X165884703Y-113813703D01*
X166067386Y-113591104D01*
X166203131Y-113337142D01*
X166286723Y-113061578D01*
X166314948Y-112775000D01*
X166286723Y-112488422D01*
X166203131Y-112212858D01*
X166067386Y-111958896D01*
X165884703Y-111736297D01*
X165662104Y-111553614D01*
X165408142Y-111417869D01*
X165132578Y-111334277D01*
X164917815Y-111313125D01*
X163504185Y-111313125D01*
X163289422Y-111334277D01*
X163013858Y-111417869D01*
X162759896Y-111553614D01*
X162537297Y-111736297D01*
X162518665Y-111759000D01*
X160548621Y-111759000D01*
X160637853Y-111543574D01*
X160693000Y-111266335D01*
X160693000Y-110983665D01*
X160637853Y-110706426D01*
X160529680Y-110445273D01*
X160372637Y-110210241D01*
X160172759Y-110010363D01*
X159937727Y-109853320D01*
X159676574Y-109745147D01*
X159399335Y-109690000D01*
X159116665Y-109690000D01*
X158839426Y-109745147D01*
X158578273Y-109853320D01*
X158343241Y-110010363D01*
X158143363Y-110210241D01*
X157986320Y-110445273D01*
X157878147Y-110706426D01*
X157823000Y-110983665D01*
X157823000Y-111266335D01*
X157878147Y-111543574D01*
X157967379Y-111759000D01*
X152928621Y-111759000D01*
X153017853Y-111543574D01*
X153073000Y-111266335D01*
X153073000Y-110983665D01*
X153017853Y-110706426D01*
X152909680Y-110445273D01*
X152752637Y-110210241D01*
X152552759Y-110010363D01*
X152317727Y-109853320D01*
X152056574Y-109745147D01*
X151779335Y-109690000D01*
X151496665Y-109690000D01*
X151219426Y-109745147D01*
X150958273Y-109853320D01*
X150723241Y-110010363D01*
X150523363Y-110210241D01*
X150368000Y-110442759D01*
X150212637Y-110210241D01*
X150012759Y-110010363D01*
X149777727Y-109853320D01*
X149516574Y-109745147D01*
X149239335Y-109690000D01*
X148956665Y-109690000D01*
X148679426Y-109745147D01*
X148418273Y-109853320D01*
X148183241Y-110010363D01*
X147983363Y-110210241D01*
X147826320Y-110445273D01*
X147718147Y-110706426D01*
X147663000Y-110983665D01*
X147663000Y-111266335D01*
X147718147Y-111543574D01*
X147826320Y-111804727D01*
X147983363Y-112039759D01*
X148092665Y-112149061D01*
X144608127Y-115633599D01*
X142427797Y-115633599D01*
X142592637Y-115468759D01*
X142749680Y-115233727D01*
X142857853Y-114972574D01*
X142913000Y-114695335D01*
X142913000Y-114412665D01*
X142857853Y-114135426D01*
X142749680Y-113874273D01*
X142592637Y-113639241D01*
X142392759Y-113439363D01*
X142157727Y-113282320D01*
X141896574Y-113174147D01*
X141619335Y-113119000D01*
X141336665Y-113119000D01*
X141059426Y-113174147D01*
X140798273Y-113282320D01*
X140563241Y-113439363D01*
X140363363Y-113639241D01*
X140208000Y-113871759D01*
X140052637Y-113639241D01*
X139852759Y-113439363D01*
X139617727Y-113282320D01*
X139356574Y-113174147D01*
X139079335Y-113119000D01*
X138796665Y-113119000D01*
X138519426Y-113174147D01*
X138258273Y-113282320D01*
X138023241Y-113439363D01*
X137823363Y-113639241D01*
X137666320Y-113874273D01*
X137558147Y-114135426D01*
X137503000Y-114412665D01*
X137503000Y-114695335D01*
X137558147Y-114972574D01*
X137666320Y-115233727D01*
X137823363Y-115468759D01*
X137988203Y-115633599D01*
X132267797Y-115633599D01*
X132432637Y-115468759D01*
X132589680Y-115233727D01*
X132697853Y-114972574D01*
X132753000Y-114695335D01*
X132753000Y-114412665D01*
X132697853Y-114135426D01*
X132589680Y-113874273D01*
X132432637Y-113639241D01*
X132232759Y-113439363D01*
X131997727Y-113282320D01*
X131736574Y-113174147D01*
X131459335Y-113119000D01*
X131176665Y-113119000D01*
X130899426Y-113174147D01*
X130638273Y-113282320D01*
X130403241Y-113439363D01*
X130203363Y-113639241D01*
X130048000Y-113871759D01*
X129892637Y-113639241D01*
X129692759Y-113439363D01*
X129457727Y-113282320D01*
X129196574Y-113174147D01*
X128919335Y-113119000D01*
X128636665Y-113119000D01*
X128359426Y-113174147D01*
X128098273Y-113282320D01*
X127863241Y-113439363D01*
X127663363Y-113639241D01*
X127506320Y-113874273D01*
X127398147Y-114135426D01*
X127343000Y-114412665D01*
X127343000Y-114695335D01*
X127398147Y-114972574D01*
X127506320Y-115233727D01*
X127663363Y-115468759D01*
X127828203Y-115633599D01*
X122107797Y-115633599D01*
X122272637Y-115468759D01*
X122429680Y-115233727D01*
X122537853Y-114972574D01*
X122593000Y-114695335D01*
X122593000Y-114412665D01*
X122537853Y-114135426D01*
X122429680Y-113874273D01*
X122272637Y-113639241D01*
X122072759Y-113439363D01*
X121837727Y-113282320D01*
X121576574Y-113174147D01*
X121299335Y-113119000D01*
X121016665Y-113119000D01*
X120739426Y-113174147D01*
X120478273Y-113282320D01*
X120243241Y-113439363D01*
X120043363Y-113639241D01*
X119886320Y-113874273D01*
X119778147Y-114135426D01*
X119723000Y-114412665D01*
X119723000Y-114695335D01*
X119778147Y-114972574D01*
X119886320Y-115233727D01*
X120043363Y-115468759D01*
X120208203Y-115633599D01*
X119848072Y-115633599D01*
X119848072Y-115613000D01*
X119835812Y-115488518D01*
X119799502Y-115368820D01*
X119740537Y-115258506D01*
X119661185Y-115161815D01*
X119564494Y-115082463D01*
X119454180Y-115023498D01*
X119334482Y-114987188D01*
X119210000Y-114974928D01*
X117010000Y-114974928D01*
X116885518Y-114987188D01*
X116765820Y-115023498D01*
X116655506Y-115082463D01*
X116558815Y-115161815D01*
X116479463Y-115258506D01*
X116420498Y-115368820D01*
X116384188Y-115488518D01*
X116371928Y-115613000D01*
X110769000Y-115613000D01*
X110769000Y-110983665D01*
X119723000Y-110983665D01*
X119723000Y-111266335D01*
X119778147Y-111543574D01*
X119886320Y-111804727D01*
X120043363Y-112039759D01*
X120243241Y-112239637D01*
X120478273Y-112396680D01*
X120739426Y-112504853D01*
X121016665Y-112560000D01*
X121299335Y-112560000D01*
X121576574Y-112504853D01*
X121837727Y-112396680D01*
X122072759Y-112239637D01*
X122272637Y-112039759D01*
X122429680Y-111804727D01*
X122537853Y-111543574D01*
X122593000Y-111266335D01*
X122593000Y-110983665D01*
X127343000Y-110983665D01*
X127343000Y-111266335D01*
X127398147Y-111543574D01*
X127506320Y-111804727D01*
X127663363Y-112039759D01*
X127863241Y-112239637D01*
X128098273Y-112396680D01*
X128359426Y-112504853D01*
X128636665Y-112560000D01*
X128919335Y-112560000D01*
X129196574Y-112504853D01*
X129457727Y-112396680D01*
X129692759Y-112239637D01*
X129892637Y-112039759D01*
X130048000Y-111807241D01*
X130203363Y-112039759D01*
X130403241Y-112239637D01*
X130638273Y-112396680D01*
X130899426Y-112504853D01*
X131176665Y-112560000D01*
X131459335Y-112560000D01*
X131736574Y-112504853D01*
X131997727Y-112396680D01*
X132232759Y-112239637D01*
X132432637Y-112039759D01*
X132589680Y-111804727D01*
X132697853Y-111543574D01*
X132753000Y-111266335D01*
X132753000Y-110983665D01*
X137503000Y-110983665D01*
X137503000Y-111266335D01*
X137558147Y-111543574D01*
X137666320Y-111804727D01*
X137823363Y-112039759D01*
X138023241Y-112239637D01*
X138258273Y-112396680D01*
X138519426Y-112504853D01*
X138796665Y-112560000D01*
X139079335Y-112560000D01*
X139356574Y-112504853D01*
X139617727Y-112396680D01*
X139852759Y-112239637D01*
X140052637Y-112039759D01*
X140208000Y-111807241D01*
X140363363Y-112039759D01*
X140563241Y-112239637D01*
X140798273Y-112396680D01*
X141059426Y-112504853D01*
X141336665Y-112560000D01*
X141619335Y-112560000D01*
X141896574Y-112504853D01*
X142157727Y-112396680D01*
X142392759Y-112239637D01*
X142592637Y-112039759D01*
X142749680Y-111804727D01*
X142857853Y-111543574D01*
X142913000Y-111266335D01*
X142913000Y-110983665D01*
X142857853Y-110706426D01*
X142749680Y-110445273D01*
X142592637Y-110210241D01*
X142392759Y-110010363D01*
X142157727Y-109853320D01*
X141896574Y-109745147D01*
X141619335Y-109690000D01*
X141336665Y-109690000D01*
X141059426Y-109745147D01*
X140798273Y-109853320D01*
X140563241Y-110010363D01*
X140363363Y-110210241D01*
X140208000Y-110442759D01*
X140052637Y-110210241D01*
X139852759Y-110010363D01*
X139617727Y-109853320D01*
X139356574Y-109745147D01*
X139079335Y-109690000D01*
X138796665Y-109690000D01*
X138519426Y-109745147D01*
X138258273Y-109853320D01*
X138023241Y-110010363D01*
X137823363Y-110210241D01*
X137666320Y-110445273D01*
X137558147Y-110706426D01*
X137503000Y-110983665D01*
X132753000Y-110983665D01*
X132697853Y-110706426D01*
X132589680Y-110445273D01*
X132432637Y-110210241D01*
X132232759Y-110010363D01*
X131997727Y-109853320D01*
X131736574Y-109745147D01*
X131459335Y-109690000D01*
X131176665Y-109690000D01*
X130899426Y-109745147D01*
X130638273Y-109853320D01*
X130403241Y-110010363D01*
X130203363Y-110210241D01*
X130048000Y-110442759D01*
X129892637Y-110210241D01*
X129692759Y-110010363D01*
X129457727Y-109853320D01*
X129196574Y-109745147D01*
X128919335Y-109690000D01*
X128636665Y-109690000D01*
X128359426Y-109745147D01*
X128098273Y-109853320D01*
X127863241Y-110010363D01*
X127663363Y-110210241D01*
X127506320Y-110445273D01*
X127398147Y-110706426D01*
X127343000Y-110983665D01*
X122593000Y-110983665D01*
X122537853Y-110706426D01*
X122429680Y-110445273D01*
X122272637Y-110210241D01*
X122072759Y-110010363D01*
X121837727Y-109853320D01*
X121576574Y-109745147D01*
X121299335Y-109690000D01*
X121016665Y-109690000D01*
X120739426Y-109745147D01*
X120478273Y-109853320D01*
X120243241Y-110010363D01*
X120043363Y-110210241D01*
X119886320Y-110445273D01*
X119778147Y-110706426D01*
X119723000Y-110983665D01*
X110769000Y-110983665D01*
X110769000Y-108922117D01*
X116375000Y-108922117D01*
X116375000Y-109263883D01*
X116441675Y-109599081D01*
X116572463Y-109914831D01*
X116762337Y-110198998D01*
X117004002Y-110440663D01*
X117288169Y-110630537D01*
X117603919Y-110761325D01*
X117939117Y-110828000D01*
X118280883Y-110828000D01*
X118616081Y-110761325D01*
X118931831Y-110630537D01*
X119215998Y-110440663D01*
X119457663Y-110198998D01*
X119647537Y-109914831D01*
X119778325Y-109599081D01*
X119845000Y-109263883D01*
X119845000Y-108922117D01*
X119778325Y-108586919D01*
X119647537Y-108271169D01*
X119457663Y-107987002D01*
X119215998Y-107745337D01*
X118931831Y-107555463D01*
X118929905Y-107554665D01*
X119723000Y-107554665D01*
X119723000Y-107837335D01*
X119778147Y-108114574D01*
X119886320Y-108375727D01*
X120043363Y-108610759D01*
X120243241Y-108810637D01*
X120478273Y-108967680D01*
X120739426Y-109075853D01*
X121016665Y-109131000D01*
X121299335Y-109131000D01*
X121576574Y-109075853D01*
X121837727Y-108967680D01*
X122072759Y-108810637D01*
X122272637Y-108610759D01*
X122429680Y-108375727D01*
X122537853Y-108114574D01*
X122593000Y-107837335D01*
X122593000Y-107554665D01*
X127343000Y-107554665D01*
X127343000Y-107837335D01*
X127398147Y-108114574D01*
X127506320Y-108375727D01*
X127663363Y-108610759D01*
X127863241Y-108810637D01*
X128098273Y-108967680D01*
X128359426Y-109075853D01*
X128636665Y-109131000D01*
X128919335Y-109131000D01*
X129196574Y-109075853D01*
X129457727Y-108967680D01*
X129692759Y-108810637D01*
X129892637Y-108610759D01*
X130048000Y-108378241D01*
X130203363Y-108610759D01*
X130403241Y-108810637D01*
X130638273Y-108967680D01*
X130899426Y-109075853D01*
X131176665Y-109131000D01*
X131459335Y-109131000D01*
X131736574Y-109075853D01*
X131997727Y-108967680D01*
X132232759Y-108810637D01*
X132432637Y-108610759D01*
X132589680Y-108375727D01*
X132697853Y-108114574D01*
X132753000Y-107837335D01*
X132753000Y-107554665D01*
X137503000Y-107554665D01*
X137503000Y-107837335D01*
X137558147Y-108114574D01*
X137666320Y-108375727D01*
X137823363Y-108610759D01*
X138023241Y-108810637D01*
X138258273Y-108967680D01*
X138519426Y-109075853D01*
X138796665Y-109131000D01*
X139079335Y-109131000D01*
X139356574Y-109075853D01*
X139617727Y-108967680D01*
X139852759Y-108810637D01*
X140052637Y-108610759D01*
X140208000Y-108378241D01*
X140363363Y-108610759D01*
X140563241Y-108810637D01*
X140798273Y-108967680D01*
X141059426Y-109075853D01*
X141336665Y-109131000D01*
X141619335Y-109131000D01*
X141896574Y-109075853D01*
X142157727Y-108967680D01*
X142392759Y-108810637D01*
X142592637Y-108610759D01*
X142749680Y-108375727D01*
X142857853Y-108114574D01*
X142913000Y-107837335D01*
X142913000Y-107554665D01*
X147663000Y-107554665D01*
X147663000Y-107837335D01*
X147718147Y-108114574D01*
X147826320Y-108375727D01*
X147983363Y-108610759D01*
X148183241Y-108810637D01*
X148418273Y-108967680D01*
X148679426Y-109075853D01*
X148956665Y-109131000D01*
X149239335Y-109131000D01*
X149516574Y-109075853D01*
X149777727Y-108967680D01*
X150012759Y-108810637D01*
X150212637Y-108610759D01*
X150368000Y-108378241D01*
X150523363Y-108610759D01*
X150723241Y-108810637D01*
X150958273Y-108967680D01*
X151219426Y-109075853D01*
X151496665Y-109131000D01*
X151779335Y-109131000D01*
X152056574Y-109075853D01*
X152317727Y-108967680D01*
X152552759Y-108810637D01*
X152752637Y-108610759D01*
X152909680Y-108375727D01*
X153017853Y-108114574D01*
X153073000Y-107837335D01*
X153073000Y-107554665D01*
X157823000Y-107554665D01*
X157823000Y-107837335D01*
X157878147Y-108114574D01*
X157986320Y-108375727D01*
X158143363Y-108610759D01*
X158343241Y-108810637D01*
X158578273Y-108967680D01*
X158839426Y-109075853D01*
X159116665Y-109131000D01*
X159399335Y-109131000D01*
X159676574Y-109075853D01*
X159937727Y-108967680D01*
X160172759Y-108810637D01*
X160372637Y-108610759D01*
X160494579Y-108428259D01*
X162157449Y-108428259D01*
X162176802Y-108517103D01*
X162289937Y-108781578D01*
X162452495Y-109018900D01*
X162658229Y-109219948D01*
X162899232Y-109376996D01*
X163166243Y-109484009D01*
X163449000Y-109536875D01*
X164084000Y-109536875D01*
X164084000Y-108202000D01*
X164338000Y-108202000D01*
X164338000Y-109536875D01*
X164973000Y-109536875D01*
X165255757Y-109484009D01*
X165522768Y-109376996D01*
X165763771Y-109219948D01*
X165969505Y-109018900D01*
X166132063Y-108781578D01*
X166245198Y-108517103D01*
X166264551Y-108428259D01*
X166142922Y-108202000D01*
X164338000Y-108202000D01*
X164084000Y-108202000D01*
X162279078Y-108202000D01*
X162157449Y-108428259D01*
X160494579Y-108428259D01*
X160529680Y-108375727D01*
X160637853Y-108114574D01*
X160693000Y-107837335D01*
X160693000Y-107721741D01*
X162157449Y-107721741D01*
X162279078Y-107948000D01*
X164084000Y-107948000D01*
X164084000Y-106613125D01*
X164338000Y-106613125D01*
X164338000Y-107948000D01*
X166142922Y-107948000D01*
X166264551Y-107721741D01*
X166245198Y-107632897D01*
X166132063Y-107368422D01*
X165969505Y-107131100D01*
X165763771Y-106930052D01*
X165522768Y-106773004D01*
X165255757Y-106665991D01*
X164973000Y-106613125D01*
X164338000Y-106613125D01*
X164084000Y-106613125D01*
X163449000Y-106613125D01*
X163166243Y-106665991D01*
X162899232Y-106773004D01*
X162658229Y-106930052D01*
X162452495Y-107131100D01*
X162289937Y-107368422D01*
X162176802Y-107632897D01*
X162157449Y-107721741D01*
X160693000Y-107721741D01*
X160693000Y-107554665D01*
X160637853Y-107277426D01*
X160529680Y-107016273D01*
X160372637Y-106781241D01*
X160172759Y-106581363D01*
X159937727Y-106424320D01*
X159676574Y-106316147D01*
X159399335Y-106261000D01*
X159116665Y-106261000D01*
X158839426Y-106316147D01*
X158578273Y-106424320D01*
X158343241Y-106581363D01*
X158143363Y-106781241D01*
X157986320Y-107016273D01*
X157878147Y-107277426D01*
X157823000Y-107554665D01*
X153073000Y-107554665D01*
X153017853Y-107277426D01*
X152909680Y-107016273D01*
X152752637Y-106781241D01*
X152552759Y-106581363D01*
X152317727Y-106424320D01*
X152056574Y-106316147D01*
X151779335Y-106261000D01*
X151496665Y-106261000D01*
X151219426Y-106316147D01*
X150958273Y-106424320D01*
X150723241Y-106581363D01*
X150523363Y-106781241D01*
X150368000Y-107013759D01*
X150212637Y-106781241D01*
X150012759Y-106581363D01*
X149777727Y-106424320D01*
X149516574Y-106316147D01*
X149239335Y-106261000D01*
X148956665Y-106261000D01*
X148679426Y-106316147D01*
X148418273Y-106424320D01*
X148183241Y-106581363D01*
X147983363Y-106781241D01*
X147826320Y-107016273D01*
X147718147Y-107277426D01*
X147663000Y-107554665D01*
X142913000Y-107554665D01*
X142857853Y-107277426D01*
X142749680Y-107016273D01*
X142592637Y-106781241D01*
X142392759Y-106581363D01*
X142157727Y-106424320D01*
X141896574Y-106316147D01*
X141619335Y-106261000D01*
X141336665Y-106261000D01*
X141059426Y-106316147D01*
X140798273Y-106424320D01*
X140563241Y-106581363D01*
X140363363Y-106781241D01*
X140208000Y-107013759D01*
X140052637Y-106781241D01*
X139852759Y-106581363D01*
X139617727Y-106424320D01*
X139356574Y-106316147D01*
X139079335Y-106261000D01*
X138796665Y-106261000D01*
X138519426Y-106316147D01*
X138258273Y-106424320D01*
X138023241Y-106581363D01*
X137823363Y-106781241D01*
X137666320Y-107016273D01*
X137558147Y-107277426D01*
X137503000Y-107554665D01*
X132753000Y-107554665D01*
X132697853Y-107277426D01*
X132589680Y-107016273D01*
X132432637Y-106781241D01*
X132232759Y-106581363D01*
X131997727Y-106424320D01*
X131736574Y-106316147D01*
X131459335Y-106261000D01*
X131176665Y-106261000D01*
X130899426Y-106316147D01*
X130638273Y-106424320D01*
X130403241Y-106581363D01*
X130203363Y-106781241D01*
X130048000Y-107013759D01*
X129892637Y-106781241D01*
X129692759Y-106581363D01*
X129457727Y-106424320D01*
X129196574Y-106316147D01*
X128919335Y-106261000D01*
X128636665Y-106261000D01*
X128359426Y-106316147D01*
X128098273Y-106424320D01*
X127863241Y-106581363D01*
X127663363Y-106781241D01*
X127506320Y-107016273D01*
X127398147Y-107277426D01*
X127343000Y-107554665D01*
X122593000Y-107554665D01*
X122537853Y-107277426D01*
X122429680Y-107016273D01*
X122272637Y-106781241D01*
X122072759Y-106581363D01*
X121837727Y-106424320D01*
X121576574Y-106316147D01*
X121299335Y-106261000D01*
X121016665Y-106261000D01*
X120739426Y-106316147D01*
X120478273Y-106424320D01*
X120243241Y-106581363D01*
X120043363Y-106781241D01*
X119886320Y-107016273D01*
X119778147Y-107277426D01*
X119723000Y-107554665D01*
X118929905Y-107554665D01*
X118616081Y-107424675D01*
X118280883Y-107358000D01*
X117939117Y-107358000D01*
X117603919Y-107424675D01*
X117288169Y-107555463D01*
X117004002Y-107745337D01*
X116762337Y-107987002D01*
X116572463Y-108271169D01*
X116441675Y-108586919D01*
X116375000Y-108922117D01*
X110769000Y-108922117D01*
X110769000Y-100190419D01*
X125043000Y-100190419D01*
X125043000Y-100571581D01*
X125117361Y-100945419D01*
X125263225Y-101297566D01*
X125474987Y-101614491D01*
X125744509Y-101884013D01*
X126061434Y-102095775D01*
X126413581Y-102241639D01*
X126787419Y-102316000D01*
X127168581Y-102316000D01*
X127542419Y-102241639D01*
X127894566Y-102095775D01*
X128211491Y-101884013D01*
X128481013Y-101614491D01*
X128692775Y-101297566D01*
X128838639Y-100945419D01*
X128913000Y-100571581D01*
X128913000Y-100190419D01*
X153043000Y-100190419D01*
X153043000Y-100571581D01*
X153117361Y-100945419D01*
X153263225Y-101297566D01*
X153474987Y-101614491D01*
X153744509Y-101884013D01*
X154061434Y-102095775D01*
X154413581Y-102241639D01*
X154787419Y-102316000D01*
X155168581Y-102316000D01*
X155542419Y-102241639D01*
X155894566Y-102095775D01*
X156211491Y-101884013D01*
X156481013Y-101614491D01*
X156692775Y-101297566D01*
X156838639Y-100945419D01*
X156913000Y-100571581D01*
X156913000Y-100190419D01*
X156838639Y-99816581D01*
X156692775Y-99464434D01*
X156481013Y-99147509D01*
X156211491Y-98877987D01*
X155894566Y-98666225D01*
X155542419Y-98520361D01*
X155168581Y-98446000D01*
X154787419Y-98446000D01*
X154413581Y-98520361D01*
X154061434Y-98666225D01*
X153744509Y-98877987D01*
X153474987Y-99147509D01*
X153263225Y-99464434D01*
X153117361Y-99816581D01*
X153043000Y-100190419D01*
X128913000Y-100190419D01*
X128838639Y-99816581D01*
X128692775Y-99464434D01*
X128481013Y-99147509D01*
X128211491Y-98877987D01*
X127894566Y-98666225D01*
X127542419Y-98520361D01*
X127168581Y-98446000D01*
X126787419Y-98446000D01*
X126413581Y-98520361D01*
X126061434Y-98666225D01*
X125744509Y-98877987D01*
X125474987Y-99147509D01*
X125263225Y-99464434D01*
X125117361Y-99816581D01*
X125043000Y-100190419D01*
X110769000Y-100190419D01*
X110769000Y-97122653D01*
X114765952Y-97122653D01*
X114921962Y-97438214D01*
X115296745Y-97629020D01*
X115701551Y-97743044D01*
X116120824Y-97775902D01*
X116538451Y-97726334D01*
X116938383Y-97596243D01*
X117234038Y-97438214D01*
X117390048Y-97122653D01*
X116078000Y-95810605D01*
X114765952Y-97122653D01*
X110769000Y-97122653D01*
X110769000Y-95673824D01*
X113933098Y-95673824D01*
X113982666Y-96091451D01*
X114112757Y-96491383D01*
X114270786Y-96787038D01*
X114586347Y-96943048D01*
X115898395Y-95631000D01*
X116257605Y-95631000D01*
X117569653Y-96943048D01*
X117885214Y-96787038D01*
X118076020Y-96412255D01*
X118190044Y-96007449D01*
X118222902Y-95588176D01*
X118173334Y-95170549D01*
X118043243Y-94770617D01*
X117885214Y-94474962D01*
X117569653Y-94318952D01*
X116257605Y-95631000D01*
X115898395Y-95631000D01*
X114586347Y-94318952D01*
X114270786Y-94474962D01*
X114079980Y-94849745D01*
X113965956Y-95254551D01*
X113933098Y-95673824D01*
X110769000Y-95673824D01*
X110769000Y-94139347D01*
X114765952Y-94139347D01*
X116078000Y-95451395D01*
X117390048Y-94139347D01*
X117234038Y-93823786D01*
X116859255Y-93632980D01*
X116454449Y-93518956D01*
X116035176Y-93486098D01*
X115617549Y-93535666D01*
X115217617Y-93665757D01*
X114921962Y-93823786D01*
X114765952Y-94139347D01*
X110769000Y-94139347D01*
X110769000Y-81431000D01*
X113939928Y-81431000D01*
X113939928Y-84431000D01*
X113952188Y-84555482D01*
X113988498Y-84675180D01*
X114047463Y-84785494D01*
X114126815Y-84882185D01*
X114223506Y-84961537D01*
X114333820Y-85020502D01*
X114453518Y-85056812D01*
X114578000Y-85069072D01*
X117578000Y-85069072D01*
X117702482Y-85056812D01*
X117822180Y-85020502D01*
X117932494Y-84961537D01*
X118029185Y-84882185D01*
X118108537Y-84785494D01*
X118167502Y-84675180D01*
X118203812Y-84555482D01*
X118216072Y-84431000D01*
X118216072Y-81431000D01*
X118203812Y-81306518D01*
X118167502Y-81186820D01*
X118108537Y-81076506D01*
X118029185Y-80979815D01*
X117932494Y-80900463D01*
X117822180Y-80841498D01*
X117702482Y-80805188D01*
X117578000Y-80792928D01*
X114578000Y-80792928D01*
X114453518Y-80805188D01*
X114333820Y-80841498D01*
X114223506Y-80900463D01*
X114126815Y-80979815D01*
X114047463Y-81076506D01*
X113988498Y-81186820D01*
X113952188Y-81306518D01*
X113939928Y-81431000D01*
X110769000Y-81431000D01*
X110769000Y-77990419D01*
X139043000Y-77990419D01*
X139043000Y-78371581D01*
X139117361Y-78745419D01*
X139263225Y-79097566D01*
X139474987Y-79414491D01*
X139744509Y-79684013D01*
X140061434Y-79895775D01*
X140413581Y-80041639D01*
X140787419Y-80116000D01*
X141168581Y-80116000D01*
X141542419Y-80041639D01*
X141894566Y-79895775D01*
X142211491Y-79684013D01*
X142481013Y-79414491D01*
X142692775Y-79097566D01*
X142838639Y-78745419D01*
X142913000Y-78371581D01*
X142913000Y-77990419D01*
X142838639Y-77616581D01*
X142692775Y-77264434D01*
X142481013Y-76947509D01*
X142211491Y-76677987D01*
X141894566Y-76466225D01*
X141542419Y-76320361D01*
X141168581Y-76246000D01*
X140787419Y-76246000D01*
X140413581Y-76320361D01*
X140061434Y-76466225D01*
X139744509Y-76677987D01*
X139474987Y-76947509D01*
X139263225Y-77264434D01*
X139117361Y-77616581D01*
X139043000Y-77990419D01*
X110769000Y-77990419D01*
X110769000Y-68806000D01*
X123087928Y-68806000D01*
X123100188Y-68930482D01*
X123136498Y-69050180D01*
X123195463Y-69160494D01*
X123274815Y-69257185D01*
X123371506Y-69336537D01*
X123481820Y-69395502D01*
X123601518Y-69431812D01*
X123726000Y-69444072D01*
X125190250Y-69441000D01*
X125349000Y-69282250D01*
X125349000Y-67183000D01*
X125603000Y-67183000D01*
X125603000Y-69282250D01*
X125761750Y-69441000D01*
X127226000Y-69444072D01*
X127350482Y-69431812D01*
X127470180Y-69395502D01*
X127580494Y-69336537D01*
X127677185Y-69257185D01*
X127756537Y-69160494D01*
X127815502Y-69050180D01*
X127851812Y-68930482D01*
X127864072Y-68806000D01*
X127861000Y-67341750D01*
X127702250Y-67183000D01*
X125603000Y-67183000D01*
X125349000Y-67183000D01*
X123249750Y-67183000D01*
X123091000Y-67341750D01*
X123087928Y-68806000D01*
X110769000Y-68806000D01*
X110769000Y-65946881D01*
X112159724Y-65946881D01*
X112519912Y-66436548D01*
X113183882Y-66796849D01*
X113905385Y-67020694D01*
X114656695Y-67099480D01*
X115408938Y-67030178D01*
X116133208Y-66815452D01*
X116801670Y-66463555D01*
X116842088Y-66436548D01*
X117202276Y-65946881D01*
X114681000Y-63425605D01*
X112159724Y-65946881D01*
X110769000Y-65946881D01*
X110769000Y-63221695D01*
X110827520Y-63221695D01*
X110896822Y-63973938D01*
X111111548Y-64698208D01*
X111463445Y-65366670D01*
X111490452Y-65407088D01*
X111980119Y-65767276D01*
X114501395Y-63246000D01*
X114860605Y-63246000D01*
X117381881Y-65767276D01*
X117871548Y-65407088D01*
X117926403Y-65306000D01*
X123087928Y-65306000D01*
X123091000Y-66770250D01*
X123249750Y-66929000D01*
X125349000Y-66929000D01*
X125349000Y-64829750D01*
X125603000Y-64829750D01*
X125603000Y-66929000D01*
X127702250Y-66929000D01*
X127861000Y-66770250D01*
X127862498Y-66056000D01*
X129337928Y-66056000D01*
X129337928Y-68056000D01*
X129364599Y-68326799D01*
X129443589Y-68587192D01*
X129571860Y-68827171D01*
X129744485Y-69037515D01*
X129954829Y-69210140D01*
X130194808Y-69338411D01*
X130455201Y-69417401D01*
X130726000Y-69444072D01*
X132226000Y-69444072D01*
X132496799Y-69417401D01*
X132757192Y-69338411D01*
X132997171Y-69210140D01*
X133207515Y-69037515D01*
X133380140Y-68827171D01*
X133508411Y-68587192D01*
X133587401Y-68326799D01*
X133614072Y-68056000D01*
X133614072Y-66056000D01*
X133603325Y-65946881D01*
X163213724Y-65946881D01*
X163573912Y-66436548D01*
X164237882Y-66796849D01*
X164959385Y-67020694D01*
X165710695Y-67099480D01*
X166462938Y-67030178D01*
X167187208Y-66815452D01*
X167855670Y-66463555D01*
X167896088Y-66436548D01*
X168256276Y-65946881D01*
X165735000Y-63425605D01*
X163213724Y-65946881D01*
X133603325Y-65946881D01*
X133587401Y-65785201D01*
X133508411Y-65524808D01*
X133380140Y-65284829D01*
X133207515Y-65074485D01*
X132997171Y-64901860D01*
X132757192Y-64773589D01*
X132496799Y-64694599D01*
X132226000Y-64667928D01*
X130726000Y-64667928D01*
X130455201Y-64694599D01*
X130194808Y-64773589D01*
X129954829Y-64901860D01*
X129744485Y-65074485D01*
X129571860Y-65284829D01*
X129443589Y-65524808D01*
X129364599Y-65785201D01*
X129337928Y-66056000D01*
X127862498Y-66056000D01*
X127864072Y-65306000D01*
X127851812Y-65181518D01*
X127815502Y-65061820D01*
X127756537Y-64951506D01*
X127677185Y-64854815D01*
X127580494Y-64775463D01*
X127503869Y-64734506D01*
X127601000Y-64744072D01*
X129351000Y-64744072D01*
X129646186Y-64714999D01*
X129930028Y-64628896D01*
X130191618Y-64489073D01*
X130420903Y-64300903D01*
X130609073Y-64071618D01*
X130748896Y-63810028D01*
X130834999Y-63526186D01*
X130864072Y-63231000D01*
X130864072Y-63221695D01*
X161881520Y-63221695D01*
X161950822Y-63973938D01*
X162165548Y-64698208D01*
X162517445Y-65366670D01*
X162544452Y-65407088D01*
X163034119Y-65767276D01*
X165555395Y-63246000D01*
X165914605Y-63246000D01*
X168435881Y-65767276D01*
X168925548Y-65407088D01*
X169285849Y-64743118D01*
X169509694Y-64021615D01*
X169588480Y-63270305D01*
X169519178Y-62518062D01*
X169304452Y-61793792D01*
X168952555Y-61125330D01*
X168925548Y-61084912D01*
X168435881Y-60724724D01*
X165914605Y-63246000D01*
X165555395Y-63246000D01*
X163034119Y-60724724D01*
X162544452Y-61084912D01*
X162184151Y-61748882D01*
X161960306Y-62470385D01*
X161881520Y-63221695D01*
X130864072Y-63221695D01*
X130864072Y-61481000D01*
X130834999Y-61185814D01*
X130748896Y-60901972D01*
X130609073Y-60640382D01*
X130530893Y-60545119D01*
X163213724Y-60545119D01*
X165735000Y-63066395D01*
X168256276Y-60545119D01*
X167896088Y-60055452D01*
X167232118Y-59695151D01*
X166510615Y-59471306D01*
X165759305Y-59392520D01*
X165007062Y-59461822D01*
X164282792Y-59676548D01*
X163614330Y-60028445D01*
X163573912Y-60055452D01*
X163213724Y-60545119D01*
X130530893Y-60545119D01*
X130420903Y-60411097D01*
X130191618Y-60222927D01*
X129930028Y-60083104D01*
X129646186Y-59997001D01*
X129351000Y-59967928D01*
X127601000Y-59967928D01*
X127305814Y-59997001D01*
X127021972Y-60083104D01*
X126760382Y-60222927D01*
X126531097Y-60411097D01*
X126342927Y-60640382D01*
X126203104Y-60901972D01*
X126117001Y-61185814D01*
X126087928Y-61481000D01*
X126087928Y-63231000D01*
X126117001Y-63526186D01*
X126203104Y-63810028D01*
X126342927Y-64071618D01*
X126531097Y-64300903D01*
X126760382Y-64489073D01*
X127021972Y-64628896D01*
X127151160Y-64668085D01*
X125761750Y-64671000D01*
X125603000Y-64829750D01*
X125349000Y-64829750D01*
X125190250Y-64671000D01*
X123726000Y-64667928D01*
X123601518Y-64680188D01*
X123481820Y-64716498D01*
X123371506Y-64775463D01*
X123274815Y-64854815D01*
X123195463Y-64951506D01*
X123136498Y-65061820D01*
X123100188Y-65181518D01*
X123087928Y-65306000D01*
X117926403Y-65306000D01*
X118231849Y-64743118D01*
X118455694Y-64021615D01*
X118534480Y-63270305D01*
X118465178Y-62518062D01*
X118250452Y-61793792D01*
X117898555Y-61125330D01*
X117871548Y-61084912D01*
X117381881Y-60724724D01*
X114860605Y-63246000D01*
X114501395Y-63246000D01*
X111980119Y-60724724D01*
X111490452Y-61084912D01*
X111130151Y-61748882D01*
X110906306Y-62470385D01*
X110827520Y-63221695D01*
X110769000Y-63221695D01*
X110769000Y-60545119D01*
X112159724Y-60545119D01*
X114681000Y-63066395D01*
X117202276Y-60545119D01*
X116842088Y-60055452D01*
X116178118Y-59695151D01*
X115456615Y-59471306D01*
X114705305Y-59392520D01*
X113953062Y-59461822D01*
X113228792Y-59676548D01*
X112560330Y-60028445D01*
X112519912Y-60055452D01*
X112159724Y-60545119D01*
X110769000Y-60545119D01*
X110769000Y-59334000D01*
X169647000Y-59334000D01*
X169647001Y-145263000D01*
G37*
%TD.AperFunction*%
%TD*%
M02*
