%TF.GenerationSoftware,KiCad,Pcbnew,(5.1.9-0-10_14)*%
%TF.CreationDate,2021-08-10T16:49:40-04:00*%
%TF.ProjectId,led-tester,6c65642d-7465-4737-9465-722e6b696361,v1*%
%TF.SameCoordinates,Original*%
%TF.FileFunction,Legend,Top*%
%TF.FilePolarity,Positive*%
%FSLAX46Y46*%
G04 Gerber Fmt 4.6, Leading zero omitted, Abs format (unit mm)*
G04 Created by KiCad (PCBNEW (5.1.9-0-10_14)) date 2021-08-10 16:49:40*
%MOMM*%
%LPD*%
G01*
G04 APERTURE LIST*
%ADD10C,0.150000*%
%ADD11C,0.120000*%
G04 APERTURE END LIST*
D10*
X146226785Y-65858380D02*
X145750595Y-65858380D01*
X145750595Y-64858380D01*
X146560119Y-65334571D02*
X146893452Y-65334571D01*
X147036309Y-65858380D02*
X146560119Y-65858380D01*
X146560119Y-64858380D01*
X147036309Y-64858380D01*
X147464880Y-65858380D02*
X147464880Y-64858380D01*
X147702976Y-64858380D01*
X147845833Y-64906000D01*
X147941071Y-65001238D01*
X147988690Y-65096476D01*
X148036309Y-65286952D01*
X148036309Y-65429809D01*
X147988690Y-65620285D01*
X147941071Y-65715523D01*
X147845833Y-65810761D01*
X147702976Y-65858380D01*
X147464880Y-65858380D01*
X149083928Y-64858380D02*
X149655357Y-64858380D01*
X149369642Y-65858380D02*
X149369642Y-64858380D01*
X150369642Y-65810761D02*
X150274404Y-65858380D01*
X150083928Y-65858380D01*
X149988690Y-65810761D01*
X149941071Y-65715523D01*
X149941071Y-65334571D01*
X149988690Y-65239333D01*
X150083928Y-65191714D01*
X150274404Y-65191714D01*
X150369642Y-65239333D01*
X150417261Y-65334571D01*
X150417261Y-65429809D01*
X149941071Y-65525047D01*
X150798214Y-65810761D02*
X150893452Y-65858380D01*
X151083928Y-65858380D01*
X151179166Y-65810761D01*
X151226785Y-65715523D01*
X151226785Y-65667904D01*
X151179166Y-65572666D01*
X151083928Y-65525047D01*
X150941071Y-65525047D01*
X150845833Y-65477428D01*
X150798214Y-65382190D01*
X150798214Y-65334571D01*
X150845833Y-65239333D01*
X150941071Y-65191714D01*
X151083928Y-65191714D01*
X151179166Y-65239333D01*
X151512500Y-65191714D02*
X151893452Y-65191714D01*
X151655357Y-64858380D02*
X151655357Y-65715523D01*
X151702976Y-65810761D01*
X151798214Y-65858380D01*
X151893452Y-65858380D01*
X152607738Y-65810761D02*
X152512500Y-65858380D01*
X152322023Y-65858380D01*
X152226785Y-65810761D01*
X152179166Y-65715523D01*
X152179166Y-65334571D01*
X152226785Y-65239333D01*
X152322023Y-65191714D01*
X152512500Y-65191714D01*
X152607738Y-65239333D01*
X152655357Y-65334571D01*
X152655357Y-65429809D01*
X152179166Y-65525047D01*
X153083928Y-65858380D02*
X153083928Y-65191714D01*
X153083928Y-65382190D02*
X153131547Y-65286952D01*
X153179166Y-65239333D01*
X153274404Y-65191714D01*
X153369642Y-65191714D01*
X154369642Y-65191714D02*
X154607738Y-65858380D01*
X154845833Y-65191714D01*
X155750595Y-65858380D02*
X155179166Y-65858380D01*
X155464880Y-65858380D02*
X155464880Y-64858380D01*
X155369642Y-65001238D01*
X155274404Y-65096476D01*
X155179166Y-65144095D01*
X145702976Y-67222666D02*
X146179166Y-67222666D01*
X145607738Y-67508380D02*
X145941071Y-66508380D01*
X146274404Y-67508380D01*
X146607738Y-67508380D02*
X146607738Y-66508380D01*
X147179166Y-67508380D02*
X146750595Y-66936952D01*
X147179166Y-66508380D02*
X146607738Y-67079809D01*
X147607738Y-67508380D02*
X147607738Y-66508380D01*
X147941071Y-67222666D01*
X148274404Y-66508380D01*
X148274404Y-67508380D01*
X150083928Y-67413142D02*
X150036309Y-67460761D01*
X149893452Y-67508380D01*
X149798214Y-67508380D01*
X149655357Y-67460761D01*
X149560119Y-67365523D01*
X149512500Y-67270285D01*
X149464880Y-67079809D01*
X149464880Y-66936952D01*
X149512500Y-66746476D01*
X149560119Y-66651238D01*
X149655357Y-66556000D01*
X149798214Y-66508380D01*
X149893452Y-66508380D01*
X150036309Y-66556000D01*
X150083928Y-66603619D01*
X150512500Y-67508380D02*
X150512500Y-66841714D01*
X150512500Y-66508380D02*
X150464880Y-66556000D01*
X150512500Y-66603619D01*
X150560119Y-66556000D01*
X150512500Y-66508380D01*
X150512500Y-66603619D01*
X150988690Y-67508380D02*
X150988690Y-66841714D01*
X150988690Y-67032190D02*
X151036309Y-66936952D01*
X151083928Y-66889333D01*
X151179166Y-66841714D01*
X151274404Y-66841714D01*
X152036309Y-67460761D02*
X151941071Y-67508380D01*
X151750595Y-67508380D01*
X151655357Y-67460761D01*
X151607738Y-67413142D01*
X151560119Y-67317904D01*
X151560119Y-67032190D01*
X151607738Y-66936952D01*
X151655357Y-66889333D01*
X151750595Y-66841714D01*
X151941071Y-66841714D01*
X152036309Y-66889333D01*
X152893452Y-66841714D02*
X152893452Y-67508380D01*
X152464880Y-66841714D02*
X152464880Y-67365523D01*
X152512500Y-67460761D01*
X152607738Y-67508380D01*
X152750595Y-67508380D01*
X152845833Y-67460761D01*
X152893452Y-67413142D01*
X153369642Y-67508380D02*
X153369642Y-66841714D01*
X153369642Y-66508380D02*
X153322023Y-66556000D01*
X153369642Y-66603619D01*
X153417261Y-66556000D01*
X153369642Y-66508380D01*
X153369642Y-66603619D01*
X153702976Y-66841714D02*
X154083928Y-66841714D01*
X153845833Y-66508380D02*
X153845833Y-67365523D01*
X153893452Y-67460761D01*
X153988690Y-67508380D01*
X154083928Y-67508380D01*
X154369642Y-67460761D02*
X154464880Y-67508380D01*
X154655357Y-67508380D01*
X154750595Y-67460761D01*
X154798214Y-67365523D01*
X154798214Y-67317904D01*
X154750595Y-67222666D01*
X154655357Y-67175047D01*
X154512500Y-67175047D01*
X154417261Y-67127428D01*
X154369642Y-67032190D01*
X154369642Y-66984571D01*
X154417261Y-66889333D01*
X154512500Y-66841714D01*
X154655357Y-66841714D01*
X154750595Y-66889333D01*
X156464880Y-67508380D02*
X155988690Y-67508380D01*
X155988690Y-66508380D01*
X157274404Y-67508380D02*
X156798214Y-67508380D01*
X156798214Y-66508380D01*
X158179166Y-67413142D02*
X158131547Y-67460761D01*
X157988690Y-67508380D01*
X157893452Y-67508380D01*
X157750595Y-67460761D01*
X157655357Y-67365523D01*
X157607738Y-67270285D01*
X157560119Y-67079809D01*
X157560119Y-66936952D01*
X157607738Y-66746476D01*
X157655357Y-66651238D01*
X157750595Y-66556000D01*
X157893452Y-66508380D01*
X157988690Y-66508380D01*
X158131547Y-66556000D01*
X158179166Y-66603619D01*
X146322023Y-69063142D02*
X146274404Y-69110761D01*
X146131547Y-69158380D01*
X146036309Y-69158380D01*
X145893452Y-69110761D01*
X145798214Y-69015523D01*
X145750595Y-68920285D01*
X145702976Y-68729809D01*
X145702976Y-68586952D01*
X145750595Y-68396476D01*
X145798214Y-68301238D01*
X145893452Y-68206000D01*
X146036309Y-68158380D01*
X146131547Y-68158380D01*
X146274404Y-68206000D01*
X146322023Y-68253619D01*
X146893452Y-69158380D02*
X146798214Y-69110761D01*
X146750595Y-69063142D01*
X146702976Y-68967904D01*
X146702976Y-68682190D01*
X146750595Y-68586952D01*
X146798214Y-68539333D01*
X146893452Y-68491714D01*
X147036309Y-68491714D01*
X147131547Y-68539333D01*
X147179166Y-68586952D01*
X147226785Y-68682190D01*
X147226785Y-68967904D01*
X147179166Y-69063142D01*
X147131547Y-69110761D01*
X147036309Y-69158380D01*
X146893452Y-69158380D01*
X147655357Y-68491714D02*
X147655357Y-69491714D01*
X147655357Y-68539333D02*
X147750595Y-68491714D01*
X147941071Y-68491714D01*
X148036309Y-68539333D01*
X148083928Y-68586952D01*
X148131547Y-68682190D01*
X148131547Y-68967904D01*
X148083928Y-69063142D01*
X148036309Y-69110761D01*
X147941071Y-69158380D01*
X147750595Y-69158380D01*
X147655357Y-69110761D01*
X148464880Y-68491714D02*
X148702976Y-69158380D01*
X148941071Y-68491714D02*
X148702976Y-69158380D01*
X148607738Y-69396476D01*
X148560119Y-69444095D01*
X148464880Y-69491714D01*
X149322023Y-69158380D02*
X149322023Y-68491714D01*
X149322023Y-68682190D02*
X149369642Y-68586952D01*
X149417261Y-68539333D01*
X149512500Y-68491714D01*
X149607738Y-68491714D01*
X149941071Y-69158380D02*
X149941071Y-68491714D01*
X149941071Y-68158380D02*
X149893452Y-68206000D01*
X149941071Y-68253619D01*
X149988690Y-68206000D01*
X149941071Y-68158380D01*
X149941071Y-68253619D01*
X150845833Y-68491714D02*
X150845833Y-69301238D01*
X150798214Y-69396476D01*
X150750595Y-69444095D01*
X150655357Y-69491714D01*
X150512500Y-69491714D01*
X150417261Y-69444095D01*
X150845833Y-69110761D02*
X150750595Y-69158380D01*
X150560119Y-69158380D01*
X150464880Y-69110761D01*
X150417261Y-69063142D01*
X150369642Y-68967904D01*
X150369642Y-68682190D01*
X150417261Y-68586952D01*
X150464880Y-68539333D01*
X150560119Y-68491714D01*
X150750595Y-68491714D01*
X150845833Y-68539333D01*
X151322023Y-69158380D02*
X151322023Y-68158380D01*
X151750595Y-69158380D02*
X151750595Y-68634571D01*
X151702976Y-68539333D01*
X151607738Y-68491714D01*
X151464880Y-68491714D01*
X151369642Y-68539333D01*
X151322023Y-68586952D01*
X152083928Y-68491714D02*
X152464880Y-68491714D01*
X152226785Y-68158380D02*
X152226785Y-69015523D01*
X152274404Y-69110761D01*
X152369642Y-69158380D01*
X152464880Y-69158380D01*
X154369642Y-68396476D02*
X154274404Y-68348857D01*
X154083928Y-68348857D01*
X153988690Y-68396476D01*
X153893452Y-68491714D01*
X153845833Y-68586952D01*
X153845833Y-68777428D01*
X153893452Y-68872666D01*
X153988690Y-68967904D01*
X154083928Y-69015523D01*
X154274404Y-69015523D01*
X154369642Y-68967904D01*
X154179166Y-68015523D02*
X153941071Y-68063142D01*
X153702976Y-68206000D01*
X153560119Y-68444095D01*
X153512500Y-68682190D01*
X153560119Y-68920285D01*
X153702976Y-69158380D01*
X153941071Y-69301238D01*
X154179166Y-69348857D01*
X154417261Y-69301238D01*
X154655357Y-69158380D01*
X154798214Y-68920285D01*
X154845833Y-68682190D01*
X154798214Y-68444095D01*
X154655357Y-68206000D01*
X154417261Y-68063142D01*
X154179166Y-68015523D01*
X155988690Y-68253619D02*
X156036309Y-68206000D01*
X156131547Y-68158380D01*
X156369642Y-68158380D01*
X156464880Y-68206000D01*
X156512500Y-68253619D01*
X156560119Y-68348857D01*
X156560119Y-68444095D01*
X156512500Y-68586952D01*
X155941071Y-69158380D01*
X156560119Y-69158380D01*
X157179166Y-68158380D02*
X157274404Y-68158380D01*
X157369642Y-68206000D01*
X157417261Y-68253619D01*
X157464880Y-68348857D01*
X157512500Y-68539333D01*
X157512500Y-68777428D01*
X157464880Y-68967904D01*
X157417261Y-69063142D01*
X157369642Y-69110761D01*
X157274404Y-69158380D01*
X157179166Y-69158380D01*
X157083928Y-69110761D01*
X157036309Y-69063142D01*
X156988690Y-68967904D01*
X156941071Y-68777428D01*
X156941071Y-68539333D01*
X156988690Y-68348857D01*
X157036309Y-68253619D01*
X157083928Y-68206000D01*
X157179166Y-68158380D01*
X157893452Y-68253619D02*
X157941071Y-68206000D01*
X158036309Y-68158380D01*
X158274404Y-68158380D01*
X158369642Y-68206000D01*
X158417261Y-68253619D01*
X158464880Y-68348857D01*
X158464880Y-68444095D01*
X158417261Y-68586952D01*
X157845833Y-69158380D01*
X158464880Y-69158380D01*
X159417261Y-69158380D02*
X158845833Y-69158380D01*
X159131547Y-69158380D02*
X159131547Y-68158380D01*
X159036309Y-68301238D01*
X158941071Y-68396476D01*
X158845833Y-68444095D01*
D11*
%TO.C,BT1*%
X167478000Y-74181000D02*
X167478000Y-104381000D01*
X112978000Y-74181000D02*
X167478000Y-74181000D01*
X112978000Y-104381000D02*
X112978000Y-74181000D01*
X167478000Y-104381000D02*
X112978000Y-104381000D01*
%TO.C,R7*%
X138398000Y-112495000D02*
X138398000Y-112165000D01*
X131858000Y-112495000D02*
X138398000Y-112495000D01*
X131858000Y-112165000D02*
X131858000Y-112495000D01*
X138398000Y-109755000D02*
X138398000Y-110085000D01*
X131858000Y-109755000D02*
X138398000Y-109755000D01*
X131858000Y-110085000D02*
X131858000Y-109755000D01*
%TO.C,D1*%
X128996000Y-143447000D02*
X128996000Y-143603000D01*
X128996000Y-141131000D02*
X128996000Y-141287000D01*
X132228335Y-141288392D02*
G75*
G03*
X128996000Y-141131484I-1672335J-1078608D01*
G01*
X132228335Y-143445608D02*
G75*
G02*
X128996000Y-143602516I-1672335J1078608D01*
G01*
X131597130Y-141287163D02*
G75*
G03*
X129515039Y-141287000I-1041130J-1079837D01*
G01*
X131597130Y-143446837D02*
G75*
G02*
X129515039Y-143447000I-1041130J1079837D01*
G01*
%TO.C,D2*%
X128996000Y-137351000D02*
X128996000Y-137507000D01*
X128996000Y-135035000D02*
X128996000Y-135191000D01*
X132228335Y-135192392D02*
G75*
G03*
X128996000Y-135035484I-1672335J-1078608D01*
G01*
X132228335Y-137349608D02*
G75*
G02*
X128996000Y-137506516I-1672335J1078608D01*
G01*
X131597130Y-135191163D02*
G75*
G03*
X129515039Y-135191000I-1041130J-1079837D01*
G01*
X131597130Y-137350837D02*
G75*
G02*
X129515039Y-137351000I-1041130J1079837D01*
G01*
%TO.C,D3*%
X128996000Y-128939000D02*
X128996000Y-129095000D01*
X128996000Y-131255000D02*
X128996000Y-131411000D01*
X131597130Y-131254837D02*
G75*
G02*
X129515039Y-131255000I-1041130J1079837D01*
G01*
X131597130Y-129095163D02*
G75*
G03*
X129515039Y-129095000I-1041130J-1079837D01*
G01*
X132228335Y-131253608D02*
G75*
G02*
X128996000Y-131410516I-1672335J1078608D01*
G01*
X132228335Y-129096392D02*
G75*
G03*
X128996000Y-128939484I-1672335J-1078608D01*
G01*
%TO.C,D4*%
X128996000Y-125159000D02*
X128996000Y-125315000D01*
X128996000Y-122843000D02*
X128996000Y-122999000D01*
X132228335Y-123000392D02*
G75*
G03*
X128996000Y-122843484I-1672335J-1078608D01*
G01*
X132228335Y-125157608D02*
G75*
G02*
X128996000Y-125314516I-1672335J1078608D01*
G01*
X131597130Y-122999163D02*
G75*
G03*
X129515039Y-122999000I-1041130J-1079837D01*
G01*
X131597130Y-125158837D02*
G75*
G02*
X129515039Y-125159000I-1041130J1079837D01*
G01*
%TO.C,D5*%
X135473000Y-143447000D02*
X135473000Y-143603000D01*
X135473000Y-141131000D02*
X135473000Y-141287000D01*
X138705335Y-141288392D02*
G75*
G03*
X135473000Y-141131484I-1672335J-1078608D01*
G01*
X138705335Y-143445608D02*
G75*
G02*
X135473000Y-143602516I-1672335J1078608D01*
G01*
X138074130Y-141287163D02*
G75*
G03*
X135992039Y-141287000I-1041130J-1079837D01*
G01*
X138074130Y-143446837D02*
G75*
G02*
X135992039Y-143447000I-1041130J1079837D01*
G01*
%TO.C,D6*%
X135473000Y-137351000D02*
X135473000Y-137507000D01*
X135473000Y-135035000D02*
X135473000Y-135191000D01*
X138705335Y-135192392D02*
G75*
G03*
X135473000Y-135035484I-1672335J-1078608D01*
G01*
X138705335Y-137349608D02*
G75*
G02*
X135473000Y-137506516I-1672335J1078608D01*
G01*
X138074130Y-135191163D02*
G75*
G03*
X135992039Y-135191000I-1041130J-1079837D01*
G01*
X138074130Y-137350837D02*
G75*
G02*
X135992039Y-137351000I-1041130J1079837D01*
G01*
%TO.C,D7*%
X135473000Y-128939000D02*
X135473000Y-129095000D01*
X135473000Y-131255000D02*
X135473000Y-131411000D01*
X138074130Y-131254837D02*
G75*
G02*
X135992039Y-131255000I-1041130J1079837D01*
G01*
X138074130Y-129095163D02*
G75*
G03*
X135992039Y-129095000I-1041130J-1079837D01*
G01*
X138705335Y-131253608D02*
G75*
G02*
X135473000Y-131410516I-1672335J1078608D01*
G01*
X138705335Y-129096392D02*
G75*
G03*
X135473000Y-128939484I-1672335J-1078608D01*
G01*
%TO.C,D8*%
X135473000Y-125159000D02*
X135473000Y-125315000D01*
X135473000Y-122843000D02*
X135473000Y-122999000D01*
X138705335Y-123000392D02*
G75*
G03*
X135473000Y-122843484I-1672335J-1078608D01*
G01*
X138705335Y-125157608D02*
G75*
G02*
X135473000Y-125314516I-1672335J1078608D01*
G01*
X138074130Y-122999163D02*
G75*
G03*
X135992039Y-122999000I-1041130J-1079837D01*
G01*
X138074130Y-125158837D02*
G75*
G02*
X135992039Y-125159000I-1041130J1079837D01*
G01*
%TO.C,D9*%
X141950000Y-141131000D02*
X141950000Y-141287000D01*
X141950000Y-143447000D02*
X141950000Y-143603000D01*
X144551130Y-143446837D02*
G75*
G02*
X142469039Y-143447000I-1041130J1079837D01*
G01*
X144551130Y-141287163D02*
G75*
G03*
X142469039Y-141287000I-1041130J-1079837D01*
G01*
X145182335Y-143445608D02*
G75*
G02*
X141950000Y-143602516I-1672335J1078608D01*
G01*
X145182335Y-141288392D02*
G75*
G03*
X141950000Y-141131484I-1672335J-1078608D01*
G01*
%TO.C,D10*%
X141950000Y-135035000D02*
X141950000Y-135191000D01*
X141950000Y-137351000D02*
X141950000Y-137507000D01*
X144551130Y-137350837D02*
G75*
G02*
X142469039Y-137351000I-1041130J1079837D01*
G01*
X144551130Y-135191163D02*
G75*
G03*
X142469039Y-135191000I-1041130J-1079837D01*
G01*
X145182335Y-137349608D02*
G75*
G02*
X141950000Y-137506516I-1672335J1078608D01*
G01*
X145182335Y-135192392D02*
G75*
G03*
X141950000Y-135035484I-1672335J-1078608D01*
G01*
%TO.C,D11*%
X141950000Y-128939000D02*
X141950000Y-129095000D01*
X141950000Y-131255000D02*
X141950000Y-131411000D01*
X144551130Y-131254837D02*
G75*
G02*
X142469039Y-131255000I-1041130J1079837D01*
G01*
X144551130Y-129095163D02*
G75*
G03*
X142469039Y-129095000I-1041130J-1079837D01*
G01*
X145182335Y-131253608D02*
G75*
G02*
X141950000Y-131410516I-1672335J1078608D01*
G01*
X145182335Y-129096392D02*
G75*
G03*
X141950000Y-128939484I-1672335J-1078608D01*
G01*
%TO.C,D12*%
X141950000Y-122843000D02*
X141950000Y-122999000D01*
X141950000Y-125159000D02*
X141950000Y-125315000D01*
X144551130Y-125158837D02*
G75*
G02*
X142469039Y-125159000I-1041130J1079837D01*
G01*
X144551130Y-122999163D02*
G75*
G03*
X142469039Y-122999000I-1041130J-1079837D01*
G01*
X145182335Y-125157608D02*
G75*
G02*
X141950000Y-125314516I-1672335J1078608D01*
G01*
X145182335Y-123000392D02*
G75*
G03*
X141950000Y-122843484I-1672335J-1078608D01*
G01*
%TO.C,D13*%
X148427000Y-143447000D02*
X148427000Y-143603000D01*
X148427000Y-141131000D02*
X148427000Y-141287000D01*
X151659335Y-141288392D02*
G75*
G03*
X148427000Y-141131484I-1672335J-1078608D01*
G01*
X151659335Y-143445608D02*
G75*
G02*
X148427000Y-143602516I-1672335J1078608D01*
G01*
X151028130Y-141287163D02*
G75*
G03*
X148946039Y-141287000I-1041130J-1079837D01*
G01*
X151028130Y-143446837D02*
G75*
G02*
X148946039Y-143447000I-1041130J1079837D01*
G01*
%TO.C,D14*%
X148427000Y-137351000D02*
X148427000Y-137507000D01*
X148427000Y-135035000D02*
X148427000Y-135191000D01*
X151659335Y-135192392D02*
G75*
G03*
X148427000Y-135035484I-1672335J-1078608D01*
G01*
X151659335Y-137349608D02*
G75*
G02*
X148427000Y-137506516I-1672335J1078608D01*
G01*
X151028130Y-135191163D02*
G75*
G03*
X148946039Y-135191000I-1041130J-1079837D01*
G01*
X151028130Y-137350837D02*
G75*
G02*
X148946039Y-137351000I-1041130J1079837D01*
G01*
%TO.C,D15*%
X148427000Y-128939000D02*
X148427000Y-129095000D01*
X148427000Y-131255000D02*
X148427000Y-131411000D01*
X151028130Y-131254837D02*
G75*
G02*
X148946039Y-131255000I-1041130J1079837D01*
G01*
X151028130Y-129095163D02*
G75*
G03*
X148946039Y-129095000I-1041130J-1079837D01*
G01*
X151659335Y-131253608D02*
G75*
G02*
X148427000Y-131410516I-1672335J1078608D01*
G01*
X151659335Y-129096392D02*
G75*
G03*
X148427000Y-128939484I-1672335J-1078608D01*
G01*
%TO.C,D16*%
X148427000Y-125159000D02*
X148427000Y-125315000D01*
X148427000Y-122843000D02*
X148427000Y-122999000D01*
X151659335Y-123000392D02*
G75*
G03*
X148427000Y-122843484I-1672335J-1078608D01*
G01*
X151659335Y-125157608D02*
G75*
G02*
X148427000Y-125314516I-1672335J1078608D01*
G01*
X151028130Y-122999163D02*
G75*
G03*
X148946039Y-122999000I-1041130J-1079837D01*
G01*
X151028130Y-125158837D02*
G75*
G02*
X148946039Y-125159000I-1041130J1079837D01*
G01*
%TO.C,D17*%
X116640000Y-114843000D02*
X119580000Y-114843000D01*
X116640000Y-114603000D02*
X119580000Y-114603000D01*
X116640000Y-114723000D02*
X119580000Y-114723000D01*
X119580000Y-110183000D02*
X119450000Y-110183000D01*
X119580000Y-115623000D02*
X119580000Y-110183000D01*
X119450000Y-115623000D02*
X119580000Y-115623000D01*
X116640000Y-110183000D02*
X116770000Y-110183000D01*
X116640000Y-115623000D02*
X116640000Y-110183000D01*
X116770000Y-115623000D02*
X116640000Y-115623000D01*
%TO.C,J1*%
X124376000Y-70806000D02*
X124376000Y-71856000D01*
X125426000Y-71856000D02*
X124376000Y-71856000D01*
X130476000Y-62456000D02*
X139276000Y-62456000D01*
X139276000Y-62456000D02*
X139276000Y-71656000D01*
X124576000Y-65156000D02*
X124576000Y-62456000D01*
X124576000Y-62456000D02*
X126476000Y-62456000D01*
X139276000Y-71656000D02*
X124576000Y-71656000D01*
X124576000Y-71656000D02*
X124576000Y-69056000D01*
%TO.C,R1*%
X128238000Y-119353000D02*
X128238000Y-119023000D01*
X121698000Y-119353000D02*
X128238000Y-119353000D01*
X121698000Y-119023000D02*
X121698000Y-119353000D01*
X128238000Y-116613000D02*
X128238000Y-116943000D01*
X121698000Y-116613000D02*
X128238000Y-116613000D01*
X121698000Y-116943000D02*
X121698000Y-116613000D01*
%TO.C,R2*%
X128238000Y-115924000D02*
X128238000Y-115594000D01*
X121698000Y-115924000D02*
X128238000Y-115924000D01*
X121698000Y-115594000D02*
X121698000Y-115924000D01*
X128238000Y-113184000D02*
X128238000Y-113514000D01*
X121698000Y-113184000D02*
X128238000Y-113184000D01*
X121698000Y-113514000D02*
X121698000Y-113184000D01*
%TO.C,R3*%
X121698000Y-110085000D02*
X121698000Y-109755000D01*
X121698000Y-109755000D02*
X128238000Y-109755000D01*
X128238000Y-109755000D02*
X128238000Y-110085000D01*
X121698000Y-112165000D02*
X121698000Y-112495000D01*
X121698000Y-112495000D02*
X128238000Y-112495000D01*
X128238000Y-112495000D02*
X128238000Y-112165000D01*
%TO.C,R4*%
X128238000Y-109066000D02*
X128238000Y-108736000D01*
X121698000Y-109066000D02*
X128238000Y-109066000D01*
X121698000Y-108736000D02*
X121698000Y-109066000D01*
X128238000Y-106326000D02*
X128238000Y-106656000D01*
X121698000Y-106326000D02*
X128238000Y-106326000D01*
X121698000Y-106656000D02*
X121698000Y-106326000D01*
%TO.C,R5*%
X138398000Y-119353000D02*
X138398000Y-119023000D01*
X131858000Y-119353000D02*
X138398000Y-119353000D01*
X131858000Y-119023000D02*
X131858000Y-119353000D01*
X138398000Y-116613000D02*
X138398000Y-116943000D01*
X131858000Y-116613000D02*
X138398000Y-116613000D01*
X131858000Y-116943000D02*
X131858000Y-116613000D01*
%TO.C,R6*%
X131858000Y-113514000D02*
X131858000Y-113184000D01*
X131858000Y-113184000D02*
X138398000Y-113184000D01*
X138398000Y-113184000D02*
X138398000Y-113514000D01*
X131858000Y-115594000D02*
X131858000Y-115924000D01*
X131858000Y-115924000D02*
X138398000Y-115924000D01*
X138398000Y-115924000D02*
X138398000Y-115594000D01*
%TO.C,R8*%
X131858000Y-106656000D02*
X131858000Y-106326000D01*
X131858000Y-106326000D02*
X138398000Y-106326000D01*
X138398000Y-106326000D02*
X138398000Y-106656000D01*
X131858000Y-108736000D02*
X131858000Y-109066000D01*
X131858000Y-109066000D02*
X138398000Y-109066000D01*
X138398000Y-109066000D02*
X138398000Y-108736000D01*
%TO.C,R9*%
X142018000Y-116943000D02*
X142018000Y-116613000D01*
X142018000Y-116613000D02*
X148558000Y-116613000D01*
X148558000Y-116613000D02*
X148558000Y-116943000D01*
X142018000Y-119023000D02*
X142018000Y-119353000D01*
X142018000Y-119353000D02*
X148558000Y-119353000D01*
X148558000Y-119353000D02*
X148558000Y-119023000D01*
%TO.C,R10*%
X142018000Y-113514000D02*
X142018000Y-113184000D01*
X142018000Y-113184000D02*
X148558000Y-113184000D01*
X148558000Y-113184000D02*
X148558000Y-113514000D01*
X142018000Y-115594000D02*
X142018000Y-115924000D01*
X142018000Y-115924000D02*
X148558000Y-115924000D01*
X148558000Y-115924000D02*
X148558000Y-115594000D01*
%TO.C,R11*%
X142018000Y-110085000D02*
X142018000Y-109755000D01*
X142018000Y-109755000D02*
X148558000Y-109755000D01*
X148558000Y-109755000D02*
X148558000Y-110085000D01*
X142018000Y-112165000D02*
X142018000Y-112495000D01*
X142018000Y-112495000D02*
X148558000Y-112495000D01*
X148558000Y-112495000D02*
X148558000Y-112165000D01*
%TO.C,R12*%
X142018000Y-106656000D02*
X142018000Y-106326000D01*
X142018000Y-106326000D02*
X148558000Y-106326000D01*
X148558000Y-106326000D02*
X148558000Y-106656000D01*
X142018000Y-108736000D02*
X142018000Y-109066000D01*
X142018000Y-109066000D02*
X148558000Y-109066000D01*
X148558000Y-109066000D02*
X148558000Y-108736000D01*
%TO.C,R13*%
X158718000Y-119353000D02*
X158718000Y-119023000D01*
X152178000Y-119353000D02*
X158718000Y-119353000D01*
X152178000Y-119023000D02*
X152178000Y-119353000D01*
X158718000Y-116613000D02*
X158718000Y-116943000D01*
X152178000Y-116613000D02*
X158718000Y-116613000D01*
X152178000Y-116943000D02*
X152178000Y-116613000D01*
%TO.C,R14*%
X152178000Y-113514000D02*
X152178000Y-113184000D01*
X152178000Y-113184000D02*
X158718000Y-113184000D01*
X158718000Y-113184000D02*
X158718000Y-113514000D01*
X152178000Y-115594000D02*
X152178000Y-115924000D01*
X152178000Y-115924000D02*
X158718000Y-115924000D01*
X158718000Y-115924000D02*
X158718000Y-115594000D01*
%TO.C,R15*%
X158718000Y-112495000D02*
X158718000Y-112165000D01*
X152178000Y-112495000D02*
X158718000Y-112495000D01*
X152178000Y-112165000D02*
X152178000Y-112495000D01*
X158718000Y-109755000D02*
X158718000Y-110085000D01*
X152178000Y-109755000D02*
X158718000Y-109755000D01*
X152178000Y-110085000D02*
X152178000Y-109755000D01*
%TO.C,R16*%
X158718000Y-109066000D02*
X158718000Y-108736000D01*
X152178000Y-109066000D02*
X158718000Y-109066000D01*
X152178000Y-108736000D02*
X152178000Y-109066000D01*
X158718000Y-106326000D02*
X158718000Y-106656000D01*
X152178000Y-106326000D02*
X158718000Y-106326000D01*
X152178000Y-106656000D02*
X152178000Y-106326000D01*
%TO.C,SW1*%
X167767000Y-106299000D02*
X167767000Y-119253000D01*
X160782000Y-106299000D02*
X167767000Y-106299000D01*
X160655000Y-119253000D02*
X160782000Y-106299000D01*
X167767000Y-119253000D02*
X160655000Y-119253000D01*
%TO.C,BT1*%
D10*
X115292285Y-89209571D02*
X115435142Y-89257190D01*
X115482761Y-89304809D01*
X115530380Y-89400047D01*
X115530380Y-89542904D01*
X115482761Y-89638142D01*
X115435142Y-89685761D01*
X115339904Y-89733380D01*
X114958952Y-89733380D01*
X114958952Y-88733380D01*
X115292285Y-88733380D01*
X115387523Y-88781000D01*
X115435142Y-88828619D01*
X115482761Y-88923857D01*
X115482761Y-89019095D01*
X115435142Y-89114333D01*
X115387523Y-89161952D01*
X115292285Y-89209571D01*
X114958952Y-89209571D01*
X115816095Y-88733380D02*
X116387523Y-88733380D01*
X116101809Y-89733380D02*
X116101809Y-88733380D01*
X117244666Y-89733380D02*
X116673238Y-89733380D01*
X116958952Y-89733380D02*
X116958952Y-88733380D01*
X116863714Y-88876238D01*
X116768476Y-88971476D01*
X116673238Y-89019095D01*
%TO.C,R7*%
X134961333Y-111577380D02*
X134628000Y-111101190D01*
X134389904Y-111577380D02*
X134389904Y-110577380D01*
X134770857Y-110577380D01*
X134866095Y-110625000D01*
X134913714Y-110672619D01*
X134961333Y-110767857D01*
X134961333Y-110910714D01*
X134913714Y-111005952D01*
X134866095Y-111053571D01*
X134770857Y-111101190D01*
X134389904Y-111101190D01*
X135294666Y-110577380D02*
X135961333Y-110577380D01*
X135532761Y-111577380D01*
%TO.C,D1*%
X129817904Y-139898380D02*
X129817904Y-138898380D01*
X130056000Y-138898380D01*
X130198857Y-138946000D01*
X130294095Y-139041238D01*
X130341714Y-139136476D01*
X130389333Y-139326952D01*
X130389333Y-139469809D01*
X130341714Y-139660285D01*
X130294095Y-139755523D01*
X130198857Y-139850761D01*
X130056000Y-139898380D01*
X129817904Y-139898380D01*
X131341714Y-139898380D02*
X130770285Y-139898380D01*
X131056000Y-139898380D02*
X131056000Y-138898380D01*
X130960761Y-139041238D01*
X130865523Y-139136476D01*
X130770285Y-139184095D01*
%TO.C,D2*%
X129817904Y-133802380D02*
X129817904Y-132802380D01*
X130056000Y-132802380D01*
X130198857Y-132850000D01*
X130294095Y-132945238D01*
X130341714Y-133040476D01*
X130389333Y-133230952D01*
X130389333Y-133373809D01*
X130341714Y-133564285D01*
X130294095Y-133659523D01*
X130198857Y-133754761D01*
X130056000Y-133802380D01*
X129817904Y-133802380D01*
X130770285Y-132897619D02*
X130817904Y-132850000D01*
X130913142Y-132802380D01*
X131151238Y-132802380D01*
X131246476Y-132850000D01*
X131294095Y-132897619D01*
X131341714Y-132992857D01*
X131341714Y-133088095D01*
X131294095Y-133230952D01*
X130722666Y-133802380D01*
X131341714Y-133802380D01*
%TO.C,D3*%
X129817904Y-127706380D02*
X129817904Y-126706380D01*
X130056000Y-126706380D01*
X130198857Y-126754000D01*
X130294095Y-126849238D01*
X130341714Y-126944476D01*
X130389333Y-127134952D01*
X130389333Y-127277809D01*
X130341714Y-127468285D01*
X130294095Y-127563523D01*
X130198857Y-127658761D01*
X130056000Y-127706380D01*
X129817904Y-127706380D01*
X130722666Y-126706380D02*
X131341714Y-126706380D01*
X131008380Y-127087333D01*
X131151238Y-127087333D01*
X131246476Y-127134952D01*
X131294095Y-127182571D01*
X131341714Y-127277809D01*
X131341714Y-127515904D01*
X131294095Y-127611142D01*
X131246476Y-127658761D01*
X131151238Y-127706380D01*
X130865523Y-127706380D01*
X130770285Y-127658761D01*
X130722666Y-127611142D01*
%TO.C,D4*%
X129817904Y-121610380D02*
X129817904Y-120610380D01*
X130056000Y-120610380D01*
X130198857Y-120658000D01*
X130294095Y-120753238D01*
X130341714Y-120848476D01*
X130389333Y-121038952D01*
X130389333Y-121181809D01*
X130341714Y-121372285D01*
X130294095Y-121467523D01*
X130198857Y-121562761D01*
X130056000Y-121610380D01*
X129817904Y-121610380D01*
X131246476Y-120943714D02*
X131246476Y-121610380D01*
X131008380Y-120562761D02*
X130770285Y-121277047D01*
X131389333Y-121277047D01*
%TO.C,D5*%
X136294904Y-139898380D02*
X136294904Y-138898380D01*
X136533000Y-138898380D01*
X136675857Y-138946000D01*
X136771095Y-139041238D01*
X136818714Y-139136476D01*
X136866333Y-139326952D01*
X136866333Y-139469809D01*
X136818714Y-139660285D01*
X136771095Y-139755523D01*
X136675857Y-139850761D01*
X136533000Y-139898380D01*
X136294904Y-139898380D01*
X137771095Y-138898380D02*
X137294904Y-138898380D01*
X137247285Y-139374571D01*
X137294904Y-139326952D01*
X137390142Y-139279333D01*
X137628238Y-139279333D01*
X137723476Y-139326952D01*
X137771095Y-139374571D01*
X137818714Y-139469809D01*
X137818714Y-139707904D01*
X137771095Y-139803142D01*
X137723476Y-139850761D01*
X137628238Y-139898380D01*
X137390142Y-139898380D01*
X137294904Y-139850761D01*
X137247285Y-139803142D01*
%TO.C,D6*%
X136294904Y-133802380D02*
X136294904Y-132802380D01*
X136533000Y-132802380D01*
X136675857Y-132850000D01*
X136771095Y-132945238D01*
X136818714Y-133040476D01*
X136866333Y-133230952D01*
X136866333Y-133373809D01*
X136818714Y-133564285D01*
X136771095Y-133659523D01*
X136675857Y-133754761D01*
X136533000Y-133802380D01*
X136294904Y-133802380D01*
X137723476Y-132802380D02*
X137533000Y-132802380D01*
X137437761Y-132850000D01*
X137390142Y-132897619D01*
X137294904Y-133040476D01*
X137247285Y-133230952D01*
X137247285Y-133611904D01*
X137294904Y-133707142D01*
X137342523Y-133754761D01*
X137437761Y-133802380D01*
X137628238Y-133802380D01*
X137723476Y-133754761D01*
X137771095Y-133707142D01*
X137818714Y-133611904D01*
X137818714Y-133373809D01*
X137771095Y-133278571D01*
X137723476Y-133230952D01*
X137628238Y-133183333D01*
X137437761Y-133183333D01*
X137342523Y-133230952D01*
X137294904Y-133278571D01*
X137247285Y-133373809D01*
%TO.C,D7*%
X136294904Y-127706380D02*
X136294904Y-126706380D01*
X136533000Y-126706380D01*
X136675857Y-126754000D01*
X136771095Y-126849238D01*
X136818714Y-126944476D01*
X136866333Y-127134952D01*
X136866333Y-127277809D01*
X136818714Y-127468285D01*
X136771095Y-127563523D01*
X136675857Y-127658761D01*
X136533000Y-127706380D01*
X136294904Y-127706380D01*
X137199666Y-126706380D02*
X137866333Y-126706380D01*
X137437761Y-127706380D01*
%TO.C,D8*%
X136294904Y-121610380D02*
X136294904Y-120610380D01*
X136533000Y-120610380D01*
X136675857Y-120658000D01*
X136771095Y-120753238D01*
X136818714Y-120848476D01*
X136866333Y-121038952D01*
X136866333Y-121181809D01*
X136818714Y-121372285D01*
X136771095Y-121467523D01*
X136675857Y-121562761D01*
X136533000Y-121610380D01*
X136294904Y-121610380D01*
X137437761Y-121038952D02*
X137342523Y-120991333D01*
X137294904Y-120943714D01*
X137247285Y-120848476D01*
X137247285Y-120800857D01*
X137294904Y-120705619D01*
X137342523Y-120658000D01*
X137437761Y-120610380D01*
X137628238Y-120610380D01*
X137723476Y-120658000D01*
X137771095Y-120705619D01*
X137818714Y-120800857D01*
X137818714Y-120848476D01*
X137771095Y-120943714D01*
X137723476Y-120991333D01*
X137628238Y-121038952D01*
X137437761Y-121038952D01*
X137342523Y-121086571D01*
X137294904Y-121134190D01*
X137247285Y-121229428D01*
X137247285Y-121419904D01*
X137294904Y-121515142D01*
X137342523Y-121562761D01*
X137437761Y-121610380D01*
X137628238Y-121610380D01*
X137723476Y-121562761D01*
X137771095Y-121515142D01*
X137818714Y-121419904D01*
X137818714Y-121229428D01*
X137771095Y-121134190D01*
X137723476Y-121086571D01*
X137628238Y-121038952D01*
%TO.C,D9*%
X142771904Y-139898380D02*
X142771904Y-138898380D01*
X143010000Y-138898380D01*
X143152857Y-138946000D01*
X143248095Y-139041238D01*
X143295714Y-139136476D01*
X143343333Y-139326952D01*
X143343333Y-139469809D01*
X143295714Y-139660285D01*
X143248095Y-139755523D01*
X143152857Y-139850761D01*
X143010000Y-139898380D01*
X142771904Y-139898380D01*
X143819523Y-139898380D02*
X144010000Y-139898380D01*
X144105238Y-139850761D01*
X144152857Y-139803142D01*
X144248095Y-139660285D01*
X144295714Y-139469809D01*
X144295714Y-139088857D01*
X144248095Y-138993619D01*
X144200476Y-138946000D01*
X144105238Y-138898380D01*
X143914761Y-138898380D01*
X143819523Y-138946000D01*
X143771904Y-138993619D01*
X143724285Y-139088857D01*
X143724285Y-139326952D01*
X143771904Y-139422190D01*
X143819523Y-139469809D01*
X143914761Y-139517428D01*
X144105238Y-139517428D01*
X144200476Y-139469809D01*
X144248095Y-139422190D01*
X144295714Y-139326952D01*
%TO.C,D10*%
X142422714Y-133802380D02*
X142422714Y-132802380D01*
X142660809Y-132802380D01*
X142803666Y-132850000D01*
X142898904Y-132945238D01*
X142946523Y-133040476D01*
X142994142Y-133230952D01*
X142994142Y-133373809D01*
X142946523Y-133564285D01*
X142898904Y-133659523D01*
X142803666Y-133754761D01*
X142660809Y-133802380D01*
X142422714Y-133802380D01*
X143946523Y-133802380D02*
X143375095Y-133802380D01*
X143660809Y-133802380D02*
X143660809Y-132802380D01*
X143565571Y-132945238D01*
X143470333Y-133040476D01*
X143375095Y-133088095D01*
X144565571Y-132802380D02*
X144660809Y-132802380D01*
X144756047Y-132850000D01*
X144803666Y-132897619D01*
X144851285Y-132992857D01*
X144898904Y-133183333D01*
X144898904Y-133421428D01*
X144851285Y-133611904D01*
X144803666Y-133707142D01*
X144756047Y-133754761D01*
X144660809Y-133802380D01*
X144565571Y-133802380D01*
X144470333Y-133754761D01*
X144422714Y-133707142D01*
X144375095Y-133611904D01*
X144327476Y-133421428D01*
X144327476Y-133183333D01*
X144375095Y-132992857D01*
X144422714Y-132897619D01*
X144470333Y-132850000D01*
X144565571Y-132802380D01*
%TO.C,D11*%
X142295714Y-127706380D02*
X142295714Y-126706380D01*
X142533809Y-126706380D01*
X142676666Y-126754000D01*
X142771904Y-126849238D01*
X142819523Y-126944476D01*
X142867142Y-127134952D01*
X142867142Y-127277809D01*
X142819523Y-127468285D01*
X142771904Y-127563523D01*
X142676666Y-127658761D01*
X142533809Y-127706380D01*
X142295714Y-127706380D01*
X143819523Y-127706380D02*
X143248095Y-127706380D01*
X143533809Y-127706380D02*
X143533809Y-126706380D01*
X143438571Y-126849238D01*
X143343333Y-126944476D01*
X143248095Y-126992095D01*
X144771904Y-127706380D02*
X144200476Y-127706380D01*
X144486190Y-127706380D02*
X144486190Y-126706380D01*
X144390952Y-126849238D01*
X144295714Y-126944476D01*
X144200476Y-126992095D01*
%TO.C,D12*%
X142295714Y-121610380D02*
X142295714Y-120610380D01*
X142533809Y-120610380D01*
X142676666Y-120658000D01*
X142771904Y-120753238D01*
X142819523Y-120848476D01*
X142867142Y-121038952D01*
X142867142Y-121181809D01*
X142819523Y-121372285D01*
X142771904Y-121467523D01*
X142676666Y-121562761D01*
X142533809Y-121610380D01*
X142295714Y-121610380D01*
X143819523Y-121610380D02*
X143248095Y-121610380D01*
X143533809Y-121610380D02*
X143533809Y-120610380D01*
X143438571Y-120753238D01*
X143343333Y-120848476D01*
X143248095Y-120896095D01*
X144200476Y-120705619D02*
X144248095Y-120658000D01*
X144343333Y-120610380D01*
X144581428Y-120610380D01*
X144676666Y-120658000D01*
X144724285Y-120705619D01*
X144771904Y-120800857D01*
X144771904Y-120896095D01*
X144724285Y-121038952D01*
X144152857Y-121610380D01*
X144771904Y-121610380D01*
%TO.C,D13*%
X148772714Y-139898380D02*
X148772714Y-138898380D01*
X149010809Y-138898380D01*
X149153666Y-138946000D01*
X149248904Y-139041238D01*
X149296523Y-139136476D01*
X149344142Y-139326952D01*
X149344142Y-139469809D01*
X149296523Y-139660285D01*
X149248904Y-139755523D01*
X149153666Y-139850761D01*
X149010809Y-139898380D01*
X148772714Y-139898380D01*
X150296523Y-139898380D02*
X149725095Y-139898380D01*
X150010809Y-139898380D02*
X150010809Y-138898380D01*
X149915571Y-139041238D01*
X149820333Y-139136476D01*
X149725095Y-139184095D01*
X150629857Y-138898380D02*
X151248904Y-138898380D01*
X150915571Y-139279333D01*
X151058428Y-139279333D01*
X151153666Y-139326952D01*
X151201285Y-139374571D01*
X151248904Y-139469809D01*
X151248904Y-139707904D01*
X151201285Y-139803142D01*
X151153666Y-139850761D01*
X151058428Y-139898380D01*
X150772714Y-139898380D01*
X150677476Y-139850761D01*
X150629857Y-139803142D01*
%TO.C,D14*%
X148772714Y-133802380D02*
X148772714Y-132802380D01*
X149010809Y-132802380D01*
X149153666Y-132850000D01*
X149248904Y-132945238D01*
X149296523Y-133040476D01*
X149344142Y-133230952D01*
X149344142Y-133373809D01*
X149296523Y-133564285D01*
X149248904Y-133659523D01*
X149153666Y-133754761D01*
X149010809Y-133802380D01*
X148772714Y-133802380D01*
X150296523Y-133802380D02*
X149725095Y-133802380D01*
X150010809Y-133802380D02*
X150010809Y-132802380D01*
X149915571Y-132945238D01*
X149820333Y-133040476D01*
X149725095Y-133088095D01*
X151153666Y-133135714D02*
X151153666Y-133802380D01*
X150915571Y-132754761D02*
X150677476Y-133469047D01*
X151296523Y-133469047D01*
%TO.C,D15*%
X148772714Y-127706380D02*
X148772714Y-126706380D01*
X149010809Y-126706380D01*
X149153666Y-126754000D01*
X149248904Y-126849238D01*
X149296523Y-126944476D01*
X149344142Y-127134952D01*
X149344142Y-127277809D01*
X149296523Y-127468285D01*
X149248904Y-127563523D01*
X149153666Y-127658761D01*
X149010809Y-127706380D01*
X148772714Y-127706380D01*
X150296523Y-127706380D02*
X149725095Y-127706380D01*
X150010809Y-127706380D02*
X150010809Y-126706380D01*
X149915571Y-126849238D01*
X149820333Y-126944476D01*
X149725095Y-126992095D01*
X151201285Y-126706380D02*
X150725095Y-126706380D01*
X150677476Y-127182571D01*
X150725095Y-127134952D01*
X150820333Y-127087333D01*
X151058428Y-127087333D01*
X151153666Y-127134952D01*
X151201285Y-127182571D01*
X151248904Y-127277809D01*
X151248904Y-127515904D01*
X151201285Y-127611142D01*
X151153666Y-127658761D01*
X151058428Y-127706380D01*
X150820333Y-127706380D01*
X150725095Y-127658761D01*
X150677476Y-127611142D01*
%TO.C,D16*%
X148772714Y-121610380D02*
X148772714Y-120610380D01*
X149010809Y-120610380D01*
X149153666Y-120658000D01*
X149248904Y-120753238D01*
X149296523Y-120848476D01*
X149344142Y-121038952D01*
X149344142Y-121181809D01*
X149296523Y-121372285D01*
X149248904Y-121467523D01*
X149153666Y-121562761D01*
X149010809Y-121610380D01*
X148772714Y-121610380D01*
X150296523Y-121610380D02*
X149725095Y-121610380D01*
X150010809Y-121610380D02*
X150010809Y-120610380D01*
X149915571Y-120753238D01*
X149820333Y-120848476D01*
X149725095Y-120896095D01*
X151153666Y-120610380D02*
X150963190Y-120610380D01*
X150867952Y-120658000D01*
X150820333Y-120705619D01*
X150725095Y-120848476D01*
X150677476Y-121038952D01*
X150677476Y-121419904D01*
X150725095Y-121515142D01*
X150772714Y-121562761D01*
X150867952Y-121610380D01*
X151058428Y-121610380D01*
X151153666Y-121562761D01*
X151201285Y-121515142D01*
X151248904Y-121419904D01*
X151248904Y-121181809D01*
X151201285Y-121086571D01*
X151153666Y-121038952D01*
X151058428Y-120991333D01*
X150867952Y-120991333D01*
X150772714Y-121038952D01*
X150725095Y-121086571D01*
X150677476Y-121181809D01*
%TO.C,D17*%
X118562380Y-113736285D02*
X117562380Y-113736285D01*
X117562380Y-113498190D01*
X117610000Y-113355333D01*
X117705238Y-113260095D01*
X117800476Y-113212476D01*
X117990952Y-113164857D01*
X118133809Y-113164857D01*
X118324285Y-113212476D01*
X118419523Y-113260095D01*
X118514761Y-113355333D01*
X118562380Y-113498190D01*
X118562380Y-113736285D01*
X118562380Y-112212476D02*
X118562380Y-112783904D01*
X118562380Y-112498190D02*
X117562380Y-112498190D01*
X117705238Y-112593428D01*
X117800476Y-112688666D01*
X117848095Y-112783904D01*
X117562380Y-111879142D02*
X117562380Y-111212476D01*
X118562380Y-111641047D01*
%TO.C,J1*%
X131111666Y-63460380D02*
X131111666Y-64174666D01*
X131064047Y-64317523D01*
X130968809Y-64412761D01*
X130825952Y-64460380D01*
X130730714Y-64460380D01*
X132111666Y-64460380D02*
X131540238Y-64460380D01*
X131825952Y-64460380D02*
X131825952Y-63460380D01*
X131730714Y-63603238D01*
X131635476Y-63698476D01*
X131540238Y-63746095D01*
X130271238Y-72008380D02*
X130604571Y-73008380D01*
X130937904Y-72008380D01*
X131033142Y-73103619D02*
X131795047Y-73103619D01*
X132033142Y-73008380D02*
X132033142Y-72008380D01*
X132509333Y-72341714D02*
X132509333Y-73008380D01*
X132509333Y-72436952D02*
X132556952Y-72389333D01*
X132652190Y-72341714D01*
X132795047Y-72341714D01*
X132890285Y-72389333D01*
X132937904Y-72484571D01*
X132937904Y-73008380D01*
%TO.C,R1*%
X124801333Y-118435380D02*
X124468000Y-117959190D01*
X124229904Y-118435380D02*
X124229904Y-117435380D01*
X124610857Y-117435380D01*
X124706095Y-117483000D01*
X124753714Y-117530619D01*
X124801333Y-117625857D01*
X124801333Y-117768714D01*
X124753714Y-117863952D01*
X124706095Y-117911571D01*
X124610857Y-117959190D01*
X124229904Y-117959190D01*
X125753714Y-118435380D02*
X125182285Y-118435380D01*
X125468000Y-118435380D02*
X125468000Y-117435380D01*
X125372761Y-117578238D01*
X125277523Y-117673476D01*
X125182285Y-117721095D01*
%TO.C,R2*%
X124801333Y-115006380D02*
X124468000Y-114530190D01*
X124229904Y-115006380D02*
X124229904Y-114006380D01*
X124610857Y-114006380D01*
X124706095Y-114054000D01*
X124753714Y-114101619D01*
X124801333Y-114196857D01*
X124801333Y-114339714D01*
X124753714Y-114434952D01*
X124706095Y-114482571D01*
X124610857Y-114530190D01*
X124229904Y-114530190D01*
X125182285Y-114101619D02*
X125229904Y-114054000D01*
X125325142Y-114006380D01*
X125563238Y-114006380D01*
X125658476Y-114054000D01*
X125706095Y-114101619D01*
X125753714Y-114196857D01*
X125753714Y-114292095D01*
X125706095Y-114434952D01*
X125134666Y-115006380D01*
X125753714Y-115006380D01*
%TO.C,R3*%
X124801333Y-111577380D02*
X124468000Y-111101190D01*
X124229904Y-111577380D02*
X124229904Y-110577380D01*
X124610857Y-110577380D01*
X124706095Y-110625000D01*
X124753714Y-110672619D01*
X124801333Y-110767857D01*
X124801333Y-110910714D01*
X124753714Y-111005952D01*
X124706095Y-111053571D01*
X124610857Y-111101190D01*
X124229904Y-111101190D01*
X125134666Y-110577380D02*
X125753714Y-110577380D01*
X125420380Y-110958333D01*
X125563238Y-110958333D01*
X125658476Y-111005952D01*
X125706095Y-111053571D01*
X125753714Y-111148809D01*
X125753714Y-111386904D01*
X125706095Y-111482142D01*
X125658476Y-111529761D01*
X125563238Y-111577380D01*
X125277523Y-111577380D01*
X125182285Y-111529761D01*
X125134666Y-111482142D01*
%TO.C,R4*%
X124801333Y-108148380D02*
X124468000Y-107672190D01*
X124229904Y-108148380D02*
X124229904Y-107148380D01*
X124610857Y-107148380D01*
X124706095Y-107196000D01*
X124753714Y-107243619D01*
X124801333Y-107338857D01*
X124801333Y-107481714D01*
X124753714Y-107576952D01*
X124706095Y-107624571D01*
X124610857Y-107672190D01*
X124229904Y-107672190D01*
X125658476Y-107481714D02*
X125658476Y-108148380D01*
X125420380Y-107100761D02*
X125182285Y-107815047D01*
X125801333Y-107815047D01*
%TO.C,R5*%
X134961333Y-118435380D02*
X134628000Y-117959190D01*
X134389904Y-118435380D02*
X134389904Y-117435380D01*
X134770857Y-117435380D01*
X134866095Y-117483000D01*
X134913714Y-117530619D01*
X134961333Y-117625857D01*
X134961333Y-117768714D01*
X134913714Y-117863952D01*
X134866095Y-117911571D01*
X134770857Y-117959190D01*
X134389904Y-117959190D01*
X135866095Y-117435380D02*
X135389904Y-117435380D01*
X135342285Y-117911571D01*
X135389904Y-117863952D01*
X135485142Y-117816333D01*
X135723238Y-117816333D01*
X135818476Y-117863952D01*
X135866095Y-117911571D01*
X135913714Y-118006809D01*
X135913714Y-118244904D01*
X135866095Y-118340142D01*
X135818476Y-118387761D01*
X135723238Y-118435380D01*
X135485142Y-118435380D01*
X135389904Y-118387761D01*
X135342285Y-118340142D01*
%TO.C,R6*%
X134961333Y-115006380D02*
X134628000Y-114530190D01*
X134389904Y-115006380D02*
X134389904Y-114006380D01*
X134770857Y-114006380D01*
X134866095Y-114054000D01*
X134913714Y-114101619D01*
X134961333Y-114196857D01*
X134961333Y-114339714D01*
X134913714Y-114434952D01*
X134866095Y-114482571D01*
X134770857Y-114530190D01*
X134389904Y-114530190D01*
X135818476Y-114006380D02*
X135628000Y-114006380D01*
X135532761Y-114054000D01*
X135485142Y-114101619D01*
X135389904Y-114244476D01*
X135342285Y-114434952D01*
X135342285Y-114815904D01*
X135389904Y-114911142D01*
X135437523Y-114958761D01*
X135532761Y-115006380D01*
X135723238Y-115006380D01*
X135818476Y-114958761D01*
X135866095Y-114911142D01*
X135913714Y-114815904D01*
X135913714Y-114577809D01*
X135866095Y-114482571D01*
X135818476Y-114434952D01*
X135723238Y-114387333D01*
X135532761Y-114387333D01*
X135437523Y-114434952D01*
X135389904Y-114482571D01*
X135342285Y-114577809D01*
%TO.C,R8*%
X134961333Y-108148380D02*
X134628000Y-107672190D01*
X134389904Y-108148380D02*
X134389904Y-107148380D01*
X134770857Y-107148380D01*
X134866095Y-107196000D01*
X134913714Y-107243619D01*
X134961333Y-107338857D01*
X134961333Y-107481714D01*
X134913714Y-107576952D01*
X134866095Y-107624571D01*
X134770857Y-107672190D01*
X134389904Y-107672190D01*
X135532761Y-107576952D02*
X135437523Y-107529333D01*
X135389904Y-107481714D01*
X135342285Y-107386476D01*
X135342285Y-107338857D01*
X135389904Y-107243619D01*
X135437523Y-107196000D01*
X135532761Y-107148380D01*
X135723238Y-107148380D01*
X135818476Y-107196000D01*
X135866095Y-107243619D01*
X135913714Y-107338857D01*
X135913714Y-107386476D01*
X135866095Y-107481714D01*
X135818476Y-107529333D01*
X135723238Y-107576952D01*
X135532761Y-107576952D01*
X135437523Y-107624571D01*
X135389904Y-107672190D01*
X135342285Y-107767428D01*
X135342285Y-107957904D01*
X135389904Y-108053142D01*
X135437523Y-108100761D01*
X135532761Y-108148380D01*
X135723238Y-108148380D01*
X135818476Y-108100761D01*
X135866095Y-108053142D01*
X135913714Y-107957904D01*
X135913714Y-107767428D01*
X135866095Y-107672190D01*
X135818476Y-107624571D01*
X135723238Y-107576952D01*
%TO.C,R9*%
X145121333Y-118435380D02*
X144788000Y-117959190D01*
X144549904Y-118435380D02*
X144549904Y-117435380D01*
X144930857Y-117435380D01*
X145026095Y-117483000D01*
X145073714Y-117530619D01*
X145121333Y-117625857D01*
X145121333Y-117768714D01*
X145073714Y-117863952D01*
X145026095Y-117911571D01*
X144930857Y-117959190D01*
X144549904Y-117959190D01*
X145597523Y-118435380D02*
X145788000Y-118435380D01*
X145883238Y-118387761D01*
X145930857Y-118340142D01*
X146026095Y-118197285D01*
X146073714Y-118006809D01*
X146073714Y-117625857D01*
X146026095Y-117530619D01*
X145978476Y-117483000D01*
X145883238Y-117435380D01*
X145692761Y-117435380D01*
X145597523Y-117483000D01*
X145549904Y-117530619D01*
X145502285Y-117625857D01*
X145502285Y-117863952D01*
X145549904Y-117959190D01*
X145597523Y-118006809D01*
X145692761Y-118054428D01*
X145883238Y-118054428D01*
X145978476Y-118006809D01*
X146026095Y-117959190D01*
X146073714Y-117863952D01*
%TO.C,R10*%
X144645142Y-115006380D02*
X144311809Y-114530190D01*
X144073714Y-115006380D02*
X144073714Y-114006380D01*
X144454666Y-114006380D01*
X144549904Y-114054000D01*
X144597523Y-114101619D01*
X144645142Y-114196857D01*
X144645142Y-114339714D01*
X144597523Y-114434952D01*
X144549904Y-114482571D01*
X144454666Y-114530190D01*
X144073714Y-114530190D01*
X145597523Y-115006380D02*
X145026095Y-115006380D01*
X145311809Y-115006380D02*
X145311809Y-114006380D01*
X145216571Y-114149238D01*
X145121333Y-114244476D01*
X145026095Y-114292095D01*
X146216571Y-114006380D02*
X146311809Y-114006380D01*
X146407047Y-114054000D01*
X146454666Y-114101619D01*
X146502285Y-114196857D01*
X146549904Y-114387333D01*
X146549904Y-114625428D01*
X146502285Y-114815904D01*
X146454666Y-114911142D01*
X146407047Y-114958761D01*
X146311809Y-115006380D01*
X146216571Y-115006380D01*
X146121333Y-114958761D01*
X146073714Y-114911142D01*
X146026095Y-114815904D01*
X145978476Y-114625428D01*
X145978476Y-114387333D01*
X146026095Y-114196857D01*
X146073714Y-114101619D01*
X146121333Y-114054000D01*
X146216571Y-114006380D01*
%TO.C,R11*%
X144645142Y-111577380D02*
X144311809Y-111101190D01*
X144073714Y-111577380D02*
X144073714Y-110577380D01*
X144454666Y-110577380D01*
X144549904Y-110625000D01*
X144597523Y-110672619D01*
X144645142Y-110767857D01*
X144645142Y-110910714D01*
X144597523Y-111005952D01*
X144549904Y-111053571D01*
X144454666Y-111101190D01*
X144073714Y-111101190D01*
X145597523Y-111577380D02*
X145026095Y-111577380D01*
X145311809Y-111577380D02*
X145311809Y-110577380D01*
X145216571Y-110720238D01*
X145121333Y-110815476D01*
X145026095Y-110863095D01*
X146549904Y-111577380D02*
X145978476Y-111577380D01*
X146264190Y-111577380D02*
X146264190Y-110577380D01*
X146168952Y-110720238D01*
X146073714Y-110815476D01*
X145978476Y-110863095D01*
%TO.C,R12*%
X144645142Y-108148380D02*
X144311809Y-107672190D01*
X144073714Y-108148380D02*
X144073714Y-107148380D01*
X144454666Y-107148380D01*
X144549904Y-107196000D01*
X144597523Y-107243619D01*
X144645142Y-107338857D01*
X144645142Y-107481714D01*
X144597523Y-107576952D01*
X144549904Y-107624571D01*
X144454666Y-107672190D01*
X144073714Y-107672190D01*
X145597523Y-108148380D02*
X145026095Y-108148380D01*
X145311809Y-108148380D02*
X145311809Y-107148380D01*
X145216571Y-107291238D01*
X145121333Y-107386476D01*
X145026095Y-107434095D01*
X145978476Y-107243619D02*
X146026095Y-107196000D01*
X146121333Y-107148380D01*
X146359428Y-107148380D01*
X146454666Y-107196000D01*
X146502285Y-107243619D01*
X146549904Y-107338857D01*
X146549904Y-107434095D01*
X146502285Y-107576952D01*
X145930857Y-108148380D01*
X146549904Y-108148380D01*
%TO.C,R13*%
X154805142Y-118435380D02*
X154471809Y-117959190D01*
X154233714Y-118435380D02*
X154233714Y-117435380D01*
X154614666Y-117435380D01*
X154709904Y-117483000D01*
X154757523Y-117530619D01*
X154805142Y-117625857D01*
X154805142Y-117768714D01*
X154757523Y-117863952D01*
X154709904Y-117911571D01*
X154614666Y-117959190D01*
X154233714Y-117959190D01*
X155757523Y-118435380D02*
X155186095Y-118435380D01*
X155471809Y-118435380D02*
X155471809Y-117435380D01*
X155376571Y-117578238D01*
X155281333Y-117673476D01*
X155186095Y-117721095D01*
X156090857Y-117435380D02*
X156709904Y-117435380D01*
X156376571Y-117816333D01*
X156519428Y-117816333D01*
X156614666Y-117863952D01*
X156662285Y-117911571D01*
X156709904Y-118006809D01*
X156709904Y-118244904D01*
X156662285Y-118340142D01*
X156614666Y-118387761D01*
X156519428Y-118435380D01*
X156233714Y-118435380D01*
X156138476Y-118387761D01*
X156090857Y-118340142D01*
%TO.C,R14*%
X154805142Y-115006380D02*
X154471809Y-114530190D01*
X154233714Y-115006380D02*
X154233714Y-114006380D01*
X154614666Y-114006380D01*
X154709904Y-114054000D01*
X154757523Y-114101619D01*
X154805142Y-114196857D01*
X154805142Y-114339714D01*
X154757523Y-114434952D01*
X154709904Y-114482571D01*
X154614666Y-114530190D01*
X154233714Y-114530190D01*
X155757523Y-115006380D02*
X155186095Y-115006380D01*
X155471809Y-115006380D02*
X155471809Y-114006380D01*
X155376571Y-114149238D01*
X155281333Y-114244476D01*
X155186095Y-114292095D01*
X156614666Y-114339714D02*
X156614666Y-115006380D01*
X156376571Y-113958761D02*
X156138476Y-114673047D01*
X156757523Y-114673047D01*
%TO.C,R15*%
X154805142Y-111577380D02*
X154471809Y-111101190D01*
X154233714Y-111577380D02*
X154233714Y-110577380D01*
X154614666Y-110577380D01*
X154709904Y-110625000D01*
X154757523Y-110672619D01*
X154805142Y-110767857D01*
X154805142Y-110910714D01*
X154757523Y-111005952D01*
X154709904Y-111053571D01*
X154614666Y-111101190D01*
X154233714Y-111101190D01*
X155757523Y-111577380D02*
X155186095Y-111577380D01*
X155471809Y-111577380D02*
X155471809Y-110577380D01*
X155376571Y-110720238D01*
X155281333Y-110815476D01*
X155186095Y-110863095D01*
X156662285Y-110577380D02*
X156186095Y-110577380D01*
X156138476Y-111053571D01*
X156186095Y-111005952D01*
X156281333Y-110958333D01*
X156519428Y-110958333D01*
X156614666Y-111005952D01*
X156662285Y-111053571D01*
X156709904Y-111148809D01*
X156709904Y-111386904D01*
X156662285Y-111482142D01*
X156614666Y-111529761D01*
X156519428Y-111577380D01*
X156281333Y-111577380D01*
X156186095Y-111529761D01*
X156138476Y-111482142D01*
%TO.C,R16*%
X154805142Y-108148380D02*
X154471809Y-107672190D01*
X154233714Y-108148380D02*
X154233714Y-107148380D01*
X154614666Y-107148380D01*
X154709904Y-107196000D01*
X154757523Y-107243619D01*
X154805142Y-107338857D01*
X154805142Y-107481714D01*
X154757523Y-107576952D01*
X154709904Y-107624571D01*
X154614666Y-107672190D01*
X154233714Y-107672190D01*
X155757523Y-108148380D02*
X155186095Y-108148380D01*
X155471809Y-108148380D02*
X155471809Y-107148380D01*
X155376571Y-107291238D01*
X155281333Y-107386476D01*
X155186095Y-107434095D01*
X156614666Y-107148380D02*
X156424190Y-107148380D01*
X156328952Y-107196000D01*
X156281333Y-107243619D01*
X156186095Y-107386476D01*
X156138476Y-107576952D01*
X156138476Y-107957904D01*
X156186095Y-108053142D01*
X156233714Y-108100761D01*
X156328952Y-108148380D01*
X156519428Y-108148380D01*
X156614666Y-108100761D01*
X156662285Y-108053142D01*
X156709904Y-107957904D01*
X156709904Y-107719809D01*
X156662285Y-107624571D01*
X156614666Y-107576952D01*
X156519428Y-107529333D01*
X156328952Y-107529333D01*
X156233714Y-107576952D01*
X156186095Y-107624571D01*
X156138476Y-107719809D01*
%TO.C,SW1*%
X162877666Y-115466761D02*
X163020523Y-115514380D01*
X163258619Y-115514380D01*
X163353857Y-115466761D01*
X163401476Y-115419142D01*
X163449095Y-115323904D01*
X163449095Y-115228666D01*
X163401476Y-115133428D01*
X163353857Y-115085809D01*
X163258619Y-115038190D01*
X163068142Y-114990571D01*
X162972904Y-114942952D01*
X162925285Y-114895333D01*
X162877666Y-114800095D01*
X162877666Y-114704857D01*
X162925285Y-114609619D01*
X162972904Y-114562000D01*
X163068142Y-114514380D01*
X163306238Y-114514380D01*
X163449095Y-114562000D01*
X163782428Y-114514380D02*
X164020523Y-115514380D01*
X164211000Y-114800095D01*
X164401476Y-115514380D01*
X164639571Y-114514380D01*
X165544333Y-115514380D02*
X164972904Y-115514380D01*
X165258619Y-115514380D02*
X165258619Y-114514380D01*
X165163380Y-114657238D01*
X165068142Y-114752476D01*
X164972904Y-114800095D01*
X161449095Y-120721380D02*
X161449095Y-119721380D01*
X161830047Y-119721380D01*
X161925285Y-119769000D01*
X161972904Y-119816619D01*
X162020523Y-119911857D01*
X162020523Y-120054714D01*
X161972904Y-120149952D01*
X161925285Y-120197571D01*
X161830047Y-120245190D01*
X161449095Y-120245190D01*
X162353857Y-119721380D02*
X162591952Y-120721380D01*
X162782428Y-120007095D01*
X162972904Y-120721380D01*
X163211000Y-119721380D01*
X164163380Y-120721380D02*
X163830047Y-120245190D01*
X163591952Y-120721380D02*
X163591952Y-119721380D01*
X163972904Y-119721380D01*
X164068142Y-119769000D01*
X164115761Y-119816619D01*
X164163380Y-119911857D01*
X164163380Y-120054714D01*
X164115761Y-120149952D01*
X164068142Y-120197571D01*
X163972904Y-120245190D01*
X163591952Y-120245190D01*
X164353857Y-120816619D02*
X165115761Y-120816619D01*
X165306238Y-120673761D02*
X165449095Y-120721380D01*
X165687190Y-120721380D01*
X165782428Y-120673761D01*
X165830047Y-120626142D01*
X165877666Y-120530904D01*
X165877666Y-120435666D01*
X165830047Y-120340428D01*
X165782428Y-120292809D01*
X165687190Y-120245190D01*
X165496714Y-120197571D01*
X165401476Y-120149952D01*
X165353857Y-120102333D01*
X165306238Y-120007095D01*
X165306238Y-119911857D01*
X165353857Y-119816619D01*
X165401476Y-119769000D01*
X165496714Y-119721380D01*
X165734809Y-119721380D01*
X165877666Y-119769000D01*
X166211000Y-119721380D02*
X166449095Y-120721380D01*
X166639571Y-120007095D01*
X166830047Y-120721380D01*
X167068142Y-119721380D01*
%TD*%
M02*
