%TF.GenerationSoftware,KiCad,Pcbnew,(5.1.9-0-10_14)*%
%TF.CreationDate,2021-08-10T16:49:40-04:00*%
%TF.ProjectId,led-tester,6c65642d-7465-4737-9465-722e6b696361,v1*%
%TF.SameCoordinates,Original*%
%TF.FileFunction,Soldermask,Bot*%
%TF.FilePolarity,Negative*%
%FSLAX46Y46*%
G04 Gerber Fmt 4.6, Leading zero omitted, Abs format (unit mm)*
G04 Created by KiCad (PCBNEW (5.1.9-0-10_14)) date 2021-08-10 16:49:40*
%MOMM*%
%LPD*%
G01*
G04 APERTURE LIST*
%ADD10C,3.101600*%
%ADD11C,2.701600*%
%ADD12C,1.701600*%
%ADD13O,1.701600X1.701600*%
%ADD14C,0.901600*%
%ADD15C,6.501600*%
%ADD16C,1.901600*%
%ADD17O,2.301600X2.301600*%
%ADD18O,3.025350X1.755350*%
G04 APERTURE END LIST*
D10*
%TO.C,BT1*%
X116078000Y-95631000D03*
G36*
G01*
X117628800Y-81431000D02*
X117628800Y-84431000D01*
G75*
G02*
X117578000Y-84481800I-50800J0D01*
G01*
X114578000Y-84481800D01*
G75*
G02*
X114527200Y-84431000I0J50800D01*
G01*
X114527200Y-81431000D01*
G75*
G02*
X114578000Y-81380200I50800J0D01*
G01*
X117578000Y-81380200D01*
G75*
G02*
X117628800Y-81431000I0J-50800D01*
G01*
G37*
D11*
X126978000Y-100381000D03*
X154978000Y-100381000D03*
X140978000Y-78181000D03*
%TD*%
D12*
%TO.C,R7*%
X131318000Y-111125000D03*
D13*
X138938000Y-111125000D03*
%TD*%
D14*
%TO.C,H4*%
X167432056Y-139653944D03*
X165735000Y-138951000D03*
X164037944Y-139653944D03*
X163335000Y-141351000D03*
X164037944Y-143048056D03*
X165735000Y-143751000D03*
X167432056Y-143048056D03*
X168135000Y-141351000D03*
D15*
X165735000Y-141351000D03*
%TD*%
D14*
%TO.C,H3*%
X167432056Y-61548944D03*
X165735000Y-60846000D03*
X164037944Y-61548944D03*
X163335000Y-63246000D03*
X164037944Y-64943056D03*
X165735000Y-65646000D03*
X167432056Y-64943056D03*
X168135000Y-63246000D03*
D15*
X165735000Y-63246000D03*
%TD*%
D14*
%TO.C,H2*%
X116378056Y-139653944D03*
X114681000Y-138951000D03*
X112983944Y-139653944D03*
X112281000Y-141351000D03*
X112983944Y-143048056D03*
X114681000Y-143751000D03*
X116378056Y-143048056D03*
X117081000Y-141351000D03*
D15*
X114681000Y-141351000D03*
%TD*%
D14*
%TO.C,H1*%
X116378056Y-61548944D03*
X114681000Y-60846000D03*
X112983944Y-61548944D03*
X112281000Y-63246000D03*
X112983944Y-64943056D03*
X114681000Y-65646000D03*
X116378056Y-64943056D03*
X117081000Y-63246000D03*
D15*
X114681000Y-63246000D03*
%TD*%
%TO.C,D1*%
G36*
G01*
X128335200Y-143267000D02*
X128335200Y-141467000D01*
G75*
G02*
X128386000Y-141416200I50800J0D01*
G01*
X130186000Y-141416200D01*
G75*
G02*
X130236800Y-141467000I0J-50800D01*
G01*
X130236800Y-143267000D01*
G75*
G02*
X130186000Y-143317800I-50800J0D01*
G01*
X128386000Y-143317800D01*
G75*
G02*
X128335200Y-143267000I0J50800D01*
G01*
G37*
D16*
X131826000Y-142367000D03*
%TD*%
%TO.C,D2*%
G36*
G01*
X128335200Y-137171000D02*
X128335200Y-135371000D01*
G75*
G02*
X128386000Y-135320200I50800J0D01*
G01*
X130186000Y-135320200D01*
G75*
G02*
X130236800Y-135371000I0J-50800D01*
G01*
X130236800Y-137171000D01*
G75*
G02*
X130186000Y-137221800I-50800J0D01*
G01*
X128386000Y-137221800D01*
G75*
G02*
X128335200Y-137171000I0J50800D01*
G01*
G37*
X131826000Y-136271000D03*
%TD*%
%TO.C,D3*%
X131826000Y-130175000D03*
G36*
G01*
X128335200Y-131075000D02*
X128335200Y-129275000D01*
G75*
G02*
X128386000Y-129224200I50800J0D01*
G01*
X130186000Y-129224200D01*
G75*
G02*
X130236800Y-129275000I0J-50800D01*
G01*
X130236800Y-131075000D01*
G75*
G02*
X130186000Y-131125800I-50800J0D01*
G01*
X128386000Y-131125800D01*
G75*
G02*
X128335200Y-131075000I0J50800D01*
G01*
G37*
%TD*%
%TO.C,D4*%
G36*
G01*
X128335200Y-124979000D02*
X128335200Y-123179000D01*
G75*
G02*
X128386000Y-123128200I50800J0D01*
G01*
X130186000Y-123128200D01*
G75*
G02*
X130236800Y-123179000I0J-50800D01*
G01*
X130236800Y-124979000D01*
G75*
G02*
X130186000Y-125029800I-50800J0D01*
G01*
X128386000Y-125029800D01*
G75*
G02*
X128335200Y-124979000I0J50800D01*
G01*
G37*
X131826000Y-124079000D03*
%TD*%
%TO.C,D5*%
G36*
G01*
X134812200Y-143267000D02*
X134812200Y-141467000D01*
G75*
G02*
X134863000Y-141416200I50800J0D01*
G01*
X136663000Y-141416200D01*
G75*
G02*
X136713800Y-141467000I0J-50800D01*
G01*
X136713800Y-143267000D01*
G75*
G02*
X136663000Y-143317800I-50800J0D01*
G01*
X134863000Y-143317800D01*
G75*
G02*
X134812200Y-143267000I0J50800D01*
G01*
G37*
X138303000Y-142367000D03*
%TD*%
%TO.C,D6*%
G36*
G01*
X134812200Y-137171000D02*
X134812200Y-135371000D01*
G75*
G02*
X134863000Y-135320200I50800J0D01*
G01*
X136663000Y-135320200D01*
G75*
G02*
X136713800Y-135371000I0J-50800D01*
G01*
X136713800Y-137171000D01*
G75*
G02*
X136663000Y-137221800I-50800J0D01*
G01*
X134863000Y-137221800D01*
G75*
G02*
X134812200Y-137171000I0J50800D01*
G01*
G37*
X138303000Y-136271000D03*
%TD*%
%TO.C,D7*%
X138303000Y-130175000D03*
G36*
G01*
X134812200Y-131075000D02*
X134812200Y-129275000D01*
G75*
G02*
X134863000Y-129224200I50800J0D01*
G01*
X136663000Y-129224200D01*
G75*
G02*
X136713800Y-129275000I0J-50800D01*
G01*
X136713800Y-131075000D01*
G75*
G02*
X136663000Y-131125800I-50800J0D01*
G01*
X134863000Y-131125800D01*
G75*
G02*
X134812200Y-131075000I0J50800D01*
G01*
G37*
%TD*%
%TO.C,D8*%
G36*
G01*
X134812200Y-124979000D02*
X134812200Y-123179000D01*
G75*
G02*
X134863000Y-123128200I50800J0D01*
G01*
X136663000Y-123128200D01*
G75*
G02*
X136713800Y-123179000I0J-50800D01*
G01*
X136713800Y-124979000D01*
G75*
G02*
X136663000Y-125029800I-50800J0D01*
G01*
X134863000Y-125029800D01*
G75*
G02*
X134812200Y-124979000I0J50800D01*
G01*
G37*
X138303000Y-124079000D03*
%TD*%
%TO.C,D9*%
X144780000Y-142367000D03*
G36*
G01*
X141289200Y-143267000D02*
X141289200Y-141467000D01*
G75*
G02*
X141340000Y-141416200I50800J0D01*
G01*
X143140000Y-141416200D01*
G75*
G02*
X143190800Y-141467000I0J-50800D01*
G01*
X143190800Y-143267000D01*
G75*
G02*
X143140000Y-143317800I-50800J0D01*
G01*
X141340000Y-143317800D01*
G75*
G02*
X141289200Y-143267000I0J50800D01*
G01*
G37*
%TD*%
%TO.C,D10*%
X144780000Y-136271000D03*
G36*
G01*
X141289200Y-137171000D02*
X141289200Y-135371000D01*
G75*
G02*
X141340000Y-135320200I50800J0D01*
G01*
X143140000Y-135320200D01*
G75*
G02*
X143190800Y-135371000I0J-50800D01*
G01*
X143190800Y-137171000D01*
G75*
G02*
X143140000Y-137221800I-50800J0D01*
G01*
X141340000Y-137221800D01*
G75*
G02*
X141289200Y-137171000I0J50800D01*
G01*
G37*
%TD*%
%TO.C,D11*%
X144780000Y-130175000D03*
G36*
G01*
X141289200Y-131075000D02*
X141289200Y-129275000D01*
G75*
G02*
X141340000Y-129224200I50800J0D01*
G01*
X143140000Y-129224200D01*
G75*
G02*
X143190800Y-129275000I0J-50800D01*
G01*
X143190800Y-131075000D01*
G75*
G02*
X143140000Y-131125800I-50800J0D01*
G01*
X141340000Y-131125800D01*
G75*
G02*
X141289200Y-131075000I0J50800D01*
G01*
G37*
%TD*%
%TO.C,D12*%
X144780000Y-124079000D03*
G36*
G01*
X141289200Y-124979000D02*
X141289200Y-123179000D01*
G75*
G02*
X141340000Y-123128200I50800J0D01*
G01*
X143140000Y-123128200D01*
G75*
G02*
X143190800Y-123179000I0J-50800D01*
G01*
X143190800Y-124979000D01*
G75*
G02*
X143140000Y-125029800I-50800J0D01*
G01*
X141340000Y-125029800D01*
G75*
G02*
X141289200Y-124979000I0J50800D01*
G01*
G37*
%TD*%
%TO.C,D13*%
G36*
G01*
X147766200Y-143267000D02*
X147766200Y-141467000D01*
G75*
G02*
X147817000Y-141416200I50800J0D01*
G01*
X149617000Y-141416200D01*
G75*
G02*
X149667800Y-141467000I0J-50800D01*
G01*
X149667800Y-143267000D01*
G75*
G02*
X149617000Y-143317800I-50800J0D01*
G01*
X147817000Y-143317800D01*
G75*
G02*
X147766200Y-143267000I0J50800D01*
G01*
G37*
X151257000Y-142367000D03*
%TD*%
%TO.C,D14*%
G36*
G01*
X147766200Y-137171000D02*
X147766200Y-135371000D01*
G75*
G02*
X147817000Y-135320200I50800J0D01*
G01*
X149617000Y-135320200D01*
G75*
G02*
X149667800Y-135371000I0J-50800D01*
G01*
X149667800Y-137171000D01*
G75*
G02*
X149617000Y-137221800I-50800J0D01*
G01*
X147817000Y-137221800D01*
G75*
G02*
X147766200Y-137171000I0J50800D01*
G01*
G37*
X151257000Y-136271000D03*
%TD*%
%TO.C,D15*%
X151257000Y-130175000D03*
G36*
G01*
X147766200Y-131075000D02*
X147766200Y-129275000D01*
G75*
G02*
X147817000Y-129224200I50800J0D01*
G01*
X149617000Y-129224200D01*
G75*
G02*
X149667800Y-129275000I0J-50800D01*
G01*
X149667800Y-131075000D01*
G75*
G02*
X149617000Y-131125800I-50800J0D01*
G01*
X147817000Y-131125800D01*
G75*
G02*
X147766200Y-131075000I0J50800D01*
G01*
G37*
%TD*%
%TO.C,D16*%
G36*
G01*
X147766200Y-124979000D02*
X147766200Y-123179000D01*
G75*
G02*
X147817000Y-123128200I50800J0D01*
G01*
X149617000Y-123128200D01*
G75*
G02*
X149667800Y-123179000I0J-50800D01*
G01*
X149667800Y-124979000D01*
G75*
G02*
X149617000Y-125029800I-50800J0D01*
G01*
X147817000Y-125029800D01*
G75*
G02*
X147766200Y-124979000I0J50800D01*
G01*
G37*
X151257000Y-124079000D03*
%TD*%
%TO.C,D17*%
G36*
G01*
X119210000Y-117863800D02*
X117010000Y-117863800D01*
G75*
G02*
X116959200Y-117813000I0J50800D01*
G01*
X116959200Y-115613000D01*
G75*
G02*
X117010000Y-115562200I50800J0D01*
G01*
X119210000Y-115562200D01*
G75*
G02*
X119260800Y-115613000I0J-50800D01*
G01*
X119260800Y-117813000D01*
G75*
G02*
X119210000Y-117863800I-50800J0D01*
G01*
G37*
D17*
X118110000Y-109093000D03*
%TD*%
%TO.C,J1*%
G36*
G01*
X130276800Y-61455600D02*
X130276800Y-63256400D01*
G75*
G02*
X129376400Y-64156800I-900400J0D01*
G01*
X127575600Y-64156800D01*
G75*
G02*
X126675200Y-63256400I0J900400D01*
G01*
X126675200Y-61455600D01*
G75*
G02*
X127575600Y-60555200I900400J0D01*
G01*
X129376400Y-60555200D01*
G75*
G02*
X130276800Y-61455600I0J-900400D01*
G01*
G37*
G36*
G01*
X133026800Y-66030600D02*
X133026800Y-68081400D01*
G75*
G02*
X132251400Y-68856800I-775400J0D01*
G01*
X130700600Y-68856800D01*
G75*
G02*
X129925200Y-68081400I0J775400D01*
G01*
X129925200Y-66030600D01*
G75*
G02*
X130700600Y-65255200I775400J0D01*
G01*
X132251400Y-65255200D01*
G75*
G02*
X133026800Y-66030600I0J-775400D01*
G01*
G37*
G36*
G01*
X127276800Y-65306000D02*
X127276800Y-68806000D01*
G75*
G02*
X127226000Y-68856800I-50800J0D01*
G01*
X123726000Y-68856800D01*
G75*
G02*
X123675200Y-68806000I0J50800D01*
G01*
X123675200Y-65306000D01*
G75*
G02*
X123726000Y-65255200I50800J0D01*
G01*
X127226000Y-65255200D01*
G75*
G02*
X127276800Y-65306000I0J-50800D01*
G01*
G37*
%TD*%
D12*
%TO.C,R1*%
X121158000Y-117983000D03*
D13*
X128778000Y-117983000D03*
%TD*%
D12*
%TO.C,R2*%
X121158000Y-114554000D03*
D13*
X128778000Y-114554000D03*
%TD*%
%TO.C,R3*%
X128778000Y-111125000D03*
D12*
X121158000Y-111125000D03*
%TD*%
%TO.C,R4*%
X121158000Y-107696000D03*
D13*
X128778000Y-107696000D03*
%TD*%
D12*
%TO.C,R5*%
X131318000Y-117983000D03*
D13*
X138938000Y-117983000D03*
%TD*%
%TO.C,R6*%
X138938000Y-114554000D03*
D12*
X131318000Y-114554000D03*
%TD*%
D13*
%TO.C,R8*%
X138938000Y-107696000D03*
D12*
X131318000Y-107696000D03*
%TD*%
D13*
%TO.C,R9*%
X149098000Y-117983000D03*
D12*
X141478000Y-117983000D03*
%TD*%
D13*
%TO.C,R10*%
X149098000Y-114554000D03*
D12*
X141478000Y-114554000D03*
%TD*%
D13*
%TO.C,R11*%
X149098000Y-111125000D03*
D12*
X141478000Y-111125000D03*
%TD*%
D13*
%TO.C,R12*%
X149098000Y-107696000D03*
D12*
X141478000Y-107696000D03*
%TD*%
%TO.C,R13*%
X151638000Y-117983000D03*
D13*
X159258000Y-117983000D03*
%TD*%
%TO.C,R14*%
X159258000Y-114554000D03*
D12*
X151638000Y-114554000D03*
%TD*%
%TO.C,R15*%
X151638000Y-111125000D03*
D13*
X159258000Y-111125000D03*
%TD*%
D12*
%TO.C,R16*%
X151638000Y-107696000D03*
D13*
X159258000Y-107696000D03*
%TD*%
D18*
%TO.C,SW1*%
X164211000Y-117475000D03*
X164211000Y-112775000D03*
X164211000Y-108075000D03*
%TD*%
M02*
